<?xml version="1.0" encoding="UTF-8" standalone="no"?>
<svg
   clip-rule="evenodd"
   fill-rule="evenodd"
   viewBox="0 0 404.25415 153.68063"
   version="1.1"
   id="svg31"
   sodipodi:docname="capitalone.svg"
   width="404.25415"
   height="153.68063"
   inkscape:version="1.1.1 (3bf5ae0d25, 2021-09-20)"
   xmlns:inkscape="http://www.inkscape.org/namespaces/inkscape"
   xmlns:sodipodi="http://sodipodi.sourceforge.net/DTD/sodipodi-0.dtd"
   xmlns="http://www.w3.org/2000/svg"
   xmlns:svg="http://www.w3.org/2000/svg">
  <defs
     id="defs35" />
  <sodipodi:namedview
     id="namedview33"
     pagecolor="#505050"
     bordercolor="#eeeeee"
     borderopacity="1"
     inkscape:pageshadow="0"
     inkscape:pageopacity="0"
     inkscape:pagecheckerboard="0"
     showgrid="false"
     fit-margin-top="10"
     lock-margins="true"
     fit-margin-left="10"
     fit-margin-right="10"
     fit-margin-bottom="10"
     inkscape:zoom="1.47375"
     inkscape:cx="248.68533"
     inkscape:cy="189.99152"
     inkscape:window-width="1718"
     inkscape:window-height="1378"
     inkscape:window-x="1433"
     inkscape:window-y="930"
     inkscape:window-maximized="0"
     inkscape:current-layer="svg31" />
  <path
     d="m 262.65415,106.74124 c -15.9,11.3 -34.7,23.1 -54.9,35.4 l -0.8,0.5 c -0.3,0.2 -0.3,0.6 -0.1,0.8 0.2,0.3 0.6,0.3 0.8,0.1 l 0.7,-0.4 c 17.1,-8.9 36.8,-19.6 56.6,-30.5 l 0.3,-0.2 c -1,-1.6 -1.9,-3.6 -2.6,-5.7 z m 104.1,-84.299999 c -25,-27.6 -185.8,-2.8 -254.2,12.2 l -1.6,0.3 c -0.3,0.1 -0.5,0.4 -0.5,0.7 0.1,0.3 0.4,0.5 0.7,0.5 l 1.6,-0.3 c 56.7,-10.1 174.5,-24.1 199.9,1.1 7.7,7.7 5.9,17.6 -3.1,29.2 4.8,3.1 8.3,8 9.8,14.1 35,-23.3 58.6,-45.5 47.4,-57.8 z"
     fill="#d03027"
     id="path23" />
  <g
     fill="#004977"
     id="g29"
     transform="translate(-77.872852,-123.15976)">
    <path
       d="m 350.727,222.601 c 0.3,9.7 6.5,17.6 14.5,17.6 15.5,0 22.1,-19 21.7,-31.8 -0.3,-9.7 -6.6,-17.7 -14.6,-17.7 -13.5,0.2 -22.1,19.1 -21.6,31.9 z m -8.2,-0.5 c -0.6,-16.6 12.4,-33.5 31.2,-33.5 12.6,0 20.8,8.4 21.3,21.3 0.6,17.5 -11.5,33.5 -31.2,33.5 -12.6,0 -20.9,-8.4 -21.3,-21.3 z m -178.5,-4.4 c -0.7,0.3 -1.5,0.5 -2.6,0.7 -1.1,0.2 -3,0.6 -5.9,1 -2,0.3 -3.3,0.7 -4.1,1.3 -0.7,0.6 -1.2,1.2 -1.3,2 -0.2,0.9 0.1,1.5 0.9,2.1 0.8,0.5 2,0.8 3.8,0.8 1.3,0 2.6,-0.2 3.9,-0.6 1.3,-0.4 2.4,-1 3.2,-1.7 0.6,-0.5 1,-1.2 1.4,-2 0.1,-0.5 0.4,-1.7 0.7,-3.6 z m 16.4,-10.1 c -0.1,1.5 -0.3,2.9 -0.7,5.2 l -2.8,15.6 c -0.2,1.4 0.3,2.5 1.6,3.2 l -0.1,0.6 h -15.9 l -0.1,-4 c -2.3,1.4 -5.1,2.6 -7.6,3.3 -2.5,0.6 -4.5,0.9 -7.6,0.9 -5.1,0 -8.1,-0.5 -10.1,-2.3 -2.1,-1.8 -3.1,-3 -3,-5.6 0.1,-1.4 0.8,-3.3 1.9,-4.6 1.1,-1.3 2.6,-2.2 4.2,-2.9 1.6,-0.8 3.6,-1.3 6.4,-1.8 2.8,-0.5 6.7,-0.9 11.9,-1.3 2.7,-0.2 4.4,-0.9 5.2,-1.2 1.1,-0.4 1.5,-0.9 1.7,-1.8 0.3,-1.6 -0.2,-2.5 -2.3,-2.9 -5.7,-1.1 -16.4,0.7 -22,2.1 l 3,-8.1 c 7.3,-1.1 14.1,-1.7 21.3,-1.7 11.4,-0.2 15.1,3.1 15,7.3 z m 46,24.5 5.5,-31.1 h 15.2 l -5.5,31.1 z m 6.3,-38.3 c 0.5,-2.6 4.5,-4.6 9,-4.6 4.5,0 7.8,2.1 7.4,4.6 -0.5,2.6 -4.5,4.6 -9,4.6 -4.6,0.1 -7.8,-2 -7.4,-4.6 z m 68.3,24 c -0.7,0.2 -1.6,0.5 -2.6,0.7 -1.1,0.3 -3,0.6 -5.9,1 -2,0.3 -3.3,0.7 -4.1,1.3 -0.7,0.5 -1.2,1.2 -1.3,2 -0.2,0.9 0.2,1.6 0.9,2.1 0.8,0.5 2,0.8 3.8,0.8 1.3,0 2.6,-0.2 3.9,-0.6 1.3,-0.4 2.4,-1 3.2,-1.7 0.6,-0.5 1,-1.2 1.4,-2 0.1,-0.5 0.4,-1.7 0.7,-3.6 z m 16.4,-10.2 c -0.1,1.5 -0.3,2.9 -0.8,5.2 l -2.8,15.6 c -0.2,1.4 0.3,2.5 1.5,3.2 l -0.1,0.5 h -15.9 l -0.1,-4 c -2.3,1.4 -5.1,2.6 -7.6,3.3 -2.5,0.7 -4.6,0.9 -7.6,0.9 -5.1,0 -8,-0.5 -10.1,-2.3 -2.1,-1.8 -3.1,-3 -3,-5.6 0.1,-1.5 0.8,-3.3 1.9,-4.6 1.1,-1.3 2.6,-2.2 4.2,-3 1.6,-0.8 3.6,-1.3 6.3,-1.8 2.8,-0.4 6.7,-0.9 12,-1.3 2.7,-0.2 4.4,-0.8 5.2,-1.1 1.1,-0.4 1.5,-0.9 1.7,-1.8 0.3,-1.6 -0.2,-2.5 -2.3,-2.9 -5.7,-1.1 -16.4,0.7 -22,2.1 l 3,-8.1 c 7.3,-1.1 14.1,-1.8 21.3,-1.8 11.6,0.1 15.3,3.3 15.2,7.5 z m -185.4,13.3 c -4.9,1 -7.7,1.4 -12.6,1.4 -7.3,0 -13,-3.6 -12.7,-10.2 0.2,-4.4 5.4,-13.7 18.7,-13.7 4.2,0 7.4,0.7 11.8,3.2 l 1.9,-10.8 c -6,-2.3 -9.9,-2.6 -15,-2.5 -17.4,0.2 -34,8.1 -36.1,24.1 -2.1,16.3 17.8,20.4 26.6,20.4 5.1,0 10.4,-0.2 15.4,-0.7 z m 123.4,-20 1.1,-6.3 15.9,-3.5 -1.7,9.8 h 7.8 l -1.5,6.3 h -7.5 l -4.6,25 c 0,0 -15.3,-0.1 -15.4,0 l 4.6,-24.9 h -5.8 l 1.2,-6.3 h 5.9 z m 77.4,31.2 h -15.5 l 7.8,-43.3 15.1,0.4 z m -126.5,-23.8 c -2,0 -3.8,0.6 -5.4,1.8 -1.6,1.2 -2.6,3 -3,5.3 -0.5,2.7 -0.2,4.7 0.9,5.9 1.1,1.2 2.6,1.8 4.7,1.8 1.4,0 2.8,-0.2 3.9,-0.8 1.3,-0.7 2.2,-1.4 3,-2.6 0.8,-1.2 1.4,-2.5 1.7,-4.1 0.4,-2.5 0.1,-4.3 -1.1,-5.5 -1.2,-1.2 -2.8,-1.8 -4.7,-1.8 z m -27.7,34.5 7.4,-41.6 h 13.3 l -1,5.3 c 1.2,-1.6 3,-2.9 5.6,-4 2.6,-1.1 5.5,-1.8 8.6,-1.8 3.5,0 5.6,0.2 8.2,1.5 2.6,1.4 4.4,3.3 5.4,5.9 1,2.5 1.2,5.4 0.7,8.5 -0.9,5.1 -3.4,9.2 -7.5,12.2 -4.1,3 -7.7,3.8 -13,3.8 -1.9,0 -3.4,-0.2 -4.7,-0.5 -1.3,-0.3 -2.3,-0.7 -3,-1.2 -0.7,-0.5 -1.5,-1.2 -2.5,-2.3 l -2.5,14.3 h -15 z m 275.8,-30.7 c -0.1,-2.5 -1.3,-4.2 -3.9,-4.2 -6.2,0 -12.9,12.2 -14,17.1 10.2,0.1 18.1,-6 17.9,-12.9 z m 1.3,19.2 1.2,0.8 c -3,6.2 -9.2,11.2 -16.5,11.2 -5.9,0 -10.8,-4 -11.1,-11.4 -0.5,-13.3 12,-25.7 22.2,-25.7 4.4,0 8.4,1.9 8.6,6.6 0.4,10.6 -14.5,13.8 -24.3,14 -0.3,1.1 -0.4,2.2 -0.4,3.9 0.2,4.4 2.8,8.1 8.3,8.1 4.9,0 9.6,-3.8 12,-7.5 z m -60.9,-19.5 c 1.1,-0.1 2.8,-0.3 3.5,-0.3 1.1,0 2.2,0.2 2.2,1.3 0,0.7 -1.2,5.4 -1.4,6.5 l -2.4,10.4 c -1,4.3 -2,8.8 -2.9,12.3 h 6.1 l 3.4,-16.6 c 10.4,-10.9 14.5,-14.4 16.9,-14.4 1.1,0 1.9,0.6 1.9,1.9 0.1,1.9 -1.1,6.3 -1.5,7.5 l -3.5,12.1 c -0.8,2.7 -1.4,5.2 -1.3,6.9 0.1,2.7 1.7,3.8 4.1,3.8 4.4,0 7.7,-4.6 10.5,-9.2 l -0.8,-1.5 c -1.1,1.8 -3.8,5.8 -5.9,5.8 -0.7,0 -1.3,-0.4 -1.3,-1.5 -0.1,-1.4 0.5,-3.5 0.9,-4.9 l 3.9,-14.1 c 1,-3.9 1.5,-6.4 1.5,-7.7 -0.1,-2.6 -1.6,-3.9 -4,-3.9 -4,0 -9.3,2.9 -20.6,15.9 h -0.2 l 1.4,-6.3 c 0.8,-3.5 1.5,-7.1 2.3,-9.6 -3.9,1.4 -9.5,3 -12.9,3.6 z"
       id="path25" />
    <path
       d="m 461.127,200.501 c 0,-3.1 2.5,-5.4 5.5,-5.4 2.9,0 5.5,2.3 5.5,5.4 0,3.1 -2.5,5.4 -5.5,5.4 -3,0.1 -5.5,-2.2 -5.5,-5.4 z m 5.5,4.6 c 2.4,0 4.4,-1.9 4.4,-4.5 0,-2.6 -1.9,-4.5 -4.4,-4.5 -2.5,0 -4.4,1.9 -4.4,4.5 0,2.6 1.9,4.5 4.4,4.5 z m -1.1,-1.4 h -1 v -6.2 h 2.4 c 1.5,0 2.2,0.5 2.2,1.8 0,1.1 -0.7,1.6 -1.6,1.7 l 1.8,2.7 h -1.1 l -1.6,-2.7 h -1.1 z m 1.1,-3.5 c 0.8,0 1.5,-0.1 1.5,-1 0,-0.8 -0.7,-0.9 -1.4,-0.9 h -1.3 v 1.9 z"
       id="path27" />
  </g>
</svg>
