<?xml version="1.0" encoding="UTF-8" standalone="no"?>
<!DOCTYPE svg PUBLIC "-//W3C//DTD SVG 1.1//EN" "http://www.w3.org/Graphics/SVG/1.1/DTD/svg11.dtd">
<svg xmlns="http://www.w3.org/2000/svg" version="1.1" viewBox="0 0 1699 617" width="1699.0pt" height="617.0pt">
<path d="M 0.00 0.00 L 1699.00 0.00 L 1699.00 617.00 L 0.00 617.00 L 0.00 0.00 Z" fill="#ffffff" />
<path d="M 223.56 29.46 C 225.38 31.00 227.15 32.50 228.60 34.42 C 233.40 34.31 237.59 34.58 242.03 36.68 L 242.15 37.12 C 239.54 39.67 236.27 40.07 234.34 43.39 C 232.39 46.42 228.88 49.32 228.34 52.86 C 227.08 56.99 225.63 60.27 224.28 64.45 C 223.71 64.42 223.13 64.38 222.55 64.31 C 220.17 62.41 218.20 60.49 214.95 60.43 C 212.81 59.28 209.94 59.75 207.57 59.77 C 203.68 61.17 199.92 64.80 199.19 68.98 C 198.24 72.58 198.57 76.77 198.24 80.49 L 197.52 81.39 C 195.46 81.72 194.22 80.24 192.14 80.21 C 186.17 77.70 179.34 78.36 172.96 78.71 C 167.66 80.39 160.45 82.43 157.31 87.36 C 154.73 90.15 152.42 92.74 151.17 96.42 C 149.26 99.05 147.69 101.87 146.68 104.96 C 146.35 106.42 146.78 107.37 145.32 108.20 C 142.41 106.93 139.53 106.23 136.45 107.46 C 135.44 109.03 137.42 111.52 138.16 112.90 C 139.97 114.96 139.11 117.40 140.11 119.89 C 140.95 122.62 139.83 125.58 140.02 128.05 L 140.89 128.55 C 140.33 128.80 139.87 128.78 139.49 128.50 C 136.04 126.38 132.98 123.44 128.91 122.52 C 125.33 122.25 122.18 122.66 118.80 123.78 C 117.97 125.39 116.30 125.61 114.86 126.82 C 111.94 128.76 110.21 132.50 108.64 135.53 C 106.91 138.57 106.28 142.62 104.58 145.55 C 101.95 145.69 99.90 142.14 97.00 142.48 C 95.40 142.13 94.15 143.18 92.70 143.68 C 90.41 148.10 90.63 153.76 90.50 158.65 C 87.34 157.55 83.74 156.87 80.86 155.17 C 76.83 153.65 72.88 152.77 68.80 154.79 C 66.57 157.68 63.77 159.61 62.19 163.09 C 59.41 168.26 59.92 175.03 61.44 180.50 C 64.56 184.97 66.77 189.24 72.90 189.64 C 75.29 189.73 74.51 192.75 74.41 194.30 C 68.89 192.88 65.12 199.29 66.00 204.01 C 67.18 206.94 67.60 209.47 70.96 210.59 C 72.37 210.65 73.67 211.38 74.62 212.39 C 74.15 215.13 70.86 217.98 69.19 220.23 C 65.62 218.88 61.36 219.52 57.60 219.48 C 57.59 220.92 57.34 222.33 57.26 223.76 C 60.46 227.17 62.33 231.31 65.16 234.93 L 66.17 235.04 C 67.04 233.23 66.13 230.95 66.84 229.01 C 66.57 231.39 66.14 234.34 67.16 236.58 C 67.15 239.46 67.11 240.68 68.87 243.08 C 71.23 250.39 77.98 254.93 84.38 258.65 C 84.36 259.26 84.33 259.87 84.27 260.49 C 83.17 261.81 81.46 262.67 80.02 263.59 C 81.11 261.49 80.13 260.88 78.04 261.11 C 76.00 261.89 74.14 264.07 72.69 265.70 C 71.56 267.14 69.53 267.51 68.45 268.94 C 68.36 270.60 68.80 271.71 69.78 272.26 C 67.84 275.12 65.05 278.10 64.10 281.39 C 62.11 283.77 62.05 287.11 61.07 290.08 C 59.93 292.78 60.56 295.91 60.43 298.83 C 58.85 299.36 57.56 300.50 55.94 300.77 C 54.34 301.10 52.65 300.59 51.10 301.06 C 49.48 305.73 53.28 307.40 55.94 310.41 C 57.84 310.34 60.31 309.64 61.51 308.03 L 61.15 306.02 C 62.14 308.41 62.27 310.66 64.09 312.61 C 65.34 316.99 69.10 320.94 71.07 325.03 C 70.67 326.15 70.54 327.34 70.58 328.52 C 72.85 331.02 74.87 333.33 77.94 334.85 L 77.04 336.67 C 75.41 338.37 73.78 339.91 71.50 340.71 C 70.10 341.35 69.61 343.39 68.46 344.45 C 65.39 347.60 64.88 353.02 66.41 357.00 C 67.01 362.85 72.22 365.88 76.93 368.40 C 79.50 368.56 81.66 369.01 84.00 370.02 C 85.24 370.83 83.30 372.22 83.22 373.33 C 79.42 373.34 77.38 375.84 75.56 378.81 C 72.80 383.46 67.30 387.13 67.59 393.00 C 67.61 396.90 66.37 400.82 68.79 404.13 C 70.64 406.11 70.41 407.75 72.90 409.27 C 74.63 410.21 73.44 412.97 73.22 414.45 C 72.25 417.14 72.16 419.87 74.04 422.19 C 75.76 423.25 77.71 422.84 79.57 422.51 C 81.33 425.29 81.55 429.23 84.10 431.79 C 85.55 434.91 86.74 437.60 90.05 439.15 C 92.77 440.01 95.47 440.69 97.91 442.36 C 101.75 442.63 105.16 441.59 108.92 441.69 C 110.04 441.49 110.43 440.33 111.65 440.28 C 111.66 441.73 111.25 442.70 110.55 443.93 C 110.47 447.89 109.96 451.27 112.28 454.76 C 114.58 457.24 115.70 459.91 118.93 461.34 C 119.70 461.50 120.48 461.66 121.25 461.81 L 121.86 462.82 C 121.61 466.01 121.57 469.25 121.75 472.45 C 123.34 476.33 125.16 479.65 129.01 481.70 C 131.11 481.09 130.17 478.60 130.26 477.00 C 129.86 472.29 131.43 468.35 132.96 464.04 C 133.96 461.99 136.00 461.43 135.24 458.76 C 136.22 461.29 136.14 463.72 137.19 466.14 C 137.54 470.42 141.04 473.98 141.67 478.03 C 144.89 486.02 149.23 493.53 156.32 498.69 C 158.14 500.67 160.68 501.31 162.55 503.20 C 164.51 503.52 165.90 504.22 167.57 505.21 C 173.66 505.72 179.54 504.90 185.13 502.47 C 187.78 501.51 190.02 499.31 192.59 498.29 C 192.12 503.62 192.65 508.83 194.09 513.93 C 194.91 515.61 196.14 517.23 196.55 519.09 C 199.49 523.74 203.22 528.02 208.91 529.04 C 212.63 529.58 216.72 529.84 220.15 528.18 L 221.48 528.54 C 221.67 531.52 222.36 537.57 225.94 538.29 C 229.63 538.01 232.70 538.91 235.58 535.90 C 235.89 536.68 236.25 537.45 236.65 538.22 C 236.45 539.31 235.99 540.30 235.34 541.21 C 232.68 541.16 230.38 541.02 228.01 539.68 L 227.08 540.01 L 227.01 540.99 C 228.03 544.84 225.60 547.14 224.44 550.54 C 222.92 552.90 219.40 553.84 217.04 555.09 C 215.49 556.01 213.83 556.65 211.99 556.39 C 207.04 556.28 202.67 552.00 199.58 548.48 C 196.48 544.21 198.45 540.30 198.11 535.82 C 196.01 535.49 194.48 538.28 192.02 537.84 C 189.97 537.67 186.53 538.52 184.92 537.08 C 183.30 534.69 182.99 530.98 182.79 528.16 C 180.14 527.72 177.86 529.82 175.01 529.32 C 167.33 529.84 160.81 525.21 157.47 518.48 C 153.56 512.15 153.57 505.43 153.75 498.22 C 150.56 499.68 148.34 502.05 144.85 502.81 C 139.53 505.16 133.80 505.26 128.11 504.69 C 118.84 501.20 110.67 493.79 106.09 484.96 C 103.37 480.26 101.97 474.68 99.44 469.87 C 97.76 466.45 97.50 462.50 96.12 459.03 C 93.14 458.54 88.71 463.93 84.98 462.22 C 82.63 460.82 80.23 461.96 78.00 460.03 C 75.95 458.41 75.51 455.97 73.11 454.70 C 71.07 450.91 71.58 447.70 71.66 443.54 C 72.46 442.53 72.65 441.66 72.21 440.93 C 68.84 442.08 65.49 441.45 62.00 442.09 C 57.94 442.75 55.94 439.99 52.10 439.53 C 50.82 439.35 49.74 438.03 48.69 437.32 C 44.99 433.11 42.85 427.41 40.77 422.26 C 38.79 422.89 35.97 423.50 34.59 421.46 C 32.31 418.03 34.70 414.55 35.14 410.96 C 34.66 409.06 32.65 408.14 31.50 406.52 C 30.37 404.81 29.47 402.94 28.68 401.06 C 28.73 397.59 28.36 394.26 29.36 390.89 C 29.70 385.77 34.07 383.51 36.33 379.34 C 38.26 376.07 40.09 373.92 44.00 373.23 C 45.15 371.95 45.53 370.86 45.14 369.96 C 40.94 368.64 36.97 368.57 33.43 365.57 C 31.53 363.74 28.63 361.68 28.18 358.96 C 27.01 355.46 26.95 351.57 27.54 347.95 C 28.10 345.87 30.14 344.32 31.23 342.44 C 32.29 340.34 34.44 340.69 35.95 338.94 C 36.98 337.72 38.77 336.62 39.26 335.09 C 37.06 331.15 34.86 327.53 31.86 324.11 C 28.01 318.21 23.75 311.63 21.72 304.88 C 21.85 301.55 21.56 298.30 21.40 294.99 C 21.21 292.44 22.37 290.37 22.72 287.84 C 23.63 283.22 26.00 279.37 28.53 275.49 C 31.25 272.34 32.67 268.99 36.89 267.66 C 38.44 267.32 38.24 266.12 38.96 264.97 C 41.16 263.88 45.51 261.73 45.48 258.95 C 41.51 255.49 36.33 253.62 33.27 248.72 C 30.95 246.29 30.08 243.27 28.60 240.35 C 27.02 234.68 28.06 229.53 28.79 223.85 C 30.30 219.81 33.75 216.59 35.98 212.93 C 36.03 210.92 34.47 211.57 33.13 210.86 C 28.77 209.88 26.25 204.69 26.77 200.57 C 27.98 198.48 28.92 196.35 30.99 194.99 C 32.45 193.94 33.97 194.36 35.76 193.76 C 36.23 192.52 35.78 189.41 33.90 189.52 C 27.73 188.77 24.81 184.03 21.86 179.17 C 21.62 175.39 20.87 171.91 21.36 168.10 C 22.63 165.08 23.42 162.15 25.63 159.61 C 28.24 157.03 30.04 154.27 33.97 153.73 C 38.31 154.09 42.71 155.08 46.51 157.31 C 48.06 157.58 49.66 158.31 51.21 158.11 C 52.38 155.45 51.03 151.85 52.11 149.00 C 52.32 146.25 52.95 144.05 55.44 142.55 C 56.80 142.50 58.17 142.51 59.52 142.59 C 61.41 143.37 63.68 145.81 65.69 145.73 C 68.32 139.32 70.26 133.23 74.86 127.83 C 76.24 126.46 78.01 125.81 79.54 124.64 C 82.92 122.34 86.55 122.39 90.48 122.68 C 92.79 123.56 94.87 124.90 97.19 125.79 C 98.07 127.16 99.57 128.17 101.04 128.81 C 102.63 128.26 103.69 127.49 105.51 127.49 C 105.24 121.38 105.59 114.97 106.81 108.99 C 108.05 105.21 108.59 101.56 111.24 98.38 C 113.85 92.48 118.02 87.08 123.03 83.03 C 127.13 81.22 131.61 79.10 136.09 78.56 C 140.59 78.53 144.79 78.06 149.01 79.11 C 152.17 79.47 155.01 80.77 158.05 81.55 C 160.15 80.33 159.14 76.58 159.60 74.49 C 160.52 71.16 159.77 68.36 161.65 65.67 C 164.09 61.41 169.08 58.82 173.86 60.26 C 176.10 60.65 178.07 60.46 180.07 61.86 C 181.65 62.80 183.46 64.61 185.38 64.59 C 186.33 61.35 188.00 58.30 188.81 55.01 C 189.33 52.56 190.41 49.93 191.97 47.97 C 194.38 45.64 196.09 41.58 199.13 40.10 C 200.99 39.19 202.14 37.69 204.11 37.29 C 207.22 36.51 209.92 35.43 213.04 36.93 C 214.04 37.19 215.59 38.32 216.57 37.69 C 216.61 34.94 218.51 32.23 220.28 30.24 C 221.19 29.10 222.27 29.25 223.56 29.46 Z" fill="#fd04d3" />
<path d="M 262.67 29.33 C 264.45 31.02 266.21 32.72 267.92 34.47 C 273.10 33.86 277.94 34.90 282.52 37.48 C 286.72 40.58 289.48 44.89 290.60 49.99 C 292.41 56.21 293.60 62.48 294.19 68.93 L 294.89 68.86 C 297.87 66.05 302.07 63.19 306.01 62.16 C 309.81 63.43 314.24 62.13 317.20 65.80 C 321.53 71.28 322.62 79.52 322.00 86.30 C 322.60 86.83 323.61 86.89 325.00 86.48 C 330.09 85.82 335.17 85.52 339.99 84.60 C 343.58 84.64 346.78 84.09 350.07 85.91 C 357.91 89.60 365.75 95.64 369.02 103.92 C 371.11 108.12 372.80 112.23 372.67 117.01 C 372.59 122.45 374.04 128.00 372.96 133.29 L 373.79 133.87 C 377.76 132.60 381.94 131.89 385.98 130.65 C 388.96 130.83 392.36 130.06 395.14 131.19 C 398.58 132.11 401.80 134.27 403.47 137.54 C 406.63 141.58 407.55 146.45 408.53 151.37 C 412.63 151.44 415.50 148.36 419.90 149.37 C 424.39 152.11 425.99 156.43 425.61 161.60 C 427.34 162.18 429.07 160.86 431.00 161.27 C 439.88 159.86 447.65 167.76 448.71 176.13 C 449.60 181.86 448.05 188.10 444.99 193.01 C 443.16 195.68 440.16 197.15 437.25 198.39 C 437.11 199.64 438.42 200.02 439.09 200.88 C 441.40 203.77 443.88 207.13 443.40 211.03 C 442.63 215.19 439.75 217.51 436.03 219.09 C 434.41 219.75 435.64 220.99 436.34 221.82 C 437.76 223.77 438.80 225.94 440.36 227.81 C 442.90 233.71 444.31 239.94 442.37 246.24 C 441.37 248.80 440.94 252.02 439.05 254.04 C 435.89 259.14 431.32 264.07 425.15 265.24 C 424.66 265.85 424.39 266.61 424.33 267.53 C 429.12 269.89 432.64 274.86 436.54 278.47 C 444.62 287.30 445.54 297.72 447.26 308.99 C 447.93 312.53 446.88 316.34 446.41 319.89 C 444.96 326.78 440.90 333.12 436.87 338.79 C 434.60 341.79 432.57 345.26 429.78 347.82 C 429.18 348.23 429.01 348.83 429.25 349.62 C 431.12 349.45 431.85 349.48 433.40 350.63 C 436.08 352.56 438.29 355.17 440.36 357.71 C 441.93 361.54 441.70 366.29 440.34 370.15 C 438.99 373.87 435.90 376.45 432.98 378.95 C 431.57 380.12 428.47 380.25 427.80 381.98 C 430.36 385.07 433.07 387.64 434.70 391.45 C 437.30 395.04 438.63 399.58 438.40 404.00 C 438.45 407.43 439.26 410.54 437.74 413.91 C 436.51 417.49 433.71 418.95 431.00 421.09 C 431.47 423.73 433.49 426.28 432.14 429.01 C 430.59 432.03 427.78 432.72 424.82 433.67 C 425.05 439.78 420.32 445.45 415.30 448.34 C 410.13 450.13 405.51 452.21 399.94 451.34 C 396.85 450.09 393.07 448.23 389.84 447.88 C 390.59 453.98 392.20 460.87 388.64 466.63 C 386.83 469.28 384.49 469.65 381.71 470.67 C 378.93 472.90 374.38 471.99 371.07 471.76 C 368.56 470.31 366.24 468.72 364.71 466.19 C 363.99 466.08 363.58 466.39 363.50 467.12 C 362.39 469.37 362.75 471.62 361.76 473.87 C 359.41 481.34 356.08 487.40 352.22 494.15 C 347.81 499.44 343.18 504.07 336.49 506.25 C 332.48 507.22 328.55 506.67 324.52 506.22 C 319.15 505.12 312.84 499.17 307.75 498.72 L 307.38 499.88 C 308.03 504.84 307.86 510.29 306.11 515.01 C 303.41 520.29 298.81 525.39 293.05 527.28 C 289.08 528.17 285.35 527.40 281.49 526.53 C 281.17 527.56 281.16 528.72 281.45 530.01 C 281.54 534.12 279.50 537.82 276.42 540.43 C 274.29 541.37 272.22 541.10 269.96 541.19 C 268.44 540.57 267.25 539.71 265.55 539.63 C 266.64 542.31 266.31 545.30 264.75 547.70 C 263.94 548.71 263.76 549.88 263.28 551.04 C 261.89 552.72 259.98 553.23 258.16 554.27 C 255.71 555.57 252.82 557.11 249.99 556.31 C 245.42 556.06 241.28 551.83 238.53 548.50 C 235.88 545.25 236.48 542.05 236.65 538.22 C 236.25 537.45 235.89 536.68 235.58 535.90 C 232.70 538.91 229.63 538.01 225.94 538.29 C 222.36 537.57 221.67 531.52 221.48 528.54 L 220.15 528.18 C 216.72 529.84 212.63 529.58 208.91 529.04 C 203.22 528.02 199.49 523.74 196.55 519.09 C 196.14 517.23 194.91 515.61 194.09 513.93 C 192.65 508.83 192.12 503.62 192.59 498.29 C 190.02 499.31 187.78 501.51 185.13 502.47 C 179.54 504.90 173.66 505.72 167.57 505.21 C 165.90 504.22 164.51 503.52 162.55 503.20 C 160.68 501.31 158.14 500.67 156.32 498.69 C 149.23 493.53 144.89 486.02 141.67 478.03 C 141.04 473.98 137.54 470.42 137.19 466.14 C 136.14 463.72 136.22 461.29 135.24 458.76 C 132.25 459.03 128.66 462.74 124.96 462.71 C 122.91 461.83 121.15 461.49 118.93 461.34 C 115.70 459.91 114.58 457.24 112.28 454.76 C 109.96 451.27 110.47 447.89 110.55 443.93 C 111.25 442.70 111.66 441.73 111.65 440.28 C 110.43 440.33 110.04 441.49 108.92 441.69 C 105.16 441.59 101.75 442.63 97.91 442.36 C 95.47 440.69 92.77 440.01 90.05 439.15 C 86.74 437.60 85.55 434.91 84.10 431.79 C 81.55 429.23 81.33 425.29 79.57 422.51 C 77.71 422.84 75.76 423.25 74.04 422.19 C 72.16 419.87 72.25 417.14 73.22 414.45 C 73.44 412.97 74.63 410.21 72.90 409.27 C 70.41 407.75 70.64 406.11 68.79 404.13 C 66.37 400.82 67.61 396.90 67.59 393.00 C 67.30 387.13 72.80 383.46 75.56 378.81 C 77.38 375.84 79.42 373.34 83.22 373.33 C 83.30 372.22 85.24 370.83 84.00 370.02 C 81.66 369.01 79.50 368.56 76.93 368.40 C 72.22 365.88 67.01 362.85 66.41 357.00 C 64.88 353.02 65.39 347.60 68.46 344.45 C 69.61 343.39 70.10 341.35 71.50 340.71 C 73.78 339.91 75.41 338.37 77.04 336.67 C 77.72 336.15 78.16 335.60 78.37 335.02 C 75.62 331.96 74.43 327.76 71.07 325.03 C 69.10 320.94 65.34 316.99 64.09 312.61 C 62.27 310.66 62.14 308.41 61.15 306.02 C 60.59 303.61 60.40 301.29 60.43 298.83 C 60.56 295.91 59.93 292.78 61.07 290.08 C 62.05 287.11 62.11 283.77 64.10 281.39 C 65.05 278.10 67.84 275.12 69.78 272.26 C 71.73 270.01 73.41 267.88 76.55 267.40 C 77.58 264.62 77.34 264.90 80.02 263.59 C 81.46 262.67 83.17 261.81 84.27 260.49 C 84.33 259.87 84.36 259.26 84.38 258.65 C 77.98 254.93 71.23 250.39 68.87 243.08 C 67.11 240.68 67.15 239.46 67.16 236.58 C 66.14 234.34 66.57 231.39 66.84 229.01 C 67.43 225.97 67.61 223.00 69.19 220.23 C 70.86 217.98 74.15 215.13 74.62 212.39 C 73.67 211.38 72.37 210.65 70.96 210.59 C 67.60 209.47 67.18 206.94 66.00 204.01 C 65.12 199.29 68.89 192.88 74.41 194.30 C 74.51 192.75 75.29 189.73 72.90 189.64 C 66.77 189.24 64.56 184.97 61.44 180.50 C 59.92 175.03 59.41 168.26 62.19 163.09 C 63.77 159.61 66.57 157.68 68.80 154.79 C 72.88 152.77 76.83 153.65 80.86 155.17 C 83.74 156.87 87.34 157.55 90.50 158.65 C 90.63 153.76 90.41 148.10 92.70 143.68 C 94.15 143.18 95.40 142.13 97.00 142.48 C 99.90 142.14 101.95 145.69 104.58 145.55 C 106.28 142.62 106.91 138.57 108.64 135.53 C 110.21 132.50 111.94 128.76 114.86 126.82 C 116.30 125.61 117.97 125.39 118.80 123.78 C 122.18 122.66 125.33 122.25 128.91 122.52 C 132.98 123.44 136.04 126.38 139.49 128.50 C 139.87 128.78 140.33 128.80 140.89 128.55 C 141.45 127.67 142.57 127.29 144.23 127.40 C 144.32 122.97 144.29 118.53 144.61 114.10 C 144.75 112.09 146.04 110.05 145.32 108.20 C 146.78 107.37 146.35 106.42 146.68 104.96 C 147.69 101.87 149.26 99.05 151.17 96.42 C 152.42 92.74 154.73 90.15 157.31 87.36 C 160.45 82.43 167.66 80.39 172.96 78.71 C 179.34 78.36 186.17 77.70 192.14 80.21 C 194.22 80.24 195.46 81.72 197.52 81.39 L 198.24 80.49 C 198.57 76.77 198.24 72.58 199.19 68.98 C 199.92 64.80 203.68 61.17 207.57 59.77 C 209.94 59.75 212.81 59.28 214.95 60.43 C 218.20 60.49 220.17 62.41 222.55 64.31 C 223.13 64.38 223.71 64.42 224.28 64.45 C 225.63 60.27 227.08 56.99 228.34 52.86 C 228.88 49.32 232.39 46.42 234.34 43.39 C 236.27 40.07 239.54 39.67 242.15 37.12 L 242.03 36.68 C 245.13 37.44 247.87 35.18 251.13 36.51 C 252.59 36.60 254.32 38.41 255.70 37.78 C 254.97 35.06 257.37 32.88 258.54 30.49 C 259.53 28.86 261.03 29.18 262.67 29.33 Z" fill="#000000" />
<path d="M 276.37 66.51 C 277.43 66.52 277.40 68.28 277.48 68.99 C 278.90 74.26 279.97 79.54 282.35 84.53 C 282.69 85.61 283.27 87.22 282.01 87.93 C 279.78 89.23 277.39 92.13 274.65 90.35 C 274.03 86.51 272.96 82.69 271.63 79.04 C 271.20 76.01 268.77 72.57 269.50 69.56 C 271.73 68.44 274.24 67.81 276.37 66.51 Z" fill="#fd04d3" />
<path d="M 244.07 68.60 C 242.65 68.83 239.48 69.17 239.18 70.85 C 240.53 74.42 240.62 78.10 242.40 81.49 C 242.96 83.22 243.92 85.11 243.90 86.95 C 243.29 88.85 239.85 89.04 240.47 91.45 C 238.53 91.34 238.09 89.71 238.18 88.01 C 238.34 81.31 238.41 76.02 238.55 69.62 C 240.55 69.47 241.97 68.33 244.07 68.60 Z" fill="#ffffff" />
<path d="M 244.07 68.60 C 244.89 69.15 245.62 69.78 246.26 70.49 C 246.50 73.47 246.52 76.13 247.51 78.98 C 247.23 83.06 248.23 87.56 247.47 91.46 C 245.22 91.72 242.71 91.75 240.47 91.45 C 239.85 89.04 243.29 88.85 243.90 86.95 C 243.92 85.11 242.96 83.22 242.40 81.49 C 240.62 78.10 240.53 74.42 239.18 70.85 C 239.48 69.17 242.65 68.83 244.07 68.60 Z" fill="#fd04d3" />
<path d="M 182.37 106.85 C 187.35 110.72 188.22 118.24 186.72 123.99 C 186.61 127.21 185.35 130.04 183.78 132.80 C 182.33 135.04 180.27 136.31 177.56 135.41 C 177.10 133.24 177.46 130.99 178.63 129.10 C 178.78 125.36 179.87 122.23 178.70 118.47 C 178.54 117.15 177.61 116.41 177.77 115.01 C 177.86 112.84 174.39 109.70 175.51 107.45 C 176.98 106.10 180.38 107.26 182.37 106.85 Z" fill="#fd04d3" />
<path d="M 145.32 108.20 C 146.04 110.05 144.75 112.09 144.61 114.10 C 144.29 118.53 144.32 122.97 144.23 127.40 C 142.57 127.29 141.45 127.67 140.89 128.55 L 140.02 128.05 C 139.83 125.58 140.95 122.62 140.11 119.89 C 139.11 117.40 139.97 114.96 138.16 112.90 C 137.42 111.52 135.44 109.03 136.45 107.46 C 139.53 106.23 142.41 106.93 145.32 108.20 Z" fill="#ffffff" />
<path d="M 338.57 112.76 C 340.02 112.28 342.25 111.70 342.41 113.94 C 341.30 116.73 339.44 119.06 338.91 121.98 C 338.09 124.86 338.80 128.49 339.97 131.18 L 339.92 132.16 C 338.42 132.84 336.22 133.95 334.61 133.40 C 334.06 130.07 334.96 126.37 333.98 123.00 C 333.60 120.39 333.84 117.65 333.67 115.01 C 335.06 113.57 336.87 113.70 338.57 112.76 Z" fill="#ffffff" />
<path d="M 333.67 115.01 C 333.84 117.65 333.60 120.39 333.98 123.00 C 334.96 126.37 334.06 130.07 334.61 133.40 C 336.22 133.95 338.42 132.84 339.92 132.16 L 339.97 131.18 C 340.73 133.52 342.19 134.77 341.52 137.40 C 338.17 138.68 334.84 138.73 331.49 137.39 C 326.67 133.32 326.04 126.26 328.97 120.90 C 329.50 119.45 330.53 118.36 330.82 116.83 C 331.86 116.37 332.63 115.49 333.67 115.01 Z" fill="#fd04d3" />
<path d="M 200.89 118.26 C 205.62 118.72 209.88 123.68 213.96 126.07 C 215.38 127.16 213.09 128.60 212.49 129.49 C 209.33 133.29 205.26 134.76 201.01 137.16 C 199.30 138.32 197.14 137.03 197.26 135.03 C 197.00 131.46 197.83 127.64 199.08 124.35 C 199.57 122.67 198.37 118.19 200.89 118.26 Z" fill="#fd04d3" />
<path d="M 312.53 124.66 C 313.94 126.30 314.35 129.00 315.38 130.95 C 315.88 134.26 318.17 135.89 317.55 139.51 C 314.12 139.80 311.24 138.41 307.87 138.04 C 305.25 136.41 302.99 135.01 300.09 133.86 C 297.77 132.77 297.98 130.23 299.97 128.95 C 303.82 127.17 308.12 124.09 312.53 124.66 Z" fill="#fd04d3" />
<path d="M 161.73 150.61 C 163.32 150.28 164.60 150.34 166.17 150.75 C 167.24 153.10 170.50 153.51 171.93 155.06 C 170.95 158.83 167.32 162.03 165.37 165.39 C 163.71 166.90 162.77 169.55 160.24 169.79 C 158.86 166.58 160.72 161.68 160.37 158.01 C 160.11 155.20 161.24 153.21 161.73 150.61 Z" fill="#fd04d3" />
<path d="M 640.02 151.55 C 645.55 152.80 651.46 152.52 657.00 154.34 C 671.80 157.12 686.33 162.70 698.92 171.02 C 711.84 179.50 722.57 191.75 729.74 205.41 C 734.95 215.18 738.77 226.22 741.07 237.02 C 741.75 240.16 742.88 243.59 742.82 246.79 C 727.21 246.75 711.60 246.74 695.99 246.80 C 694.10 243.85 694.72 240.26 692.89 237.11 C 688.90 224.83 680.92 213.24 670.30 205.73 C 668.41 204.18 666.22 203.48 664.43 201.76 C 662.57 201.35 661.13 200.48 659.54 199.50 C 656.06 198.61 653.62 196.37 649.97 196.28 C 643.07 193.50 634.43 193.06 627.01 191.87 C 617.70 191.66 609.00 191.17 599.89 193.28 C 595.77 193.84 591.85 194.51 588.02 196.14 C 585.72 196.50 584.15 197.09 582.13 198.23 C 570.21 202.86 560.43 210.55 552.41 220.46 C 539.39 235.37 532.36 254.64 529.70 274.00 C 527.85 285.06 527.81 296.79 527.92 308.00 C 528.66 313.58 528.05 319.54 529.31 324.98 C 531.89 345.68 538.72 366.08 553.18 381.66 C 560.29 389.01 568.61 394.84 578.02 398.80 C 600.49 408.56 627.03 409.22 651.03 406.20 C 655.95 405.59 660.38 404.06 665.01 403.36 C 674.48 400.50 684.48 397.02 693.05 391.96 C 694.64 391.19 696.43 390.75 697.32 389.11 C 697.23 371.08 697.31 353.04 697.28 335.00 C 697.06 333.69 697.89 331.28 696.61 330.49 C 671.70 330.67 646.66 330.41 621.76 330.63 L 621.33 329.85 C 621.43 316.73 621.26 303.55 621.40 290.44 C 661.08 290.21 703.69 290.40 743.69 290.34 C 744.27 290.99 744.47 291.87 744.30 292.99 C 744.28 331.99 744.28 371.02 744.30 410.02 C 744.75 412.60 741.33 413.28 739.99 414.99 C 720.78 428.95 698.24 438.67 674.99 443.40 C 668.74 444.94 661.34 445.59 654.90 447.12 C 646.92 447.24 638.61 448.59 631.00 448.40 C 620.63 449.12 610.29 448.22 599.99 447.39 C 573.16 444.33 547.06 434.48 526.99 416.04 C 512.66 403.50 501.25 386.94 493.65 369.49 C 485.16 349.03 480.89 326.14 481.19 303.99 C 480.56 301.57 480.86 299.41 481.17 297.01 C 480.99 275.95 484.68 254.80 492.13 235.12 C 498.35 219.17 507.69 203.85 519.29 191.31 C 533.30 175.18 552.43 162.98 572.86 156.77 C 576.44 155.37 580.27 155.16 583.88 153.84 C 602.68 149.83 620.90 149.89 640.02 151.55 Z" fill="#000000" />
<path d="M 1276.52 156.45 C 1285.60 162.94 1290.12 175.12 1287.89 185.99 C 1286.72 194.45 1281.15 202.72 1273.54 206.65 C 1263.42 212.91 1249.86 212.65 1239.83 206.30 C 1231.10 201.05 1225.96 191.21 1226.22 181.00 C 1225.84 170.97 1230.06 161.92 1238.38 156.23 C 1249.24 148.25 1265.66 148.70 1276.52 156.45 Z" fill="#000000" />
<path d="M 1026.30 151.16 L 1026.85 150.52 C 1040.87 150.63 1054.97 150.52 1069.00 150.57 C 1070.18 150.36 1071.15 150.46 1071.89 150.89 L 1072.11 151.99 C 1072.13 247.66 1072.10 343.33 1072.11 439.00 C 1072.19 440.31 1072.09 441.58 1071.83 442.83 C 1056.79 442.73 1041.25 442.94 1026.30 442.72 C 1026.36 345.56 1026.34 248.33 1026.30 151.16 Z" fill="#000000" />
<path d="M 1128.28 151.14 L 1128.85 150.50 C 1142.88 150.65 1156.96 150.50 1171.00 150.58 C 1172.15 150.38 1173.12 150.47 1173.91 150.85 C 1174.24 152.52 1174.07 154.30 1174.11 156.00 C 1174.11 249.67 1174.10 343.33 1174.10 437.00 C 1174.08 438.96 1174.25 440.89 1173.81 442.82 C 1158.74 442.75 1143.29 442.91 1128.27 442.75 C 1128.35 345.56 1128.32 248.33 1128.28 151.14 Z" fill="#000000" />
<path d="M 353.51 152.58 C 354.81 153.60 354.06 155.48 354.26 157.00 C 354.49 160.67 352.90 164.42 352.11 167.96 L 352.19 166.01 C 351.58 163.66 347.32 164.69 347.04 166.65 C 344.40 165.13 339.60 161.89 340.29 158.36 C 343.82 156.57 347.39 155.83 350.84 153.81 C 351.68 153.49 352.60 152.45 353.51 152.58 Z" fill="#fd04d3" />
<path d="M 1412.00 156.29 C 1428.65 156.02 1445.31 156.22 1461.97 156.17 L 1462.40 156.90 C 1462.14 169.21 1462.49 182.00 1462.22 194.29 C 1450.42 194.82 1436.12 194.30 1424.00 194.54 C 1419.14 194.44 1413.46 196.46 1410.20 200.14 C 1407.91 203.28 1406.64 206.87 1406.56 210.77 C 1406.29 218.73 1406.59 226.71 1406.40 234.67 C 1406.97 235.27 1407.83 235.48 1408.99 235.30 C 1425.63 235.25 1442.27 235.34 1458.91 235.26 L 1459.56 235.83 C 1459.21 247.39 1459.77 260.89 1459.28 272.22 C 1442.61 272.56 1424.18 272.23 1407.30 272.39 L 1406.67 272.72 L 1406.44 273.36 C 1406.48 328.23 1406.45 383.12 1406.46 438.00 C 1406.18 439.43 1407.03 441.79 1406.07 442.85 C 1391.10 442.76 1376.11 442.87 1361.13 442.79 L 1360.70 442.05 C 1360.82 385.81 1360.73 329.42 1360.75 273.16 L 1360.43 272.50 C 1346.30 272.05 1328.78 272.74 1314.89 272.15 C 1314.36 261.70 1315.02 246.63 1314.56 235.88 L 1315.16 235.27 C 1330.12 235.35 1345.11 235.21 1360.07 235.34 L 1360.79 234.87 C 1360.72 225.90 1360.76 216.94 1360.78 207.98 C 1361.68 204.84 1361.23 201.60 1362.32 198.49 C 1364.41 184.36 1372.62 171.37 1384.96 163.95 C 1393.00 159.08 1402.76 156.93 1412.00 156.29 Z" fill="#000000" />
<path d="M 266.01 157.81 C 270.62 158.48 274.42 159.42 279.07 159.97 C 305.97 166.45 328.77 185.14 344.07 207.90 C 345.50 210.61 348.09 213.23 348.83 216.20 C 350.59 217.92 351.71 220.59 352.64 222.83 C 355.64 228.69 359.04 235.37 361.28 241.52 C 361.99 245.00 364.30 248.44 364.45 252.00 C 365.23 256.25 366.65 261.12 366.85 265.39 C 368.35 268.31 368.53 272.22 368.79 275.46 C 370.05 279.08 369.24 283.25 370.19 286.98 C 370.50 292.98 370.52 299.00 370.56 305.00 C 370.71 309.44 369.56 313.60 369.42 318.07 C 368.12 320.70 369.26 323.85 367.88 326.59 C 367.68 328.11 367.99 329.37 366.89 330.64 C 366.77 332.70 367.04 334.79 365.82 336.59 C 365.62 338.11 365.65 339.56 365.10 341.02 C 361.16 355.70 354.74 371.00 346.83 384.01 C 345.28 384.87 345.74 386.29 344.57 387.58 C 332.63 405.77 315.72 421.33 295.86 430.43 C 290.70 432.15 286.49 434.60 281.00 435.67 C 276.37 437.17 271.95 437.60 267.18 438.37 C 256.39 439.09 245.67 439.06 235.15 436.33 C 239.49 437.31 242.77 435.37 246.88 434.46 C 267.70 427.55 285.44 414.11 298.96 396.97 C 309.26 384.19 316.71 369.85 322.30 354.49 C 324.54 347.50 327.19 339.92 327.84 332.60 C 329.53 328.75 329.36 324.98 330.26 321.01 C 330.56 317.50 330.93 314.10 330.78 310.56 C 331.21 309.74 331.46 308.89 331.55 308.02 C 331.56 297.62 331.92 287.33 330.39 277.00 C 329.08 272.67 330.17 268.55 327.76 264.42 C 327.63 258.44 325.40 252.38 324.18 246.56 C 322.73 243.83 321.77 240.94 320.89 237.99 C 313.45 218.88 302.77 201.32 287.91 187.08 C 277.75 176.97 265.44 168.96 252.12 163.65 C 248.63 161.82 244.20 161.62 240.75 159.46 C 241.44 158.80 242.18 158.48 243.00 158.48 C 250.55 157.13 258.38 157.16 266.01 157.81 Z" fill="#fd04d3" />
<path d="M 240.75 159.46 C 244.20 161.62 248.63 161.82 252.12 163.65 C 265.44 168.96 277.75 176.97 287.91 187.08 C 302.77 201.32 313.45 218.88 320.89 237.99 C 321.77 240.94 322.73 243.83 324.18 246.56 C 325.40 252.38 327.63 258.44 327.76 264.42 C 330.17 268.55 329.08 272.67 330.39 277.00 C 331.92 287.33 331.56 297.62 331.55 308.02 C 331.46 308.89 331.21 309.74 330.78 310.56 C 330.93 314.10 330.56 317.50 330.26 321.01 C 329.36 324.98 329.53 328.75 327.84 332.60 C 327.19 339.92 324.54 347.50 322.30 354.49 C 316.71 369.85 309.26 384.19 298.96 396.97 C 285.44 414.11 267.70 427.55 246.88 434.46 C 242.77 435.37 239.49 437.31 235.15 436.33 C 205.68 429.30 181.65 408.42 166.13 382.94 C 148.43 354.01 141.03 318.63 143.65 285.00 C 143.48 283.69 143.65 282.50 144.16 281.43 C 144.09 277.02 145.21 272.83 145.63 268.47 C 145.90 267.24 147.00 266.18 147.61 265.08 C 147.68 263.04 146.98 261.22 147.58 259.12 C 152.64 237.27 162.34 215.98 176.50 198.50 C 187.15 185.16 200.58 174.17 215.93 166.65 C 219.65 167.11 223.62 164.53 226.73 162.72 C 227.88 161.68 229.61 162.87 230.84 161.77 C 233.88 159.58 237.16 159.55 240.75 159.46 Z" fill="#ffffff" />
<path d="M 128.03 163.11 C 127.13 165.25 125.29 167.02 123.49 168.43 C 123.42 166.70 123.42 164.08 124.78 162.80 C 125.59 161.41 127.19 162.18 128.03 163.11 Z" fill="#ffffff" />
<path d="M 147.46 163.42 C 147.45 164.75 147.52 166.13 147.29 167.44 C 145.92 169.51 145.41 172.01 144.06 174.05 C 142.15 175.66 140.58 177.41 138.06 177.95 C 132.24 179.43 127.36 176.01 124.56 171.07 C 124.42 170.07 124.06 169.19 123.49 168.43 C 125.29 167.02 127.13 165.25 128.03 163.11 C 129.28 163.92 130.43 164.62 131.99 164.55 C 135.92 164.66 139.39 165.31 142.89 163.03 C 144.41 161.83 146.20 161.95 147.46 163.42 Z" fill="#fd04d3" />
<path d="M 366.88 164.26 C 369.61 166.49 372.32 168.06 376.00 167.85 C 380.92 168.44 384.64 166.29 389.03 164.57 C 392.71 165.46 391.60 170.73 391.21 173.43 C 389.36 177.87 385.79 182.71 380.57 182.86 C 378.34 184.03 375.34 183.51 372.84 183.78 C 370.48 182.51 368.25 181.97 366.83 179.47 C 366.20 175.80 363.98 172.98 364.40 168.99 C 364.42 167.60 364.67 163.66 366.88 164.26 Z" fill="#fd04d3" />
<path d="M 352.19 166.01 L 352.11 167.96 L 351.78 168.78 C 350.15 168.39 348.63 167.26 347.04 166.65 C 347.32 164.69 351.58 163.66 352.19 166.01 Z" fill="#ffffff" />
<path d="M 57.60 219.48 C 61.36 219.52 65.62 218.88 69.19 220.23 C 67.61 223.00 67.43 225.97 66.84 229.01 C 66.13 230.95 67.04 233.23 66.17 235.04 L 65.16 234.93 C 62.33 231.31 60.46 227.17 57.26 223.76 C 57.34 222.33 57.59 220.92 57.60 219.48 Z" fill="#ffffff" />
<path d="M 97.39 219.49 C 101.66 219.62 105.24 219.07 109.28 220.78 C 113.84 224.22 115.90 229.39 115.76 235.03 C 115.86 238.38 115.27 242.29 112.67 244.66 C 111.79 245.41 110.66 247.37 109.31 246.77 C 108.36 243.05 107.20 239.92 105.30 236.56 C 102.16 232.61 99.92 228.09 96.68 224.21 C 96.14 223.21 96.38 220.23 97.39 219.49 Z" fill="#fd04d3" />
<path d="M 410.43 224.83 C 412.28 225.41 415.46 227.24 414.66 229.62 C 411.87 231.28 408.90 232.48 407.29 235.42 C 406.15 236.69 405.72 238.47 404.56 239.64 C 403.29 235.56 403.73 231.73 401.09 228.22 L 400.74 227.86 C 402.78 225.70 407.54 224.47 410.43 224.83 Z" fill="#ffffff" />
<path d="M 399.88 228.81 L 401.09 228.22 C 403.73 231.73 403.29 235.56 404.56 239.64 C 403.04 241.83 403.76 244.08 403.53 246.76 C 401.87 248.86 401.85 253.01 399.37 254.10 C 398.13 252.96 397.52 251.49 396.73 250.05 C 395.93 245.97 394.72 240.87 396.26 236.87 C 396.70 233.67 398.65 231.53 399.88 228.81 Z" fill="#fd04d3" />
<path d="M 899.86 230.29 C 918.94 231.61 937.62 236.79 952.00 249.99 C 963.39 260.45 969.50 274.90 972.12 289.90 C 973.67 297.39 973.59 303.31 973.73 311.00 C 973.76 354.92 973.71 398.85 973.76 442.77 C 959.89 442.90 945.87 442.77 931.99 442.84 L 931.53 442.13 C 931.71 433.55 931.61 424.94 931.58 416.36 C 930.14 416.29 930.12 417.22 929.35 418.17 C 917.25 432.61 900.53 442.06 882.13 445.77 C 876.45 447.45 870.74 447.45 865.01 448.30 C 860.28 448.24 855.60 449.09 851.00 448.40 C 848.88 448.25 846.38 448.80 844.42 447.91 C 831.00 447.40 817.15 442.71 806.44 434.54 C 795.88 426.38 788.09 415.21 785.54 402.02 C 785.40 398.26 784.35 394.77 784.51 391.00 C 784.13 385.15 785.33 379.77 785.66 373.97 C 786.79 370.11 787.72 365.88 789.41 362.19 C 794.56 349.82 804.05 340.13 815.45 333.30 C 825.67 326.99 837.27 322.55 849.07 320.48 C 854.63 318.54 861.22 318.57 866.99 317.55 C 868.69 317.30 870.17 317.66 871.60 316.83 C 883.49 316.41 895.09 316.14 907.00 316.07 C 913.86 315.61 920.77 315.51 927.65 315.58 C 928.66 314.07 928.12 312.69 928.23 311.00 C 928.29 307.15 928.20 303.33 927.57 299.53 C 926.97 290.17 922.70 280.68 915.01 274.99 C 907.47 269.13 897.34 267.05 888.00 266.62 C 875.70 266.28 863.25 266.84 852.57 273.61 C 844.78 278.17 839.21 285.55 836.47 294.10 C 836.45 295.59 836.03 296.77 835.19 297.66 C 833.13 296.92 831.10 297.48 829.02 296.77 C 816.69 296.36 806.46 294.81 794.99 294.15 C 793.69 293.72 791.03 294.30 790.34 293.16 C 793.07 281.91 796.87 270.51 804.26 261.43 C 811.34 251.26 821.99 244.29 832.97 238.94 C 840.48 235.51 847.98 233.62 856.04 232.14 C 858.19 231.17 860.52 231.94 862.60 230.90 C 875.42 230.14 886.75 228.71 899.86 230.29 Z" fill="#000000" />
<path d="M 1234.28 235.28 C 1249.42 235.29 1264.59 235.29 1279.73 235.28 C 1279.91 303.97 1279.77 373.97 1279.80 442.80 C 1264.62 442.80 1249.38 442.85 1234.21 442.78 C 1234.26 373.89 1234.13 304.04 1234.28 235.28 Z" fill="#000000" />
<path d="M 1467.16 235.25 C 1483.50 235.41 1500.22 235.14 1516.52 235.38 C 1520.83 247.74 1525.05 258.56 1529.49 270.46 C 1538.09 293.56 1546.52 316.73 1555.26 339.78 C 1555.92 341.19 1556.47 342.48 1556.63 344.05 C 1558.37 346.77 1558.48 349.89 1560.02 352.64 C 1562.72 360.11 1565.04 366.52 1568.00 373.97 C 1569.13 376.23 1569.59 381.05 1571.58 382.59 C 1572.25 380.67 1573.22 378.80 1573.73 376.85 C 1581.59 354.26 1589.90 331.80 1597.66 309.15 C 1605.62 286.69 1613.72 264.31 1621.58 241.88 C 1622.63 240.10 1622.69 236.57 1624.24 235.32 C 1640.46 235.24 1656.69 235.35 1672.91 235.26 L 1673.62 235.90 C 1671.81 238.72 1671.38 241.98 1669.93 244.91 C 1651.20 292.52 1632.49 340.35 1613.96 387.96 C 1601.27 419.85 1589.08 452.01 1576.40 483.87 C 1575.67 486.78 1573.86 489.03 1573.43 492.06 C 1570.64 497.46 1569.14 503.64 1566.54 509.12 C 1565.96 512.18 1563.99 514.46 1563.43 517.53 C 1562.67 519.10 1562.15 521.65 1560.72 522.67 C 1544.87 522.69 1529.01 522.63 1513.16 522.70 L 1512.58 522.00 C 1517.39 512.09 1521.46 501.17 1526.16 491.10 C 1533.32 474.58 1540.49 458.04 1547.58 441.49 C 1548.49 440.12 1549.02 438.77 1548.59 437.10 C 1521.54 370.91 1494.52 303.84 1467.53 237.49 C 1467.11 236.71 1466.99 235.97 1467.16 235.25 Z" fill="#000000" />
<path d="M 403.53 246.76 C 403.85 249.39 403.58 252.70 401.91 254.87 C 400.98 254.97 400.14 254.71 399.37 254.10 C 401.85 253.01 401.87 248.86 403.53 246.76 Z" fill="#ffffff" />
<path d="M 78.04 261.11 C 80.13 260.88 81.11 261.49 80.02 263.59 C 77.34 264.90 77.58 264.62 76.55 267.40 C 73.41 267.88 71.73 270.01 69.78 272.26 C 68.80 271.71 68.36 270.60 68.45 268.94 C 69.53 267.51 71.56 267.14 72.69 265.70 C 74.14 264.07 76.00 261.89 78.04 261.11 Z" fill="#ffffff" />
<path d="M 119.50 261.40 C 118.93 264.08 119.96 266.47 119.05 269.08 C 118.26 271.55 119.39 275.63 117.84 277.79 C 116.13 278.62 114.62 276.55 113.17 275.83 C 110.58 273.42 106.78 273.36 107.53 268.86 C 109.21 267.19 111.47 266.88 112.60 264.57 C 115.01 262.80 116.20 260.21 119.50 261.40 Z" fill="#ffffff" />
<path d="M 391.50 270.51 C 394.09 269.74 399.57 274.16 399.40 277.05 L 397.89 278.53 C 395.68 277.05 394.04 274.69 392.04 272.95 L 391.50 270.51 Z" fill="#ffffff" />
<path d="M 392.04 272.95 C 394.04 274.69 395.68 277.05 397.89 278.53 C 396.05 280.12 395.12 280.88 392.54 280.59 C 392.59 278.02 392.17 275.51 392.04 272.95 Z" fill="#fd04d3" />
<path d="M 104.76 293.20 C 105.56 294.80 106.47 296.14 106.41 298.00 C 106.56 300.49 104.74 302.96 104.09 305.38 C 103.15 306.38 102.27 307.26 100.94 307.71 C 98.79 309.21 96.21 311.54 93.64 309.43 C 92.10 306.53 88.09 305.14 90.12 301.19 C 95.67 301.68 98.97 299.62 102.39 295.49 C 103.03 294.73 103.45 292.63 104.76 293.20 Z" fill="#fd04d3" />
<path d="M 60.43 298.83 C 60.40 301.29 60.59 303.61 61.15 306.02 L 61.51 308.03 C 60.31 309.64 57.84 310.34 55.94 310.41 C 53.28 307.40 49.48 305.73 51.10 301.06 C 52.65 300.59 54.34 301.10 55.94 300.77 C 57.56 300.50 58.85 299.36 60.43 298.83 Z" fill="#ffffff" />
<path d="M 403.05 298.97 C 404.95 300.85 405.84 303.44 408.09 305.28 C 408.04 309.50 409.21 313.28 407.58 317.48 C 403.93 317.18 402.88 311.79 401.69 309.05 C 401.31 306.36 400.29 300.56 403.05 298.97 Z" fill="#fd04d3" />
<path d="M 423.98 303.24 C 425.33 303.58 425.22 305.34 425.13 306.43 C 423.82 310.51 421.48 315.15 417.89 317.65 C 414.73 318.82 410.69 318.81 407.58 317.48 C 409.21 313.28 408.04 309.50 408.09 305.28 C 410.22 305.96 411.63 307.62 413.97 307.82 C 417.92 308.74 420.25 304.26 423.98 303.24 Z" fill="#ffffff" />
<path d="M 116.64 321.35 C 118.55 324.88 119.07 327.40 118.86 331.43 C 119.39 332.42 119.57 333.41 119.40 334.39 C 117.13 335.40 113.28 333.11 112.02 330.99 C 111.27 329.81 109.86 329.42 109.33 328.10 C 109.71 325.72 111.43 323.73 112.96 321.97 C 114.07 321.11 115.33 320.50 116.64 321.35 Z" fill="#ffffff" />
<path d="M 391.47 324.41 C 393.48 323.50 393.88 325.84 395.38 326.64 C 397.86 328.66 400.68 329.59 399.38 333.44 C 396.27 335.84 393.83 338.53 389.81 339.00 L 389.29 338.13 C 389.77 333.29 389.13 328.94 391.47 324.41 Z" fill="#fd04d3" />
<path d="M 71.07 325.03 C 74.43 327.76 75.62 331.96 78.37 335.02 C 78.16 335.60 77.72 336.15 77.04 336.67 L 77.94 334.85 C 74.87 333.33 72.85 331.02 70.58 328.52 C 70.54 327.34 70.67 326.15 71.07 325.03 Z" fill="#ffffff" />
<path d="M 898.97 348.85 C 908.60 348.88 918.20 348.18 927.79 348.24 L 928.25 348.97 C 928.39 360.51 928.20 371.36 922.91 381.88 C 912.52 402.11 890.22 413.47 868.00 413.67 C 859.85 413.97 852.10 413.16 844.90 409.04 C 838.28 405.54 832.64 399.65 831.41 392.03 C 831.41 386.25 830.80 380.49 833.36 375.14 C 834.66 369.37 839.19 364.35 843.59 360.61 C 848.70 356.74 854.44 354.56 860.48 352.61 C 863.01 352.20 865.73 351.65 868.11 350.78 C 872.13 350.53 875.95 349.61 880.00 349.69 C 886.52 349.07 892.55 349.67 898.97 348.85 Z" fill="#ffffff" />
<path d="M 63.80 375.27 C 65.89 378.25 67.62 380.17 70.75 382.15 L 70.71 382.73 C 67.89 384.27 66.19 386.83 63.62 388.66 C 61.32 390.39 60.22 392.64 57.06 392.92 C 55.20 392.08 53.30 390.21 53.77 387.98 C 54.72 383.51 57.58 380.78 60.77 377.80 C 61.67 377.15 62.67 375.22 63.80 375.27 Z" fill="#ffffff" />
<path d="M 102.75 375.36 C 104.26 377.31 105.12 379.42 107.42 380.61 C 107.93 381.15 109.70 381.86 109.54 382.68 C 105.20 385.29 102.25 389.42 98.14 392.25 C 95.39 393.74 94.72 391.58 92.69 390.24 C 92.22 387.36 93.74 385.43 94.90 382.95 C 96.94 380.67 100.36 376.96 102.75 375.36 Z" fill="#fd04d3" />
<path d="M 401.03 386.80 C 402.60 386.95 404.15 387.86 405.63 388.44 C 407.05 390.05 408.15 391.80 409.78 393.22 C 410.51 394.06 411.96 394.74 411.95 395.94 C 411.54 397.72 409.22 398.86 407.85 399.90 C 406.41 399.92 404.85 399.17 403.64 398.44 C 402.64 395.89 400.78 393.95 399.60 391.49 C 398.64 389.93 399.41 387.60 401.03 386.80 Z" fill="#ffffff" />
<path d="M 122.27 410.52 C 122.84 412.31 124.33 416.31 122.17 417.42 C 118.85 418.58 115.89 419.95 112.90 421.77 C 109.65 421.90 110.62 418.70 110.61 416.57 C 112.36 414.94 114.59 414.00 116.31 412.29 C 117.75 410.67 120.25 410.01 122.27 410.52 Z" fill="#fd04d3" />
<path d="M 385.95 417.66 C 388.14 417.89 389.79 420.37 391.82 421.31 C 393.18 423.46 393.08 426.16 394.00 428.20 C 391.01 429.56 386.14 426.95 383.52 425.36 C 383.10 422.61 382.69 418.81 385.95 417.66 Z" fill="#fd04d3" />
<path d="M 391.82 421.31 C 393.56 422.26 395.11 423.15 395.88 425.09 C 395.72 426.26 394.59 427.19 394.00 428.20 C 393.08 426.16 393.18 423.46 391.82 421.31 Z" fill="#ffffff" />
<path d="M 159.51 425.46 C 162.31 425.06 162.90 427.80 164.87 429.29 C 166.96 431.47 170.13 433.24 171.47 435.97 C 170.82 436.96 170.65 438.72 169.54 439.26 C 167.35 439.13 165.35 438.97 163.46 440.30 C 162.47 440.20 160.69 440.77 160.00 440.01 C 158.04 435.43 157.44 430.11 159.51 425.46 Z" fill="#fd04d3" />
<path d="M 343.80 427.70 C 344.30 427.65 344.81 427.62 345.32 427.63 C 348.57 432.41 344.92 439.15 345.18 444.49 C 343.11 447.34 339.74 443.85 337.11 444.19 C 334.82 443.26 332.16 441.59 331.49 439.01 C 331.79 437.90 332.37 436.87 332.76 435.79 C 336.46 433.24 340.69 430.96 343.80 427.70 Z" fill="#fd04d3" />
<path d="M 176.52 451.64 C 177.74 452.98 178.74 454.40 178.35 456.30 C 175.83 457.81 174.28 461.82 171.47 462.39 C 168.67 461.95 165.69 458.54 163.15 458.80 C 165.43 455.89 168.49 454.64 171.54 452.78 C 173.38 452.50 174.61 451.40 176.52 451.64 Z" fill="#fd04d3" />
<path d="M 300.58 457.80 C 301.98 457.60 304.34 456.50 305.31 457.94 C 306.03 460.61 305.38 463.88 304.63 466.48 C 304.25 468.37 303.69 471.22 301.16 470.92 C 301.47 468.02 301.75 464.35 300.35 461.70 C 298.96 460.25 298.40 458.59 296.05 459.72 C 297.49 458.90 299.17 458.63 300.58 457.80 Z" fill="#fd04d3" />
<path d="M 198.91 457.49 C 202.13 457.18 203.66 459.51 206.44 460.70 C 207.67 461.66 210.53 462.22 210.52 463.99 C 208.50 465.85 206.20 467.39 204.06 469.11 C 202.56 470.06 200.66 471.31 199.48 469.17 C 198.90 466.14 197.69 463.06 197.62 459.99 C 197.41 458.88 197.84 458.05 198.91 457.49 Z" fill="#fd04d3" />
<path d="M 331.01 457.23 C 334.80 457.66 339.24 460.19 340.25 464.11 C 340.35 467.03 340.29 469.97 340.15 472.89 C 338.98 471.22 335.77 471.90 334.02 472.03 C 331.25 469.24 328.23 466.93 324.78 465.05 C 322.99 460.99 326.76 456.58 331.01 457.23 Z" fill="#fd04d3" />
<path d="M 135.24 458.76 C 136.00 461.43 133.96 461.99 132.96 464.04 C 131.43 468.35 129.86 472.29 130.26 477.00 C 130.17 478.60 131.11 481.09 129.01 481.70 C 125.16 479.65 123.34 476.33 121.75 472.45 C 121.57 469.25 121.61 466.01 121.86 462.82 L 121.25 461.81 C 120.48 461.66 119.70 461.50 118.93 461.34 C 121.15 461.49 122.91 461.83 124.96 462.71 C 128.66 462.74 132.25 459.03 135.24 458.76 Z" fill="#ffffff" />
<path d="M 163.15 458.80 C 165.69 458.54 168.67 461.95 171.47 462.39 C 172.60 463.50 170.97 464.89 170.41 465.89 C 167.60 466.61 166.23 469.03 163.72 470.19 C 162.57 470.46 161.52 470.41 160.56 470.05 C 160.52 464.93 160.82 463.24 163.15 458.80 Z" fill="#ffffff" />
<path d="M 296.05 459.72 C 298.40 458.59 298.96 460.25 300.35 461.70 C 301.75 464.35 301.47 468.02 301.16 470.92 L 300.17 470.96 C 298.07 469.10 295.82 467.08 294.37 464.66 C 293.55 462.29 294.64 461.36 296.05 459.72 Z" fill="#ffffff" />
<path d="M 170.41 465.89 C 171.31 467.99 169.52 468.92 169.57 470.99 C 168.67 474.27 169.74 477.87 168.88 481.02 C 167.28 482.43 166.84 480.23 165.79 479.70 C 162.86 478.79 162.40 474.75 160.99 472.34 C 161.67 471.27 162.70 470.84 163.72 470.19 C 166.23 469.03 167.60 466.61 170.41 465.89 Z" fill="#fd04d3" />
<path d="M 334.02 472.03 C 335.77 471.90 338.98 471.22 340.15 472.89 C 339.47 473.86 338.30 477.33 336.66 476.48 C 335.99 474.84 334.78 473.62 334.02 472.03 Z" fill="#ffffff" />
<path d="M 223.13 477.82 C 226.61 479.84 229.78 482.98 230.65 487.05 C 232.00 489.21 231.18 492.43 231.36 494.90 C 230.45 499.10 227.95 501.29 225.25 504.33 C 221.47 504.94 222.81 501.33 222.79 499.00 C 222.02 494.07 221.75 487.32 218.02 483.68 C 216.50 483.26 216.15 481.87 214.60 481.32 C 214.58 480.77 214.58 480.22 214.62 479.66 C 217.17 477.32 219.82 476.99 223.13 477.82 Z" fill="#fd04d3" />
<path d="M 281.85 479.74 C 284.15 479.65 286.70 482.27 285.52 484.58 C 282.12 487.03 279.48 490.18 277.58 493.92 C 277.21 496.35 277.54 498.98 277.47 501.44 C 275.62 501.95 273.68 502.38 272.15 500.91 C 270.91 499.64 271.42 497.88 269.77 497.17 C 270.02 494.00 269.77 490.80 269.88 487.61 C 271.21 484.72 272.81 482.47 275.50 480.68 C 277.65 480.53 279.73 479.76 281.85 479.74 Z" fill="#fd04d3" />
</svg>