<?xml version="1.0" encoding="UTF-8" standalone="no"?>
<!-- Generator: Adobe Illustrator 20.1.0, SVG Export Plug-In . SVG Version: 6.00 Build 0)  -->

<svg
   version="1.1"
   id="Layer_1"
   x="0px"
   y="0px"
   viewBox="0 0 614 164.10001"
   xml:space="preserve"
   sodipodi:docname="leidos.svg"
   width="614"
   height="164.10001"
   inkscape:version="1.1.1 (3bf5ae0d25, 2021-09-20)"
   xmlns:inkscape="http://www.inkscape.org/namespaces/inkscape"
   xmlns:sodipodi="http://sodipodi.sourceforge.net/DTD/sodipodi-0.dtd"
   xmlns:xlink="http://www.w3.org/1999/xlink"
   xmlns="http://www.w3.org/2000/svg"
   xmlns:svg="http://www.w3.org/2000/svg"><defs
   id="defs168" /><sodipodi:namedview
   id="namedview166"
   pagecolor="#505050"
   bordercolor="#eeeeee"
   borderopacity="1"
   inkscape:pageshadow="0"
   inkscape:pageopacity="0"
   inkscape:pagecheckerboard="0"
   showgrid="false"
   fit-margin-top="10"
   lock-margins="true"
   fit-margin-left="10"
   fit-margin-right="10"
   fit-margin-bottom="10"
   inkscape:zoom="1.7811448"
   inkscape:cx="145.69282"
   inkscape:cy="83.373346"
   inkscape:window-width="3440"
   inkscape:window-height="1387"
   inkscape:window-x="1432"
   inkscape:window-y="922"
   inkscape:window-maximized="1"
   inkscape:current-layer="Layer_1" />
<style
   type="text/css"
   id="style147">
	.st0{clip-path:url(#SVGID_2_);fill:#12034E;}
	.st1{clip-path:url(#SVGID_2_);fill:#D3D2D2;}
	.st2{clip-path:url(#SVGID_2_);fill:#8D248A;}
</style>
<g
   id="g163"
   transform="translate(10,10)">
	<defs
   id="defs150">
		<rect
   id="SVGID_1_"
   width="594"
   height="146"
   x="0"
   y="0" />
	</defs>
	<clipPath
   id="SVGID_2_">
		<use
   xlink:href="#SVGID_1_"
   style="overflow:visible"
   id="use152"
   x="0"
   y="0"
   width="100%"
   height="100%" />
	</clipPath>
	<path
   class="st0"
   d="m 192.4,34.9 23.1,-5.3 v 112.6 h -23.1 z m 107.7,94.3 c -7.4,9.4 -19.6,14.8 -31.6,14.8 -23.1,0 -41.6,-15.4 -41.6,-39.3 0,-23.9 18.5,-39.3 41.6,-39.3 21.6,0 35.2,15.4 35.2,39.3 v 7.2 H 250 c 1.9,8.8 8.5,14.5 17.4,14.5 7.6,0 12.6,-3.8 16.5,-9.1 z m -19.6,-33 C 280.7,88.5 274.6,82 266.3,82 256.1,82 250.6,88.9 250,96.2 Z m 151.4,45.9 h -21.3 v -9.9 h -0.3 c -3.6,5.4 -12.5,11.7 -23,11.7 -22.2,0 -36.8,-16 -36.8,-38.7 0,-20.8 12.9,-39.9 34.2,-39.9 9.5,0 18.5,2.6 23.7,9.9 h 0.3 V 34.9 l 23.1,-5.3 V 142.1 Z M 392.1,85.7 c -11.6,0 -18.5,7.7 -18.5,19 0,11.3 6.9,19 18.5,19 11.6,0 18.5,-7.7 18.5,-19 0,-11.3 -6.9,-19 -18.5,-19 m 91.1,-20.3 c 23.1,0 41.6,15.4 41.6,39.3 0,23.9 -18.5,39.3 -41.6,39.3 -23.1,0 -41.6,-15.4 -41.6,-39.3 0,-23.9 18.5,-39.3 41.6,-39.3 m 0,58.2 c 11.5,0 18.5,-7.7 18.5,-19 0,-11.3 -7,-19 -18.5,-19 -11.6,0 -18.5,7.7 -18.5,19 0,11.3 6.9,19 18.5,19 M 576.9,89.3 C 573.5,85.1 569,83 563.5,83 c -3.9,0 -8.5,1.7 -8.5,6.2 0,11.1 39,1.7 39,30.2 0,19.1 -18.5,24.7 -34.5,24.7 -10.5,0 -22,-2.6 -29.4,-10.2 l 14,-15.6 c 4.3,5.2 9.4,8.2 16.3,8.2 5.2,0 10.5,-1.4 10.5,-5.4 0,-12 -39,-1.9 -39,-30.4 0,-17.6 15.7,-25.3 31.4,-25.3 9.9,0 20.8,2.5 27.8,9.9 z M 316.1,67.2 h 23.1 v 74.9 H 316.1 Z M 339.3,35 h -23.1 v 19.2 h 23.1 z"
   clip-path="url(#SVGID_2_)"
   id="path155" />
	<path
   class="st1"
   d="M 78.8,85.3 53.6,66.6 172.5,31.3 Z M 0,26.9 l 24.2,18 6.2,-17.2 z"
   clip-path="url(#SVGID_2_)"
   id="path157" />
	<path
   class="st0"
   d="m 40.4,0 -10,27.7 142,3.6 z M 11.9,79 53.6,66.6 24.2,44.9 Z"
   clip-path="url(#SVGID_2_)"
   id="path159" />
	<polygon
   class="st2"
   points="53.6,66.6 172.5,31.3 30.5,27.7 24.2,44.9 "
   clip-path="url(#SVGID_2_)"
   id="polygon161" />
</g>
</svg>
