<?xml version="1.0" encoding="UTF-8" standalone="no"?>
<svg
   width="138.17799"
   height="40"
   viewBox="0 0 138.17799 40"
   fill="none"
   version="1.1"
   id="svg25"
   sodipodi:docname="63da8970052f032a339738df_SeaFare Combination Mark.svg"
   inkscape:version="1.2 (dc2aedaf03, 2022-05-15)"
   xmlns:inkscape="http://www.inkscape.org/namespaces/inkscape"
   xmlns:sodipodi="http://sodipodi.sourceforge.net/DTD/sodipodi-0.dtd"
   xmlns="http://www.w3.org/2000/svg"
   xmlns:svg="http://www.w3.org/2000/svg">
  <sodipodi:namedview
     id="namedview27"
     pagecolor="#ffffff"
     bordercolor="#000000"
     borderopacity="0.25"
     inkscape:showpageshadow="2"
     inkscape:pageopacity="0.0"
     inkscape:pagecheckerboard="0"
     inkscape:deskcolor="#d1d1d1"
     showgrid="false"
     inkscape:zoom="8.705036"
     inkscape:cx="62.952066"
     inkscape:cy="19.98843"
     inkscape:window-width="3440"
     inkscape:window-height="1369"
     inkscape:window-x="1432"
     inkscape:window-y="549"
     inkscape:window-maximized="1"
     inkscape:current-layer="svg25" />
  <g
     clip-path="url(#clip0_508_32523)"
     id="g4"
     style="fill:#273f40;fill-opacity:1">
    <path
       d="m 25.4639,13.1732 c 0,0 -3.7021,3.1879 -6.8787,1.9751 -1.9802,-0.7567 -2.7187,-2.6251 -2.9448,-3.6612 -0.0897,-0.0088 -0.1327,-0.0158 -0.0024,-0.0102 10e-4,0.0032 0.0014,0.007 0.0024,0.0102 0.0934,0.0098 0.2373,0.0215 0.2891,0.0229 -9e-4,-0.0019 -0.0018,-0.0033 -0.0028,-0.0051 0.0309,0.0046 0.0271,0.006 0.0028,0.0051 0.5625,1.03 1.7962,2.786 3.7446,2.9856 2.7786,0.2853 4.7191,-1.1956 5.6263,-1.9565 0,0 1.435,1.0509 3.0495,0.5795 2.3586,-0.6877 2.0844,-3.73624 1.5971,-4.85437 -0.7264,-1.66694 -2.5043,-2.68156 -4.4644,-2.392 0,0 0.5685,-0.53155 1.4635,-0.4341 0,0 -1.6817,-5.579466 -8.651,-5.43538683 C 11.3254,0.148221 11.053,5.40129 11.3072,7.1046 10.4724,6.19816 10.2911,3.30165 11.7958,2.28563 11.7243,2.31641 6.47178,4.59976 8.05866,9.27792 7.33225,8.75289 6.46103,6.63366 7.8405,5.25675 7.8405,5.25675 0,8.77154 0,18.8436 c 0,8.261 5.08157,11.5944 5.08157,11.5944 0,0 -0.14482,2.6806 -2.9757,5.3622 -1.727485,1.6362 -1.839132,2.6433 -0.65399,3.4057 2.17828,1.4011 10.26072,1.0388 14.85832,-1.8115 1.1782,-0.7302 1.7911,-1.6669 1.5248,-3.0919 -0.4489,-2.4032 -1.7182,-4.8432 -1.7182,-4.8432 0,0 6.6068,-5.8331 8.0947,-11.6303 0,0 0.8348,6.3768 -0.2182,8.3333 -1.0524,1.9565 -0.6054,3.0797 0.2051,3.3693 0.8119,0.29 3.3162,-0.3982 4.9139,-4.5649 1.5962,-4.1666 -2.0872,-11.0684 -2.0872,-11.0684 0,0 -0.988,-0.277 -1.5612,-0.7251 z m 0.2653,-5.42047 c 0.0925,-0.22708 0.3396,-0.4038 0.5933,-0.31707 0.2158,0.07367 0.4181,0.30587 0.5358,0.49192 0.199,0.3152 0.2499,0.62155 0.2261,0.98804 C 27.0802,8.98976 26.9676,9.01913 26.9358,8.94593 26.8835,8.82516 26.834,8.68854 26.7457,8.58736 26.4995,8.30246 26.0287,8.48991 25.7862,8.20361 25.6746,8.07166 25.6685,7.901 25.7292,7.75273 Z m -2.8986,0.93581 c 0.0729,-0.22661 0.2219,-0.52596 0.4279,-0.66118 0.2434,-0.16086 0.5498,-0.04243 0.7091,0.17066 0.1037,0.13942 0.1453,0.31987 0.0631,0.48866 C 23.855,9.0541 23.3094,8.98463 23.1291,9.34972 23.0646,9.48121 23.0492,9.63741 23.0273,9.7787 23.0137,9.86403 22.8885,9.86309 22.8628,9.78709 22.7386,9.40894 22.7087,9.07322 22.8306,8.68854 Z m -0.9539,-1.0771 c -0.9446,0.16926 -2.3964,2.17378 -2.1059,4.25156 0,0 -1.258,-1.4739 -0.3144,-3.09146 0.96,-1.64736 2.4203,-1.1601 2.4203,-1.1601 z M 18.0798,5.5118 C 18.41,5.09868 18.9118,4.95087 19.2,5.18074 19.4887,5.41108 19.455,5.93192 19.1248,6.34504 18.7945,6.75769 18.2928,6.9055 18.0041,6.67563 17.7154,6.44529 17.7495,5.92446 18.0798,5.5118 Z M 9.99449,32.0075 C 3.94454,32.1129 6.43674,17.9259 6.43674,17.9259 c 0,0 -0.91933,12.8935 3.51758,12.8259 C 14.651,30.68 12.2597,18.6272 12.2218,18.4351 13.6985,20.8565 15.5586,31.9114 9.99449,32.0075 Z M 19.1056,18.8678 c -2.7374,0.3325 -3.9319,-1.3983 -3.9655,-1.4482 0.049,0.0279 1.9349,1.0785 4.8489,0.5548 2.3198,-0.4177 3.8011,-1.9327 3.8469,-1.9788 -0.0477,0.075 -1.593,2.4927 -4.7303,2.8722 z"
       fill="white"
       id="path2"
       style="fill:#273f40;fill-opacity:1" />
  </g>
  <path
     d="m 47.2442,30.4921 c -1.1729,0 -2.2788,-0.2095 -3.3176,-0.6284 -1.0222,-0.4356 -1.9102,-1.0472 -2.6642,-1.8347 -0.7373,-0.7876 -1.2903,-1.7175 -1.6589,-2.7899 l 3.192,-1.4327 c 0.4692,1.0222 1.1143,1.8264 1.9353,2.4129 0.8378,0.5865 1.7594,0.8797 2.7648,0.8797 0.5362,0 0.997,-0.0838 1.3823,-0.2513 0.3854,-0.1676 0.687,-0.3938 0.9049,-0.6787 0.2178,-0.3016 0.3267,-0.6534 0.3267,-1.0556 0,-0.4356 -0.134,-0.8043 -0.4021,-1.1059 -0.2681,-0.3183 -0.687,-0.5697 -1.2567,-0.754 l -3.6696,-1.2064 c -1.4913,-0.486 -2.6139,-1.1729 -3.3679,-2.061 -0.7541,-0.9048 -1.1311,-1.9856 -1.1311,-3.2423 0,-1.1059 0.2681,-2.0777 0.8043,-2.9155 0.553,-0.8378 1.3154,-1.4913 2.2872,-1.9605 0.9886,-0.4692 2.1196,-0.7037 3.3931,-0.7037 1.1226,0 2.1615,0.1927 3.1166,0.578 0.9551,0.3854 1.7761,0.93 2.4631,1.6338 0.7038,0.7037 1.2316,1.5499 1.5835,2.5385 L 50.763,17.347 c -0.3519,-0.8713 -0.8797,-1.5499 -1.5834,-2.0358 -0.7038,-0.5027 -1.5081,-0.7541 -2.4129,-0.7541 -0.5194,0 -0.9802,0.0838 -1.3824,0.2514 -0.4021,0.1675 -0.7121,0.4105 -0.9299,0.7289 -0.2179,0.3016 -0.3268,0.6535 -0.3268,1.0556 0,0.4357 0.1425,0.821 0.4273,1.1562 0.2849,0.3183 0.7121,0.5697 1.2818,0.754 l 3.5942,1.1561 c 1.508,0.486 2.6307,1.1646 3.3679,2.0359 0.7541,0.8713 1.1311,1.9353 1.1311,3.192 0,1.0891 -0.2849,2.061 -0.8546,2.9155 -0.5697,0.8378 -1.3572,1.4997 -2.3626,1.9856 -0.9886,0.4692 -2.1447,0.7038 -3.4685,0.7038 z"
     fill="white"
     id="path6"
     style="fill:#273f40;fill-opacity:1" />
  <path
     d="m 63.04,30.4921 c -1.4578,0 -2.7229,-0.3184 -3.7953,-0.9551 -1.0724,-0.6535 -1.9018,-1.5248 -2.4882,-2.6139 -0.5865,-1.0892 -0.8797,-2.2956 -0.8797,-3.6193 0,-1.374 0.3016,-2.5972 0.9048,-3.6696 0.62,-1.0724 1.4494,-1.9186 2.4883,-2.5385 1.0388,-0.62 2.2117,-0.93 3.5187,-0.93 1.0892,0 2.0526,0.176 2.8904,0.5278 0.8378,0.3352 1.5416,0.8127 2.1113,1.4327 0.5864,0.6199 1.0305,1.3404 1.3321,2.1615 0.3016,0.8043 0.4524,1.684 0.4524,2.6391 0,0.2681 -0.0168,0.5361 -0.0503,0.8042 -0.0167,0.2514 -0.0586,0.4692 -0.1257,0.6535 H 59.1191 v -2.7647 h 8.1434 l -1.7846,1.307 c 0.1676,-0.7205 0.1592,-1.3573 -0.0251,-1.9102 -0.1843,-0.5697 -0.511,-1.0138 -0.9802,-1.3321 -0.4524,-0.3351 -1.0137,-0.5027 -1.684,-0.5027 -0.6535,0 -1.2148,0.1592 -1.684,0.4775 -0.4691,0.3184 -0.821,0.7876 -1.0556,1.4075 -0.2346,0.62 -0.3267,1.374 -0.2765,2.2621 -0.067,0.7708 0.0252,1.4494 0.2765,2.0359 0.2514,0.5864 0.6367,1.0472 1.1562,1.3823 0.5194,0.3184 1.1478,0.4776 1.885,0.4776 0.6703,0 1.24,-0.1341 1.7091,-0.4022 0.486,-0.2681 0.863,-0.6367 1.1311,-1.1059 l 3.016,1.4327 c -0.2681,0.6702 -0.6953,1.2567 -1.2818,1.7593 -0.5697,0.5027 -1.2483,0.8965 -2.0358,1.1813 -0.7876,0.2681 -1.6505,0.4022 -2.5888,0.4022 z"
     fill="white"
     id="path8"
     style="fill:#273f40;fill-opacity:1" />
  <path
     d="m 76.0425,30.4921 c -0.9886,0 -1.8432,-0.1592 -2.5637,-0.4776 -0.7205,-0.3183 -1.2735,-0.7707 -1.6588,-1.3572 -0.3854,-0.6032 -0.5781,-1.3153 -0.5781,-2.1364 0,-0.7708 0.1759,-1.4494 0.5278,-2.0358 0.3519,-0.6032 0.8881,-1.1059 1.6086,-1.5081 0.7372,-0.4021 1.6504,-0.687 2.7396,-0.8545 l 4.1973,-0.6786 v 2.7647 l -3.5187,0.6283 c -0.5362,0.1006 -0.9467,0.2765 -1.2316,0.5279 -0.2848,0.2345 -0.4273,0.578 -0.4273,1.0304 0,0.4189 0.1592,0.7457 0.4776,0.9803 0.3183,0.2346 0.7121,0.3518 1.1813,0.3518 0.62,0 1.1645,-0.134 1.6337,-0.4021 0.4692,-0.2681 0.8294,-0.6283 1.0808,-1.0808 0.268,-0.4691 0.4021,-0.9802 0.4021,-1.5331 v -3.5691 c 0,-0.5194 -0.2095,-0.955 -0.6284,-1.3069 -0.4021,-0.3519 -0.955,-0.5278 -1.6588,-0.5278 -0.6702,0 -1.2651,0.1843 -1.7845,0.5529 -0.5027,0.3686 -0.8713,0.8546 -1.1059,1.4578 l -3.0161,-1.4327 c 0.2681,-0.7707 0.6954,-1.4326 1.2819,-1.9855 0.5864,-0.553 1.2902,-0.9803 2.1112,-1.2819 0.821,-0.3016 1.7175,-0.4524 2.6893,-0.4524 1.1562,0 2.1783,0.2095 3.0664,0.6284 0.8881,0.4189 1.575,1.0053 2.061,1.7593 0.5027,0.7373 0.754,1.6002 0.754,2.5888 v 9.0483 h -3.5188 v -2.2118 l 0.8546,-0.1508 c -0.4022,0.6032 -0.8462,1.1059 -1.3321,1.508 -0.4859,0.3854 -1.0305,0.6703 -1.6337,0.8546 -0.6032,0.201 -1.2735,0.3016 -2.0107,0.3016 z"
     fill="white"
     id="path10"
     style="fill:#273f40;fill-opacity:1" />
  <path
     d="M 86.7246,30.1905 V 11.4657 h 12.8183 v 3.3931 h -8.9225 v 4.7503 h 7.6658 v 3.3931 h -7.6658 v 7.1883 z"
     fill="white"
     id="path12"
     style="fill:#273f40;fill-opacity:1" />
  <path
     d="m 104.932,30.4921 c -0.989,0 -1.843,-0.1592 -2.564,-0.4776 -0.72,-0.3183 -1.273,-0.7707 -1.659,-1.3572 -0.385,-0.6032 -0.578,-1.3153 -0.578,-2.1364 0,-0.7708 0.176,-1.4494 0.528,-2.0358 0.352,-0.6032 0.888,-1.1059 1.609,-1.5081 0.737,-0.4021 1.65,-0.687 2.739,-0.8545 l 4.198,-0.6786 v 2.7647 l -3.519,0.6283 c -0.536,0.1006 -0.947,0.2765 -1.232,0.5279 -0.285,0.2345 -0.427,0.578 -0.427,1.0304 0,0.4189 0.159,0.7457 0.478,0.9803 0.318,0.2346 0.712,0.3518 1.181,0.3518 0.62,0 1.164,-0.134 1.634,-0.4021 0.469,-0.2681 0.829,-0.6283 1.08,-1.0808 0.268,-0.4691 0.402,-0.9802 0.402,-1.5331 v -3.5691 c 0,-0.5194 -0.209,-0.955 -0.628,-1.3069 -0.402,-0.3519 -0.955,-0.5278 -1.659,-0.5278 -0.67,0 -1.265,0.1843 -1.784,0.5529 -0.503,0.3686 -0.872,0.8546 -1.106,1.4578 l -3.016,-1.4327 c 0.268,-0.7707 0.695,-1.4326 1.282,-1.9855 0.586,-0.553 1.29,-0.9803 2.111,-1.2819 0.821,-0.3016 1.717,-0.4524 2.689,-0.4524 1.156,0 2.178,0.2095 3.067,0.6284 0.888,0.4189 1.575,1.0053 2.061,1.7593 0.502,0.7373 0.754,1.6002 0.754,2.5888 v 9.0483 h -3.519 v -2.2118 l 0.854,-0.1508 c -0.402,0.6032 -0.846,1.1059 -1.332,1.508 -0.486,0.3854 -1.03,0.6703 -1.633,0.8546 -0.604,0.201 -1.274,0.3016 -2.011,0.3016 z"
     fill="white"
     id="path14"
     style="fill:#273f40;fill-opacity:1" />
  <path
     d="M 115.337,30.1905 V 16.4673 h 3.519 v 3.2926 l -0.251,-0.4776 c 0.301,-1.1561 0.796,-1.9353 1.483,-2.3374 0.704,-0.4189 1.533,-0.6284 2.488,-0.6284 h 0.804 v 3.2674 h -1.181 c -0.922,0 -1.667,0.2849 -2.237,0.8546 -0.57,0.5529 -0.854,1.3405 -0.854,2.3626 v 7.3894 z"
     fill="white"
     id="path16"
     style="fill:#273f40;fill-opacity:1" />
  <path
     d="m 131.643,30.4921 c -1.458,0 -2.723,-0.3184 -3.795,-0.9551 -1.073,-0.6535 -1.902,-1.5248 -2.489,-2.6139 -0.586,-1.0892 -0.879,-2.2956 -0.879,-3.6193 0,-1.374 0.301,-2.5972 0.905,-3.6696 0.62,-1.0724 1.449,-1.9186 2.488,-2.5385 1.039,-0.62 2.212,-0.93 3.519,-0.93 1.089,0 2.052,0.176 2.89,0.5278 0.838,0.3352 1.542,0.8127 2.111,1.4327 0.587,0.6199 1.031,1.3404 1.332,2.1615 0.302,0.8043 0.453,1.684 0.453,2.6391 0,0.2681 -0.017,0.5361 -0.051,0.8042 -0.016,0.2514 -0.058,0.4692 -0.125,0.6535 h -10.28 v -2.7647 h 8.143 l -1.784,1.307 c 0.167,-0.7205 0.159,-1.3573 -0.025,-1.9102 -0.185,-0.5697 -0.511,-1.0138 -0.98,-1.3321 -0.453,-0.3351 -1.014,-0.5027 -1.684,-0.5027 -0.654,0 -1.215,0.1592 -1.684,0.4775 -0.47,0.3184 -0.821,0.7876 -1.056,1.4075 -0.235,0.62 -0.327,1.374 -0.276,2.2621 -0.068,0.7708 0.025,1.4494 0.276,2.0359 0.251,0.5864 0.637,1.0472 1.156,1.3823 0.52,0.3184 1.148,0.4776 1.885,0.4776 0.67,0 1.24,-0.1341 1.709,-0.4022 0.486,-0.2681 0.863,-0.6367 1.131,-1.1059 l 3.016,1.4327 c -0.268,0.6702 -0.695,1.2567 -1.281,1.7593 -0.57,0.5027 -1.249,0.8965 -2.036,1.1813 -0.788,0.2681 -1.651,0.4022 -2.589,0.4022 z"
     fill="white"
     id="path18"
     style="fill:#273f40;fill-opacity:1" />
  <defs
     id="defs23">
    <clipPath
       id="clip0_508_32523">
      <rect
         width="30.2778"
         height="40"
         fill="#ffffff"
         id="rect20"
         x="0"
         y="0" />
    </clipPath>
  </defs>
</svg>
