<?xml version="1.0" encoding="UTF-8" standalone="no"?>
<!DOCTYPE svg PUBLIC "-//W3C//DTD SVG 1.1//EN" "http://www.w3.org/Graphics/SVG/1.1/DTD/svg11.dtd">
<!-- Created with Vectornator (http://vectornator.io/) -->
<svg height="100%" stroke-miterlimit="10" style="fill-rule:nonzero;clip-rule:evenodd;stroke-linecap:round;stroke-linejoin:round;" version="1.1" viewBox="0 0 1024 1024" width="100%" xml:space="preserve" xmlns="http://www.w3.org/2000/svg" xmlns:vectornator="http://vectornator.io" xmlns:xlink="http://www.w3.org/1999/xlink">
<defs/>
<g id="Layer-1" vectornator:layerName="Layer 1">
<path d="M141.844 46.8438C89.3767 46.8438 46.8438 89.3767 46.8438 141.844L46.8438 882.156C46.8438 934.623 89.3767 977.156 141.844 977.156L882.156 977.156C934.623 977.156 977.156 934.623 977.156 882.156L977.156 141.844C977.156 89.3767 934.623 46.8438 882.156 46.8438L141.844 46.8438ZM175.344 88.9375L848.656 88.9375C896.375 88.9375 935.062 127.625 935.062 175.344L935.062 848.656C935.062 896.375 896.375 935.062 848.656 935.062L175.344 935.062C127.625 935.062 88.9375 896.375 88.9375 848.656L88.9375 175.344C88.9375 127.625 127.625 88.9375 175.344 88.9375Z" fill="#000000" fill-rule="nonzero" opacity="1" stroke="none"/>
<path d="M74.8346 709.323L265.006 430.636C274.554 416.644 292.214 414.796 304.451 426.51L581.79 691.972" fill="none" opacity="0.990973" stroke="#000000" stroke-linecap="round" stroke-linejoin="bevel" stroke-width="43.7086"/>
<path d="M464.545 579.748L636.17 285.376C645.718 271.384 663.378 269.537 675.615 281.25L952.954 546.712" fill="none" opacity="0.990973" stroke="#000000" stroke-linecap="round" stroke-linejoin="bevel" stroke-width="43.7086"/>
<path d="M74.8346 709.323" fill="none" opacity="1" stroke="#fa0707" stroke-linecap="butt" stroke-linejoin="round" stroke-width="0.10861"/>
<path d="M166.117 221.605C166.117 185.149 195.67 155.595 232.127 155.595C268.583 155.595 298.136 185.149 298.136 221.605C298.136 258.061 268.583 287.615 232.127 287.615C195.67 287.615 166.117 258.061 166.117 221.605Z" fill="none" opacity="0.990973" stroke="#000000" stroke-linecap="butt" stroke-linejoin="bevel" stroke-width="43.7086"/>
</g>
</svg>
