<?xml version="1.0" encoding="UTF-8" standalone="no"?>
<!-- Created with Inkscape (http://www.inkscape.org/) -->

<svg
   xml:space="preserve"
   sodipodi:docname="drawing.svg"
   inkscape:version="1.2 (dc2aedaf03, 2022-05-15)"
   id="svg5"
   version="1.1"
   viewBox="0 0 72.513725 68.291656"
   height="68.291656mm"
   width="72.513725mm"
   xmlns:inkscape="http://www.inkscape.org/namespaces/inkscape"
   xmlns:sodipodi="http://sodipodi.sourceforge.net/DTD/sodipodi-0.dtd"
   xmlns="http://www.w3.org/2000/svg"
   xmlns:svg="http://www.w3.org/2000/svg"
   xmlns:ns1="http://www.iki.fi/pav/software/textext/"><sodipodi:namedview
     id="namedview7"
     pagecolor="#505050"
     bordercolor="#eeeeee"
     borderopacity="1"
     inkscape:pageshadow="0"
     inkscape:pageopacity="0"
     inkscape:pagecheckerboard="0"
     inkscape:document-units="mm"
     showgrid="false"
     inkscape:zoom="4.9170839"
     inkscape:cx="1084.1792"
     inkscape:cy="421.69303"
     inkscape:window-width="3840"
     inkscape:window-height="2054"
     inkscape:window-x="-11"
     inkscape:window-y="-11"
     inkscape:window-maximized="1"
     inkscape:current-layer="layer1"
     inkscape:showpageshadow="0"
     inkscape:deskcolor="#505050"
     showguides="true" /><defs
     id="defs2"><marker
       style="overflow:visible"
       id="TriangleStart-7-8-0"
       refX="2"
       refY="0"
       orient="auto-start-reverse"
       inkscape:stockid="TriangleStart"
       markerWidth="2"
       markerHeight="2"
       viewBox="0 0 5.3244081 6.1553851"
       inkscape:isstock="true"
       inkscape:collect="always"
       preserveAspectRatio="none"
       markerUnits="userSpaceOnUse"><path
         transform="scale(0.5)"
         style="fill:context-stroke;fill-rule:evenodd;stroke:context-stroke;stroke-width:1pt"
         d="M 5.77,0 -2.88,5 V -5 Z"
         id="path135-3-6-0" /></marker></defs><g
     inkscape:label="Layer 1"
     inkscape:groupmode="layer"
     id="layer1"
     style="display:inline"
     transform="translate(-44.829286,-19.810823)"><g
       id="g19463"><path
         style="display:inline;fill:#800080;fill-rule:evenodd;stroke:#333333;stroke-width:0.25;stroke-linecap:square;stroke-linejoin:miter;stroke-miterlimit:4;stroke-dasharray:none;stroke-dashoffset:0;stroke-opacity:1;marker-end:url(#TriangleStart-7-8-0)"
         d="m 65.329283,30.310823 21,23.645834"
         id="path5280-1-3"
         sodipodi:nodetypes="cc" /><path
         style="display:inline;fill:#800080;fill-rule:evenodd;stroke:#ff0000;stroke-width:0.25;stroke-linecap:square;stroke-linejoin:miter;stroke-miterlimit:4;stroke-dasharray:none;stroke-dashoffset:0;stroke-opacity:1;marker-end:url(#TriangleStart-7-8-0)"
         d="m 65.329283,53.956656 21,10e-7"
         id="path4209"
         sodipodi:nodetypes="cc" /><path
         style="display:inline;fill:#800080;fill-rule:evenodd;stroke:#0000ff;stroke-width:0.25;stroke-linecap:square;stroke-linejoin:miter;stroke-miterlimit:4;stroke-dasharray:none;stroke-dashoffset:0;stroke-opacity:1;marker-end:url(#TriangleStart-7-8-0)"
         d="m 65.329283,77.60249 21,-23.645833"
         id="path4211"
         sodipodi:nodetypes="cc" /></g><path
       id="circle9559-6-7"
       style="display:inline;fill:#f9f9f9;stroke:#000000;stroke-width:1;stroke-linecap:square;stroke-dasharray:none;stroke-opacity:1"
       d="m 106.32928,53.956657 c 0,5.52285 -4.47715,10 -9.999997,10 -5.52285,0 -10,-4.47715 -10,-10 0,-5.52285 4.47715,-10 10,-10 5.522847,0 9.999997,4.47715 9.999997,10 z"
       sodipodi:nodetypes="sssss" /><path
       style="display:inline;fill:#800080;fill-rule:evenodd;stroke:#000000;stroke-width:0.25;stroke-linecap:square;stroke-linejoin:miter;stroke-miterlimit:4;stroke-dasharray:none;stroke-dashoffset:0;stroke-opacity:1;marker-end:url(#TriangleStart-7-8-0)"
       d="m 106.32928,53.956657 h 10.43111"
       id="path4234"
       sodipodi:nodetypes="cc" /><g
       id="g19458"><path
         id="circle9559-6-5"
         style="display:inline;fill:none;stroke:#333333;stroke-width:1;stroke-linecap:square;stroke-dasharray:none;stroke-opacity:1"
         d="m 65.329283,30.310823 c 0,5.52285 -4.47715,10 -10,10 -5.522847,0 -10,-4.47715 -10,-10 0,-5.52285 4.477153,-10 10,-10 5.52285,0 10,4.47715 10,10 z"
         sodipodi:nodetypes="sssss" /><path
         id="circle9559-6-1"
         style="display:inline;fill:#ff0000;stroke:#000000;stroke-width:1;stroke-linecap:square;stroke-dasharray:none;stroke-opacity:1"
         d="m 65.329283,53.956656 c 0,5.52285 -4.477153,10 -10,10 -5.522847,0 -10,-4.47715 -10,-10 0,-5.52285 4.477153,-10 10,-10 5.522847,0 10,4.47715 10,10 z"
         sodipodi:nodetypes="sssss" /><path
         id="circle9559-6-2"
         style="display:inline;fill:#0000ff;stroke:#000000;stroke-width:1;stroke-linecap:square;stroke-dasharray:none;stroke-opacity:1"
         d="m 65.329283,77.60249 c 0,5.52285 -4.477153,10 -10,10 -5.522847,0 -10,-4.47715 -10,-10 0,-5.52285 4.477153,-10 10,-10 5.522847,0 10,4.47715 10,10 z"
         sodipodi:nodetypes="sssss" /><g
         transform="matrix(1.76389,0,0,1.76389,52.436062,24.453496)"
         ns1:version="1.8.1"
         ns1:texconverter="pdflatex"
         ns1:pdfconverter="inkscape"
         ns1:text="1"
         ns1:preamble="C:\Users\Sourish\AppData\Roaming\inkscape\extensions\textext\default_packages.tex"
         ns1:scale="5.0"
         ns1:alignment="middle center"
         ns1:stroke-to-path="0"
         ns1:inkscapeversion="1.2"
         ns1:jacobian_sqrt="1.76389"
         id="g4221"><defs
           id="defs4213" /><g
           fill="#000000"
           fill-opacity="1"
           id="g4219"
           transform="translate(-149.603,-128.124)"><g
             transform="translate(148.712,134.765)"
             id="g4217"><path
               d="m 2.9375,-6.375 c 0,-0.25 0,-0.265625 -0.234375,-0.265625 C 2.078125,-6 1.203125,-6 0.890625,-6 v 0.3125 c 0.203125,0 0.78125,0 1.296875,-0.265625 v 5.171875 c 0,0.359375 -0.03125,0.46875 -0.921875,0.46875 h -0.3125 V 0 c 0.34375,-0.03125 1.203125,-0.03125 1.609375,-0.03125 0.390625,0 1.265625,0 1.609375,0.03125 v -0.3125 h -0.3125 c -0.90625,0 -0.921875,-0.109375 -0.921875,-0.46875 z m 0,0"
               id="path4215"
               style="fill:#000000" /></g></g></g></g></g></svg>
