<?xml version="1.0" encoding="UTF-8" standalone="no"?>
<!-- Created with Inkscape (http://www.inkscape.org/) -->

<svg
   xml:space="preserve"
   sodipodi:docname="drawing.svg"
   inkscape:version="1.2 (dc2aedaf03, 2022-05-15)"
   id="svg5"
   version="1.1"
   viewBox="0 0 155.70982 122.78687"
   height="122.78687mm"
   width="155.70982mm"
   xmlns:inkscape="http://www.inkscape.org/namespaces/inkscape"
   xmlns:sodipodi="http://sodipodi.sourceforge.net/DTD/sodipodi-0.dtd"
   xmlns="http://www.w3.org/2000/svg"
   xmlns:svg="http://www.w3.org/2000/svg"
   xmlns:ns1="http://www.iki.fi/pav/software/textext/"><sodipodi:namedview
     id="namedview7"
     pagecolor="#505050"
     bordercolor="#eeeeee"
     borderopacity="1"
     inkscape:pageshadow="0"
     inkscape:pageopacity="0"
     inkscape:pagecheckerboard="0"
     inkscape:document-units="mm"
     showgrid="false"
     inkscape:zoom="2"
     inkscape:cx="500.5"
     inkscape:cy="1104.25"
     inkscape:window-width="3840"
     inkscape:window-height="2054"
     inkscape:window-x="-11"
     inkscape:window-y="-11"
     inkscape:window-maximized="1"
     inkscape:current-layer="layer1"
     inkscape:showpageshadow="0"
     inkscape:deskcolor="#505050"
     showguides="true" /><defs
     id="defs2"><marker
       style="overflow:visible"
       id="TriangleStart-7-8"
       refX="3"
       refY="0"
       orient="auto-start-reverse"
       inkscape:stockid="TriangleStart"
       markerWidth="2"
       markerHeight="2"
       viewBox="0 0 5.3244081 6.1553851"
       inkscape:isstock="true"
       inkscape:collect="always"
       preserveAspectRatio="none"
       markerUnits="userSpaceOnUse"><path
         transform="scale(0.5)"
         style="fill:context-stroke;fill-rule:evenodd;stroke:context-stroke;stroke-width:1pt"
         d="M 5.77,0 -2.88,5 V -5 Z"
         id="path135-3-6" /></marker><marker
       style="overflow:visible"
       id="TriangleStart-7-9-0"
       refX="3"
       refY="0"
       orient="auto-start-reverse"
       inkscape:stockid="TriangleStart"
       markerWidth="2"
       markerHeight="2"
       viewBox="0 0 5.3244081 6.1553851"
       inkscape:isstock="true"
       inkscape:collect="always"
       preserveAspectRatio="none"
       markerUnits="userSpaceOnUse"><path
         transform="scale(0.5)"
         style="fill:context-stroke;fill-rule:evenodd;stroke:context-stroke;stroke-width:1pt"
         d="M 5.77,0 -2.88,5 V -5 Z"
         id="path135-3-9-6" /></marker></defs><g
     inkscape:label="Layer 1"
     inkscape:groupmode="layer"
     id="layer1"
     style="display:inline"
     transform="translate(-13.558695,-230.88952)"><path
       style="display:inline;fill:none;fill-rule:evenodd;stroke:#008000;stroke-width:0.25;stroke-linecap:square;stroke-linejoin:miter;stroke-miterlimit:4;stroke-dasharray:none;stroke-dashoffset:0;stroke-opacity:1;marker-end:url(#TriangleStart-7-8)"
       d="m 100.04751,252.71246 39.6875,33.96875"
       id="path5397-6"
       sodipodi:nodetypes="cc" /><path
       style="display:inline;fill:none;fill-rule:evenodd;stroke:#008000;stroke-width:0.25;stroke-linecap:square;stroke-linejoin:miter;stroke-miterlimit:4;stroke-dasharray:none;stroke-dashoffset:0;stroke-opacity:1;marker-end:url(#TriangleStart-7-8)"
       d="m 100.04751,252.71246 39.6875,11.32291"
       id="path5399-9"
       sodipodi:nodetypes="cc" /><path
       style="display:inline;fill:none;fill-rule:evenodd;stroke:#008000;stroke-width:0.25;stroke-linecap:square;stroke-linejoin:miter;stroke-miterlimit:4;stroke-dasharray:none;stroke-dashoffset:0;stroke-opacity:1;marker-end:url(#TriangleStart-7-8)"
       d="m 100.04751,252.71246 39.6875,56.61458"
       id="path5401-35"
       sodipodi:nodetypes="cc" /><path
       style="display:inline;fill:none;fill-rule:evenodd;stroke:#008000;stroke-width:0.25;stroke-linecap:square;stroke-linejoin:miter;stroke-miterlimit:4;stroke-dasharray:none;stroke-dashoffset:0;stroke-opacity:1;marker-end:url(#TriangleStart-7-9-0)"
       d="m 100.04751,275.35827 39.6875,11.32294"
       id="path5397-7-0"
       sodipodi:nodetypes="cc" /><path
       style="display:inline;fill:none;fill-rule:evenodd;stroke:#008000;stroke-width:0.25;stroke-linecap:square;stroke-linejoin:miter;stroke-miterlimit:4;stroke-dasharray:none;stroke-dashoffset:0;stroke-opacity:1;marker-end:url(#TriangleStart-7-9-0)"
       d="m 100.04751,275.35827 39.6875,-11.3229"
       id="path5399-5-9"
       sodipodi:nodetypes="cc" /><path
       style="display:inline;fill:none;fill-rule:evenodd;stroke:#008000;stroke-width:0.25;stroke-linecap:square;stroke-linejoin:miter;stroke-miterlimit:4;stroke-dasharray:none;stroke-dashoffset:0;stroke-opacity:1;marker-end:url(#TriangleStart-7-9-0)"
       d="m 100.04751,275.35827 39.6875,33.96877"
       id="path5401-3-2"
       sodipodi:nodetypes="cc" /><path
       style="display:inline;fill:none;fill-rule:evenodd;stroke:#008000;stroke-width:0.25;stroke-linecap:square;stroke-linejoin:miter;stroke-miterlimit:4;stroke-dasharray:none;stroke-dashoffset:0;stroke-opacity:1;marker-end:url(#TriangleStart-7-9-0)"
       d="m 100.04751,320.64995 39.6875,-33.96874"
       id="path8327-1"
       sodipodi:nodetypes="cc" /><path
       style="display:inline;fill:none;fill-rule:evenodd;stroke:#008000;stroke-width:0.25;stroke-linecap:square;stroke-linejoin:miter;stroke-miterlimit:4;stroke-dasharray:none;stroke-dashoffset:0;stroke-opacity:1;marker-end:url(#TriangleStart-7-9-0)"
       d="m 100.04751,320.64995 39.6875,-56.61458"
       id="path8329-5"
       sodipodi:nodetypes="cc" /><path
       style="display:inline;fill:none;fill-rule:evenodd;stroke:#008000;stroke-width:0.25;stroke-linecap:square;stroke-linejoin:miter;stroke-miterlimit:4;stroke-dasharray:none;stroke-dashoffset:0;stroke-opacity:1;marker-end:url(#TriangleStart-7-9-0)"
       d="m 100.04751,320.64995 39.6875,-11.32291"
       id="path8331-4"
       sodipodi:nodetypes="cc" /><path
       style="display:inline;fill:none;fill-rule:evenodd;stroke:#008000;stroke-width:0.25;stroke-linecap:square;stroke-linejoin:miter;stroke-miterlimit:4;stroke-dasharray:none;stroke-dashoffset:0;stroke-opacity:1;marker-end:url(#TriangleStart-7-9-0)"
       d="m 100.04751,298.00412 39.6875,-11.32291"
       id="path8333-2"
       sodipodi:nodetypes="cc" /><path
       style="display:inline;fill:none;fill-rule:evenodd;stroke:#008000;stroke-width:0.25;stroke-linecap:square;stroke-linejoin:miter;stroke-miterlimit:4;stroke-dasharray:none;stroke-dashoffset:0;stroke-opacity:1;marker-end:url(#TriangleStart-7-9-0)"
       d="m 100.04751,298.00412 39.6875,-33.96875"
       id="path8335-2"
       sodipodi:nodetypes="cc" /><path
       style="display:inline;fill:none;fill-rule:evenodd;stroke:#008000;stroke-width:0.25;stroke-linecap:square;stroke-linejoin:miter;stroke-miterlimit:4;stroke-dasharray:none;stroke-dashoffset:0;stroke-opacity:1;marker-end:url(#TriangleStart-7-9-0)"
       d="m 100.04751,298.00412 39.6875,11.32292"
       id="path8337-5"
       sodipodi:nodetypes="cc" /><path
       style="display:inline;fill:#800080;fill-rule:evenodd;stroke:#800080;stroke-width:0.25;stroke-linecap:square;stroke-linejoin:miter;stroke-miterlimit:4;stroke-dasharray:none;stroke-dashoffset:0;stroke-opacity:1;marker-end:url(#TriangleStart-7-8)"
       d="M 40.360012,331.97287 80.047515,298.00412"
       id="path7464-7"
       sodipodi:nodetypes="cc" /><path
       style="display:inline;fill:#800080;fill-rule:evenodd;stroke:#800080;stroke-width:0.25;stroke-linecap:square;stroke-linejoin:miter;stroke-miterlimit:4;stroke-dasharray:none;stroke-dashoffset:0;stroke-opacity:1;marker-end:url(#TriangleStart-7-8)"
       d="m 40.360012,331.97287 39.687503,-56.6146"
       id="path7466-9"
       sodipodi:nodetypes="cc" /><path
       style="display:inline;fill:#800080;fill-rule:evenodd;stroke:#800080;stroke-width:0.25;stroke-linecap:square;stroke-linejoin:miter;stroke-miterlimit:4;stroke-dasharray:none;stroke-dashoffset:0;stroke-opacity:1;marker-end:url(#TriangleStart-7-8)"
       d="M 40.360012,331.97287 80.047515,320.64995"
       id="path7468-9"
       sodipodi:nodetypes="cc" /><path
       style="display:inline;fill:#800080;fill-rule:evenodd;stroke:#800080;stroke-width:0.25;stroke-linecap:square;stroke-linejoin:miter;stroke-miterlimit:4;stroke-dasharray:none;stroke-dashoffset:0;stroke-opacity:1;marker-end:url(#TriangleStart-7-8)"
       d="M 40.360012,309.32704 80.047515,298.00412"
       id="path7542-5"
       sodipodi:nodetypes="cc" /><path
       style="display:inline;fill:#800080;fill-rule:evenodd;stroke:#800080;stroke-width:0.25;stroke-linecap:square;stroke-linejoin:miter;stroke-miterlimit:4;stroke-dasharray:none;stroke-dashoffset:0;stroke-opacity:1;marker-end:url(#TriangleStart-7-8)"
       d="M 40.360012,309.32704 80.047515,275.35827"
       id="path7544-9"
       sodipodi:nodetypes="cc" /><path
       style="display:inline;fill:#800080;fill-rule:evenodd;stroke:#800080;stroke-width:0.25;stroke-linecap:square;stroke-linejoin:miter;stroke-miterlimit:4;stroke-dasharray:none;stroke-dashoffset:0;stroke-opacity:1;marker-end:url(#TriangleStart-7-8)"
       d="m 40.360012,309.32704 39.687503,11.32291"
       id="path7546-5"
       sodipodi:nodetypes="cc" /><path
       style="display:inline;fill:#800080;fill-rule:evenodd;stroke:#800080;stroke-width:0.25;stroke-linecap:square;stroke-linejoin:miter;stroke-miterlimit:4;stroke-dasharray:none;stroke-dashoffset:0;stroke-opacity:1;marker-end:url(#TriangleStart-7-8)"
       d="m 40.360012,286.6812 39.687503,11.32292"
       id="path5406-4"
       sodipodi:nodetypes="cc" /><path
       style="display:inline;fill:#800080;fill-rule:evenodd;stroke:#800080;stroke-width:0.25;stroke-linecap:square;stroke-linejoin:miter;stroke-miterlimit:4;stroke-dasharray:none;stroke-dashoffset:0;stroke-opacity:1;marker-end:url(#TriangleStart-7-8)"
       d="M 40.360012,286.6812 80.047515,275.35827"
       id="path5408-0"
       sodipodi:nodetypes="cc" /><path
       style="display:inline;fill:#800080;fill-rule:evenodd;stroke:#800080;stroke-width:0.25;stroke-linecap:square;stroke-linejoin:miter;stroke-miterlimit:4;stroke-dasharray:none;stroke-dashoffset:0;stroke-opacity:1;marker-end:url(#TriangleStart-7-8)"
       d="m 40.360012,286.6812 39.687503,33.96875"
       id="path5410-7"
       sodipodi:nodetypes="cc" /><path
       style="display:inline;fill:#800080;fill-rule:evenodd;stroke:#800080;stroke-width:0.25;stroke-linecap:square;stroke-linejoin:miter;stroke-miterlimit:4;stroke-dasharray:none;stroke-dashoffset:0;stroke-opacity:1;marker-end:url(#TriangleStart-7-8)"
       d="m 40.360012,264.03538 39.687503,11.32289"
       id="path943-0"
       sodipodi:nodetypes="cc" /><path
       style="display:inline;fill:#800080;fill-rule:evenodd;stroke:#800080;stroke-width:0.25;stroke-linecap:square;stroke-linejoin:miter;stroke-miterlimit:4;stroke-dasharray:none;stroke-dashoffset:0;stroke-opacity:1;marker-end:url(#TriangleStart-7-8)"
       d="m 40.360012,264.03538 39.687503,56.61457"
       id="path943-7-5"
       sodipodi:nodetypes="cc" /><path
       style="display:inline;fill:#800080;fill-rule:evenodd;stroke:#800080;stroke-width:0.25;stroke-linecap:square;stroke-linejoin:miter;stroke-miterlimit:4;stroke-dasharray:none;stroke-dashoffset:0;stroke-opacity:1;marker-end:url(#TriangleStart-7-8)"
       d="m 40.360012,264.03538 39.687503,33.96874"
       id="path5282-6"
       sodipodi:nodetypes="cc" /><path
       style="display:inline;fill:#800080;fill-rule:evenodd;stroke:#800080;stroke-width:0.25;stroke-linecap:square;stroke-linejoin:miter;stroke-miterlimit:4;stroke-dasharray:none;stroke-dashoffset:0;stroke-opacity:1;marker-end:url(#TriangleStart-7-8)"
       d="m 40.360012,241.38953 39.687503,56.61459"
       id="path943-8-3"
       sodipodi:nodetypes="cc" /><path
       style="display:inline;fill:#800080;fill-rule:evenodd;stroke:#800080;stroke-width:0.25;stroke-linecap:square;stroke-linejoin:miter;stroke-miterlimit:4;stroke-dasharray:none;stroke-dashoffset:0;stroke-opacity:1;marker-end:url(#TriangleStart-7-8)"
       d="m 40.360012,241.58475 39.687503,33.96874"
       id="path5280-1"
       sodipodi:nodetypes="cc" /><path
       style="display:inline;fill:#800080;fill-rule:evenodd;stroke:#800080;stroke-width:0.25;stroke-linecap:square;stroke-linejoin:miter;stroke-miterlimit:4;stroke-dasharray:none;stroke-dashoffset:0;stroke-opacity:1;marker-end:url(#TriangleStart-7-8)"
       d="m 40.360012,241.38953 39.687503,79.26042"
       id="path5284-7"
       sodipodi:nodetypes="cc" /><path
       id="path8769-8"
       style="fill:none;stroke:#ff0000;stroke-width:1;stroke-linecap:square;stroke-dasharray:none;stroke-opacity:1"
       d="m 40.360012,241.38953 c 0,5.52285 -4.477153,10 -10,10 -5.522847,0 -10,-4.47715 -10,-10 0,-5.52285 4.477153,-10 10,-10 5.522847,0 10,4.47715 10,10 z"
       sodipodi:nodetypes="sssss" /><path
       id="circle9559-6"
       style="fill:#ff0000;stroke:#000000;stroke-width:1;stroke-linecap:square;stroke-dasharray:none;stroke-opacity:1"
       d="m 40.360012,264.03537 c 0,5.52285 -4.477153,10 -10,10 -5.522847,0 -10,-4.47715 -10,-10 0,-5.52285 4.477153,-10 10,-10 5.522847,0 10,4.47715 10,10 z"
       sodipodi:nodetypes="sssss" /><path
       id="circle9662-42"
       style="fill:#ff0000;stroke:#000000;stroke-width:1;stroke-linecap:square;stroke-dasharray:none;stroke-opacity:1"
       d="m 40.360012,286.6812 c 0,5.52285 -4.477153,10 -10,10 -5.522847,0 -10,-4.47715 -10,-10 0,-5.52285 4.477153,-10 10,-10 5.522847,0 10,4.47715 10,10 z"
       sodipodi:nodetypes="sssss" /><path
       id="circle9662-9-7"
       style="fill:#ff0000;stroke:#000000;stroke-width:1;stroke-linecap:square;stroke-dasharray:none;stroke-opacity:1"
       d="m 40.360012,309.32704 c 0,5.52285 -4.477153,10 -10,10 -5.522847,0 -10,-4.47715 -10,-10 0,-5.52285 4.477153,-10 10,-10 5.522847,0 10,4.47715 10,10 z"
       sodipodi:nodetypes="sssss" /><path
       id="circle9662-0-1"
       style="fill:#ff0000;stroke:#000000;stroke-width:1;stroke-linecap:square;stroke-dasharray:none;stroke-opacity:1"
       d="m 40.360012,331.97287 c 0,5.52285 -4.477153,10 -10,10 -5.522847,0 -10,-4.47715 -10,-10 0,-5.52285 4.477153,-10 10,-10 5.522847,0 10,4.47715 10,10 z"
       sodipodi:nodetypes="sssss" /><path
       id="circle9559-3-1"
       style="fill:none;fill-opacity:1;stroke:#000eff;stroke-width:1;stroke-linecap:square;stroke-dasharray:none;stroke-opacity:1"
       d="m 100.04751,252.71246 c 0,5.52285 -4.477148,10 -9.999995,10 -5.522847,0 -10,-4.47715 -10,-10 0,-5.52285 4.477153,-10 10,-10 5.522847,0 9.999995,4.47715 9.999995,10 z"
       sodipodi:nodetypes="sssss" /><path
       id="circle9662-1-1"
       style="fill:#000eff;fill-opacity:1;stroke:#000000;stroke-width:1;stroke-linecap:square;stroke-dasharray:none;stroke-opacity:1"
       d="m 100.04751,275.35827 c 0,5.52285 -4.477148,10 -9.999995,10 -5.522847,0 -10,-4.47715 -10,-10 0,-5.52285 4.477153,-10 10,-10 5.522847,0 9.999995,4.47715 9.999995,10 z"
       sodipodi:nodetypes="sssss" /><path
       id="circle9662-9-0-1"
       style="fill:#000eff;fill-opacity:1;stroke:#000000;stroke-width:1;stroke-linecap:square;stroke-dasharray:none;stroke-opacity:1"
       d="m 100.04751,298.00412 c 0,5.52285 -4.477148,10 -9.999995,10 -5.522847,0 -10,-4.47715 -10,-10 0,-5.52285 4.477153,-10 10,-10 5.522847,0 9.999995,4.47715 9.999995,10 z"
       sodipodi:nodetypes="sssss" /><path
       id="circle9662-0-6-7"
       style="fill:#000eff;fill-opacity:1;stroke:#000000;stroke-width:1;stroke-linecap:square;stroke-dasharray:none;stroke-opacity:1"
       d="m 100.04751,320.64995 c 0,5.52285 -4.477148,10 -9.999995,10 -5.522847,0 -10,-4.47715 -10,-10 0,-5.52285 4.477153,-10 10,-10 5.522847,0 9.999995,4.47715 9.999995,10 z"
       sodipodi:nodetypes="sssss" /><path
       id="circle9662-4-7"
       style="fill:#fbff00;fill-opacity:1;stroke:#000000;stroke-width:1;stroke-linecap:square;stroke-dasharray:none;stroke-opacity:1"
       d="m 159.73501,264.03537 a 10,10 0 0 1 -10,10 10,10 0 0 1 -10,-10 10,10 0 0 1 10,-10 10,10 0 0 1 10,10 z" /><path
       id="circle9662-9-2-0"
       style="fill:#fbff00;fill-opacity:1;stroke:#000000;stroke-width:1;stroke-linecap:square;stroke-dasharray:none;stroke-opacity:1"
       d="m 159.73501,286.68121 a 10,10 0 0 1 -10,10 10,10 0 0 1 -10,-10 10,10 0 0 1 10,-10 10,10 0 0 1 10,10 z" /><path
       id="circle9662-0-9-7"
       style="fill:#fbff00;fill-opacity:1;stroke:#000000;stroke-width:1;stroke-linecap:square;stroke-dasharray:none;stroke-opacity:1"
       d="m 159.73501,309.32704 a 10,10 0 0 1 -10,10 10,10 0 0 1 -10,-10 10,10 0 0 1 10,-10 10,10 0 0 1 10,10 z" /><g
       transform="matrix(0.705556,0,0,0.705556,13.558519,347.30975)"
       ns1:version="1.8.1"
       ns1:texconverter="pdflatex"
       ns1:pdfconverter="inkscape"
       ns1:text="Input layer"
       ns1:preamble="C:\Users\Sourish\AppData\Roaming\inkscape\extensions\textext\default_packages.tex"
       ns1:scale="2.0"
       ns1:alignment="middle center"
       ns1:stroke-to-path="0"
       ns1:inkscapeversion="1.2"
       ns1:jacobian_sqrt="0.705556"
       id="g14808"><defs
         id="id-efd04f43-64ba-407b-9abe-cfbe953b799f" /><g
         fill="#000000"
         fill-opacity="1"
         id="id-e7a297ab-4980-4817-a057-8d20bbe10543"
         transform="translate(-148.993,-127.843)"><g
           transform="translate(148.712,134.765)"
           id="g14775"><path
             d="M 2.25,-6.03125 C 2.25,-6.390625 2.265625,-6.5 3.0625,-6.5 h 0.25 v -0.3125 c -0.34375,0.03125 -1.125,0.03125 -1.515625,0.03125 -0.375,0 -1.171875,0 -1.515625,-0.03125 V -6.5 h 0.25 c 0.796875,0 0.828125,0.109375 0.828125,0.46875 v 5.25 c 0,0.359375 -0.03125,0.46875 -0.828125,0.46875 h -0.25 V 0 c 0.34375,-0.03125 1.140625,-0.03125 1.515625,-0.03125 0.390625,0 1.171875,0 1.515625,0.03125 v -0.3125 h -0.25 C 2.265625,-0.3125 2.25,-0.421875 2.25,-0.78125 Z m 0,0"
             id="id-96f30c6c-13f7-44b8-aadf-a5b6f7b16fff" /></g><g
           transform="translate(152.309,134.765)"
           id="g14778"><path
             d="M 1.09375,-3.421875 V -0.75 c 0,0.4375 -0.109375,0.4375 -0.78125,0.4375 V 0 c 0.359375,-0.015625 0.859375,-0.03125 1.140625,-0.03125 0.25,0 0.765625,0.015625 1.109375,0.03125 v -0.3125 c -0.671875,0 -0.78125,0 -0.78125,-0.4375 V -2.59375 C 1.78125,-3.625 2.5,-4.1875 3.125,-4.1875 c 0.640625,0 0.75,0.53125 0.75,1.109375 V -0.75 c 0,0.4375 -0.109375,0.4375 -0.78125,0.4375 V 0 c 0.34375,-0.015625 0.859375,-0.03125 1.125,-0.03125 0.25,0 0.78125,0.015625 1.109375,0.03125 v -0.3125 c -0.515625,0 -0.765625,0 -0.765625,-0.296875 v -1.90625 c 0,-0.859375 0,-1.15625 -0.3125,-1.515625 -0.140625,-0.171875 -0.46875,-0.375 -1.046875,-0.375 C 2.46875,-4.40625 2,-3.984375 1.71875,-3.359375 V -4.40625 L 0.3125,-4.296875 v 0.3125 c 0.703125,0 0.78125,0.0625 0.78125,0.5625 z m 0,0"
             id="id-ebbc7a7b-e85f-4504-b555-14b4cd7d7ce9" /></g><g
           transform="translate(157.845,134.765)"
           id="g14781"><path
             d="m 1.71875,-3.75 v -0.65625 l -1.4375,0.109375 v 0.3125 c 0.703125,0 0.78125,0.0625 0.78125,0.5 v 4.65625 C 1.0625,1.625 0.953125,1.625 0.28125,1.625 V 1.9375 C 0.625,1.921875 1.140625,1.90625 1.390625,1.90625 c 0.28125,0 0.78125,0.015625 1.125,0.03125 V 1.625 C 1.859375,1.625 1.75,1.625 1.75,1.171875 V -0.59375 c 0.046875,0.171875 0.46875,0.703125 1.21875,0.703125 1.1875,0 2.21875,-0.984375 2.21875,-2.265625 0,-1.265625 -0.953125,-2.25 -2.078125,-2.25 -0.78125,0 -1.203125,0.4375 -1.390625,0.65625 z M 1.75,-1.140625 v -2.21875 C 2.03125,-3.875 2.515625,-4.15625 3.03125,-4.15625 c 0.734375,0 1.328125,0.875 1.328125,2 0,1.203125 -0.6875,2.046875 -1.421875,2.046875 -0.40625,0 -0.78125,-0.203125 -1.046875,-0.609375 C 1.75,-0.921875 1.75,-0.9375 1.75,-1.140625 Z m 0,0"
             id="id-b38f70ed-573c-4cd9-9573-66930f30beca" /></g><g
           transform="translate(163.38,134.765)"
           id="g14784"><path
             d="M 3.890625,-0.78125 V 0.109375 L 5.328125,0 V -0.3125 C 4.640625,-0.3125 4.5625,-0.375 4.5625,-0.875 v -3.53125 l -1.46875,0.109375 v 0.3125 c 0.6875,0 0.78125,0.0625 0.78125,0.5625 v 1.765625 c 0,0.875 -0.484375,1.546875 -1.21875,1.546875 -0.828125,0 -0.875,-0.46875 -0.875,-0.984375 v -3.3125 L 0.3125,-4.296875 v 0.3125 c 0.78125,0 0.78125,0.03125 0.78125,0.90625 v 1.5 c 0,0.78125 0,1.6875 1.515625,1.6875 0.5625,0 1,-0.28125 1.28125,-0.890625 z m 0,0"
             id="id-14fa9cfa-3113-4461-bf87-e4316f3b2333" /></g><g
           transform="translate(168.915,134.765)"
           id="g14787"><path
             d="m 1.71875,-3.984375 h 1.4375 v -0.3125 H 1.71875 V -6.125 h -0.25 c 0,0.8125 -0.296875,1.875 -1.28125,1.921875 v 0.21875 h 0.84375 v 2.75 c 0,1.21875 0.9375,1.34375 1.296875,1.34375 0.703125,0 0.984375,-0.703125 0.984375,-1.34375 v -0.5625 h -0.25 V -1.25 c 0,0.734375 -0.296875,1.109375 -0.671875,1.109375 -0.671875,0 -0.671875,-0.90625 -0.671875,-1.078125 z m 0,0"
             id="id-6e52d7ee-c3f8-4543-8a0a-16fdf0a246a3" /></g></g><g
         fill="#000000"
         fill-opacity="1"
         id="id-7fc4eb65-f065-4376-81ad-dfe81635b1f2"
         transform="translate(-148.993,-127.843)"><g
           transform="translate(176.107,134.765)"
           id="g14791"><path
             d="M 1.765625,-6.921875 0.328125,-6.8125 V -6.5 c 0.703125,0 0.78125,0.0625 0.78125,0.5625 V -0.75 c 0,0.4375 -0.109375,0.4375 -0.78125,0.4375 V 0 C 0.65625,-0.015625 1.1875,-0.03125 1.4375,-0.03125 c 0.25,0 0.734375,0.015625 1.109375,0.03125 v -0.3125 c -0.671875,0 -0.78125,0 -0.78125,-0.4375 z m 0,0"
             id="id-a60ddfec-2222-4d18-82d2-24edfeb4bca9" /></g><g
           transform="translate(178.875,134.765)"
           id="g14794"><path
             d="m 3.3125,-0.75 c 0.046875,0.390625 0.3125,0.8125 0.78125,0.8125 0.21875,0 0.828125,-0.140625 0.828125,-0.953125 v -0.5625 h -0.25 v 0.5625 c 0,0.578125 -0.25,0.640625 -0.359375,0.640625 -0.328125,0 -0.375,-0.453125 -0.375,-0.5 v -1.984375 c 0,-0.421875 0,-0.8125 -0.359375,-1.1875 C 3.1875,-4.3125 2.6875,-4.46875 2.21875,-4.46875 c -0.828125,0 -1.515625,0.46875 -1.515625,1.125 0,0.296875 0.203125,0.46875 0.46875,0.46875 0.28125,0 0.453125,-0.203125 0.453125,-0.453125 0,-0.125 -0.046875,-0.453125 -0.515625,-0.453125 C 1.390625,-4.140625 1.875,-4.25 2.1875,-4.25 c 0.5,0 1.0625,0.390625 1.0625,1.28125 v 0.359375 c -0.515625,0.03125 -1.203125,0.0625 -1.828125,0.359375 -0.75,0.34375 -1,0.859375 -1,1.296875 0,0.8125 0.96875,1.0625 1.59375,1.0625 0.65625,0 1.109375,-0.40625 1.296875,-0.859375 z M 3.25,-2.390625 v 1 c 0,0.9375 -0.71875,1.28125 -1.171875,1.28125 -0.484375,0 -0.890625,-0.34375 -0.890625,-0.84375 0,-0.546875 0.421875,-1.375 2.0625,-1.4375 z m 0,0"
             id="id-9eb2bd93-0c5a-4b3b-924d-ef379dc21e18" /></g></g><g
         fill="#000000"
         fill-opacity="1"
         id="id-4af61bb0-c2e5-4616-bd6f-7fbcb7cd0459"
         transform="translate(-148.993,-127.843)"><g
           transform="translate(183.577,134.765)"
           id="g14798"><path
             d="m 4.140625,-3.34375 c 0.25,-0.640625 0.765625,-0.640625 0.921875,-0.640625 v -0.3125 c -0.234375,0.015625 -0.515625,0.03125 -0.75,0.03125 -0.171875,0 -0.640625,-0.015625 -0.859375,-0.03125 v 0.3125 c 0.3125,0 0.46875,0.171875 0.46875,0.421875 0,0.109375 -0.015625,0.125 -0.0625,0.25 L 2.84375,-0.875 1.75,-3.546875 C 1.703125,-3.65625 1.6875,-3.6875 1.6875,-3.734375 c 0,-0.25 0.359375,-0.25 0.5625,-0.25 v -0.3125 c -0.265625,0.015625 -0.921875,0.03125 -1.09375,0.03125 -0.265625,0 -0.671875,-0.015625 -0.96875,-0.03125 v 0.3125 c 0.484375,0 0.671875,0 0.8125,0.34375 L 2.5,0 C 2.4375,0.125 2.296875,0.453125 2.25,0.59375 2.03125,1.140625 1.75,1.828125 1.109375,1.828125 c -0.046875,0 -0.28125,0 -0.46875,-0.1875 0.3125,-0.03125 0.390625,-0.25 0.390625,-0.421875 0,-0.25 -0.1875,-0.40625 -0.421875,-0.40625 -0.203125,0 -0.421875,0.125 -0.421875,0.421875 0,0.453125 0.421875,0.8125 0.921875,0.8125 0.625,0 1.03125,-0.578125 1.265625,-1.140625 z m 0,0"
             id="id-8d59c877-0e63-4da3-9448-eb4654287e5c" /></g></g><g
         fill="#000000"
         fill-opacity="1"
         id="id-87f61e3f-b57d-4ea7-902d-6528f9924182"
         transform="translate(-148.993,-127.843)"><g
           transform="translate(188.566,134.765)"
           id="g14802"><path
             d="M 1.109375,-2.515625 C 1.171875,-4 2.015625,-4.25 2.359375,-4.25 c 1.015625,0 1.125,1.34375 1.125,1.734375 z m 0,0.21875 h 2.78125 c 0.21875,0 0.25,0 0.25,-0.21875 0,-0.984375 -0.546875,-1.953125 -1.78125,-1.953125 -1.15625,0 -2.078125,1.03125 -2.078125,2.28125 0,1.328125 1.046875,2.296875 2.1875,2.296875 C 3.6875,0.109375 4.140625,-1 4.140625,-1.1875 4.140625,-1.28125 4.0625,-1.3125 4,-1.3125 c -0.078125,0 -0.109375,0.0625 -0.125,0.140625 -0.34375,1.03125 -1.25,1.03125 -1.34375,1.03125 -0.5,0 -0.890625,-0.296875 -1.125,-0.671875 -0.296875,-0.46875 -0.296875,-1.125 -0.296875,-1.484375 z m 0,0"
             id="id-2db7a3a7-0a9f-48f8-9f6b-c2e7f6b025dc" /></g><g
           transform="translate(192.994,134.765)"
           id="g14805"><path
             d="M 1.671875,-3.3125 V -4.40625 L 0.28125,-4.296875 v 0.3125 c 0.703125,0 0.78125,0.0625 0.78125,0.5625 V -0.75 c 0,0.4375 -0.109375,0.4375 -0.78125,0.4375 V 0 c 0.390625,-0.015625 0.859375,-0.03125 1.140625,-0.03125 0.390625,0 0.859375,0 1.265625,0.03125 V -0.3125 H 2.46875 c -0.734375,0 -0.75,-0.109375 -0.75,-0.46875 V -2.3125 c 0,-0.984375 0.421875,-1.875 1.171875,-1.875 0.0625,0 0.09375,0 0.109375,0.015625 -0.03125,0 -0.234375,0.125 -0.234375,0.390625 0,0.265625 0.21875,0.421875 0.4375,0.421875 0.171875,0 0.421875,-0.125 0.421875,-0.4375 0,-0.3125 -0.3125,-0.609375 -0.734375,-0.609375 -0.734375,0 -1.09375,0.671875 -1.21875,1.09375 z m 0,0"
             id="id-458e3958-06cc-4720-a336-5448ab95ec31" /></g></g></g><g
       transform="matrix(0.705556,0,0,0.705556,70.724409,347.30975)"
       ns1:version="1.8.1"
       ns1:texconverter="pdflatex"
       ns1:pdfconverter="inkscape"
       ns1:text="Hidden layer"
       ns1:preamble="C:\Users\Sourish\AppData\Roaming\inkscape\extensions\textext\default_packages.tex"
       ns1:scale="2.0"
       ns1:alignment="middle center"
       ns1:stroke-to-path="0"
       ns1:inkscapeversion="1.2"
       ns1:jacobian_sqrt="0.705556"
       id="g15224"><defs
         id="id-4b5749b3-8f10-4d54-bc79-7708d5443610" /><g
         fill="#000000"
         fill-opacity="1"
         id="id-bd15b719-3480-4207-b209-edbe76240d40"
         transform="translate(-149.04,-127.843)"><g
           transform="translate(148.712,134.765)"
           id="g15188"><path
             d="M 6.109375,-6.03125 C 6.109375,-6.390625 6.125,-6.5 6.890625,-6.5 h 0.25 v -0.3125 c -0.359375,0.03125 -1.09375,0.03125 -1.46875,0.03125 -0.375,0 -1.125,0 -1.46875,-0.03125 V -6.5 H 4.4375 c 0.765625,0 0.78125,0.109375 0.78125,0.46875 v 2.328125 H 2.25 V -6.03125 C 2.25,-6.390625 2.265625,-6.5 3.03125,-6.5 h 0.234375 v -0.3125 c -0.34375,0.03125 -1.078125,0.03125 -1.46875,0.03125 -0.375,0 -1.125,0 -1.46875,-0.03125 V -6.5 H 0.5625 c 0.765625,0 0.796875,0.109375 0.796875,0.46875 v 5.25 c 0,0.359375 -0.03125,0.46875 -0.796875,0.46875 H 0.328125 V 0 c 0.34375,-0.03125 1.09375,-0.03125 1.46875,-0.03125 0.375,0 1.125,0 1.46875,0.03125 V -0.3125 H 3.03125 C 2.265625,-0.3125 2.25,-0.421875 2.25,-0.78125 v -2.609375 h 2.96875 v 2.609375 c 0,0.359375 -0.015625,0.46875 -0.78125,0.46875 H 4.203125 V 0 c 0.34375,-0.03125 1.078125,-0.03125 1.453125,-0.03125 0.390625,0 1.125,0 1.484375,0.03125 v -0.3125 h -0.25 c -0.765625,0 -0.78125,-0.109375 -0.78125,-0.46875 z m 0,0"
             id="id-3d9ab8d4-e1fe-4dff-a72c-f76aaacf2491" /></g><g
           transform="translate(156.184,134.765)"
           id="g15191"><path
             d="M 1.765625,-4.40625 0.375,-4.296875 v 0.3125 c 0.640625,0 0.734375,0.0625 0.734375,0.546875 V -0.75 c 0,0.4375 -0.109375,0.4375 -0.78125,0.4375 V 0 C 0.640625,-0.015625 1.1875,-0.03125 1.421875,-0.03125 1.78125,-0.03125 2.125,-0.015625 2.46875,0 v -0.3125 c -0.671875,0 -0.703125,-0.046875 -0.703125,-0.4375 z m 0.03125,-1.734375 c 0,-0.3125 -0.234375,-0.53125 -0.515625,-0.53125 -0.3125,0 -0.53125,0.265625 -0.53125,0.53125 0,0.265625 0.21875,0.53125 0.53125,0.53125 0.28125,0 0.515625,-0.21875 0.515625,-0.53125 z m 0,0"
             id="id-a986f276-f5bc-4dff-ba8b-84eb7a835a6f" /></g><g
           transform="translate(158.952,134.765)"
           id="g15194"><path
             d="m 3.78125,-0.546875 v 0.65625 L 5.25,0 v -0.3125 c -0.6875,0 -0.78125,-0.0625 -0.78125,-0.5625 V -6.921875 L 3.046875,-6.8125 V -6.5 c 0.6875,0 0.765625,0.0625 0.765625,0.5625 v 2.15625 c -0.28125,-0.359375 -0.71875,-0.625 -1.25,-0.625 -1.171875,0 -2.21875,0.984375 -2.21875,2.265625 0,1.265625 0.96875,2.25 2.109375,2.25 0.640625,0 1.078125,-0.34375 1.328125,-0.65625 z m 0,-2.671875 v 2.046875 c 0,0.171875 0,0.1875 -0.109375,0.359375 C 3.375,-0.328125 2.9375,-0.109375 2.5,-0.109375 2.046875,-0.109375 1.6875,-0.375 1.453125,-0.75 1.203125,-1.15625 1.171875,-1.71875 1.171875,-2.140625 1.171875,-2.5 1.1875,-3.09375 1.46875,-3.546875 1.6875,-3.859375 2.0625,-4.1875 2.609375,-4.1875 c 0.34375,0 0.765625,0.15625 1.0625,0.59375 0.109375,0.171875 0.109375,0.1875 0.109375,0.375 z m 0,0"
             id="id-74681acf-de36-476c-ae91-a97b689d0365" /></g><g
           transform="translate(164.487,134.765)"
           id="g15197"><path
             d="m 3.78125,-0.546875 v 0.65625 L 5.25,0 v -0.3125 c -0.6875,0 -0.78125,-0.0625 -0.78125,-0.5625 V -6.921875 L 3.046875,-6.8125 V -6.5 c 0.6875,0 0.765625,0.0625 0.765625,0.5625 v 2.15625 c -0.28125,-0.359375 -0.71875,-0.625 -1.25,-0.625 -1.171875,0 -2.21875,0.984375 -2.21875,2.265625 0,1.265625 0.96875,2.25 2.109375,2.25 0.640625,0 1.078125,-0.34375 1.328125,-0.65625 z m 0,-2.671875 v 2.046875 c 0,0.171875 0,0.1875 -0.109375,0.359375 C 3.375,-0.328125 2.9375,-0.109375 2.5,-0.109375 2.046875,-0.109375 1.6875,-0.375 1.453125,-0.75 1.203125,-1.15625 1.171875,-1.71875 1.171875,-2.140625 1.171875,-2.5 1.1875,-3.09375 1.46875,-3.546875 1.6875,-3.859375 2.0625,-4.1875 2.609375,-4.1875 c 0.34375,0 0.765625,0.15625 1.0625,0.59375 0.109375,0.171875 0.109375,0.1875 0.109375,0.375 z m 0,0"
             id="id-56c723b2-dc1a-4259-80fa-330408f3296a" /></g><g
           transform="translate(170.022,134.765)"
           id="g15200"><path
             d="M 1.109375,-2.515625 C 1.171875,-4 2.015625,-4.25 2.359375,-4.25 c 1.015625,0 1.125,1.34375 1.125,1.734375 z m 0,0.21875 h 2.78125 c 0.21875,0 0.25,0 0.25,-0.21875 0,-0.984375 -0.546875,-1.953125 -1.78125,-1.953125 -1.15625,0 -2.078125,1.03125 -2.078125,2.28125 0,1.328125 1.046875,2.296875 2.1875,2.296875 C 3.6875,0.109375 4.140625,-1 4.140625,-1.1875 4.140625,-1.28125 4.0625,-1.3125 4,-1.3125 c -0.078125,0 -0.109375,0.0625 -0.125,0.140625 -0.34375,1.03125 -1.25,1.03125 -1.34375,1.03125 -0.5,0 -0.890625,-0.296875 -1.125,-0.671875 -0.296875,-0.46875 -0.296875,-1.125 -0.296875,-1.484375 z m 0,0"
             id="id-21e7aa02-6607-4b27-9c64-686d036a1f57" /></g><g
           transform="translate(174.449,134.765)"
           id="g15203"><path
             d="M 1.09375,-3.421875 V -0.75 c 0,0.4375 -0.109375,0.4375 -0.78125,0.4375 V 0 c 0.359375,-0.015625 0.859375,-0.03125 1.140625,-0.03125 0.25,0 0.765625,0.015625 1.109375,0.03125 v -0.3125 c -0.671875,0 -0.78125,0 -0.78125,-0.4375 V -2.59375 C 1.78125,-3.625 2.5,-4.1875 3.125,-4.1875 c 0.640625,0 0.75,0.53125 0.75,1.109375 V -0.75 c 0,0.4375 -0.109375,0.4375 -0.78125,0.4375 V 0 c 0.34375,-0.015625 0.859375,-0.03125 1.125,-0.03125 0.25,0 0.78125,0.015625 1.109375,0.03125 v -0.3125 c -0.515625,0 -0.765625,0 -0.765625,-0.296875 v -1.90625 c 0,-0.859375 0,-1.15625 -0.3125,-1.515625 -0.140625,-0.171875 -0.46875,-0.375 -1.046875,-0.375 C 2.46875,-4.40625 2,-3.984375 1.71875,-3.359375 V -4.40625 L 0.3125,-4.296875 v 0.3125 c 0.703125,0 0.78125,0.0625 0.78125,0.5625 z m 0,0"
             id="id-05b14d24-20f6-40ea-a6b7-334e0b17d8a2" /></g></g><g
         fill="#000000"
         fill-opacity="1"
         id="id-ad1a84b8-a1b4-473e-8a04-e81606da82eb"
         transform="translate(-149.04,-127.843)"><g
           transform="translate(183.302,134.765)"
           id="g15207"><path
             d="M 1.765625,-6.921875 0.328125,-6.8125 V -6.5 c 0.703125,0 0.78125,0.0625 0.78125,0.5625 V -0.75 c 0,0.4375 -0.109375,0.4375 -0.78125,0.4375 V 0 C 0.65625,-0.015625 1.1875,-0.03125 1.4375,-0.03125 c 0.25,0 0.734375,0.015625 1.109375,0.03125 v -0.3125 c -0.671875,0 -0.78125,0 -0.78125,-0.4375 z m 0,0"
             id="id-148c4ad5-9f4a-44da-a87d-3d7966abb590" /></g><g
           transform="translate(186.07,134.765)"
           id="g15210"><path
             d="m 3.3125,-0.75 c 0.046875,0.390625 0.3125,0.8125 0.78125,0.8125 0.21875,0 0.828125,-0.140625 0.828125,-0.953125 v -0.5625 h -0.25 v 0.5625 c 0,0.578125 -0.25,0.640625 -0.359375,0.640625 -0.328125,0 -0.375,-0.453125 -0.375,-0.5 v -1.984375 c 0,-0.421875 0,-0.8125 -0.359375,-1.1875 C 3.1875,-4.3125 2.6875,-4.46875 2.21875,-4.46875 c -0.828125,0 -1.515625,0.46875 -1.515625,1.125 0,0.296875 0.203125,0.46875 0.46875,0.46875 0.28125,0 0.453125,-0.203125 0.453125,-0.453125 0,-0.125 -0.046875,-0.453125 -0.515625,-0.453125 C 1.390625,-4.140625 1.875,-4.25 2.1875,-4.25 c 0.5,0 1.0625,0.390625 1.0625,1.28125 v 0.359375 c -0.515625,0.03125 -1.203125,0.0625 -1.828125,0.359375 -0.75,0.34375 -1,0.859375 -1,1.296875 0,0.8125 0.96875,1.0625 1.59375,1.0625 0.65625,0 1.109375,-0.40625 1.296875,-0.859375 z M 3.25,-2.390625 v 1 c 0,0.9375 -0.71875,1.28125 -1.171875,1.28125 -0.484375,0 -0.890625,-0.34375 -0.890625,-0.84375 0,-0.546875 0.421875,-1.375 2.0625,-1.4375 z m 0,0"
             id="id-35c7b71e-4c35-4128-8e85-6121a2817daa" /></g></g><g
         fill="#000000"
         fill-opacity="1"
         id="id-880eed3b-ee78-412e-9bda-47c1bd20f8ec"
         transform="translate(-149.04,-127.843)"><g
           transform="translate(190.772,134.765)"
           id="g15214"><path
             d="m 4.140625,-3.34375 c 0.25,-0.640625 0.765625,-0.640625 0.921875,-0.640625 v -0.3125 c -0.234375,0.015625 -0.515625,0.03125 -0.75,0.03125 -0.171875,0 -0.640625,-0.015625 -0.859375,-0.03125 v 0.3125 c 0.3125,0 0.46875,0.171875 0.46875,0.421875 0,0.109375 -0.015625,0.125 -0.0625,0.25 L 2.84375,-0.875 1.75,-3.546875 C 1.703125,-3.65625 1.6875,-3.6875 1.6875,-3.734375 c 0,-0.25 0.359375,-0.25 0.5625,-0.25 v -0.3125 c -0.265625,0.015625 -0.921875,0.03125 -1.09375,0.03125 -0.265625,0 -0.671875,-0.015625 -0.96875,-0.03125 v 0.3125 c 0.484375,0 0.671875,0 0.8125,0.34375 L 2.5,0 C 2.4375,0.125 2.296875,0.453125 2.25,0.59375 2.03125,1.140625 1.75,1.828125 1.109375,1.828125 c -0.046875,0 -0.28125,0 -0.46875,-0.1875 0.3125,-0.03125 0.390625,-0.25 0.390625,-0.421875 0,-0.25 -0.1875,-0.40625 -0.421875,-0.40625 -0.203125,0 -0.421875,0.125 -0.421875,0.421875 0,0.453125 0.421875,0.8125 0.921875,0.8125 0.625,0 1.03125,-0.578125 1.265625,-1.140625 z m 0,0"
             id="id-80016bc9-4f66-4844-8680-df70266b0343" /></g></g><g
         fill="#000000"
         fill-opacity="1"
         id="id-1e9d80ca-d519-4085-b06e-3017826bc521"
         transform="translate(-149.04,-127.843)"><g
           transform="translate(195.761,134.765)"
           id="g15218"><path
             d="M 1.109375,-2.515625 C 1.171875,-4 2.015625,-4.25 2.359375,-4.25 c 1.015625,0 1.125,1.34375 1.125,1.734375 z m 0,0.21875 h 2.78125 c 0.21875,0 0.25,0 0.25,-0.21875 0,-0.984375 -0.546875,-1.953125 -1.78125,-1.953125 -1.15625,0 -2.078125,1.03125 -2.078125,2.28125 0,1.328125 1.046875,2.296875 2.1875,2.296875 C 3.6875,0.109375 4.140625,-1 4.140625,-1.1875 4.140625,-1.28125 4.0625,-1.3125 4,-1.3125 c -0.078125,0 -0.109375,0.0625 -0.125,0.140625 -0.34375,1.03125 -1.25,1.03125 -1.34375,1.03125 -0.5,0 -0.890625,-0.296875 -1.125,-0.671875 -0.296875,-0.46875 -0.296875,-1.125 -0.296875,-1.484375 z m 0,0"
             id="id-9cf0d13e-9581-492d-8d74-c2361e087076" /></g><g
           transform="translate(200.189,134.765)"
           id="g15221"><path
             d="M 1.671875,-3.3125 V -4.40625 L 0.28125,-4.296875 v 0.3125 c 0.703125,0 0.78125,0.0625 0.78125,0.5625 V -0.75 c 0,0.4375 -0.109375,0.4375 -0.78125,0.4375 V 0 c 0.390625,-0.015625 0.859375,-0.03125 1.140625,-0.03125 0.390625,0 0.859375,0 1.265625,0.03125 V -0.3125 H 2.46875 c -0.734375,0 -0.75,-0.109375 -0.75,-0.46875 V -2.3125 c 0,-0.984375 0.421875,-1.875 1.171875,-1.875 0.0625,0 0.09375,0 0.109375,0.015625 -0.03125,0 -0.234375,0.125 -0.234375,0.390625 0,0.265625 0.21875,0.421875 0.4375,0.421875 0.171875,0 0.421875,-0.125 0.421875,-0.4375 0,-0.3125 -0.3125,-0.609375 -0.734375,-0.609375 -0.734375,0 -1.09375,0.671875 -1.21875,1.09375 z m 0,0"
             id="id-5f057d76-9b8a-47b4-8918-0aeb7b2dbdd7" /></g></g></g><g
       transform="matrix(0.705556,0,0,0.705556,130.20187,347.27143)"
       ns1:version="1.8.1"
       ns1:texconverter="pdflatex"
       ns1:pdfconverter="inkscape"
       ns1:text="Output layer"
       ns1:preamble="C:\Users\Sourish\AppData\Roaming\inkscape\extensions\textext\default_packages.tex"
       ns1:scale="2.0"
       ns1:alignment="middle center"
       ns1:stroke-to-path="0"
       ns1:inkscapeversion="1.2"
       ns1:jacobian_sqrt="0.705556"
       id="g15736"><defs
         id="id-aaf6d9ed-c15c-437b-adf3-96cce26f1b14" /><g
         fill="#000000"
         fill-opacity="1"
         id="id-0fb86ee2-155a-4a2c-9ced-d4cd9213a4d1"
         transform="translate(-149.275,-127.734)"><g
           transform="translate(148.712,134.765)"
           id="g15700"><path
             d="m 7.1875,-3.375 c 0,-2.03125 -1.5,-3.65625 -3.3125,-3.65625 -1.796875,0 -3.3125,1.59375 -3.3125,3.65625 0,2.046875 1.53125,3.59375 3.3125,3.59375 1.8125,0 3.3125,-1.578125 3.3125,-3.59375 z M 3.875,-0.046875 c -0.953125,0 -2.296875,-0.875 -2.296875,-3.46875 0,-2.578125 1.46875,-3.265625 2.296875,-3.265625 0.859375,0 2.28125,0.703125 2.28125,3.265625 0,2.640625 -1.359375,3.46875 -2.28125,3.46875 z m 0,0"
             id="id-ca8db5bc-e2c5-40f9-82b2-7191a55f03be" /></g><g
           transform="translate(156.461,134.765)"
           id="g15703"><path
             d="M 3.890625,-0.78125 V 0.109375 L 5.328125,0 V -0.3125 C 4.640625,-0.3125 4.5625,-0.375 4.5625,-0.875 v -3.53125 l -1.46875,0.109375 v 0.3125 c 0.6875,0 0.78125,0.0625 0.78125,0.5625 v 1.765625 c 0,0.875 -0.484375,1.546875 -1.21875,1.546875 -0.828125,0 -0.875,-0.46875 -0.875,-0.984375 v -3.3125 L 0.3125,-4.296875 v 0.3125 c 0.78125,0 0.78125,0.03125 0.78125,0.90625 v 1.5 c 0,0.78125 0,1.6875 1.515625,1.6875 0.5625,0 1,-0.28125 1.28125,-0.890625 z m 0,0"
             id="id-f0e51951-12f9-4165-87c2-cc3a0844779f" /></g><g
           transform="translate(161.996,134.765)"
           id="g15706"><path
             d="m 1.71875,-3.984375 h 1.4375 v -0.3125 H 1.71875 V -6.125 h -0.25 c 0,0.8125 -0.296875,1.875 -1.28125,1.921875 v 0.21875 h 0.84375 v 2.75 c 0,1.21875 0.9375,1.34375 1.296875,1.34375 0.703125,0 0.984375,-0.703125 0.984375,-1.34375 v -0.5625 h -0.25 V -1.25 c 0,0.734375 -0.296875,1.109375 -0.671875,1.109375 -0.671875,0 -0.671875,-0.90625 -0.671875,-1.078125 z m 0,0"
             id="id-84785e66-7aaf-421e-ada4-cda365c1110a" /></g><g
           transform="translate(165.871,134.765)"
           id="g15709"><path
             d="m 1.71875,-3.75 v -0.65625 l -1.4375,0.109375 v 0.3125 c 0.703125,0 0.78125,0.0625 0.78125,0.5 v 4.65625 C 1.0625,1.625 0.953125,1.625 0.28125,1.625 V 1.9375 C 0.625,1.921875 1.140625,1.90625 1.390625,1.90625 c 0.28125,0 0.78125,0.015625 1.125,0.03125 V 1.625 C 1.859375,1.625 1.75,1.625 1.75,1.171875 V -0.59375 c 0.046875,0.171875 0.46875,0.703125 1.21875,0.703125 1.1875,0 2.21875,-0.984375 2.21875,-2.265625 0,-1.265625 -0.953125,-2.25 -2.078125,-2.25 -0.78125,0 -1.203125,0.4375 -1.390625,0.65625 z M 1.75,-1.140625 v -2.21875 C 2.03125,-3.875 2.515625,-4.15625 3.03125,-4.15625 c 0.734375,0 1.328125,0.875 1.328125,2 0,1.203125 -0.6875,2.046875 -1.421875,2.046875 -0.40625,0 -0.78125,-0.203125 -1.046875,-0.609375 C 1.75,-0.921875 1.75,-0.9375 1.75,-1.140625 Z m 0,0"
             id="id-c54f20c9-7bff-4b53-a2c6-3b7fa4602481" /></g><g
           transform="translate(171.406,134.765)"
           id="g15712"><path
             d="M 3.890625,-0.78125 V 0.109375 L 5.328125,0 V -0.3125 C 4.640625,-0.3125 4.5625,-0.375 4.5625,-0.875 v -3.53125 l -1.46875,0.109375 v 0.3125 c 0.6875,0 0.78125,0.0625 0.78125,0.5625 v 1.765625 c 0,0.875 -0.484375,1.546875 -1.21875,1.546875 -0.828125,0 -0.875,-0.46875 -0.875,-0.984375 v -3.3125 L 0.3125,-4.296875 v 0.3125 c 0.78125,0 0.78125,0.03125 0.78125,0.90625 v 1.5 c 0,0.78125 0,1.6875 1.515625,1.6875 0.5625,0 1,-0.28125 1.28125,-0.890625 z m 0,0"
             id="id-2be70a3d-fc8a-4694-a5e0-97931bc8be05" /></g><g
           transform="translate(176.941,134.765)"
           id="g15715"><path
             d="m 1.71875,-3.984375 h 1.4375 v -0.3125 H 1.71875 V -6.125 h -0.25 c 0,0.8125 -0.296875,1.875 -1.28125,1.921875 v 0.21875 h 0.84375 v 2.75 c 0,1.21875 0.9375,1.34375 1.296875,1.34375 0.703125,0 0.984375,-0.703125 0.984375,-1.34375 v -0.5625 h -0.25 V -1.25 c 0,0.734375 -0.296875,1.109375 -0.671875,1.109375 -0.671875,0 -0.671875,-0.90625 -0.671875,-1.078125 z m 0,0"
             id="id-9948c79c-7440-446c-a39c-da84a6726949" /></g></g><g
         fill="#000000"
         fill-opacity="1"
         id="id-936eae79-4df3-465b-b414-827e35ab58c5"
         transform="translate(-149.275,-127.734)"><g
           transform="translate(184.133,134.765)"
           id="g15719"><path
             d="M 1.765625,-6.921875 0.328125,-6.8125 V -6.5 c 0.703125,0 0.78125,0.0625 0.78125,0.5625 V -0.75 c 0,0.4375 -0.109375,0.4375 -0.78125,0.4375 V 0 C 0.65625,-0.015625 1.1875,-0.03125 1.4375,-0.03125 c 0.25,0 0.734375,0.015625 1.109375,0.03125 v -0.3125 c -0.671875,0 -0.78125,0 -0.78125,-0.4375 z m 0,0"
             id="id-278f352b-1d5e-422e-b9b0-48e20260e343" /></g><g
           transform="translate(186.901,134.765)"
           id="g15722"><path
             d="m 3.3125,-0.75 c 0.046875,0.390625 0.3125,0.8125 0.78125,0.8125 0.21875,0 0.828125,-0.140625 0.828125,-0.953125 v -0.5625 h -0.25 v 0.5625 c 0,0.578125 -0.25,0.640625 -0.359375,0.640625 -0.328125,0 -0.375,-0.453125 -0.375,-0.5 v -1.984375 c 0,-0.421875 0,-0.8125 -0.359375,-1.1875 C 3.1875,-4.3125 2.6875,-4.46875 2.21875,-4.46875 c -0.828125,0 -1.515625,0.46875 -1.515625,1.125 0,0.296875 0.203125,0.46875 0.46875,0.46875 0.28125,0 0.453125,-0.203125 0.453125,-0.453125 0,-0.125 -0.046875,-0.453125 -0.515625,-0.453125 C 1.390625,-4.140625 1.875,-4.25 2.1875,-4.25 c 0.5,0 1.0625,0.390625 1.0625,1.28125 v 0.359375 c -0.515625,0.03125 -1.203125,0.0625 -1.828125,0.359375 -0.75,0.34375 -1,0.859375 -1,1.296875 0,0.8125 0.96875,1.0625 1.59375,1.0625 0.65625,0 1.109375,-0.40625 1.296875,-0.859375 z M 3.25,-2.390625 v 1 c 0,0.9375 -0.71875,1.28125 -1.171875,1.28125 -0.484375,0 -0.890625,-0.34375 -0.890625,-0.84375 0,-0.546875 0.421875,-1.375 2.0625,-1.4375 z m 0,0"
             id="id-25a16732-920d-4512-b4ee-e64180c6c0d8" /></g></g><g
         fill="#000000"
         fill-opacity="1"
         id="id-722a4ee2-f8f0-4994-bfdb-d336564f8d01"
         transform="translate(-149.275,-127.734)"><g
           transform="translate(191.603,134.765)"
           id="g15726"><path
             d="m 4.140625,-3.34375 c 0.25,-0.640625 0.765625,-0.640625 0.921875,-0.640625 v -0.3125 c -0.234375,0.015625 -0.515625,0.03125 -0.75,0.03125 -0.171875,0 -0.640625,-0.015625 -0.859375,-0.03125 v 0.3125 c 0.3125,0 0.46875,0.171875 0.46875,0.421875 0,0.109375 -0.015625,0.125 -0.0625,0.25 L 2.84375,-0.875 1.75,-3.546875 C 1.703125,-3.65625 1.6875,-3.6875 1.6875,-3.734375 c 0,-0.25 0.359375,-0.25 0.5625,-0.25 v -0.3125 c -0.265625,0.015625 -0.921875,0.03125 -1.09375,0.03125 -0.265625,0 -0.671875,-0.015625 -0.96875,-0.03125 v 0.3125 c 0.484375,0 0.671875,0 0.8125,0.34375 L 2.5,0 C 2.4375,0.125 2.296875,0.453125 2.25,0.59375 2.03125,1.140625 1.75,1.828125 1.109375,1.828125 c -0.046875,0 -0.28125,0 -0.46875,-0.1875 0.3125,-0.03125 0.390625,-0.25 0.390625,-0.421875 0,-0.25 -0.1875,-0.40625 -0.421875,-0.40625 -0.203125,0 -0.421875,0.125 -0.421875,0.421875 0,0.453125 0.421875,0.8125 0.921875,0.8125 0.625,0 1.03125,-0.578125 1.265625,-1.140625 z m 0,0"
             id="id-b2bc0fe6-edc9-402a-a84f-362b23f3800c" /></g></g><g
         fill="#000000"
         fill-opacity="1"
         id="id-17941498-9b94-444f-9a8d-4370da8ccd8f"
         transform="translate(-149.275,-127.734)"><g
           transform="translate(196.592,134.765)"
           id="g15730"><path
             d="M 1.109375,-2.515625 C 1.171875,-4 2.015625,-4.25 2.359375,-4.25 c 1.015625,0 1.125,1.34375 1.125,1.734375 z m 0,0.21875 h 2.78125 c 0.21875,0 0.25,0 0.25,-0.21875 0,-0.984375 -0.546875,-1.953125 -1.78125,-1.953125 -1.15625,0 -2.078125,1.03125 -2.078125,2.28125 0,1.328125 1.046875,2.296875 2.1875,2.296875 C 3.6875,0.109375 4.140625,-1 4.140625,-1.1875 4.140625,-1.28125 4.0625,-1.3125 4,-1.3125 c -0.078125,0 -0.109375,0.0625 -0.125,0.140625 -0.34375,1.03125 -1.25,1.03125 -1.34375,1.03125 -0.5,0 -0.890625,-0.296875 -1.125,-0.671875 -0.296875,-0.46875 -0.296875,-1.125 -0.296875,-1.484375 z m 0,0"
             id="id-28e7e3d7-6eb2-41fd-8450-b3b3eea45364" /></g><g
           transform="translate(201.02,134.765)"
           id="g15733"><path
             d="M 1.671875,-3.3125 V -4.40625 L 0.28125,-4.296875 v 0.3125 c 0.703125,0 0.78125,0.0625 0.78125,0.5625 V -0.75 c 0,0.4375 -0.109375,0.4375 -0.78125,0.4375 V 0 c 0.390625,-0.015625 0.859375,-0.03125 1.140625,-0.03125 0.390625,0 0.859375,0 1.265625,0.03125 V -0.3125 H 2.46875 c -0.734375,0 -0.75,-0.109375 -0.75,-0.46875 V -2.3125 c 0,-0.984375 0.421875,-1.875 1.171875,-1.875 0.0625,0 0.09375,0 0.109375,0.015625 -0.03125,0 -0.234375,0.125 -0.234375,0.390625 0,0.265625 0.21875,0.421875 0.4375,0.421875 0.171875,0 0.421875,-0.125 0.421875,-0.4375 0,-0.3125 -0.3125,-0.609375 -0.734375,-0.609375 -0.734375,0 -1.09375,0.671875 -1.21875,1.09375 z m 0,0"
             id="id-3068199a-ca4e-4978-81d1-79e40caf0e53" /></g></g></g><g
       fill="#000000"
       fill-opacity="1"
       id="g53433"
       transform="matrix(1.41111,0,0,1.41111,-123.37335,67.229547)">
    <g
   transform="translate(148.712,134.765)"
   id="g53431"><path
   d="m 2.9375,-6.375 c 0,-0.25 0,-0.265625 -0.234375,-0.265625 C 2.078125,-6 1.203125,-6 0.890625,-6 v 0.3125 c 0.203125,0 0.78125,0 1.296875,-0.265625 v 5.171875 c 0,0.359375 -0.03125,0.46875 -0.921875,0.46875 h -0.3125 V 0 c 0.34375,-0.03125 1.203125,-0.03125 1.609375,-0.03125 0.390625,0 1.265625,0 1.609375,0.03125 v -0.3125 h -0.3125 c -0.90625,0 -0.921875,-0.109375 -0.921875,-0.46875 z m 0,0"
   id="path53429" />
      </g></g><g
       fill="#000000"
       fill-opacity="1"
       id="g53439"
       transform="matrix(1.41111,0,0,1.41111,-183.06085,55.906617)">
    <g
   transform="translate(148.712,134.765)"
   id="g53437"><path
   d="m 2.9375,-6.375 c 0,-0.25 0,-0.265625 -0.234375,-0.265625 C 2.078125,-6 1.203125,-6 0.890625,-6 v 0.3125 c 0.203125,0 0.78125,0 1.296875,-0.265625 v 5.171875 c 0,0.359375 -0.03125,0.46875 -0.921875,0.46875 h -0.3125 V 0 c 0.34375,-0.03125 1.203125,-0.03125 1.609375,-0.03125 0.390625,0 1.265625,0 1.609375,0.03125 v -0.3125 h -0.3125 c -0.90625,0 -0.921875,-0.109375 -0.921875,-0.46875 z m 0,0"
   id="path53435" />
      </g></g></g></svg>
