<?xml version="1.0" encoding="UTF-8" standalone="no"?>
<!-- Created with Vectornator (http://vectornator.io/) -->

<svg
   height="837.43781"
   stroke-miterlimit="10"
   style="clip-rule:evenodd;fill-rule:nonzero;stroke-linecap:round;stroke-linejoin:round"
   version="1.1"
   viewBox="0 0 943.12579 837.43781"
   width="943.12579"
   xml:space="preserve"
   id="svg7"
   sodipodi:docname="blog.svg"
   inkscape:version="1.2 (dc2aedaf03, 2022-05-15)"
   xmlns:inkscape="http://www.inkscape.org/namespaces/inkscape"
   xmlns:sodipodi="http://sodipodi.sourceforge.net/DTD/sodipodi-0.dtd"
   xmlns="http://www.w3.org/2000/svg"
   xmlns:svg="http://www.w3.org/2000/svg"
   xmlns:vectornator="http://vectornator.io"><sodipodi:namedview
   id="namedview9"
   pagecolor="#ffffff"
   bordercolor="#000000"
   borderopacity="0.25"
   inkscape:showpageshadow="2"
   inkscape:pageopacity="0.0"
   inkscape:pagecheckerboard="0"
   inkscape:deskcolor="#d1d1d1"
   showgrid="false"
   inkscape:zoom="1.0029297"
   inkscape:cx="473.61246"
   inkscape:cy="451.67673"
   inkscape:window-width="3440"
   inkscape:window-height="1369"
   inkscape:window-x="1432"
   inkscape:window-y="549"
   inkscape:window-maximized="1"
   inkscape:current-layer="svg7" />
<defs
   id="defs2" />
<g
   id="Layer-1"
   vectornator:layerName="Layer 1"
   transform="translate(-34.9062,-60.1562)">
<path
   d="m 867.645,60.1562 c -6.22,0 -11.948,0.4089 -17.132,1.1865 -5.183,0.7775 -10.743,2.0772 -16.705,3.8915 -5.961,1.8143 -11.93,4.2933 -17.891,7.4034 -5.962,3.1102 -11.233,6.48 -15.899,10.1085 -4.665,3.6285 -52.9,51.2869 -144.651,143.0369 -91.75,91.751 -141.646,142.297 -149.681,151.628 -8.035,9.33 -14.895,18.14 -20.597,26.433 -5.702,8.294 -11.262,17.633 -16.705,28 -5.442,10.368 -9.751,19.418 -12.861,27.194 -3.11,7.775 -6.191,17.114 -9.301,28 -3.111,10.885 -5.589,22.053 -7.404,33.457 -1.814,11.404 -2.825,22.693 -3.085,33.838 -0.259,11.144 0.103,18.654 1.139,22.542 1.037,3.888 3.395,8.028 7.024,12.434 3.629,4.406 7.889,7.776 12.814,10.108 4.924,2.333 12.555,3.512 22.922,3.512 10.367,0 21.776,-0.938 34.217,-2.752 12.44,-1.815 23.608,-4.005 33.457,-6.597 9.849,-2.592 14.88,-4.132 15.139,-4.651 0.26,-0.518 4.929,-2.347 14,-5.457 9.072,-3.111 20.89,-8.671 35.404,-16.705 14.514,-8.035 27.175,-16.363 38.061,-24.916 10.885,-8.553 64.32,-60.881 160.217,-157.037 95.897,-96.157 145.096,-146.053 147.688,-149.681 2.592,-3.629 5.479,-8.539 8.59,-14.76 3.11,-6.22 5.83,-13.898 8.163,-22.969 2.332,-9.072 3.464,-18.002 3.464,-26.814 0,-8.812 -0.241,-13.481 -0.759,-14 -0.519,-0.518 -1.169,-3.479 -1.946,-8.922 -0.778,-5.443 -2.318,-11.171 -4.651,-17.132 -2.333,-5.961 -5.053,-11.521 -8.163,-16.705 -3.11,-5.184 -6.48,-9.974 -10.108,-14.3798 -3.629,-4.4061 -9.718,-9.8459 -18.271,-16.3255 -8.553,-6.4795 -17.483,-11.5578 -26.814,-15.1864 -9.331,-3.6285 -16.72,-5.8191 -22.163,-6.5966 -5.443,-0.7776 -11.291,-1.1865 -17.512,-1.1865 z m 0,73.8918 c 3.629,0 6.878,0.409 9.729,1.186 2.851,0.778 5.812,2.03 8.922,3.844 3.11,1.815 5.951,4.173 8.543,7.024 2.591,2.851 4.83,6.582 6.644,11.247 1.814,4.666 2.705,9.094 2.705,13.241 0,4.147 -1.179,8.937 -3.512,14.38 -2.333,5.443 -50.93,55.58 -145.79,150.441 -94.861,94.86 -145.239,144.636 -151.2,149.301 -5.961,4.666 -14.409,10.105 -25.295,16.326 -10.886,6.22 -20.345,10.89 -28.38,14 -8.034,3.11 -16.073,5.589 -24.108,7.403 -4.017,0.907 -8.037,1.798 -12.054,2.705 0,-1.166 0,-2.345 0,-3.512 0,-2.332 0.938,-6.713 2.752,-13.193 1.815,-6.479 4.246,-13.628 7.356,-21.403 3.11,-7.776 6.889,-15.647 11.295,-23.682 4.406,-8.034 10.207,-16.844 17.465,-26.434 7.257,-9.589 56.021,-59.653 146.217,-150.108 90.195,-90.455 137.853,-137.872 143.037,-142.278 5.184,-4.406 9.853,-7.247 14,-8.542 4.147,-1.296 8.046,-1.946 11.674,-1.946 z m -497.261,26.434 c -108.079,0 -166.255,0.529 -174.549,1.566 -8.294,1.037 -17.753,3.107 -28.38,6.217 -10.626,3.11 -20.856,7.13 -30.705,12.054 -9.849,4.924 -18.658,10.244 -26.434,15.946 -7.775,5.702 -15.0438,11.912 -21.7826,18.651 -6.7387,6.738 -13.4783,14.898 -20.217,24.488 -6.7387,9.589 -12.1785,18.808 -16.3254,27.62 -4.1469,8.812 -7.5166,17.742 -10.1085,26.814 -2.5918,9.071 -4.4208,16.701 -5.4576,22.922 -1.0367,6.22 -1.5187,88.635 -1.5187,247.254 1e-4,158.619 1.5407,243.272 4.6509,253.898 3.1102,10.627 7.3708,20.206 12.8136,28.76 5.4428,8.553 11.9414,16.183 19.4576,22.922 7.5163,6.738 15.267,12.178 23.3017,16.325 8.035,4.147 15.712,7.155 22.969,8.97 7.258,1.814 16.188,2.705 26.814,2.705 10.627,0 19.677,-0.891 27.193,-2.705 7.517,-1.815 15.315,-4.823 23.349,-8.97 8.035,-4.147 22.405,-15.388 43.139,-33.79 20.735,-18.402 97.589,-27.741 230.55,-28 132.96,-0.259 204.904,-1.558 215.79,-3.891 10.885,-2.333 20.345,-5.053 28.379,-8.163 8.035,-3.11 16.315,-7.13 24.868,-12.054 8.553,-4.925 15.942,-9.835 22.163,-14.759 6.22,-4.925 13.08,-11.424 20.596,-19.458 7.517,-8.035 14.015,-16.194 19.458,-24.488 5.443,-8.294 10.594,-18.283 15.519,-29.946 4.924,-11.663 8.582,-23.434 10.915,-35.356 2.333,-11.922 3.512,-36.04 3.512,-72.325 0,-36.286 -0.288,-55.325 -0.807,-57.139 -0.518,-1.815 -1.698,-4.293 -3.512,-7.404 -1.814,-3.11 -4.896,-6.48 -9.302,-10.108 -4.406,-3.629 -8.545,-5.94 -12.434,-6.977 -3.887,-1.036 -7.425,-1.565 -10.535,-1.566 -3.11,0 -6.6,0.53 -10.488,1.566 -3.888,1.037 -6.849,2.169 -8.922,3.465 -2.074,1.296 -4.793,3.895 -8.163,7.783 -3.369,3.888 -5.728,7.666 -7.024,11.295 -1.296,3.628 -1.946,21.248 -1.945,52.868 0,31.62 -0.362,50.539 -1.139,56.759 -0.778,6.22 -2.077,12.31 -3.892,18.271 -1.814,5.961 -4.293,11.931 -7.403,17.892 -3.111,5.961 -6.962,11.93 -11.628,17.891 -4.665,5.961 -9.623,11.113 -14.806,15.519 -5.184,4.406 -10.865,8.426 -17.085,12.054 -6.22,3.629 -11.781,6.349 -16.705,8.163 -4.925,1.814 -11.062,3.402 -18.319,4.698 -7.257,1.296 -78.383,1.899 -213.417,1.898 -135.034,0 -205.028,0.939 -209.952,2.753 -4.925,1.814 -18.404,12.694 -40.434,32.651 -22.031,19.957 -34.692,30.957 -38.061,33.03 -3.37,2.074 -7.028,3.494 -10.916,4.272 -3.887,0.777 -7.786,1.066 -11.674,0.806 -3.888,-0.259 -7.378,-1.029 -10.488,-2.325 -3.11,-1.296 -6.48,-3.534 -10.109,-6.644 -3.628,-3.11 -6.589,-7.25 -8.922,-12.434 -2.332,-5.184 -3.512,-84.878 -3.512,-239.092 0,-154.213 1.18,-235.978 3.512,-245.308 2.333,-9.331 5.703,-18.02 10.109,-26.054 4.406,-8.035 9.725,-15.425 15.945,-22.163 6.221,-6.739 11.902,-11.938 17.085,-15.566 5.184,-3.629 10.503,-6.71 15.946,-9.302 5.443,-2.592 11.412,-4.782 17.891,-6.597 6.48,-1.814 11.92,-2.993 16.326,-3.511 4.406,-0.519 60.392,-0.76 167.953,-0.76 107.56,0 163.137,-0.65 166.766,-1.946 3.628,-1.295 7.118,-3.245 10.488,-5.837 3.369,-2.592 6.257,-5.841 8.59,-9.729 2.332,-3.887 3.873,-7.257 4.65,-10.108 0.778,-2.851 0.899,-6.991 0.38,-12.434 -0.518,-5.443 -1.698,-9.992 -3.512,-13.62 -1.814,-3.629 -4.366,-6.999 -7.735,-10.109 -3.37,-3.11 -7.678,-5.589 -12.861,-7.403 -5.184,-1.814 -61.82,-2.705 -169.899,-2.705 z m -96.007,221.579 c -40.95,0 -63.118,0.53 -66.488,1.567 -3.369,1.036 -6.618,2.624 -9.728,4.698 -3.111,2.073 -5.951,4.793 -8.543,8.163 -2.592,3.369 -4.541,6.98 -5.837,10.867 -1.296,3.888 -1.946,7.667 -1.946,11.295 0,3.629 0.938,7.889 2.753,12.814 1.814,4.924 4.125,8.944 6.976,12.054 2.851,3.11 6.63,5.83 11.295,8.163 4.665,2.332 28.494,3.511 71.518,3.512 43.025,0 66.974,-1.3 71.899,-3.892 4.924,-2.592 8.583,-5.191 10.915,-7.783 2.333,-2.592 4.162,-5.191 5.458,-7.783 1.296,-2.592 2.187,-7.261 2.705,-14 0.518,-6.739 0.23,-11.649 -0.807,-14.759 -1.037,-3.111 -3.348,-6.889 -6.976,-11.295 -3.629,-4.406 -7.119,-7.488 -10.488,-9.302 -3.37,-1.814 -6.09,-2.993 -8.163,-3.512 -2.074,-0.518 -23.592,-0.806 -64.543,-0.807 z m 0,146.977 c -38.877,0 -60.636,0.65 -65.301,1.945 -4.665,1.296 -8.156,2.717 -10.488,4.272 -2.333,1.555 -4.932,4.034 -7.783,7.403 -2.851,3.369 -5.089,7.269 -6.644,11.675 -1.556,4.406 -2.326,8.378 -2.326,12.006 0,3.629 0.65,7.408 1.946,11.295 1.296,3.888 3.486,7.787 6.596,11.675 3.111,3.888 6.48,6.848 10.109,8.922 3.629,2.073 6.228,3.373 7.783,3.891 1.555,0.519 23.482,0.807 65.729,0.807 42.247,0 65.064,-0.65 68.434,-1.945 3.369,-1.296 6.33,-2.885 8.922,-4.699 2.592,-1.814 5.432,-5.063 8.542,-9.729 3.11,-4.665 4.939,-7.867 5.458,-9.681 0.518,-1.814 0.518,-6.243 0,-13.241 -0.519,-6.998 -2.348,-12.799 -5.458,-17.464 -3.11,-4.665 -7.13,-8.444 -12.054,-11.295 -4.925,-2.851 -8.656,-4.56 -11.248,-5.078 -2.591,-0.518 -23.339,-0.759 -62.217,-0.759 z"
   fill="#000000"
   fill-rule="nonzero"
   opacity="1"
   stroke="none"
   id="path4" />
</g>
</svg>
