<?xml version="1.0" encoding="UTF-8" standalone="no"?>
<!DOCTYPE svg PUBLIC "-//W3C//DTD SVG 1.1//EN" "http://www.w3.org/Graphics/SVG/1.1/DTD/svg11.dtd">
<!-- Created with Vectornator (http://vectornator.io/) -->
<svg height="100%" stroke-miterlimit="10" style="fill-rule:nonzero;clip-rule:evenodd;stroke-linecap:round;stroke-linejoin:round;" version="1.1" viewBox="0 0 1024 1024" width="100%" xml:space="preserve" xmlns="http://www.w3.org/2000/svg" xmlns:vectornator="http://vectornator.io" xmlns:xlink="http://www.w3.org/1999/xlink">
<defs/>
<g id="Layer-1" vectornator:layerName="Layer 1">
<path d="M576.442 215.993C567.889 222.645 532.726 309.127 470.953 475.439C409.18 641.75 378.769 729.658 379.719 739.161C380.67 748.665 385.897 757.218 395.4 764.821C404.904 772.424 415.358 775.275 426.762 773.374C438.166 771.473 446.719 766.721 452.421 759.119C458.123 751.516 490.91 666.935 550.783 505.375C610.655 343.815 640.116 256.858 639.165 244.504C638.215 232.149 633.463 222.645 624.91 215.993C616.357 209.341 608.279 206.014 600.676 206.014C593.073 206.014 584.995 209.341 576.442 215.993ZM275.656 240.227C269.954 242.128 231.465 276.34 160.188 342.865C88.912 409.389 51.3731 445.978 47.5717 452.63C43.7703 459.283 41.8696 465.935 41.8696 472.588C41.8696 479.24 42.8199 484.942 44.7206 489.694C46.6213 494.446 53.749 502.999 66.1035 515.354C78.4581 527.708 114.096 561.446 173.018 616.566C231.94 671.686 264.252 700.672 269.954 703.523C275.656 706.374 282.308 707.8 289.911 707.8C297.514 707.8 305.592 704.473 314.145 697.821C322.698 691.168 326.975 680.715 326.975 666.459C326.975 652.204 296.564 616.566 235.741 559.545C205.33 531.034 174.919 502.524 144.507 474.013C174.444 445.978 204.38 417.943 234.316 389.907C294.188 333.837 325.074 303.9 326.975 300.099C328.876 296.298 328.876 287.744 326.975 274.44C325.074 261.135 320.798 252.106 314.145 247.355C307.493 242.603 300.84 239.752 294.188 238.801C287.535 237.851 281.358 238.326 275.656 240.227ZM720.42 241.652C712.817 244.504 706.64 249.255 701.888 255.908C697.137 262.56 695.711 272.539 697.612 285.844C699.512 299.149 730.399 333.361 790.271 388.482C820.207 416.042 850.143 443.602 880.079 471.162C849.668 500.148 819.257 529.134 788.845 558.119C728.023 616.091 697.137 651.254 696.186 663.608C695.236 675.963 696.186 684.516 699.037 689.268C701.888 694.02 706.64 698.296 713.293 702.098C719.945 705.899 727.073 707.8 734.675 707.8C742.278 707.8 748.931 706.374 754.633 703.523C760.335 700.672 798.824 665.509 870.1 598.034C941.377 530.559 977.965 491.12 979.866 479.715C981.767 468.311 979.866 458.332 974.164 449.779C968.462 441.226 935.675 408.914 875.803 352.844C815.93 296.773 781.718 264.936 773.165 257.333C764.612 249.73 755.583 244.504 746.08 241.652C736.576 238.801 728.023 238.801 720.42 241.652Z" fill="#000000" fill-rule="nonzero" opacity="1" stroke="none"/>
</g>
</svg>
