<?xml version="1.0" encoding="UTF-8" standalone="no"?>
<!DOCTYPE svg PUBLIC "-//W3C//DTD SVG 1.1//EN" "http://www.w3.org/Graphics/SVG/1.1/DTD/svg11.dtd">
<!-- Created with Vectornator (http://vectornator.io/) -->
<svg height="100%" stroke-miterlimit="10" style="fill-rule:nonzero;clip-rule:evenodd;stroke-linecap:round;stroke-linejoin:round;" version="1.1" viewBox="0 0 1024 1024" width="100%" xml:space="preserve" xmlns="http://www.w3.org/2000/svg" xmlns:vectornator="http://vectornator.io" xmlns:xlink="http://www.w3.org/1999/xlink">
<defs/>
<g id="Layer-1" vectornator:layerName="Layer 1">
<path d="M996.75 207.781C991.949 207.781 987.322 207.949 982.562 208.281C991.208 208.281 999.854 208.281 1008.5 208.281C1008.5 208.135 1008.5 207.99 1008.5 207.844C1005.83 207.819 1003.53 207.774 1000.03 207.781C998.232 207.785 997.634 207.781 996.75 207.781ZM421 257.938C412.637 257.938 404.856 258.635 397.688 260C390.519 261.365 383.783 263.236 377.469 265.625C371.154 268.014 365.702 270.503 361.094 273.062C356.486 275.623 351.351 279.015 345.719 283.281C340.087 287.548 333.351 289.529 325.5 289.188C317.649 288.846 310.565 288.926 304.25 289.438C297.935 289.95 291.707 290.805 285.562 292C279.419 293.195 272.334 295.065 264.312 297.625C256.291 300.185 249.983 302.673 245.375 305.062C240.767 307.452 237.961 308.736 236.938 308.906C235.913 309.077 231.555 311.613 223.875 316.562C216.195 321.512 209.11 324.587 202.625 325.781C196.14 326.976 189.642 328.608 183.156 330.656C176.671 332.704 170.553 334.923 164.75 337.312C158.947 339.702 152.37 342.856 145.031 346.781C137.693 350.707 134.031 352.846 134.031 353.188C134.031 353.529 133.065 354.115 131.188 354.969C129.31 355.822 125.3 358.469 119.156 362.906C113.012 367.344 106.466 372.796 99.4688 379.281C92.4714 385.767 86.7498 391.568 82.3125 396.688C77.8752 401.808 74.2932 406.435 71.5625 410.531C68.8318 414.627 67.2789 416.656 66.9375 416.656C66.7668 416.656 66.6082 416.656 66.4375 416.656C66.4375 416.912 66.4375 417.181 66.4375 417.438C66.4375 417.95 65.1537 419.899 62.5938 423.312C60.0337 426.726 56.8796 432.099 53.125 439.438C49.3703 446.776 47.5 450.786 47.5 451.469C47.5 452.151 46.6442 454.212 44.9375 457.625C43.2308 461.038 41.0119 467.267 38.2812 476.312C35.5506 485.358 33.2523 495.438 31.375 506.531C29.4977 517.625 28.5312 528.719 28.5312 539.812C28.5312 550.906 28.8798 559.005 29.5625 564.125C30.2452 569.245 30.863 572.558 31.375 574.094C31.887 575.63 32.2043 577.769 32.375 580.5C32.5457 583.231 33.5914 588.176 35.4688 595.344C37.3461 602.512 39.565 609.597 42.125 616.594C44.685 623.591 46.7933 628.536 48.5 631.438C50.2067 634.339 51.7597 637.524 53.125 640.938C54.4903 644.351 55.4255 646.221 55.9375 646.562C56.4495 646.904 58.2405 649.789 61.3125 655.25C64.3845 660.711 67.19 664.99 69.75 668.062C72.31 671.134 73.6731 673.005 73.8438 673.688C74.0144 674.37 74.363 674.798 74.875 674.969C75.387 675.139 75.7356 675.567 75.9062 676.25C76.0769 676.933 76.3461 677.281 76.6875 677.281C77.0288 677.281 77.2669 677.63 77.4375 678.312C77.6082 678.995 80.5242 682.387 86.1562 688.531C91.7883 694.675 97.3993 700.238 103.031 705.188C108.663 710.137 111.817 712.704 112.5 712.875C113.183 713.046 113.531 713.284 113.531 713.625C113.531 713.966 113.88 714.236 114.562 714.406C115.245 714.577 117.464 716.178 121.219 719.25C124.973 722.322 129.998 725.745 136.312 729.5C142.627 733.255 146.289 735.204 147.312 735.375C148.337 735.546 151.95 737.178 158.094 740.25C164.238 743.322 170.784 746.048 177.781 748.438C184.779 750.827 190.5 752.459 194.938 753.312C199.375 754.166 202.022 754.832 202.875 755.344C203.728 755.856 208.594 756.711 217.469 757.906C226.343 759.101 234.553 759.798 242.062 759.969C249.572 760.139 257.83 759.87 266.875 759.188C275.92 758.505 285.145 757.142 294.531 755.094C303.918 753.046 312.952 750.478 321.656 747.406C330.36 744.334 339.505 740.325 349.062 735.375C358.62 730.426 365.784 726.336 370.562 723.094C375.341 719.851 381.411 715.175 388.75 709.031C396.089 702.887 401.969 697.514 406.406 692.906C410.844 688.298 415.63 682.735 420.75 676.25C425.87 669.765 431.053 662.173 436.344 653.469C438.989 649.117 441.636 644.758 444.281 640.406C446.5 642.113 448.719 643.825 450.938 645.531C455.375 648.945 460.51 652.099 466.312 655C472.115 657.901 477.647 660.12 482.938 661.656C488.228 663.192 494.806 664.207 502.656 664.719C510.507 665.231 516.815 665.151 521.594 664.469C526.372 663.786 531.666 662.502 537.469 660.625C543.271 658.748 548.486 656.529 553.094 653.969C557.702 651.409 562.916 647.747 568.719 642.969C571.62 640.579 574.505 638.202 577.406 635.812C579.966 640.335 582.534 644.852 585.094 649.375C590.214 658.42 596.253 667.375 603.25 676.25C610.247 685.125 617.601 693.145 625.281 700.312C632.961 707.481 638.683 712.346 642.438 714.906C646.192 717.466 648.062 718.909 648.062 719.25C648.062 719.591 651.565 722 658.562 726.438C665.56 730.875 673.849 735.313 683.406 739.75C692.964 744.187 703.361 748.007 714.625 751.25C725.889 754.493 735.621 756.712 743.812 757.906C752.005 759.101 762.164 759.719 774.281 759.719C786.399 759.719 796.875 759.101 805.75 757.906C814.625 756.712 822.755 755.19 830.094 753.312C837.432 751.435 842.298 749.882 844.688 748.688C847.077 747.493 850.469 746.241 854.906 744.875C859.344 743.51 864.906 741.18 871.562 737.938C878.219 734.695 882.656 732.238 884.875 730.531C887.094 728.825 889.978 727.033 893.562 725.156C897.147 723.279 902.281 719.776 908.938 714.656C915.594 709.536 921.474 704.512 926.594 699.562C931.714 694.613 936.818 689.13 941.938 683.156C947.058 677.183 952.779 669.432 959.094 659.875C965.408 650.318 969.26 643.82 970.625 640.406C971.99 636.993 973.512 633.839 975.219 630.938C976.925 628.036 979.065 623.091 981.625 616.094C984.185 609.096 986.404 601.932 988.281 594.594C990.159 587.255 991.094 582.627 991.094 580.75C991.094 578.873 991.442 576.654 992.125 574.094C992.808 571.534 993.235 568.808 993.406 565.906C993.577 563.005 993.846 561.404 994.188 561.062C994.529 560.721 994.688 553.795 994.688 540.312C994.688 526.83 994.418 519.507 993.906 518.312C993.394 517.118 992.808 513.267 992.125 506.781C991.442 500.296 990.856 496.635 990.344 495.781C989.832 494.928 988.897 491.346 987.531 485.031C986.166 478.717 984.185 472.06 981.625 465.062C979.065 458.065 975.831 450.632 971.906 442.781C967.981 434.931 964.209 428.195 960.625 422.562C957.041 416.93 952.445 410.622 946.812 403.625C941.181 396.628 936.663 391.334 933.25 387.75C929.837 384.166 924.036 378.952 915.844 372.125C907.652 365.298 900.218 359.735 893.562 355.469C886.906 351.202 881.803 348.317 878.219 346.781C874.635 345.245 871.988 343.882 870.281 342.688C868.575 341.493 864.803 339.702 859 337.312C853.197 334.923 848.522 333.291 844.938 332.438C841.353 331.584 838.358 330.649 835.969 329.625C833.579 328.601 828.793 327.397 821.625 326.031C814.457 324.666 808.149 322.13 802.688 318.375C797.226 314.62 789.903 310.61 780.688 306.344C771.471 302.077 763.611 298.923 757.125 296.875C750.64 294.827 744.331 293.195 738.188 292C732.044 290.805 725.704 289.949 719.219 289.438C712.733 288.925 705.569 288.846 697.719 289.188C689.868 289.529 684.685 288.752 682.125 286.875C679.565 284.998 678.202 283.793 678.031 283.281C677.861 282.769 675.372 280.978 670.594 277.906C665.815 274.834 660.68 272.029 655.219 269.469C649.757 266.909 643.877 264.69 637.562 262.812C631.248 260.935 625.954 259.651 621.688 258.969C617.421 258.286 611.113 257.937 602.75 257.938C594.387 257.938 585.781 258.873 576.906 260.75C568.032 262.627 559.473 265.464 551.281 269.219C543.089 272.973 535.925 277.063 529.781 281.5C523.637 285.937 519.469 289.361 517.25 291.75C515.031 294.139 513.32 295.423 512.125 295.594C510.93 295.764 509.219 294.639 507 292.25C504.781 289.861 501.041 286.707 495.75 282.781C490.459 278.856 485.514 275.623 480.906 273.062C476.298 270.502 471.94 268.522 467.844 267.156C463.748 265.791 461.449 264.856 460.938 264.344C460.425 263.832 455.718 262.627 446.844 260.75C437.969 258.873 429.363 257.938 421 257.938ZM254.094 386.219C261.774 386.389 266.37 386.707 267.906 387.219C269.442 387.731 271.661 388.079 274.562 388.25C277.464 388.421 282.996 389.704 291.188 392.094C299.38 394.483 306.305 396.971 311.938 399.531C317.57 402.091 322.673 404.707 327.281 407.438C331.889 410.168 337.611 414.289 344.438 419.75C351.264 425.211 356.906 430.315 361.344 435.094C365.781 439.872 368.079 442.599 368.25 443.281C368.421 443.964 368.69 444.312 369.031 444.312C369.373 444.312 370.546 445.676 372.594 448.406C374.642 451.137 377.209 454.988 380.281 459.938C383.353 464.887 384.985 467.882 385.156 468.906C385.327 469.93 385.676 470.596 386.188 470.938C386.7 471.279 386.938 471.786 386.938 472.469C386.938 473.151 387.555 474.435 388.75 476.312C389.945 478.19 391.546 481.962 393.594 487.594C395.642 493.226 397.274 498.409 398.469 503.188C399.663 507.966 400.678 514.813 401.531 523.688C402.385 532.562 402.733 540.313 402.562 546.969C402.392 553.625 401.964 558.332 401.281 561.062C400.599 563.793 400.25 566.091 400.25 567.969C400.25 569.846 399.663 572.572 398.469 576.156C397.274 579.74 396.577 582.387 396.406 584.094C396.236 585.8 395.997 586.736 395.656 586.906C395.315 587.077 394.459 589.375 393.094 593.812C391.728 598.25 388.733 604.748 384.125 613.281C379.517 621.815 374.493 629.486 369.031 636.312C363.57 643.139 358.863 648.433 354.938 652.188C351.012 655.942 347.082 659.365 343.156 662.438C339.231 665.509 332.764 669.599 323.719 674.719C314.673 679.839 307.668 683.341 302.719 685.219C297.769 687.096 292.983 688.618 288.375 689.812C283.767 691.007 276.096 692.212 265.344 693.406C254.592 694.601 243.925 694.68 233.344 693.656C222.762 692.632 214.822 691.428 209.531 690.062C204.241 688.697 199.295 687.175 194.688 685.469C190.079 683.762 183.502 680.608 174.969 676C166.435 671.392 158.336 665.94 150.656 659.625C142.976 653.31 137.334 648.175 133.75 644.25C130.166 640.325 127.788 637.329 126.594 635.281C125.399 633.233 123.957 631.284 122.25 629.406C120.543 627.529 117.707 623.091 113.781 616.094C109.856 609.096 106.971 603.296 105.094 598.688C103.216 594.079 101.346 588.517 99.4688 582.031C97.5914 575.546 96.2283 568.651 95.375 561.312C94.5217 553.974 94.1731 545.526 94.3438 535.969C94.5144 526.411 94.9423 520.341 95.625 517.781C96.3077 515.221 96.625 513.002 96.625 511.125C96.625 509.248 97.5914 505.079 99.4688 498.594C101.346 492.108 102.519 488.606 103.031 488.094C103.543 487.582 104.478 485.284 105.844 481.188C107.209 477.091 108.175 474.872 108.688 474.531C109.2 474.19 109.517 473.493 109.688 472.469C109.858 471.445 110.793 469.654 112.5 467.094C114.207 464.534 115.142 462.822 115.312 461.969C115.483 461.115 118.399 456.867 124.031 449.188C129.663 441.507 135.385 434.851 141.188 429.219C146.99 423.587 150.224 420.671 150.906 420.5C151.589 420.329 153.808 418.728 157.562 415.656C161.317 412.584 167.308 408.812 175.5 404.375C183.692 399.938 192.806 396.197 202.875 393.125C212.944 390.053 222.089 388.072 230.281 387.219C238.473 386.365 246.414 386.048 254.094 386.219ZM780.938 386.219C788.618 386.389 794.656 386.786 799.094 387.469C803.531 388.151 809.87 389.704 818.062 392.094C826.255 394.483 833.308 397.051 839.281 399.781C845.255 402.512 850.39 405.159 854.656 407.719C858.923 410.279 864.455 414.289 871.281 419.75C878.108 425.211 883.401 429.887 887.156 433.812C890.911 437.738 894.683 442.176 898.438 447.125C902.192 452.074 905.933 457.875 909.688 464.531C913.442 471.187 916.596 477.765 919.156 484.25C921.716 490.735 923.698 496.616 925.062 501.906C926.428 507.197 927.521 514.202 928.375 522.906C929.228 531.61 929.577 539.281 929.406 545.938C929.236 552.594 928.808 558.394 928.125 563.344C927.442 568.293 925.81 575.14 923.25 583.844C920.69 592.548 917.219 601.233 912.781 609.938C908.344 618.642 904.493 625.298 901.25 629.906C898.007 634.514 894.932 638.445 892.031 641.688C889.13 644.93 885.707 648.433 881.781 652.188C877.856 655.942 875.32 658.161 874.125 658.844C872.93 659.526 872.233 660.113 872.062 660.625C871.892 661.137 871.464 661.486 870.781 661.656C870.099 661.827 868.815 662.762 866.938 664.469C865.06 666.175 861.558 668.664 856.438 671.906C851.317 675.149 847.735 677.099 845.688 677.781C843.639 678.464 841.69 679.399 839.812 680.594C837.935 681.788 834.512 683.341 829.562 685.219C824.613 687.096 819.827 688.618 815.219 689.812C810.611 691.007 807.14 691.704 804.75 691.875C802.361 692.046 800.459 692.394 799.094 692.906C797.728 693.418 793.56 693.926 786.562 694.438C779.565 694.95 770.769 694.68 760.188 693.656C749.606 692.632 739.795 690.762 730.75 688.031C721.705 685.301 714.62 682.733 709.5 680.344C704.38 677.954 701.654 676.512 701.312 676C700.971 675.488 698.832 674.204 694.906 672.156C690.981 670.108 686.194 666.875 680.562 662.438C674.93 658 669.399 652.944 663.938 647.312C658.476 641.68 654.466 637.163 651.906 633.75C649.346 630.337 646.541 626.168 643.469 621.219C640.397 616.269 638.416 612.608 637.562 610.219C636.709 607.829 636.043 606.435 635.531 606.094C635.019 605.752 633.118 600.997 629.875 591.781C626.632 582.565 624.413 574.704 623.219 568.219C622.024 561.733 621.358 556.947 621.188 553.875C621.017 550.803 621.017 544.764 621.188 535.719C621.358 526.673 622.373 517.608 624.25 508.562C626.127 499.517 627.998 492.433 629.875 487.312C631.752 482.192 633.971 477.089 636.531 471.969C639.091 466.849 642.007 461.824 645.25 456.875C648.493 451.926 651.995 447.139 655.75 442.531C659.505 437.923 663.752 433.296 668.531 428.688C673.31 424.079 677.161 420.687 680.062 418.469C682.964 416.25 686.894 413.524 691.844 410.281C696.793 407.039 701.152 404.471 704.906 402.594C708.661 400.716 713.844 398.497 720.5 395.938C727.156 393.377 732.878 391.507 737.656 390.312C742.435 389.118 748.933 388.072 757.125 387.219C765.317 386.365 773.258 386.048 780.938 386.219ZM511.375 533.156C514.788 533.327 518.688 534.341 523.125 536.219C527.562 538.096 531.493 540.743 534.906 544.156C538.32 547.57 540.966 551.5 542.844 555.938C544.721 560.375 545.656 565.32 545.656 570.781C545.656 576.243 544.721 581.188 542.844 585.625C540.966 590.062 539.096 593.406 537.219 595.625C535.341 597.844 533.471 599.635 531.594 601C529.716 602.365 527.577 603.618 525.188 604.812C522.798 606.007 520.31 606.973 517.75 607.656C515.19 608.339 512.036 608.656 508.281 608.656C504.527 608.656 501.642 608.418 499.594 607.906C497.546 607.394 494.709 606.19 491.125 604.312C487.541 602.435 484.149 599.788 480.906 596.375C477.664 592.962 475.445 590.077 474.25 587.688C473.055 585.298 472.12 582.731 471.438 580C470.755 577.269 470.406 574.274 470.406 571.031C470.406 567.789 470.755 564.714 471.438 561.812C472.12 558.911 473.642 555.519 476.031 551.594C478.421 547.668 480.719 544.673 482.938 542.625C485.156 540.577 487.454 538.865 489.844 537.5C492.233 536.135 495.577 535.041 499.844 534.188C504.11 533.334 507.962 532.986 511.375 533.156ZM243.844 406.938C240.26 406.938 235.663 407.286 230.031 407.969C224.399 408.651 219.185 409.586 214.406 410.781C209.628 411.976 203.399 414.195 195.719 417.438C188.039 420.68 184.029 422.551 183.688 423.062C183.346 423.574 181.365 424.779 177.781 426.656C174.197 428.534 170.187 431.18 165.75 434.594C161.313 438.007 156.209 442.793 150.406 448.938C144.604 455.081 140.166 460.344 137.094 464.781C134.022 469.219 131.185 473.926 128.625 478.875C126.065 483.824 123.846 488.769 121.969 493.719C120.091 498.668 118.57 503.534 117.375 508.312C116.18 513.091 115.245 519.907 114.562 528.781C113.88 537.656 113.88 543.378 114.562 545.938C115.245 548.498 116.45 550.906 118.156 553.125C119.863 555.344 121.654 557.055 123.531 558.25C125.409 559.445 127.279 560.269 129.156 560.781C131.034 561.293 132.983 561.562 135.031 561.562C137.079 561.562 139.06 561.293 140.938 560.781C142.815 560.269 144.765 559.334 146.812 557.969C148.861 556.603 150.731 554.654 152.438 552.094C154.144 549.534 155.269 547.046 155.781 544.656C156.293 542.267 156.642 538.685 156.812 533.906C156.983 529.128 157.998 523.327 159.875 516.5C161.752 509.673 164.32 503.286 167.562 497.312C170.805 491.339 172.596 488.344 172.938 488.344C173.279 488.344 175.149 486.125 178.562 481.688C181.976 477.25 185.051 474.096 187.781 472.219C190.512 470.341 192.382 468.82 193.406 467.625C194.43 466.43 197.854 464.211 203.656 460.969C209.459 457.726 212.851 456.094 213.875 456.094C214.899 456.094 217.815 455.238 222.594 453.531C227.372 451.825 233.95 450.541 242.312 449.688C250.675 448.834 256.128 447.55 258.688 445.844C261.248 444.137 263.118 442.426 264.312 440.719C265.507 439.012 266.442 437.142 267.125 435.094C267.808 433.046 268.156 430.827 268.156 428.438C268.156 426.048 267.808 423.75 267.125 421.531C266.442 419.313 265.507 417.363 264.312 415.656C263.118 413.95 261.596 412.397 259.719 411.031C257.841 409.666 255.623 408.651 253.062 407.969C250.502 407.286 247.428 406.938 243.844 406.938ZM771.969 406.938C768.214 406.938 763.507 407.286 757.875 407.969C752.243 408.651 747.06 409.586 742.281 410.781C737.503 411.976 731.274 414.195 723.594 417.438C715.914 420.68 708.401 424.77 701.062 429.719C693.724 434.668 686.718 440.548 680.062 447.375C673.406 454.202 668.889 459.257 666.5 462.5C664.111 465.743 661.384 470.181 658.312 475.812C655.241 481.445 652.087 489.036 648.844 498.594C645.601 508.151 643.969 513.762 643.969 515.469C643.969 517.175 643.62 519.394 642.938 522.125C642.255 524.856 641.906 529.214 641.906 535.188C641.906 541.161 642.255 545.171 642.938 547.219C643.62 549.267 644.745 551.327 646.281 553.375C647.817 555.423 649.529 557.055 651.406 558.25C653.284 559.445 655.154 560.269 657.031 560.781C658.909 561.293 660.858 561.562 662.906 561.562C664.954 561.562 666.935 561.293 668.812 560.781C670.69 560.269 672.719 559.255 674.938 557.719C677.156 556.183 679.137 553.964 680.844 551.062C682.55 548.161 683.724 542.868 684.406 535.188C685.089 527.507 686.373 520.613 688.25 514.469C690.127 508.325 692.695 502.334 695.938 496.531C699.18 490.729 700.971 487.844 701.312 487.844C701.654 487.844 702.938 486.291 705.156 483.219C707.375 480.147 710.688 476.644 715.125 472.719C719.562 468.793 724.697 465.132 730.5 461.719C736.303 458.305 742.262 455.659 748.406 453.781C754.55 451.904 761.825 450.541 770.188 449.688C778.55 448.834 784.082 447.471 786.812 445.594C789.543 443.716 791.604 441.767 792.969 439.719C794.334 437.671 795.269 435.452 795.781 433.062C796.293 430.673 796.293 427.947 795.781 424.875C795.269 421.803 794.651 419.663 793.969 418.469C793.286 417.274 792.541 416.07 791.688 414.875C790.834 413.68 789.471 412.397 787.594 411.031C785.716 409.666 783.577 408.651 781.188 407.969C778.798 407.286 775.723 406.938 771.969 406.938Z" fill="#000000" fill-rule="nonzero" opacity="1" stroke="none"/>
</g>
</svg>
