<?xml version="1.0" encoding="UTF-8" standalone="no"?>
<!-- Created with Vectornator (http://vectornator.io/) -->

<svg
   height="456.60001"
   stroke-miterlimit="10"
   style="clip-rule:evenodd;fill-rule:nonzero;stroke-linecap:round;stroke-linejoin:round"
   version="1.1"
   viewBox="0 0 646.79779 456.60002"
   width="646.79779"
   xml:space="preserve"
   id="svg126"
   sodipodi:docname="Maze.svg"
   inkscape:version="1.2 (dc2aedaf03, 2022-05-15)"
   xmlns:inkscape="http://www.inkscape.org/namespaces/inkscape"
   xmlns:sodipodi="http://sodipodi.sourceforge.net/DTD/sodipodi-0.dtd"
   xmlns="http://www.w3.org/2000/svg"
   xmlns:svg="http://www.w3.org/2000/svg"
   xmlns:vectornator="http://vectornator.io"><sodipodi:namedview
   id="namedview128"
   pagecolor="#ffffff"
   bordercolor="#000000"
   borderopacity="0.25"
   inkscape:showpageshadow="2"
   inkscape:pageopacity="0.0"
   inkscape:pagecheckerboard="0"
   inkscape:deskcolor="#d1d1d1"
   showgrid="false"
   inkscape:zoom="1.4370632"
   inkscape:cx="269.29923"
   inkscape:cy="269.99509"
   inkscape:window-width="3440"
   inkscape:window-height="1369"
   inkscape:window-x="1432"
   inkscape:window-y="549"
   inkscape:window-maximized="1"
   inkscape:current-layer="svg126" />
<defs
   id="defs2" />
<g
   id="Layer-1"
   vectornator:layerName="Layer 1"
   transform="translate(-47.2802,-26.85)">
<path
   d="M 595.35,28.35 H 141.75 V 424.515"
   fill="none"
   opacity="1"
   stroke="#000000"
   stroke-linecap="round"
   stroke-linejoin="round"
   stroke-width="3"
   id="path4" />
<path
   d="m 141.75,481.95 h 453.6 V 85.05"
   fill="none"
   opacity="1"
   stroke="#000000"
   stroke-linecap="round"
   stroke-linejoin="round"
   stroke-width="3"
   id="path6" />
<path
   d="m 141.75,85.05 h 113.4 z"
   fill="none"
   opacity="1"
   stroke="#000000"
   stroke-linecap="round"
   stroke-linejoin="round"
   stroke-width="3"
   id="path8" />
<path
   d="m 198.45,141.75 v 0 56.7 h 56.7 V 85.05"
   fill="none"
   opacity="1"
   stroke="#000000"
   stroke-linecap="round"
   stroke-linejoin="round"
   stroke-width="3"
   id="path10" />
<path
   d="m 198.45,255.15 v 56.7 h 56.7 v 0 0 -56.7 h 113.4 l 0.615,-56.7 v 0"
   fill="none"
   opacity="1"
   stroke="#000000"
   stroke-linecap="round"
   stroke-linejoin="round"
   stroke-width="3"
   id="path12" />
<path
   d="m 311.85,85.05 v 113.4"
   fill="none"
   opacity="1"
   stroke="#000000"
   stroke-linecap="round"
   stroke-linejoin="round"
   stroke-width="3"
   id="path14" />
<path
   d="m 311.85,198.45 h 113.4"
   fill="none"
   opacity="1"
   stroke="#000000"
   stroke-linecap="round"
   stroke-linejoin="round"
   stroke-width="3"
   id="path16" />
<path
   d="m 368.55,28.35 v 113.4 h -56.7"
   fill="none"
   opacity="1"
   stroke="#000000"
   stroke-linecap="round"
   stroke-linejoin="round"
   stroke-width="3"
   id="path18" />
<path
   d="m 425.25,113.4 v -28.35 56.7 h 56.7 56.7"
   fill="none"
   opacity="1"
   stroke="#000000"
   stroke-linecap="round"
   stroke-linejoin="round"
   stroke-width="3"
   id="path20" />
<path
   d="M 538.65,226.8 V 85.05 h 56.7"
   fill="none"
   opacity="1"
   stroke="#000000"
   stroke-linecap="round"
   stroke-linejoin="round"
   stroke-width="3"
   id="path22" />
<path
   d="m 538.65,283.5 c 0,35.438 0,141.75 0,141.75 v 0"
   fill="none"
   opacity="1"
   stroke="#000000"
   stroke-linecap="round"
   stroke-linejoin="round"
   stroke-width="3"
   id="path24" />
<path
   d="m 311.85,311.85 v 56.7 h 113.4 v 56.7 h -113.4 v 0 0"
   fill="none"
   opacity="1"
   stroke="#000000"
   stroke-linecap="round"
   stroke-linejoin="round"
   stroke-width="3"
   id="path26" />
<path
   d="m 255.512,481.95 -0.362,-113.4 v 0"
   fill="none"
   opacity="1"
   stroke="#000000"
   stroke-linecap="round"
   stroke-linejoin="round"
   stroke-width="3"
   id="path28" />
<path
   d="m 141.75,425.138 56.7,0.112 v -56.7"
   fill="none"
   opacity="1"
   stroke="#000000"
   stroke-linecap="round"
   stroke-linejoin="round"
   stroke-width="3"
   id="path30" />
<path
   d="M 255.143,311.85 H 368.55 v 0 h 113.4"
   fill="none"
   opacity="1"
   stroke="#000000"
   stroke-linecap="round"
   stroke-linejoin="round"
   stroke-width="3"
   id="path32" />
<path
   d="M 481.95,481.95 V 368.55"
   fill="none"
   opacity="1"
   stroke="#000000"
   stroke-linecap="round"
   stroke-linejoin="round"
   stroke-width="3"
   id="path34" />
<path
   d="m 425.14,198.45 0.11,56.7"
   fill="none"
   opacity="1"
   stroke="#000000"
   stroke-linecap="round"
   stroke-linejoin="round"
   stroke-width="3"
   id="path36" />
<path
   d="m 481.95,28.35 v 56.7"
   fill="none"
   opacity="1"
   stroke="#000000"
   stroke-linecap="round"
   stroke-linejoin="round"
   stroke-width="3"
   id="path38" />
<path
   d="m 425.25,255.15 h 56.7"
   fill="none"
   opacity="1"
   stroke="#000000"
   stroke-linecap="round"
   stroke-linejoin="round"
   stroke-width="3"
   id="path40" />
<path
   d="m 481.95,141.75 v 56.7 0"
   fill="none"
   opacity="1"
   stroke="#000000"
   stroke-linecap="round"
   stroke-linejoin="round"
   stroke-width="3"
   id="path42" />
<g
   opacity="1"
   id="g78">
<path
   d="m 129.859,441.182 v 23.962 h -8.73 v -23.962 z m -4.365,19.597 c 2.41,0 4.365,1.954 4.365,4.365 0,2.411 -1.955,4.365 -4.365,4.365 -2.411,0 -4.365,-1.954 -4.365,-4.365 0,-2.411 1.954,-4.365 4.365,-4.365 z m 0,-23.962 c 2.41,0 4.365,1.954 4.365,4.365 0,2.411 -1.955,4.365 -4.365,4.365 -2.411,0 -4.365,-1.954 -4.365,-4.365 0,-2.411 1.954,-4.365 4.365,-4.365 z"
   fill="#f98101"
   fill-rule="nonzero"
   opacity="1"
   stroke="none"
   id="path44" />
<path
   d="m 56.01,441.182 v 23.962 h -8.7298 v -23.962 z m -4.3649,19.597 c 2.4107,0 4.3649,1.954 4.3649,4.365 0,2.411 -1.9542,4.365 -4.3649,4.365 -2.4107,0 -4.3649,-1.954 -4.3649,-4.365 0,-2.411 1.9542,-4.365 4.3649,-4.365 z m 0,-23.962 c 2.4107,0 4.3649,1.954 4.3649,4.365 0,2.411 -1.9542,4.365 -4.3649,4.365 -2.4107,0 -4.3649,-1.954 -4.3649,-4.365 0,-2.411 1.9542,-4.365 4.3649,-4.365 z"
   fill="#f98101"
   fill-rule="nonzero"
   opacity="1"
   stroke="none"
   id="path46" />
<path
   d="M 61.6989,426.174 H 115.44 c 5.552,0 10.054,6.678 10.054,14.915 v 24.148 c 0,8.237 -4.502,14.915 -10.054,14.915 H 61.6989 c -5.5526,0 -10.0538,-6.678 -10.0538,-14.915 v -24.148 c 0,-8.237 4.5012,-14.915 10.0538,-14.915 z"
   fill="#92def1"
   fill-rule="nonzero"
   opacity="1"
   stroke="none"
   id="path48" />
<path
   d="M 61.6989,426.174 H 115.44 c 5.552,0 10.054,6.678 10.054,14.915 v 24.148 c 0,8.237 -4.502,14.915 -10.054,14.915 H 61.6989 c -5.5526,0 -10.0538,-6.678 -10.0538,-14.915 v -24.148 c 0,-8.237 4.5012,-14.915 10.0538,-14.915 z"
   fill="#19b5dc"
   fill-rule="nonzero"
   opacity="1"
   stroke="none"
   id="path50" />
<path
   d="m 66.3975,430.893 h 44.3435 c 4.582,0 8.296,5.51 8.296,12.307 v 19.926 c 0,6.797 -3.714,12.307 -8.296,12.307 H 66.3975 c -4.5816,0 -8.2957,-5.51 -8.2957,-12.307 V 443.2 c 0,-6.797 3.7141,-12.307 8.2957,-12.307 z"
   fill="#92def1"
   fill-rule="nonzero"
   opacity="1"
   stroke="none"
   id="path52" />
<path
   d="m 88.5694,412.837 -3.85,13.337 h 7.6999 z"
   fill="#608892"
   fill-rule="nonzero"
   opacity="1"
   stroke="none"
   id="path54" />
<path
   d="m 84.9574,412.837 c 0,-1.994 1.6171,-3.612 3.612,-3.612 1.9948,0 3.6119,1.618 3.6119,3.612 0,1.995 -1.6171,3.612 -3.6119,3.612 -1.9949,0 -3.612,-1.617 -3.612,-3.612 z"
   fill="#ff0000"
   fill-rule="nonzero"
   opacity="1"
   stroke="none"
   id="path56" />
<g
   opacity="1"
   id="g62">
<path
   d="m 61.05,444.239 c 0,-6.458 5.2355,-11.694 11.6937,-11.694 6.4582,0 11.6936,5.236 11.6936,11.694 0,6.458 -5.2354,11.694 -11.6936,11.694 -6.4582,0 -11.6937,-5.236 -11.6937,-11.694 z"
   fill="#ffffff"
   fill-rule="nonzero"
   opacity="1"
   stroke="none"
   id="path58" />
<path
   d="m 65.8292,444.239 c 0,-3.819 3.0957,-6.914 6.9145,-6.914 3.8187,0 6.9144,3.095 6.9144,6.914 0,3.819 -3.0957,6.914 -6.9144,6.914 -3.8188,0 -6.9145,-3.095 -6.9145,-6.914 z"
   fill="#000000"
   fill-rule="nonzero"
   opacity="1"
   stroke="none"
   id="path60" />
</g>
<g
   opacity="1"
   id="g68">
<path
   d="m 92.7014,444.239 c 0,-6.458 5.2354,-11.694 11.6936,-11.694 6.458,0 11.694,5.236 11.694,11.694 0,6.458 -5.236,11.694 -11.694,11.694 -6.4582,0 -11.6936,-5.236 -11.6936,-11.694 z"
   fill="#ffffff"
   fill-rule="nonzero"
   opacity="1"
   stroke="none"
   id="path64" />
<path
   d="m 97.4806,444.239 c 0,-3.819 3.0954,-6.914 6.9144,-6.914 3.819,0 6.915,3.095 6.915,6.914 0,3.819 -3.096,6.914 -6.915,6.914 -3.819,0 -6.9144,-3.095 -6.9144,-6.914 z"
   fill="#000000"
   fill-rule="nonzero"
   opacity="1"
   stroke="none"
   id="path66" />
</g>
<g
   opacity="1"
   id="g76">
<path
   d="M 81.1135,463.868 H 95.847 v 8.73 H 81.1135 Z"
   fill="#f98101"
   fill-rule="nonzero"
   opacity="1"
   stroke="none"
   id="path70" />
<path
   d="m 91.4823,468.233 c 0,-2.41 1.9541,-4.365 4.3647,-4.365 2.4106,0 4.365,1.955 4.365,4.365 0,2.411 -1.9544,4.365 -4.365,4.365 -2.4106,0 -4.3647,-1.954 -4.3647,-4.365 z"
   fill="#f98101"
   fill-rule="nonzero"
   opacity="1"
   stroke="none"
   id="path72" />
<path
   d="m 76.9269,468.233 c 0,-2.41 1.8744,-4.365 4.1866,-4.365 2.3121,0 4.1865,1.955 4.1865,4.365 0,2.411 -1.8744,4.365 -4.1865,4.365 -2.3122,0 -4.1866,-1.954 -4.1866,-4.365 z"
   fill="#f98101"
   fill-rule="nonzero"
   opacity="1"
   stroke="none"
   id="path74" />
</g>
</g>
</g>


<g
   id="Layer-4"
   vectornator:layerName="Layer 4"
   transform="translate(-47.2802,-26.85)">
<g
   opacity="1"
   id="g115">
<path
   d="m 550.496,433.912 -8.253,8.868 h 16.505 z"
   fill="#00ccff"
   fill-rule="nonzero"
   opacity="1"
   stroke="#000000"
   stroke-linecap="butt"
   stroke-linejoin="round"
   stroke-width="1"
   id="path87" />
<path
   d="M 550.496,433.912 H 567 l -8.252,8.868 z"
   fill="#07beec"
   fill-rule="nonzero"
   opacity="1"
   stroke="#000000"
   stroke-linecap="butt"
   stroke-linejoin="round"
   stroke-width="1"
   id="path89" />
<path
   d="M 567,433.912"
   fill="none"
   opacity="1"
   stroke="#000000"
   stroke-linecap="butt"
   stroke-linejoin="round"
   stroke-width="1"
   id="path91" />
<path
   d="m 567,433.912 -8.252,8.868 v 0"
   fill="none"
   opacity="1"
   stroke="#000000"
   stroke-linecap="butt"
   stroke-linejoin="round"
   stroke-width="1"
   id="path93" />
<path
   d="m 558.748,442.78 h 16.504 L 567,433.912 Z"
   fill="#02a7d0"
   fill-rule="nonzero"
   opacity="1"
   stroke="#000000"
   stroke-linecap="butt"
   stroke-linejoin="round"
   stroke-width="1"
   id="path95" />
<path
   d="M 558.748,442.78"
   fill="none"
   opacity="1"
   stroke="#000000"
   stroke-linecap="butt"
   stroke-linejoin="round"
   stroke-width="1"
   id="path97" />
<path
   d="m 575.252,442.78 8.252,-8.868 H 567 Z"
   fill="#04a5cd"
   fill-rule="nonzero"
   opacity="1"
   stroke="#000000"
   stroke-linecap="butt"
   stroke-linejoin="round"
   stroke-width="1"
   id="path99" />
<path
   d="M 575.252,442.78"
   fill="none"
   opacity="1"
   stroke="#000000"
   stroke-linecap="butt"
   stroke-linejoin="round"
   stroke-width="1"
   id="path101" />
<path
   d="m 575.252,442.78 8.252,-8.868 8.253,8.868 z"
   fill="#0085a6"
   fill-rule="nonzero"
   opacity="1"
   stroke="#000000"
   stroke-linecap="butt"
   stroke-linejoin="round"
   stroke-width="1"
   id="path103" />
<path
   d="M 575.252,442.78"
   fill="none"
   opacity="1"
   stroke="#000000"
   stroke-linecap="butt"
   stroke-linejoin="round"
   stroke-width="1"
   id="path105" />
<path
   d="M 542.243,442.78 567,473.817 558.748,442.78 Z"
   fill="#00ccff"
   fill-rule="nonzero"
   opacity="1"
   stroke="#000000"
   stroke-linecap="butt"
   stroke-linejoin="round"
   stroke-width="1"
   id="path107" />
<path
   d="m 567,473.817 8.252,-31.037 h -16.504 z"
   fill="#02a7d0"
   fill-rule="nonzero"
   opacity="1"
   stroke="#000000"
   stroke-linecap="butt"
   stroke-linejoin="round"
   stroke-width="1"
   id="path109" />
<path
   d="M 567,473.817 591.757,442.78 H 575.252 Z"
   fill="#0085a6"
   fill-rule="nonzero"
   opacity="1"
   stroke="#000000"
   stroke-linecap="butt"
   stroke-linejoin="round"
   stroke-width="1"
   id="path111" />
<path
   d="M 567,473.817"
   fill="none"
   opacity="1"
   stroke="#000000"
   stroke-linecap="butt"
   stroke-linejoin="round"
   stroke-width="1"
   id="path113" />
</g>
<g
   opacity="1"
   id="g121">
<path
   d="m 617.886,49.0698 h 51.347 c 2.761,0 5,2.2386 5,5 v 5.2604 c 0,2.7614 -2.239,5 -5,5 h -51.347 c -2.761,0 -5,-2.2386 -5,-5 v -5.2604 c 0,-2.7614 2.239,-5 5,-5 z"
   fill="#000000"
   fill-rule="nonzero"
   opacity="1"
   stroke="none"
   id="path117" />
<path
   d="M 694.078,56.6776 666.622,72.559 666.596,40.841 Z"
   fill="#000000"
   fill-rule="nonzero"
   opacity="1"
   stroke="none"
   id="path119" />
</g>
<path
   d="m 693.813,224.233 -0.264,-0.458 h 0.529 z"
   fill="#000000"
   fill-rule="nonzero"
   opacity="1"
   stroke="none"
   id="path123" />
</g>
</svg>
