<?xml version="1.0" encoding="utf-8" standalone="no"?>
<!DOCTYPE svg PUBLIC "-//W3C//DTD SVG 1.1//EN"
  "http://www.w3.org/Graphics/SVG/1.1/DTD/svg11.dtd">
<!-- Created with matplotlib (https://matplotlib.org/) -->
<svg height="360pt" version="1.1" viewBox="0 0 1080 360" width="1080pt" xmlns="http://www.w3.org/2000/svg" xmlns:xlink="http://www.w3.org/1999/xlink">
 <metadata>
  <rdf:RDF xmlns:cc="http://creativecommons.org/ns#" xmlns:dc="http://purl.org/dc/elements/1.1/" xmlns:rdf="http://www.w3.org/1999/02/22-rdf-syntax-ns#">
   <cc:Work>
    <dc:type rdf:resource="http://purl.org/dc/dcmitype/StillImage"/>
    <dc:date>2022-07-13T20:41:05.702192</dc:date>
    <dc:format>image/svg+xml</dc:format>
    <dc:creator>
     <cc:Agent>
      <dc:title>Matplotlib v3.3.4, https://matplotlib.org/</dc:title>
     </cc:Agent>
    </dc:creator>
   </cc:Work>
  </rdf:RDF>
 </metadata>
 <defs>
  <style type="text/css">*{stroke-linecap:butt;stroke-linejoin:round;}</style>
 </defs>
 <g id="figure_1">
  <g id="patch_1">
   <path d="M 0 360 
L 1080 360 
L 1080 0 
L 0 0 
z
" style="fill:none;"/>
  </g>
  <g id="axes_1">
   <g id="patch_2">
    <path d="M 135 315 
L 381.176471 315 
L 381.176471 43.2 
L 135 43.2 
z
" style="fill:none;"/>
   </g>
   <g id="PathCollection_1">
    <defs>
     <path d="M 0 3 
C 0.795609 3 1.55874 2.683901 2.12132 2.12132 
C 2.683901 1.55874 3 0.795609 3 0 
C 3 -0.795609 2.683901 -1.55874 2.12132 -2.12132 
C 1.55874 -2.683901 0.795609 -3 0 -3 
C -0.795609 -3 -1.55874 -2.683901 -2.12132 -2.12132 
C -2.683901 -1.55874 -3 -0.795609 -3 0 
C -3 0.795609 -2.683901 1.55874 -2.12132 2.12132 
C -1.55874 2.683901 -0.795609 3 0 3 
z
" id="mae44c4debd" style="stroke:#1f77b4;"/>
    </defs>
    <g clip-path="url(#p3134bea284)">
     <use style="fill:#1f77b4;stroke:#1f77b4;" x="146.18984" xlink:href="#mae44c4debd" y="93.226936"/>
     <use style="fill:#1f77b4;stroke:#1f77b4;" x="151.784759" xlink:href="#mae44c4debd" y="55.554545"/>
     <use style="fill:#1f77b4;stroke:#1f77b4;" x="157.379679" xlink:href="#mae44c4debd" y="80.832378"/>
     <use style="fill:#1f77b4;stroke:#1f77b4;" x="162.974599" xlink:href="#mae44c4debd" y="139.225416"/>
     <use style="fill:#1f77b4;stroke:#1f77b4;" x="168.569519" xlink:href="#mae44c4debd" y="136.486912"/>
     <use style="fill:#1f77b4;stroke:#1f77b4;" x="174.164439" xlink:href="#mae44c4debd" y="155.72721"/>
     <use style="fill:#1f77b4;stroke:#1f77b4;" x="179.759358" xlink:href="#mae44c4debd" y="154.053422"/>
     <use style="fill:#1f77b4;stroke:#1f77b4;" x="185.354278" xlink:href="#mae44c4debd" y="156.591537"/>
     <use style="fill:#1f77b4;stroke:#1f77b4;" x="190.949198" xlink:href="#mae44c4debd" y="224.910647"/>
     <use style="fill:#1f77b4;stroke:#1f77b4;" x="196.544118" xlink:href="#mae44c4debd" y="241.708168"/>
     <use style="fill:#1f77b4;stroke:#1f77b4;" x="202.139037" xlink:href="#mae44c4debd" y="187.432027"/>
     <use style="fill:#1f77b4;stroke:#1f77b4;" x="207.733957" xlink:href="#mae44c4debd" y="229.31287"/>
     <use style="fill:#1f77b4;stroke:#1f77b4;" x="213.328877" xlink:href="#mae44c4debd" y="211.391493"/>
     <use style="fill:#1f77b4;stroke:#1f77b4;" x="218.923797" xlink:href="#mae44c4debd" y="279.936184"/>
     <use style="fill:#1f77b4;stroke:#1f77b4;" x="224.518717" xlink:href="#mae44c4debd" y="250.875856"/>
     <use style="fill:#1f77b4;stroke:#1f77b4;" x="230.113636" xlink:href="#mae44c4debd" y="234.227579"/>
     <use style="fill:#1f77b4;stroke:#1f77b4;" x="235.708556" xlink:href="#mae44c4debd" y="278.298176"/>
     <use style="fill:#1f77b4;stroke:#1f77b4;" x="241.303476" xlink:href="#mae44c4debd" y="224.295688"/>
     <use style="fill:#1f77b4;stroke:#1f77b4;" x="246.898396" xlink:href="#mae44c4debd" y="230.323441"/>
     <use style="fill:#1f77b4;stroke:#1f77b4;" x="252.493316" xlink:href="#mae44c4debd" y="301.730846"/>
     <use style="fill:#1f77b4;stroke:#1f77b4;" x="258.088235" xlink:href="#mae44c4debd" y="302.645455"/>
     <use style="fill:#1f77b4;stroke:#1f77b4;" x="263.683155" xlink:href="#mae44c4debd" y="260.726999"/>
     <use style="fill:#1f77b4;stroke:#1f77b4;" x="269.278075" xlink:href="#mae44c4debd" y="227.29551"/>
     <use style="fill:#1f77b4;stroke:#1f77b4;" x="274.872995" xlink:href="#mae44c4debd" y="269.573441"/>
     <use style="fill:#1f77b4;stroke:#1f77b4;" x="280.467914" xlink:href="#mae44c4debd" y="279.274489"/>
     <use style="fill:#1f77b4;stroke:#1f77b4;" x="286.062834" xlink:href="#mae44c4debd" y="258.262373"/>
     <use style="fill:#1f77b4;stroke:#1f77b4;" x="291.657754" xlink:href="#mae44c4debd" y="284.296084"/>
     <use style="fill:#1f77b4;stroke:#1f77b4;" x="297.252674" xlink:href="#mae44c4debd" y="262.309993"/>
     <use style="fill:#1f77b4;stroke:#1f77b4;" x="302.847594" xlink:href="#mae44c4debd" y="237.430557"/>
     <use style="fill:#1f77b4;stroke:#1f77b4;" x="308.442513" xlink:href="#mae44c4debd" y="224.252218"/>
     <use style="fill:#1f77b4;stroke:#1f77b4;" x="314.037433" xlink:href="#mae44c4debd" y="235.809351"/>
     <use style="fill:#1f77b4;stroke:#1f77b4;" x="319.632353" xlink:href="#mae44c4debd" y="225.451913"/>
     <use style="fill:#1f77b4;stroke:#1f77b4;" x="325.227273" xlink:href="#mae44c4debd" y="214.883172"/>
     <use style="fill:#1f77b4;stroke:#1f77b4;" x="330.822193" xlink:href="#mae44c4debd" y="183.010071"/>
     <use style="fill:#1f77b4;stroke:#1f77b4;" x="336.417112" xlink:href="#mae44c4debd" y="183.096108"/>
     <use style="fill:#1f77b4;stroke:#1f77b4;" x="342.012032" xlink:href="#mae44c4debd" y="190.082984"/>
     <use style="fill:#1f77b4;stroke:#1f77b4;" x="347.606952" xlink:href="#mae44c4debd" y="109.023018"/>
     <use style="fill:#1f77b4;stroke:#1f77b4;" x="353.201872" xlink:href="#mae44c4debd" y="115.033145"/>
     <use style="fill:#1f77b4;stroke:#1f77b4;" x="358.796791" xlink:href="#mae44c4debd" y="90.583628"/>
     <use style="fill:#1f77b4;stroke:#1f77b4;" x="364.391711" xlink:href="#mae44c4debd" y="108.655518"/>
    </g>
   </g>
   <g id="PathCollection_2">
    <defs>
     <path d="M 0 3 
C 0.795609 3 1.55874 2.683901 2.12132 2.12132 
C 2.683901 1.55874 3 0.795609 3 0 
C 3 -0.795609 2.683901 -1.55874 2.12132 -2.12132 
C 1.55874 -2.683901 0.795609 -3 0 -3 
C -0.795609 -3 -1.55874 -2.683901 -2.12132 -2.12132 
C -2.683901 -1.55874 -3 -0.795609 -3 0 
C -3 0.795609 -2.683901 1.55874 -2.12132 2.12132 
C -1.55874 2.683901 -0.795609 3 0 3 
z
" id="md4ec9410ed" style="stroke:#ff7f0e;"/>
    </defs>
    <g clip-path="url(#p3134bea284)">
     <use style="fill:#ff7f0e;stroke:#ff7f0e;" x="369.986631" xlink:href="#md4ec9410ed" y="220.257039"/>
    </g>
   </g>
   <g id="PathCollection_3">
    <defs>
     <path d="M 0 -5 
L -1.12257 -1.545085 
L -4.755283 -1.545085 
L -1.816356 0.59017 
L -2.938926 4.045085 
L -0 1.90983 
L 2.938926 4.045085 
L 1.816356 0.59017 
L 4.755283 -1.545085 
L 1.12257 -1.545085 
z
" id="m649efeecb3" style="stroke:#000000;"/>
    </defs>
    <g clip-path="url(#p3134bea284)">
     <use style="stroke:#000000;" x="369.986631" xlink:href="#m649efeecb3" y="104.012387"/>
    </g>
   </g>
   <g id="matplotlib.axis_1">
    <g id="xtick_1">
     <g id="line2d_1">
      <defs>
       <path d="M 0 0 
L 0 3.5 
" id="mc86f9c9533" style="stroke:#000000;stroke-width:0.8;"/>
      </defs>
      <g>
       <use style="stroke:#000000;stroke-width:0.8;" x="168.569519" xlink:href="#mc86f9c9533" y="315"/>
      </g>
     </g>
     <g id="text_1">
      <!-- −4 -->
      <g transform="translate(161.198425 329.598437)scale(0.1 -0.1)">
       <defs>
        <path d="M 10.59375 35.5 
L 73.1875 35.5 
L 73.1875 27.203125 
L 10.59375 27.203125 
z
" id="DejaVuSans-8722"/>
        <path d="M 37.796875 64.3125 
L 12.890625 25.390625 
L 37.796875 25.390625 
z
M 35.203125 72.90625 
L 47.609375 72.90625 
L 47.609375 25.390625 
L 58.015625 25.390625 
L 58.015625 17.1875 
L 47.609375 17.1875 
L 47.609375 0 
L 37.796875 0 
L 37.796875 17.1875 
L 4.890625 17.1875 
L 4.890625 26.703125 
z
" id="DejaVuSans-52"/>
       </defs>
       <use xlink:href="#DejaVuSans-8722"/>
       <use x="83.789062" xlink:href="#DejaVuSans-52"/>
      </g>
     </g>
    </g>
    <g id="xtick_2">
     <g id="line2d_2">
      <g>
       <use style="stroke:#000000;stroke-width:0.8;" x="213.328877" xlink:href="#mc86f9c9533" y="315"/>
      </g>
     </g>
     <g id="text_2">
      <!-- −2 -->
      <g transform="translate(205.957783 329.598437)scale(0.1 -0.1)">
       <defs>
        <path d="M 19.1875 8.296875 
L 53.609375 8.296875 
L 53.609375 0 
L 7.328125 0 
L 7.328125 8.296875 
Q 12.9375 14.109375 22.625 23.890625 
Q 32.328125 33.6875 34.8125 36.53125 
Q 39.546875 41.84375 41.421875 45.53125 
Q 43.3125 49.21875 43.3125 52.78125 
Q 43.3125 58.59375 39.234375 62.25 
Q 35.15625 65.921875 28.609375 65.921875 
Q 23.96875 65.921875 18.8125 64.3125 
Q 13.671875 62.703125 7.8125 59.421875 
L 7.8125 69.390625 
Q 13.765625 71.78125 18.9375 73 
Q 24.125 74.21875 28.421875 74.21875 
Q 39.75 74.21875 46.484375 68.546875 
Q 53.21875 62.890625 53.21875 53.421875 
Q 53.21875 48.921875 51.53125 44.890625 
Q 49.859375 40.875 45.40625 35.40625 
Q 44.1875 33.984375 37.640625 27.21875 
Q 31.109375 20.453125 19.1875 8.296875 
z
" id="DejaVuSans-50"/>
       </defs>
       <use xlink:href="#DejaVuSans-8722"/>
       <use x="83.789062" xlink:href="#DejaVuSans-50"/>
      </g>
     </g>
    </g>
    <g id="xtick_3">
     <g id="line2d_3">
      <g>
       <use style="stroke:#000000;stroke-width:0.8;" x="258.088235" xlink:href="#mc86f9c9533" y="315"/>
      </g>
     </g>
     <g id="text_3">
      <!-- 0 -->
      <g transform="translate(254.906985 329.598437)scale(0.1 -0.1)">
       <defs>
        <path d="M 31.78125 66.40625 
Q 24.171875 66.40625 20.328125 58.90625 
Q 16.5 51.421875 16.5 36.375 
Q 16.5 21.390625 20.328125 13.890625 
Q 24.171875 6.390625 31.78125 6.390625 
Q 39.453125 6.390625 43.28125 13.890625 
Q 47.125 21.390625 47.125 36.375 
Q 47.125 51.421875 43.28125 58.90625 
Q 39.453125 66.40625 31.78125 66.40625 
z
M 31.78125 74.21875 
Q 44.046875 74.21875 50.515625 64.515625 
Q 56.984375 54.828125 56.984375 36.375 
Q 56.984375 17.96875 50.515625 8.265625 
Q 44.046875 -1.421875 31.78125 -1.421875 
Q 19.53125 -1.421875 13.0625 8.265625 
Q 6.59375 17.96875 6.59375 36.375 
Q 6.59375 54.828125 13.0625 64.515625 
Q 19.53125 74.21875 31.78125 74.21875 
z
" id="DejaVuSans-48"/>
       </defs>
       <use xlink:href="#DejaVuSans-48"/>
      </g>
     </g>
    </g>
    <g id="xtick_4">
     <g id="line2d_4">
      <g>
       <use style="stroke:#000000;stroke-width:0.8;" x="302.847594" xlink:href="#mc86f9c9533" y="315"/>
      </g>
     </g>
     <g id="text_4">
      <!-- 2 -->
      <g transform="translate(299.666344 329.598437)scale(0.1 -0.1)">
       <use xlink:href="#DejaVuSans-50"/>
      </g>
     </g>
    </g>
    <g id="xtick_5">
     <g id="line2d_5">
      <g>
       <use style="stroke:#000000;stroke-width:0.8;" x="347.606952" xlink:href="#mc86f9c9533" y="315"/>
      </g>
     </g>
     <g id="text_5">
      <!-- 4 -->
      <g transform="translate(344.425702 329.598437)scale(0.1 -0.1)">
       <use xlink:href="#DejaVuSans-52"/>
      </g>
     </g>
    </g>
   </g>
   <g id="matplotlib.axis_2">
    <g id="ytick_1">
     <g id="line2d_6">
      <defs>
       <path d="M 0 0 
L -3.5 0 
" id="m748279059e" style="stroke:#000000;stroke-width:0.8;"/>
      </defs>
      <g>
       <use style="stroke:#000000;stroke-width:0.8;" x="135" xlink:href="#m748279059e" y="304.688"/>
      </g>
     </g>
     <g id="text_6">
      <!-- 0 -->
      <g transform="translate(121.6375 308.487219)scale(0.1 -0.1)">
       <use xlink:href="#DejaVuSans-48"/>
      </g>
     </g>
    </g>
    <g id="ytick_2">
     <g id="line2d_7">
      <g>
       <use style="stroke:#000000;stroke-width:0.8;" x="135" xlink:href="#m748279059e" y="264.552877"/>
      </g>
     </g>
     <g id="text_7">
      <!-- 5 -->
      <g transform="translate(121.6375 268.352096)scale(0.1 -0.1)">
       <defs>
        <path d="M 10.796875 72.90625 
L 49.515625 72.90625 
L 49.515625 64.59375 
L 19.828125 64.59375 
L 19.828125 46.734375 
Q 21.96875 47.46875 24.109375 47.828125 
Q 26.265625 48.1875 28.421875 48.1875 
Q 40.625 48.1875 47.75 41.5 
Q 54.890625 34.8125 54.890625 23.390625 
Q 54.890625 11.625 47.5625 5.09375 
Q 40.234375 -1.421875 26.90625 -1.421875 
Q 22.3125 -1.421875 17.546875 -0.640625 
Q 12.796875 0.140625 7.71875 1.703125 
L 7.71875 11.625 
Q 12.109375 9.234375 16.796875 8.0625 
Q 21.484375 6.890625 26.703125 6.890625 
Q 35.15625 6.890625 40.078125 11.328125 
Q 45.015625 15.765625 45.015625 23.390625 
Q 45.015625 31 40.078125 35.4375 
Q 35.15625 39.890625 26.703125 39.890625 
Q 22.75 39.890625 18.8125 39.015625 
Q 14.890625 38.140625 10.796875 36.28125 
z
" id="DejaVuSans-53"/>
       </defs>
       <use xlink:href="#DejaVuSans-53"/>
      </g>
     </g>
    </g>
    <g id="ytick_3">
     <g id="line2d_8">
      <g>
       <use style="stroke:#000000;stroke-width:0.8;" x="135" xlink:href="#m748279059e" y="224.417755"/>
      </g>
     </g>
     <g id="text_8">
      <!-- 10 -->
      <g transform="translate(115.275 228.216974)scale(0.1 -0.1)">
       <defs>
        <path d="M 12.40625 8.296875 
L 28.515625 8.296875 
L 28.515625 63.921875 
L 10.984375 60.40625 
L 10.984375 69.390625 
L 28.421875 72.90625 
L 38.28125 72.90625 
L 38.28125 8.296875 
L 54.390625 8.296875 
L 54.390625 0 
L 12.40625 0 
z
" id="DejaVuSans-49"/>
       </defs>
       <use xlink:href="#DejaVuSans-49"/>
       <use x="63.623047" xlink:href="#DejaVuSans-48"/>
      </g>
     </g>
    </g>
    <g id="ytick_4">
     <g id="line2d_9">
      <g>
       <use style="stroke:#000000;stroke-width:0.8;" x="135" xlink:href="#m748279059e" y="184.282632"/>
      </g>
     </g>
     <g id="text_9">
      <!-- 15 -->
      <g transform="translate(115.275 188.081851)scale(0.1 -0.1)">
       <use xlink:href="#DejaVuSans-49"/>
       <use x="63.623047" xlink:href="#DejaVuSans-53"/>
      </g>
     </g>
    </g>
    <g id="ytick_5">
     <g id="line2d_10">
      <g>
       <use style="stroke:#000000;stroke-width:0.8;" x="135" xlink:href="#m748279059e" y="144.14751"/>
      </g>
     </g>
     <g id="text_10">
      <!-- 20 -->
      <g transform="translate(115.275 147.946728)scale(0.1 -0.1)">
       <use xlink:href="#DejaVuSans-50"/>
       <use x="63.623047" xlink:href="#DejaVuSans-48"/>
      </g>
     </g>
    </g>
    <g id="ytick_6">
     <g id="line2d_11">
      <g>
       <use style="stroke:#000000;stroke-width:0.8;" x="135" xlink:href="#m748279059e" y="104.012387"/>
      </g>
     </g>
     <g id="text_11">
      <!-- 25 -->
      <g transform="translate(115.275 107.811606)scale(0.1 -0.1)">
       <use xlink:href="#DejaVuSans-50"/>
       <use x="63.623047" xlink:href="#DejaVuSans-53"/>
      </g>
     </g>
    </g>
    <g id="ytick_7">
     <g id="line2d_12">
      <g>
       <use style="stroke:#000000;stroke-width:0.8;" x="135" xlink:href="#m748279059e" y="63.877264"/>
      </g>
     </g>
     <g id="text_12">
      <!-- 30 -->
      <g transform="translate(115.275 67.676483)scale(0.1 -0.1)">
       <defs>
        <path d="M 40.578125 39.3125 
Q 47.65625 37.796875 51.625 33 
Q 55.609375 28.21875 55.609375 21.1875 
Q 55.609375 10.40625 48.1875 4.484375 
Q 40.765625 -1.421875 27.09375 -1.421875 
Q 22.515625 -1.421875 17.65625 -0.515625 
Q 12.796875 0.390625 7.625 2.203125 
L 7.625 11.71875 
Q 11.71875 9.328125 16.59375 8.109375 
Q 21.484375 6.890625 26.8125 6.890625 
Q 36.078125 6.890625 40.9375 10.546875 
Q 45.796875 14.203125 45.796875 21.1875 
Q 45.796875 27.640625 41.28125 31.265625 
Q 36.765625 34.90625 28.71875 34.90625 
L 20.21875 34.90625 
L 20.21875 43.015625 
L 29.109375 43.015625 
Q 36.375 43.015625 40.234375 45.921875 
Q 44.09375 48.828125 44.09375 54.296875 
Q 44.09375 59.90625 40.109375 62.90625 
Q 36.140625 65.921875 28.71875 65.921875 
Q 24.65625 65.921875 20.015625 65.03125 
Q 15.375 64.15625 9.8125 62.3125 
L 9.8125 71.09375 
Q 15.4375 72.65625 20.34375 73.4375 
Q 25.25 74.21875 29.59375 74.21875 
Q 40.828125 74.21875 47.359375 69.109375 
Q 53.90625 64.015625 53.90625 55.328125 
Q 53.90625 49.265625 50.4375 45.09375 
Q 46.96875 40.921875 40.578125 39.3125 
z
" id="DejaVuSans-51"/>
       </defs>
       <use xlink:href="#DejaVuSans-51"/>
       <use x="63.623047" xlink:href="#DejaVuSans-48"/>
      </g>
     </g>
    </g>
   </g>
   <g id="line2d_13">
    <path clip-path="url(#p3134bea284)" d="M 146.18984 186.967078 
L 151.784759 187.799327 
L 157.379679 188.631576 
L 162.974599 189.463825 
L 168.569519 190.296074 
L 174.164439 191.128323 
L 179.759358 191.960572 
L 185.354278 192.792821 
L 190.949198 193.62507 
L 196.544118 194.457319 
L 202.139037 195.289568 
L 207.733957 196.121817 
L 213.328877 196.954066 
L 218.923797 197.786315 
L 224.518717 198.618564 
L 230.113636 199.450813 
L 235.708556 200.283062 
L 241.303476 201.115311 
L 246.898396 201.94756 
L 252.493316 202.779809 
L 258.088235 203.612058 
L 263.683155 204.444307 
L 269.278075 205.276557 
L 274.872995 206.108806 
L 280.467914 206.941055 
L 286.062834 207.773304 
L 291.657754 208.605553 
L 297.252674 209.437802 
L 302.847594 210.270051 
L 308.442513 211.1023 
L 314.037433 211.934549 
L 319.632353 212.766798 
L 325.227273 213.599047 
L 330.822193 214.431296 
L 336.417112 215.263545 
L 342.012032 216.095794 
L 347.606952 216.928043 
L 353.201872 217.760292 
L 358.796791 218.592541 
L 364.391711 219.42479 
" style="fill:none;stroke:#0000ff;stroke-linecap:square;stroke-width:1.5;"/>
   </g>
   <g id="patch_3">
    <path d="M 135 315 
L 135 43.2 
" style="fill:none;stroke:#000000;stroke-linecap:square;stroke-linejoin:miter;stroke-width:0.8;"/>
   </g>
   <g id="patch_4">
    <path d="M 381.176471 315 
L 381.176471 43.2 
" style="fill:none;stroke:#000000;stroke-linecap:square;stroke-linejoin:miter;stroke-width:0.8;"/>
   </g>
   <g id="patch_5">
    <path d="M 135 315 
L 381.176471 315 
" style="fill:none;stroke:#000000;stroke-linecap:square;stroke-linejoin:miter;stroke-width:0.8;"/>
   </g>
   <g id="patch_6">
    <path d="M 135 43.2 
L 381.176471 43.2 
" style="fill:none;stroke:#000000;stroke-linecap:square;stroke-linejoin:miter;stroke-width:0.8;"/>
   </g>
   <g id="text_13">
    <!-- Underfitting -->
    <g transform="translate(198.21636 37.2)scale(0.2 -0.2)">
     <defs>
      <path d="M 8.6875 72.90625 
L 18.609375 72.90625 
L 18.609375 28.609375 
Q 18.609375 16.890625 22.84375 11.734375 
Q 27.09375 6.59375 36.625 6.59375 
Q 46.09375 6.59375 50.34375 11.734375 
Q 54.59375 16.890625 54.59375 28.609375 
L 54.59375 72.90625 
L 64.5 72.90625 
L 64.5 27.390625 
Q 64.5 13.140625 57.4375 5.859375 
Q 50.390625 -1.421875 36.625 -1.421875 
Q 22.796875 -1.421875 15.734375 5.859375 
Q 8.6875 13.140625 8.6875 27.390625 
z
" id="DejaVuSans-85"/>
      <path d="M 54.890625 33.015625 
L 54.890625 0 
L 45.90625 0 
L 45.90625 32.71875 
Q 45.90625 40.484375 42.875 44.328125 
Q 39.84375 48.1875 33.796875 48.1875 
Q 26.515625 48.1875 22.3125 43.546875 
Q 18.109375 38.921875 18.109375 30.90625 
L 18.109375 0 
L 9.078125 0 
L 9.078125 54.6875 
L 18.109375 54.6875 
L 18.109375 46.1875 
Q 21.34375 51.125 25.703125 53.5625 
Q 30.078125 56 35.796875 56 
Q 45.21875 56 50.046875 50.171875 
Q 54.890625 44.34375 54.890625 33.015625 
z
" id="DejaVuSans-110"/>
      <path d="M 45.40625 46.390625 
L 45.40625 75.984375 
L 54.390625 75.984375 
L 54.390625 0 
L 45.40625 0 
L 45.40625 8.203125 
Q 42.578125 3.328125 38.25 0.953125 
Q 33.9375 -1.421875 27.875 -1.421875 
Q 17.96875 -1.421875 11.734375 6.484375 
Q 5.515625 14.40625 5.515625 27.296875 
Q 5.515625 40.1875 11.734375 48.09375 
Q 17.96875 56 27.875 56 
Q 33.9375 56 38.25 53.625 
Q 42.578125 51.265625 45.40625 46.390625 
z
M 14.796875 27.296875 
Q 14.796875 17.390625 18.875 11.75 
Q 22.953125 6.109375 30.078125 6.109375 
Q 37.203125 6.109375 41.296875 11.75 
Q 45.40625 17.390625 45.40625 27.296875 
Q 45.40625 37.203125 41.296875 42.84375 
Q 37.203125 48.484375 30.078125 48.484375 
Q 22.953125 48.484375 18.875 42.84375 
Q 14.796875 37.203125 14.796875 27.296875 
z
" id="DejaVuSans-100"/>
      <path d="M 56.203125 29.59375 
L 56.203125 25.203125 
L 14.890625 25.203125 
Q 15.484375 15.921875 20.484375 11.0625 
Q 25.484375 6.203125 34.421875 6.203125 
Q 39.59375 6.203125 44.453125 7.46875 
Q 49.3125 8.734375 54.109375 11.28125 
L 54.109375 2.78125 
Q 49.265625 0.734375 44.1875 -0.34375 
Q 39.109375 -1.421875 33.890625 -1.421875 
Q 20.796875 -1.421875 13.15625 6.1875 
Q 5.515625 13.8125 5.515625 26.8125 
Q 5.515625 40.234375 12.765625 48.109375 
Q 20.015625 56 32.328125 56 
Q 43.359375 56 49.78125 48.890625 
Q 56.203125 41.796875 56.203125 29.59375 
z
M 47.21875 32.234375 
Q 47.125 39.59375 43.09375 43.984375 
Q 39.0625 48.390625 32.421875 48.390625 
Q 24.90625 48.390625 20.390625 44.140625 
Q 15.875 39.890625 15.1875 32.171875 
z
" id="DejaVuSans-101"/>
      <path d="M 41.109375 46.296875 
Q 39.59375 47.171875 37.8125 47.578125 
Q 36.03125 48 33.890625 48 
Q 26.265625 48 22.1875 43.046875 
Q 18.109375 38.09375 18.109375 28.8125 
L 18.109375 0 
L 9.078125 0 
L 9.078125 54.6875 
L 18.109375 54.6875 
L 18.109375 46.1875 
Q 20.953125 51.171875 25.484375 53.578125 
Q 30.03125 56 36.53125 56 
Q 37.453125 56 38.578125 55.875 
Q 39.703125 55.765625 41.0625 55.515625 
z
" id="DejaVuSans-114"/>
      <path d="M 37.109375 75.984375 
L 37.109375 68.5 
L 28.515625 68.5 
Q 23.6875 68.5 21.796875 66.546875 
Q 19.921875 64.59375 19.921875 59.515625 
L 19.921875 54.6875 
L 34.71875 54.6875 
L 34.71875 47.703125 
L 19.921875 47.703125 
L 19.921875 0 
L 10.890625 0 
L 10.890625 47.703125 
L 2.296875 47.703125 
L 2.296875 54.6875 
L 10.890625 54.6875 
L 10.890625 58.5 
Q 10.890625 67.625 15.140625 71.796875 
Q 19.390625 75.984375 28.609375 75.984375 
z
" id="DejaVuSans-102"/>
      <path d="M 9.421875 54.6875 
L 18.40625 54.6875 
L 18.40625 0 
L 9.421875 0 
z
M 9.421875 75.984375 
L 18.40625 75.984375 
L 18.40625 64.59375 
L 9.421875 64.59375 
z
" id="DejaVuSans-105"/>
      <path d="M 18.3125 70.21875 
L 18.3125 54.6875 
L 36.8125 54.6875 
L 36.8125 47.703125 
L 18.3125 47.703125 
L 18.3125 18.015625 
Q 18.3125 11.328125 20.140625 9.421875 
Q 21.96875 7.515625 27.59375 7.515625 
L 36.8125 7.515625 
L 36.8125 0 
L 27.59375 0 
Q 17.1875 0 13.234375 3.875 
Q 9.28125 7.765625 9.28125 18.015625 
L 9.28125 47.703125 
L 2.6875 47.703125 
L 2.6875 54.6875 
L 9.28125 54.6875 
L 9.28125 70.21875 
z
" id="DejaVuSans-116"/>
      <path d="M 45.40625 27.984375 
Q 45.40625 37.75 41.375 43.109375 
Q 37.359375 48.484375 30.078125 48.484375 
Q 22.859375 48.484375 18.828125 43.109375 
Q 14.796875 37.75 14.796875 27.984375 
Q 14.796875 18.265625 18.828125 12.890625 
Q 22.859375 7.515625 30.078125 7.515625 
Q 37.359375 7.515625 41.375 12.890625 
Q 45.40625 18.265625 45.40625 27.984375 
z
M 54.390625 6.78125 
Q 54.390625 -7.171875 48.1875 -13.984375 
Q 42 -20.796875 29.203125 -20.796875 
Q 24.46875 -20.796875 20.265625 -20.09375 
Q 16.0625 -19.390625 12.109375 -17.921875 
L 12.109375 -9.1875 
Q 16.0625 -11.328125 19.921875 -12.34375 
Q 23.78125 -13.375 27.78125 -13.375 
Q 36.625 -13.375 41.015625 -8.765625 
Q 45.40625 -4.15625 45.40625 5.171875 
L 45.40625 9.625 
Q 42.625 4.78125 38.28125 2.390625 
Q 33.9375 0 27.875 0 
Q 17.828125 0 11.671875 7.65625 
Q 5.515625 15.328125 5.515625 27.984375 
Q 5.515625 40.671875 11.671875 48.328125 
Q 17.828125 56 27.875 56 
Q 33.9375 56 38.28125 53.609375 
Q 42.625 51.21875 45.40625 46.390625 
L 45.40625 54.6875 
L 54.390625 54.6875 
z
" id="DejaVuSans-103"/>
     </defs>
     <use xlink:href="#DejaVuSans-85"/>
     <use x="73.193359" xlink:href="#DejaVuSans-110"/>
     <use x="136.572266" xlink:href="#DejaVuSans-100"/>
     <use x="200.048828" xlink:href="#DejaVuSans-101"/>
     <use x="261.572266" xlink:href="#DejaVuSans-114"/>
     <use x="302.685547" xlink:href="#DejaVuSans-102"/>
     <use x="337.890625" xlink:href="#DejaVuSans-105"/>
     <use x="365.673828" xlink:href="#DejaVuSans-116"/>
     <use x="404.882812" xlink:href="#DejaVuSans-116"/>
     <use x="444.091797" xlink:href="#DejaVuSans-105"/>
     <use x="471.875" xlink:href="#DejaVuSans-110"/>
     <use x="535.253906" xlink:href="#DejaVuSans-103"/>
    </g>
   </g>
   <g id="legend_1">
    <g id="patch_7">
     <path d="M 142 310 
L 224.167188 310 
Q 226.167188 310 226.167188 308 
L 226.167188 250.2875 
Q 226.167188 248.2875 224.167188 248.2875 
L 142 248.2875 
Q 140 248.2875 140 250.2875 
L 140 308 
Q 140 310 142 310 
z
" style="fill:#ffffff;opacity:0.8;stroke:#cccccc;stroke-linejoin:miter;"/>
    </g>
    <g id="line2d_14">
     <path d="M 144 256.385938 
L 164 256.385938 
" style="fill:none;stroke:#0000ff;stroke-linecap:square;stroke-width:1.5;"/>
    </g>
    <g id="line2d_15"/>
    <g id="text_14">
     <!-- model -->
     <g transform="translate(172 259.885938)scale(0.1 -0.1)">
      <defs>
       <path d="M 52 44.1875 
Q 55.375 50.25 60.0625 53.125 
Q 64.75 56 71.09375 56 
Q 79.640625 56 84.28125 50.015625 
Q 88.921875 44.046875 88.921875 33.015625 
L 88.921875 0 
L 79.890625 0 
L 79.890625 32.71875 
Q 79.890625 40.578125 77.09375 44.375 
Q 74.3125 48.1875 68.609375 48.1875 
Q 61.625 48.1875 57.5625 43.546875 
Q 53.515625 38.921875 53.515625 30.90625 
L 53.515625 0 
L 44.484375 0 
L 44.484375 32.71875 
Q 44.484375 40.625 41.703125 44.40625 
Q 38.921875 48.1875 33.109375 48.1875 
Q 26.21875 48.1875 22.15625 43.53125 
Q 18.109375 38.875 18.109375 30.90625 
L 18.109375 0 
L 9.078125 0 
L 9.078125 54.6875 
L 18.109375 54.6875 
L 18.109375 46.1875 
Q 21.1875 51.21875 25.484375 53.609375 
Q 29.78125 56 35.6875 56 
Q 41.65625 56 45.828125 52.96875 
Q 50 49.953125 52 44.1875 
z
" id="DejaVuSans-109"/>
       <path d="M 30.609375 48.390625 
Q 23.390625 48.390625 19.1875 42.75 
Q 14.984375 37.109375 14.984375 27.296875 
Q 14.984375 17.484375 19.15625 11.84375 
Q 23.34375 6.203125 30.609375 6.203125 
Q 37.796875 6.203125 41.984375 11.859375 
Q 46.1875 17.53125 46.1875 27.296875 
Q 46.1875 37.015625 41.984375 42.703125 
Q 37.796875 48.390625 30.609375 48.390625 
z
M 30.609375 56 
Q 42.328125 56 49.015625 48.375 
Q 55.71875 40.765625 55.71875 27.296875 
Q 55.71875 13.875 49.015625 6.21875 
Q 42.328125 -1.421875 30.609375 -1.421875 
Q 18.84375 -1.421875 12.171875 6.21875 
Q 5.515625 13.875 5.515625 27.296875 
Q 5.515625 40.765625 12.171875 48.375 
Q 18.84375 56 30.609375 56 
z
" id="DejaVuSans-111"/>
       <path d="M 9.421875 75.984375 
L 18.40625 75.984375 
L 18.40625 0 
L 9.421875 0 
z
" id="DejaVuSans-108"/>
      </defs>
      <use xlink:href="#DejaVuSans-109"/>
      <use x="97.412109" xlink:href="#DejaVuSans-111"/>
      <use x="158.59375" xlink:href="#DejaVuSans-100"/>
      <use x="222.070312" xlink:href="#DejaVuSans-101"/>
      <use x="283.59375" xlink:href="#DejaVuSans-108"/>
     </g>
    </g>
    <g id="PathCollection_4">
     <g>
      <use style="fill:#1f77b4;stroke:#1f77b4;" x="154" xlink:href="#mae44c4debd" y="271.939062"/>
     </g>
    </g>
    <g id="text_15">
     <!-- data -->
     <g transform="translate(172 274.564062)scale(0.1 -0.1)">
      <defs>
       <path d="M 34.28125 27.484375 
Q 23.390625 27.484375 19.1875 25 
Q 14.984375 22.515625 14.984375 16.5 
Q 14.984375 11.71875 18.140625 8.90625 
Q 21.296875 6.109375 26.703125 6.109375 
Q 34.1875 6.109375 38.703125 11.40625 
Q 43.21875 16.703125 43.21875 25.484375 
L 43.21875 27.484375 
z
M 52.203125 31.203125 
L 52.203125 0 
L 43.21875 0 
L 43.21875 8.296875 
Q 40.140625 3.328125 35.546875 0.953125 
Q 30.953125 -1.421875 24.3125 -1.421875 
Q 15.921875 -1.421875 10.953125 3.296875 
Q 6 8.015625 6 15.921875 
Q 6 25.140625 12.171875 29.828125 
Q 18.359375 34.515625 30.609375 34.515625 
L 43.21875 34.515625 
L 43.21875 35.40625 
Q 43.21875 41.609375 39.140625 45 
Q 35.0625 48.390625 27.6875 48.390625 
Q 23 48.390625 18.546875 47.265625 
Q 14.109375 46.140625 10.015625 43.890625 
L 10.015625 52.203125 
Q 14.9375 54.109375 19.578125 55.046875 
Q 24.21875 56 28.609375 56 
Q 40.484375 56 46.34375 49.84375 
Q 52.203125 43.703125 52.203125 31.203125 
z
" id="DejaVuSans-97"/>
      </defs>
      <use xlink:href="#DejaVuSans-100"/>
      <use x="63.476562" xlink:href="#DejaVuSans-97"/>
      <use x="124.755859" xlink:href="#DejaVuSans-116"/>
      <use x="163.964844" xlink:href="#DejaVuSans-97"/>
     </g>
    </g>
    <g id="PathCollection_5">
     <g>
      <use style="fill:#ff7f0e;stroke:#ff7f0e;" x="154" xlink:href="#md4ec9410ed" y="286.617188"/>
     </g>
    </g>
    <g id="text_16">
     <!-- prediction -->
     <g transform="translate(172 289.242188)scale(0.1 -0.1)">
      <defs>
       <path d="M 18.109375 8.203125 
L 18.109375 -20.796875 
L 9.078125 -20.796875 
L 9.078125 54.6875 
L 18.109375 54.6875 
L 18.109375 46.390625 
Q 20.953125 51.265625 25.265625 53.625 
Q 29.59375 56 35.59375 56 
Q 45.5625 56 51.78125 48.09375 
Q 58.015625 40.1875 58.015625 27.296875 
Q 58.015625 14.40625 51.78125 6.484375 
Q 45.5625 -1.421875 35.59375 -1.421875 
Q 29.59375 -1.421875 25.265625 0.953125 
Q 20.953125 3.328125 18.109375 8.203125 
z
M 48.6875 27.296875 
Q 48.6875 37.203125 44.609375 42.84375 
Q 40.53125 48.484375 33.40625 48.484375 
Q 26.265625 48.484375 22.1875 42.84375 
Q 18.109375 37.203125 18.109375 27.296875 
Q 18.109375 17.390625 22.1875 11.75 
Q 26.265625 6.109375 33.40625 6.109375 
Q 40.53125 6.109375 44.609375 11.75 
Q 48.6875 17.390625 48.6875 27.296875 
z
" id="DejaVuSans-112"/>
       <path d="M 48.78125 52.59375 
L 48.78125 44.1875 
Q 44.96875 46.296875 41.140625 47.34375 
Q 37.3125 48.390625 33.40625 48.390625 
Q 24.65625 48.390625 19.8125 42.84375 
Q 14.984375 37.3125 14.984375 27.296875 
Q 14.984375 17.28125 19.8125 11.734375 
Q 24.65625 6.203125 33.40625 6.203125 
Q 37.3125 6.203125 41.140625 7.25 
Q 44.96875 8.296875 48.78125 10.40625 
L 48.78125 2.09375 
Q 45.015625 0.34375 40.984375 -0.53125 
Q 36.96875 -1.421875 32.421875 -1.421875 
Q 20.0625 -1.421875 12.78125 6.34375 
Q 5.515625 14.109375 5.515625 27.296875 
Q 5.515625 40.671875 12.859375 48.328125 
Q 20.21875 56 33.015625 56 
Q 37.15625 56 41.109375 55.140625 
Q 45.0625 54.296875 48.78125 52.59375 
z
" id="DejaVuSans-99"/>
      </defs>
      <use xlink:href="#DejaVuSans-112"/>
      <use x="63.476562" xlink:href="#DejaVuSans-114"/>
      <use x="102.339844" xlink:href="#DejaVuSans-101"/>
      <use x="163.863281" xlink:href="#DejaVuSans-100"/>
      <use x="227.339844" xlink:href="#DejaVuSans-105"/>
      <use x="255.123047" xlink:href="#DejaVuSans-99"/>
      <use x="310.103516" xlink:href="#DejaVuSans-116"/>
      <use x="349.3125" xlink:href="#DejaVuSans-105"/>
      <use x="377.095703" xlink:href="#DejaVuSans-111"/>
      <use x="438.277344" xlink:href="#DejaVuSans-110"/>
     </g>
    </g>
    <g id="PathCollection_6">
     <g>
      <use style="stroke:#000000;" x="154" xlink:href="#m649efeecb3" y="301.295313"/>
     </g>
    </g>
    <g id="text_17">
     <!-- target -->
     <g transform="translate(172 303.920313)scale(0.1 -0.1)">
      <use xlink:href="#DejaVuSans-116"/>
      <use x="39.208984" xlink:href="#DejaVuSans-97"/>
      <use x="100.488281" xlink:href="#DejaVuSans-114"/>
      <use x="139.851562" xlink:href="#DejaVuSans-103"/>
      <use x="203.328125" xlink:href="#DejaVuSans-101"/>
      <use x="264.851562" xlink:href="#DejaVuSans-116"/>
     </g>
    </g>
   </g>
  </g>
  <g id="axes_2">
   <g id="patch_8">
    <path d="M 430.411765 315 
L 676.588235 315 
L 676.588235 43.2 
L 430.411765 43.2 
z
" style="fill:none;"/>
   </g>
   <g id="PathCollection_7">
    <g clip-path="url(#p345d91262e)">
     <use style="fill:#1f77b4;stroke:#1f77b4;" x="441.601604" xlink:href="#mae44c4debd" y="93.226936"/>
     <use style="fill:#1f77b4;stroke:#1f77b4;" x="447.196524" xlink:href="#mae44c4debd" y="55.554545"/>
     <use style="fill:#1f77b4;stroke:#1f77b4;" x="452.791444" xlink:href="#mae44c4debd" y="80.832378"/>
     <use style="fill:#1f77b4;stroke:#1f77b4;" x="458.386364" xlink:href="#mae44c4debd" y="139.225416"/>
     <use style="fill:#1f77b4;stroke:#1f77b4;" x="463.981283" xlink:href="#mae44c4debd" y="136.486912"/>
     <use style="fill:#1f77b4;stroke:#1f77b4;" x="469.576203" xlink:href="#mae44c4debd" y="155.72721"/>
     <use style="fill:#1f77b4;stroke:#1f77b4;" x="475.171123" xlink:href="#mae44c4debd" y="154.053422"/>
     <use style="fill:#1f77b4;stroke:#1f77b4;" x="480.766043" xlink:href="#mae44c4debd" y="156.591537"/>
     <use style="fill:#1f77b4;stroke:#1f77b4;" x="486.360963" xlink:href="#mae44c4debd" y="224.910647"/>
     <use style="fill:#1f77b4;stroke:#1f77b4;" x="491.955882" xlink:href="#mae44c4debd" y="241.708168"/>
     <use style="fill:#1f77b4;stroke:#1f77b4;" x="497.550802" xlink:href="#mae44c4debd" y="187.432027"/>
     <use style="fill:#1f77b4;stroke:#1f77b4;" x="503.145722" xlink:href="#mae44c4debd" y="229.31287"/>
     <use style="fill:#1f77b4;stroke:#1f77b4;" x="508.740642" xlink:href="#mae44c4debd" y="211.391493"/>
     <use style="fill:#1f77b4;stroke:#1f77b4;" x="514.335561" xlink:href="#mae44c4debd" y="279.936184"/>
     <use style="fill:#1f77b4;stroke:#1f77b4;" x="519.930481" xlink:href="#mae44c4debd" y="250.875856"/>
     <use style="fill:#1f77b4;stroke:#1f77b4;" x="525.525401" xlink:href="#mae44c4debd" y="234.227579"/>
     <use style="fill:#1f77b4;stroke:#1f77b4;" x="531.120321" xlink:href="#mae44c4debd" y="278.298176"/>
     <use style="fill:#1f77b4;stroke:#1f77b4;" x="536.715241" xlink:href="#mae44c4debd" y="224.295688"/>
     <use style="fill:#1f77b4;stroke:#1f77b4;" x="542.31016" xlink:href="#mae44c4debd" y="230.323441"/>
     <use style="fill:#1f77b4;stroke:#1f77b4;" x="547.90508" xlink:href="#mae44c4debd" y="301.730846"/>
     <use style="fill:#1f77b4;stroke:#1f77b4;" x="553.5" xlink:href="#mae44c4debd" y="302.645455"/>
     <use style="fill:#1f77b4;stroke:#1f77b4;" x="559.09492" xlink:href="#mae44c4debd" y="260.726999"/>
     <use style="fill:#1f77b4;stroke:#1f77b4;" x="564.68984" xlink:href="#mae44c4debd" y="227.29551"/>
     <use style="fill:#1f77b4;stroke:#1f77b4;" x="570.284759" xlink:href="#mae44c4debd" y="269.573441"/>
     <use style="fill:#1f77b4;stroke:#1f77b4;" x="575.879679" xlink:href="#mae44c4debd" y="279.274489"/>
     <use style="fill:#1f77b4;stroke:#1f77b4;" x="581.474599" xlink:href="#mae44c4debd" y="258.262373"/>
     <use style="fill:#1f77b4;stroke:#1f77b4;" x="587.069519" xlink:href="#mae44c4debd" y="284.296084"/>
     <use style="fill:#1f77b4;stroke:#1f77b4;" x="592.664439" xlink:href="#mae44c4debd" y="262.309993"/>
     <use style="fill:#1f77b4;stroke:#1f77b4;" x="598.259358" xlink:href="#mae44c4debd" y="237.430557"/>
     <use style="fill:#1f77b4;stroke:#1f77b4;" x="603.854278" xlink:href="#mae44c4debd" y="224.252218"/>
     <use style="fill:#1f77b4;stroke:#1f77b4;" x="609.449198" xlink:href="#mae44c4debd" y="235.809351"/>
     <use style="fill:#1f77b4;stroke:#1f77b4;" x="615.044118" xlink:href="#mae44c4debd" y="225.451913"/>
     <use style="fill:#1f77b4;stroke:#1f77b4;" x="620.639037" xlink:href="#mae44c4debd" y="214.883172"/>
     <use style="fill:#1f77b4;stroke:#1f77b4;" x="626.233957" xlink:href="#mae44c4debd" y="183.010071"/>
     <use style="fill:#1f77b4;stroke:#1f77b4;" x="631.828877" xlink:href="#mae44c4debd" y="183.096108"/>
     <use style="fill:#1f77b4;stroke:#1f77b4;" x="637.423797" xlink:href="#mae44c4debd" y="190.082984"/>
     <use style="fill:#1f77b4;stroke:#1f77b4;" x="643.018717" xlink:href="#mae44c4debd" y="109.023018"/>
     <use style="fill:#1f77b4;stroke:#1f77b4;" x="648.613636" xlink:href="#mae44c4debd" y="115.033145"/>
     <use style="fill:#1f77b4;stroke:#1f77b4;" x="654.208556" xlink:href="#mae44c4debd" y="90.583628"/>
     <use style="fill:#1f77b4;stroke:#1f77b4;" x="659.803476" xlink:href="#mae44c4debd" y="108.655518"/>
    </g>
   </g>
   <g id="PathCollection_8">
    <g clip-path="url(#p345d91262e)">
     <use style="fill:#ff7f0e;stroke:#ff7f0e;" x="665.398396" xlink:href="#md4ec9410ed" y="73.821388"/>
    </g>
   </g>
   <g id="PathCollection_9">
    <g clip-path="url(#p345d91262e)">
     <use style="stroke:#000000;" x="665.398396" xlink:href="#m649efeecb3" y="104.012387"/>
    </g>
   </g>
   <g id="matplotlib.axis_3">
    <g id="xtick_6">
     <g id="line2d_16">
      <g>
       <use style="stroke:#000000;stroke-width:0.8;" x="463.981283" xlink:href="#mc86f9c9533" y="315"/>
      </g>
     </g>
     <g id="text_18">
      <!-- −4 -->
      <g transform="translate(456.61019 329.598437)scale(0.1 -0.1)">
       <use xlink:href="#DejaVuSans-8722"/>
       <use x="83.789062" xlink:href="#DejaVuSans-52"/>
      </g>
     </g>
    </g>
    <g id="xtick_7">
     <g id="line2d_17">
      <g>
       <use style="stroke:#000000;stroke-width:0.8;" x="508.740642" xlink:href="#mc86f9c9533" y="315"/>
      </g>
     </g>
     <g id="text_19">
      <!-- −2 -->
      <g transform="translate(501.369548 329.598437)scale(0.1 -0.1)">
       <use xlink:href="#DejaVuSans-8722"/>
       <use x="83.789062" xlink:href="#DejaVuSans-50"/>
      </g>
     </g>
    </g>
    <g id="xtick_8">
     <g id="line2d_18">
      <g>
       <use style="stroke:#000000;stroke-width:0.8;" x="553.5" xlink:href="#mc86f9c9533" y="315"/>
      </g>
     </g>
     <g id="text_20">
      <!-- 0 -->
      <g transform="translate(550.31875 329.598437)scale(0.1 -0.1)">
       <use xlink:href="#DejaVuSans-48"/>
      </g>
     </g>
    </g>
    <g id="xtick_9">
     <g id="line2d_19">
      <g>
       <use style="stroke:#000000;stroke-width:0.8;" x="598.259358" xlink:href="#mc86f9c9533" y="315"/>
      </g>
     </g>
     <g id="text_21">
      <!-- 2 -->
      <g transform="translate(595.078108 329.598437)scale(0.1 -0.1)">
       <use xlink:href="#DejaVuSans-50"/>
      </g>
     </g>
    </g>
    <g id="xtick_10">
     <g id="line2d_20">
      <g>
       <use style="stroke:#000000;stroke-width:0.8;" x="643.018717" xlink:href="#mc86f9c9533" y="315"/>
      </g>
     </g>
     <g id="text_22">
      <!-- 4 -->
      <g transform="translate(639.837467 329.598437)scale(0.1 -0.1)">
       <use xlink:href="#DejaVuSans-52"/>
      </g>
     </g>
    </g>
   </g>
   <g id="matplotlib.axis_4">
    <g id="ytick_8">
     <g id="line2d_21">
      <g>
       <use style="stroke:#000000;stroke-width:0.8;" x="430.411765" xlink:href="#m748279059e" y="304.688"/>
      </g>
     </g>
     <g id="text_23">
      <!-- 0 -->
      <g transform="translate(417.049265 308.487219)scale(0.1 -0.1)">
       <use xlink:href="#DejaVuSans-48"/>
      </g>
     </g>
    </g>
    <g id="ytick_9">
     <g id="line2d_22">
      <g>
       <use style="stroke:#000000;stroke-width:0.8;" x="430.411765" xlink:href="#m748279059e" y="264.552877"/>
      </g>
     </g>
     <g id="text_24">
      <!-- 5 -->
      <g transform="translate(417.049265 268.352096)scale(0.1 -0.1)">
       <use xlink:href="#DejaVuSans-53"/>
      </g>
     </g>
    </g>
    <g id="ytick_10">
     <g id="line2d_23">
      <g>
       <use style="stroke:#000000;stroke-width:0.8;" x="430.411765" xlink:href="#m748279059e" y="224.417755"/>
      </g>
     </g>
     <g id="text_25">
      <!-- 10 -->
      <g transform="translate(410.686765 228.216974)scale(0.1 -0.1)">
       <use xlink:href="#DejaVuSans-49"/>
       <use x="63.623047" xlink:href="#DejaVuSans-48"/>
      </g>
     </g>
    </g>
    <g id="ytick_11">
     <g id="line2d_24">
      <g>
       <use style="stroke:#000000;stroke-width:0.8;" x="430.411765" xlink:href="#m748279059e" y="184.282632"/>
      </g>
     </g>
     <g id="text_26">
      <!-- 15 -->
      <g transform="translate(410.686765 188.081851)scale(0.1 -0.1)">
       <use xlink:href="#DejaVuSans-49"/>
       <use x="63.623047" xlink:href="#DejaVuSans-53"/>
      </g>
     </g>
    </g>
    <g id="ytick_12">
     <g id="line2d_25">
      <g>
       <use style="stroke:#000000;stroke-width:0.8;" x="430.411765" xlink:href="#m748279059e" y="144.14751"/>
      </g>
     </g>
     <g id="text_27">
      <!-- 20 -->
      <g transform="translate(410.686765 147.946728)scale(0.1 -0.1)">
       <use xlink:href="#DejaVuSans-50"/>
       <use x="63.623047" xlink:href="#DejaVuSans-48"/>
      </g>
     </g>
    </g>
    <g id="ytick_13">
     <g id="line2d_26">
      <g>
       <use style="stroke:#000000;stroke-width:0.8;" x="430.411765" xlink:href="#m748279059e" y="104.012387"/>
      </g>
     </g>
     <g id="text_28">
      <!-- 25 -->
      <g transform="translate(410.686765 107.811606)scale(0.1 -0.1)">
       <use xlink:href="#DejaVuSans-50"/>
       <use x="63.623047" xlink:href="#DejaVuSans-53"/>
      </g>
     </g>
    </g>
    <g id="ytick_14">
     <g id="line2d_27">
      <g>
       <use style="stroke:#000000;stroke-width:0.8;" x="430.411765" xlink:href="#m748279059e" y="63.877264"/>
      </g>
     </g>
     <g id="text_29">
      <!-- 30 -->
      <g transform="translate(410.686765 67.676483)scale(0.1 -0.1)">
       <use xlink:href="#DejaVuSans-51"/>
       <use x="63.623047" xlink:href="#DejaVuSans-48"/>
      </g>
     </g>
    </g>
   </g>
   <g id="line2d_28">
    <path clip-path="url(#p345d91262e)" d="M 441.601604 60.940577 
L 447.196524 81.161518 
L 452.791444 100.362002 
L 458.386364 118.542029 
L 463.981283 135.701598 
L 469.576203 151.840709 
L 475.171123 166.959363 
L 480.766043 181.05756 
L 486.360963 194.135299 
L 491.955882 206.19258 
L 497.550802 217.229404 
L 503.145722 227.245771 
L 508.740642 236.24168 
L 514.335561 244.217131 
L 519.930481 251.172125 
L 525.525401 257.106662 
L 531.120321 262.020741 
L 536.715241 265.914363 
L 542.31016 268.787527 
L 547.90508 270.640233 
L 553.5 271.472482 
L 559.09492 271.284274 
L 564.68984 270.075608 
L 570.284759 267.846484 
L 575.879679 264.596903 
L 581.474599 260.326865 
L 587.069519 255.036369 
L 592.664439 248.725415 
L 598.259358 241.394004 
L 603.854278 233.042136 
L 609.449198 223.66981 
L 615.044118 213.277027 
L 620.639037 201.863786 
L 626.233957 189.430087 
L 631.828877 175.975931 
L 637.423797 161.501318 
L 643.018717 146.006247 
L 648.613636 129.490718 
L 654.208556 111.954732 
L 659.803476 93.398289 
" style="fill:none;stroke:#0000ff;stroke-linecap:square;stroke-width:1.5;"/>
   </g>
   <g id="patch_9">
    <path d="M 430.411765 315 
L 430.411765 43.2 
" style="fill:none;stroke:#000000;stroke-linecap:square;stroke-linejoin:miter;stroke-width:0.8;"/>
   </g>
   <g id="patch_10">
    <path d="M 676.588235 315 
L 676.588235 43.2 
" style="fill:none;stroke:#000000;stroke-linecap:square;stroke-linejoin:miter;stroke-width:0.8;"/>
   </g>
   <g id="patch_11">
    <path d="M 430.411765 315 
L 676.588235 315 
" style="fill:none;stroke:#000000;stroke-linecap:square;stroke-linejoin:miter;stroke-width:0.8;"/>
   </g>
   <g id="patch_12">
    <path d="M 430.411765 43.2 
L 676.588235 43.2 
" style="fill:none;stroke:#000000;stroke-linecap:square;stroke-linejoin:miter;stroke-width:0.8;"/>
   </g>
   <g id="text_30">
    <!-- Reasonable -->
    <g transform="translate(495.646875 37.2)scale(0.2 -0.2)">
     <defs>
      <path d="M 44.390625 34.1875 
Q 47.5625 33.109375 50.5625 29.59375 
Q 53.5625 26.078125 56.59375 19.921875 
L 66.609375 0 
L 56 0 
L 46.6875 18.703125 
Q 43.0625 26.03125 39.671875 28.421875 
Q 36.28125 30.8125 30.421875 30.8125 
L 19.671875 30.8125 
L 19.671875 0 
L 9.8125 0 
L 9.8125 72.90625 
L 32.078125 72.90625 
Q 44.578125 72.90625 50.734375 67.671875 
Q 56.890625 62.453125 56.890625 51.90625 
Q 56.890625 45.015625 53.6875 40.46875 
Q 50.484375 35.9375 44.390625 34.1875 
z
M 19.671875 64.796875 
L 19.671875 38.921875 
L 32.078125 38.921875 
Q 39.203125 38.921875 42.84375 42.21875 
Q 46.484375 45.515625 46.484375 51.90625 
Q 46.484375 58.296875 42.84375 61.546875 
Q 39.203125 64.796875 32.078125 64.796875 
z
" id="DejaVuSans-82"/>
      <path d="M 44.28125 53.078125 
L 44.28125 44.578125 
Q 40.484375 46.53125 36.375 47.5 
Q 32.28125 48.484375 27.875 48.484375 
Q 21.1875 48.484375 17.84375 46.4375 
Q 14.5 44.390625 14.5 40.28125 
Q 14.5 37.15625 16.890625 35.375 
Q 19.28125 33.59375 26.515625 31.984375 
L 29.59375 31.296875 
Q 39.15625 29.25 43.1875 25.515625 
Q 47.21875 21.78125 47.21875 15.09375 
Q 47.21875 7.46875 41.1875 3.015625 
Q 35.15625 -1.421875 24.609375 -1.421875 
Q 20.21875 -1.421875 15.453125 -0.5625 
Q 10.6875 0.296875 5.421875 2 
L 5.421875 11.28125 
Q 10.40625 8.6875 15.234375 7.390625 
Q 20.0625 6.109375 24.8125 6.109375 
Q 31.15625 6.109375 34.5625 8.28125 
Q 37.984375 10.453125 37.984375 14.40625 
Q 37.984375 18.0625 35.515625 20.015625 
Q 33.0625 21.96875 24.703125 23.78125 
L 21.578125 24.515625 
Q 13.234375 26.265625 9.515625 29.90625 
Q 5.8125 33.546875 5.8125 39.890625 
Q 5.8125 47.609375 11.28125 51.796875 
Q 16.75 56 26.8125 56 
Q 31.78125 56 36.171875 55.265625 
Q 40.578125 54.546875 44.28125 53.078125 
z
" id="DejaVuSans-115"/>
      <path d="M 48.6875 27.296875 
Q 48.6875 37.203125 44.609375 42.84375 
Q 40.53125 48.484375 33.40625 48.484375 
Q 26.265625 48.484375 22.1875 42.84375 
Q 18.109375 37.203125 18.109375 27.296875 
Q 18.109375 17.390625 22.1875 11.75 
Q 26.265625 6.109375 33.40625 6.109375 
Q 40.53125 6.109375 44.609375 11.75 
Q 48.6875 17.390625 48.6875 27.296875 
z
M 18.109375 46.390625 
Q 20.953125 51.265625 25.265625 53.625 
Q 29.59375 56 35.59375 56 
Q 45.5625 56 51.78125 48.09375 
Q 58.015625 40.1875 58.015625 27.296875 
Q 58.015625 14.40625 51.78125 6.484375 
Q 45.5625 -1.421875 35.59375 -1.421875 
Q 29.59375 -1.421875 25.265625 0.953125 
Q 20.953125 3.328125 18.109375 8.203125 
L 18.109375 0 
L 9.078125 0 
L 9.078125 75.984375 
L 18.109375 75.984375 
z
" id="DejaVuSans-98"/>
     </defs>
     <use xlink:href="#DejaVuSans-82"/>
     <use x="64.982422" xlink:href="#DejaVuSans-101"/>
     <use x="126.505859" xlink:href="#DejaVuSans-97"/>
     <use x="187.785156" xlink:href="#DejaVuSans-115"/>
     <use x="239.884766" xlink:href="#DejaVuSans-111"/>
     <use x="301.066406" xlink:href="#DejaVuSans-110"/>
     <use x="364.445312" xlink:href="#DejaVuSans-97"/>
     <use x="425.724609" xlink:href="#DejaVuSans-98"/>
     <use x="489.201172" xlink:href="#DejaVuSans-108"/>
     <use x="516.984375" xlink:href="#DejaVuSans-101"/>
    </g>
   </g>
   <g id="legend_2">
    <g id="patch_13">
     <path d="M 437.411765 310 
L 519.578952 310 
Q 521.578952 310 521.578952 308 
L 521.578952 250.2875 
Q 521.578952 248.2875 519.578952 248.2875 
L 437.411765 248.2875 
Q 435.411765 248.2875 435.411765 250.2875 
L 435.411765 308 
Q 435.411765 310 437.411765 310 
z
" style="fill:#ffffff;opacity:0.8;stroke:#cccccc;stroke-linejoin:miter;"/>
    </g>
    <g id="line2d_29">
     <path d="M 439.411765 256.385938 
L 459.411765 256.385938 
" style="fill:none;stroke:#0000ff;stroke-linecap:square;stroke-width:1.5;"/>
    </g>
    <g id="line2d_30"/>
    <g id="text_31">
     <!-- model -->
     <g transform="translate(467.411765 259.885938)scale(0.1 -0.1)">
      <use xlink:href="#DejaVuSans-109"/>
      <use x="97.412109" xlink:href="#DejaVuSans-111"/>
      <use x="158.59375" xlink:href="#DejaVuSans-100"/>
      <use x="222.070312" xlink:href="#DejaVuSans-101"/>
      <use x="283.59375" xlink:href="#DejaVuSans-108"/>
     </g>
    </g>
    <g id="PathCollection_10">
     <g>
      <use style="fill:#1f77b4;stroke:#1f77b4;" x="449.411765" xlink:href="#mae44c4debd" y="271.939062"/>
     </g>
    </g>
    <g id="text_32">
     <!-- data -->
     <g transform="translate(467.411765 274.564062)scale(0.1 -0.1)">
      <use xlink:href="#DejaVuSans-100"/>
      <use x="63.476562" xlink:href="#DejaVuSans-97"/>
      <use x="124.755859" xlink:href="#DejaVuSans-116"/>
      <use x="163.964844" xlink:href="#DejaVuSans-97"/>
     </g>
    </g>
    <g id="PathCollection_11">
     <g>
      <use style="fill:#ff7f0e;stroke:#ff7f0e;" x="449.411765" xlink:href="#md4ec9410ed" y="286.617188"/>
     </g>
    </g>
    <g id="text_33">
     <!-- prediction -->
     <g transform="translate(467.411765 289.242188)scale(0.1 -0.1)">
      <use xlink:href="#DejaVuSans-112"/>
      <use x="63.476562" xlink:href="#DejaVuSans-114"/>
      <use x="102.339844" xlink:href="#DejaVuSans-101"/>
      <use x="163.863281" xlink:href="#DejaVuSans-100"/>
      <use x="227.339844" xlink:href="#DejaVuSans-105"/>
      <use x="255.123047" xlink:href="#DejaVuSans-99"/>
      <use x="310.103516" xlink:href="#DejaVuSans-116"/>
      <use x="349.3125" xlink:href="#DejaVuSans-105"/>
      <use x="377.095703" xlink:href="#DejaVuSans-111"/>
      <use x="438.277344" xlink:href="#DejaVuSans-110"/>
     </g>
    </g>
    <g id="PathCollection_12">
     <g>
      <use style="stroke:#000000;" x="449.411765" xlink:href="#m649efeecb3" y="301.295313"/>
     </g>
    </g>
    <g id="text_34">
     <!-- target -->
     <g transform="translate(467.411765 303.920313)scale(0.1 -0.1)">
      <use xlink:href="#DejaVuSans-116"/>
      <use x="39.208984" xlink:href="#DejaVuSans-97"/>
      <use x="100.488281" xlink:href="#DejaVuSans-114"/>
      <use x="139.851562" xlink:href="#DejaVuSans-103"/>
      <use x="203.328125" xlink:href="#DejaVuSans-101"/>
      <use x="264.851562" xlink:href="#DejaVuSans-116"/>
     </g>
    </g>
   </g>
  </g>
  <g id="axes_3">
   <g id="patch_14">
    <path d="M 725.823529 315 
L 972 315 
L 972 43.2 
L 725.823529 43.2 
z
" style="fill:none;"/>
   </g>
   <g id="PathCollection_13">
    <g clip-path="url(#p855e748d4d)">
     <use style="fill:#1f77b4;stroke:#1f77b4;" x="737.013369" xlink:href="#mae44c4debd" y="60.099585"/>
     <use style="fill:#1f77b4;stroke:#1f77b4;" x="742.608289" xlink:href="#mae44c4debd" y="56.061524"/>
     <use style="fill:#1f77b4;stroke:#1f77b4;" x="748.203209" xlink:href="#mae44c4debd" y="58.771026"/>
     <use style="fill:#1f77b4;stroke:#1f77b4;" x="753.798128" xlink:href="#mae44c4debd" y="65.030111"/>
     <use style="fill:#1f77b4;stroke:#1f77b4;" x="759.393048" xlink:href="#mae44c4debd" y="64.736574"/>
     <use style="fill:#1f77b4;stroke:#1f77b4;" x="764.987968" xlink:href="#mae44c4debd" y="66.79892"/>
     <use style="fill:#1f77b4;stroke:#1f77b4;" x="770.582888" xlink:href="#mae44c4debd" y="66.619508"/>
     <use style="fill:#1f77b4;stroke:#1f77b4;" x="776.177807" xlink:href="#mae44c4debd" y="66.891566"/>
     <use style="fill:#1f77b4;stroke:#1f77b4;" x="781.772727" xlink:href="#mae44c4debd" y="74.214615"/>
     <use style="fill:#1f77b4;stroke:#1f77b4;" x="787.367647" xlink:href="#mae44c4debd" y="76.015122"/>
     <use style="fill:#1f77b4;stroke:#1f77b4;" x="792.962567" xlink:href="#mae44c4debd" y="70.197323"/>
     <use style="fill:#1f77b4;stroke:#1f77b4;" x="798.557487" xlink:href="#mae44c4debd" y="74.686484"/>
     <use style="fill:#1f77b4;stroke:#1f77b4;" x="804.152406" xlink:href="#mae44c4debd" y="72.765512"/>
     <use style="fill:#1f77b4;stroke:#1f77b4;" x="809.747326" xlink:href="#mae44c4debd" y="80.112741"/>
     <use style="fill:#1f77b4;stroke:#1f77b4;" x="815.342246" xlink:href="#mae44c4debd" y="76.997797"/>
     <use style="fill:#1f77b4;stroke:#1f77b4;" x="820.937166" xlink:href="#mae44c4debd" y="75.213286"/>
     <use style="fill:#1f77b4;stroke:#1f77b4;" x="826.532086" xlink:href="#mae44c4debd" y="79.937164"/>
     <use style="fill:#1f77b4;stroke:#1f77b4;" x="832.127005" xlink:href="#mae44c4debd" y="74.148698"/>
     <use style="fill:#1f77b4;stroke:#1f77b4;" x="837.721925" xlink:href="#mae44c4debd" y="74.794806"/>
     <use style="fill:#1f77b4;stroke:#1f77b4;" x="843.316845" xlink:href="#mae44c4debd" y="82.448886"/>
     <use style="fill:#1f77b4;stroke:#1f77b4;" x="848.911765" xlink:href="#mae44c4debd" y="82.546922"/>
     <use style="fill:#1f77b4;stroke:#1f77b4;" x="854.506684" xlink:href="#mae44c4debd" y="78.05373"/>
     <use style="fill:#1f77b4;stroke:#1f77b4;" x="860.101604" xlink:href="#mae44c4debd" y="74.470246"/>
     <use style="fill:#1f77b4;stroke:#1f77b4;" x="865.696524" xlink:href="#mae44c4debd" y="79.00197"/>
     <use style="fill:#1f77b4;stroke:#1f77b4;" x="871.291444" xlink:href="#mae44c4debd" y="80.041814"/>
     <use style="fill:#1f77b4;stroke:#1f77b4;" x="876.886364" xlink:href="#mae44c4debd" y="77.789549"/>
     <use style="fill:#1f77b4;stroke:#1f77b4;" x="882.481283" xlink:href="#mae44c4debd" y="80.580073"/>
     <use style="fill:#1f77b4;stroke:#1f77b4;" x="888.076203" xlink:href="#mae44c4debd" y="78.223409"/>
     <use style="fill:#1f77b4;stroke:#1f77b4;" x="893.671123" xlink:href="#mae44c4debd" y="75.55661"/>
     <use style="fill:#1f77b4;stroke:#1f77b4;" x="899.266043" xlink:href="#mae44c4debd" y="74.144039"/>
     <use style="fill:#1f77b4;stroke:#1f77b4;" x="904.860963" xlink:href="#mae44c4debd" y="75.382835"/>
     <use style="fill:#1f77b4;stroke:#1f77b4;" x="910.455882" xlink:href="#mae44c4debd" y="74.272633"/>
     <use style="fill:#1f77b4;stroke:#1f77b4;" x="916.050802" xlink:href="#mae44c4debd" y="73.139781"/>
     <use style="fill:#1f77b4;stroke:#1f77b4;" x="921.645722" xlink:href="#mae44c4debd" y="69.723339"/>
     <use style="fill:#1f77b4;stroke:#1f77b4;" x="927.240642" xlink:href="#mae44c4debd" y="69.732561"/>
     <use style="fill:#1f77b4;stroke:#1f77b4;" x="932.835561" xlink:href="#mae44c4debd" y="70.481477"/>
     <use style="fill:#1f77b4;stroke:#1f77b4;" x="938.430481" xlink:href="#mae44c4debd" y="61.79275"/>
     <use style="fill:#1f77b4;stroke:#1f77b4;" x="944.025401" xlink:href="#mae44c4debd" y="62.436968"/>
     <use style="fill:#1f77b4;stroke:#1f77b4;" x="949.620321" xlink:href="#mae44c4debd" y="59.816252"/>
     <use style="fill:#1f77b4;stroke:#1f77b4;" x="955.215241" xlink:href="#mae44c4debd" y="61.753358"/>
    </g>
   </g>
   <g id="PathCollection_14">
    <g clip-path="url(#p855e748d4d)">
     <use style="fill:#ff7f0e;stroke:#ff7f0e;" x="960.81016" xlink:href="#md4ec9410ed" y="302.645455"/>
    </g>
   </g>
   <g id="PathCollection_15">
    <g clip-path="url(#p855e748d4d)">
     <use style="stroke:#000000;" x="960.81016" xlink:href="#m649efeecb3" y="61.255666"/>
    </g>
   </g>
   <g id="matplotlib.axis_5">
    <g id="xtick_11">
     <g id="line2d_31">
      <g>
       <use style="stroke:#000000;stroke-width:0.8;" x="759.393048" xlink:href="#mc86f9c9533" y="315"/>
      </g>
     </g>
     <g id="text_35">
      <!-- −4 -->
      <g transform="translate(752.021954 329.598437)scale(0.1 -0.1)">
       <use xlink:href="#DejaVuSans-8722"/>
       <use x="83.789062" xlink:href="#DejaVuSans-52"/>
      </g>
     </g>
    </g>
    <g id="xtick_12">
     <g id="line2d_32">
      <g>
       <use style="stroke:#000000;stroke-width:0.8;" x="804.152406" xlink:href="#mc86f9c9533" y="315"/>
      </g>
     </g>
     <g id="text_36">
      <!-- −2 -->
      <g transform="translate(796.781313 329.598437)scale(0.1 -0.1)">
       <use xlink:href="#DejaVuSans-8722"/>
       <use x="83.789062" xlink:href="#DejaVuSans-50"/>
      </g>
     </g>
    </g>
    <g id="xtick_13">
     <g id="line2d_33">
      <g>
       <use style="stroke:#000000;stroke-width:0.8;" x="848.911765" xlink:href="#mc86f9c9533" y="315"/>
      </g>
     </g>
     <g id="text_37">
      <!-- 0 -->
      <g transform="translate(845.730515 329.598437)scale(0.1 -0.1)">
       <use xlink:href="#DejaVuSans-48"/>
      </g>
     </g>
    </g>
    <g id="xtick_14">
     <g id="line2d_34">
      <g>
       <use style="stroke:#000000;stroke-width:0.8;" x="893.671123" xlink:href="#mc86f9c9533" y="315"/>
      </g>
     </g>
     <g id="text_38">
      <!-- 2 -->
      <g transform="translate(890.489873 329.598437)scale(0.1 -0.1)">
       <use xlink:href="#DejaVuSans-50"/>
      </g>
     </g>
    </g>
    <g id="xtick_15">
     <g id="line2d_35">
      <g>
       <use style="stroke:#000000;stroke-width:0.8;" x="938.430481" xlink:href="#mc86f9c9533" y="315"/>
      </g>
     </g>
     <g id="text_39">
      <!-- 4 -->
      <g transform="translate(935.249231 329.598437)scale(0.1 -0.1)">
       <use xlink:href="#DejaVuSans-52"/>
      </g>
     </g>
    </g>
   </g>
   <g id="matplotlib.axis_6">
    <g id="ytick_15">
     <g id="line2d_36">
      <g>
       <use style="stroke:#000000;stroke-width:0.8;" x="725.823529" xlink:href="#m748279059e" y="297.867806"/>
      </g>
     </g>
     <g id="text_40">
      <!-- −250 -->
      <g transform="translate(691.356342 301.667025)scale(0.1 -0.1)">
       <use xlink:href="#DejaVuSans-8722"/>
       <use x="83.789062" xlink:href="#DejaVuSans-50"/>
       <use x="147.412109" xlink:href="#DejaVuSans-53"/>
       <use x="211.035156" xlink:href="#DejaVuSans-48"/>
      </g>
     </g>
    </g>
    <g id="ytick_16">
     <g id="line2d_37">
      <g>
       <use style="stroke:#000000;stroke-width:0.8;" x="725.823529" xlink:href="#m748279059e" y="254.847417"/>
      </g>
     </g>
     <g id="text_41">
      <!-- −200 -->
      <g transform="translate(691.356342 258.646636)scale(0.1 -0.1)">
       <use xlink:href="#DejaVuSans-8722"/>
       <use x="83.789062" xlink:href="#DejaVuSans-50"/>
       <use x="147.412109" xlink:href="#DejaVuSans-48"/>
       <use x="211.035156" xlink:href="#DejaVuSans-48"/>
      </g>
     </g>
    </g>
    <g id="ytick_17">
     <g id="line2d_38">
      <g>
       <use style="stroke:#000000;stroke-width:0.8;" x="725.823529" xlink:href="#m748279059e" y="211.827028"/>
      </g>
     </g>
     <g id="text_42">
      <!-- −150 -->
      <g transform="translate(691.356342 215.626247)scale(0.1 -0.1)">
       <use xlink:href="#DejaVuSans-8722"/>
       <use x="83.789062" xlink:href="#DejaVuSans-49"/>
       <use x="147.412109" xlink:href="#DejaVuSans-53"/>
       <use x="211.035156" xlink:href="#DejaVuSans-48"/>
      </g>
     </g>
    </g>
    <g id="ytick_18">
     <g id="line2d_39">
      <g>
       <use style="stroke:#000000;stroke-width:0.8;" x="725.823529" xlink:href="#m748279059e" y="168.806639"/>
      </g>
     </g>
     <g id="text_43">
      <!-- −100 -->
      <g transform="translate(691.356342 172.605857)scale(0.1 -0.1)">
       <use xlink:href="#DejaVuSans-8722"/>
       <use x="83.789062" xlink:href="#DejaVuSans-49"/>
       <use x="147.412109" xlink:href="#DejaVuSans-48"/>
       <use x="211.035156" xlink:href="#DejaVuSans-48"/>
      </g>
     </g>
    </g>
    <g id="ytick_19">
     <g id="line2d_40">
      <g>
       <use style="stroke:#000000;stroke-width:0.8;" x="725.823529" xlink:href="#m748279059e" y="125.786249"/>
      </g>
     </g>
     <g id="text_44">
      <!-- −50 -->
      <g transform="translate(697.718842 129.585468)scale(0.1 -0.1)">
       <use xlink:href="#DejaVuSans-8722"/>
       <use x="83.789062" xlink:href="#DejaVuSans-53"/>
       <use x="147.412109" xlink:href="#DejaVuSans-48"/>
      </g>
     </g>
    </g>
    <g id="ytick_20">
     <g id="line2d_41">
      <g>
       <use style="stroke:#000000;stroke-width:0.8;" x="725.823529" xlink:href="#m748279059e" y="82.76586"/>
      </g>
     </g>
     <g id="text_45">
      <!-- 0 -->
      <g transform="translate(712.461029 86.565079)scale(0.1 -0.1)">
       <use xlink:href="#DejaVuSans-48"/>
      </g>
     </g>
    </g>
   </g>
   <g id="line2d_42">
    <path clip-path="url(#p855e748d4d)" d="M 737.013369 60.170904 
L 742.608289 55.554545 
L 748.203209 60.099577 
L 753.798128 63.613429 
L 759.393048 65.19703 
L 764.987968 66.162396 
L 770.582888 67.467927 
L 776.177807 69.268552 
L 781.772727 71.231174 
L 787.367647 72.947451 
L 792.962567 74.186886 
L 798.557487 74.955334 
L 804.152406 75.421524 
L 809.747326 75.796156 
L 815.342246 76.230536 
L 820.937166 76.769296 
L 826.532086 77.360396 
L 832.127005 77.903663 
L 837.721925 78.309707 
L 843.316845 78.543152 
L 848.911765 78.634398 
L 854.506684 78.65813 
L 860.101604 78.689822 
L 865.696524 78.759822 
L 871.291444 78.825908 
L 876.886364 78.778896 
L 882.481283 78.48358 
L 888.076203 77.842159 
L 893.671123 76.854161 
L 899.266043 75.640906 
L 904.860963 74.408609 
L 910.455882 73.344952 
L 916.050802 72.478426 
L 921.645722 71.570597 
L 927.240642 70.142881 
L 932.835561 67.733504 
L 938.430481 64.393882 
L 944.025401 61.204051 
L 949.620321 60.127351 
L 955.215241 61.719831 
" style="fill:none;stroke:#0000ff;stroke-linecap:square;stroke-width:1.5;"/>
   </g>
   <g id="patch_15">
    <path d="M 725.823529 315 
L 725.823529 43.2 
" style="fill:none;stroke:#000000;stroke-linecap:square;stroke-linejoin:miter;stroke-width:0.8;"/>
   </g>
   <g id="patch_16">
    <path d="M 972 315 
L 972 43.2 
" style="fill:none;stroke:#000000;stroke-linecap:square;stroke-linejoin:miter;stroke-width:0.8;"/>
   </g>
   <g id="patch_17">
    <path d="M 725.823529 315 
L 972 315 
" style="fill:none;stroke:#000000;stroke-linecap:square;stroke-linejoin:miter;stroke-width:0.8;"/>
   </g>
   <g id="patch_18">
    <path d="M 725.823529 43.2 
L 972 43.2 
" style="fill:none;stroke:#000000;stroke-linecap:square;stroke-linejoin:miter;stroke-width:0.8;"/>
   </g>
   <g id="text_46">
    <!-- Overfitting -->
    <g transform="translate(795.253952 37.2)scale(0.2 -0.2)">
     <defs>
      <path d="M 39.40625 66.21875 
Q 28.65625 66.21875 22.328125 58.203125 
Q 16.015625 50.203125 16.015625 36.375 
Q 16.015625 22.609375 22.328125 14.59375 
Q 28.65625 6.59375 39.40625 6.59375 
Q 50.140625 6.59375 56.421875 14.59375 
Q 62.703125 22.609375 62.703125 36.375 
Q 62.703125 50.203125 56.421875 58.203125 
Q 50.140625 66.21875 39.40625 66.21875 
z
M 39.40625 74.21875 
Q 54.734375 74.21875 63.90625 63.9375 
Q 73.09375 53.65625 73.09375 36.375 
Q 73.09375 19.140625 63.90625 8.859375 
Q 54.734375 -1.421875 39.40625 -1.421875 
Q 24.03125 -1.421875 14.8125 8.828125 
Q 5.609375 19.09375 5.609375 36.375 
Q 5.609375 53.65625 14.8125 63.9375 
Q 24.03125 74.21875 39.40625 74.21875 
z
" id="DejaVuSans-79"/>
      <path d="M 2.984375 54.6875 
L 12.5 54.6875 
L 29.59375 8.796875 
L 46.6875 54.6875 
L 56.203125 54.6875 
L 35.6875 0 
L 23.484375 0 
z
" id="DejaVuSans-118"/>
     </defs>
     <use xlink:href="#DejaVuSans-79"/>
     <use x="78.710938" xlink:href="#DejaVuSans-118"/>
     <use x="137.890625" xlink:href="#DejaVuSans-101"/>
     <use x="199.414062" xlink:href="#DejaVuSans-114"/>
     <use x="240.527344" xlink:href="#DejaVuSans-102"/>
     <use x="275.732422" xlink:href="#DejaVuSans-105"/>
     <use x="303.515625" xlink:href="#DejaVuSans-116"/>
     <use x="342.724609" xlink:href="#DejaVuSans-116"/>
     <use x="381.933594" xlink:href="#DejaVuSans-105"/>
     <use x="409.716797" xlink:href="#DejaVuSans-110"/>
     <use x="473.095703" xlink:href="#DejaVuSans-103"/>
    </g>
   </g>
   <g id="legend_3">
    <g id="patch_19">
     <path d="M 732.823529 310 
L 814.990717 310 
Q 816.990717 310 816.990717 308 
L 816.990717 250.2875 
Q 816.990717 248.2875 814.990717 248.2875 
L 732.823529 248.2875 
Q 730.823529 248.2875 730.823529 250.2875 
L 730.823529 308 
Q 730.823529 310 732.823529 310 
z
" style="fill:#ffffff;opacity:0.8;stroke:#cccccc;stroke-linejoin:miter;"/>
    </g>
    <g id="line2d_43">
     <path d="M 734.823529 256.385938 
L 754.823529 256.385938 
" style="fill:none;stroke:#0000ff;stroke-linecap:square;stroke-width:1.5;"/>
    </g>
    <g id="line2d_44"/>
    <g id="text_47">
     <!-- model -->
     <g transform="translate(762.823529 259.885938)scale(0.1 -0.1)">
      <use xlink:href="#DejaVuSans-109"/>
      <use x="97.412109" xlink:href="#DejaVuSans-111"/>
      <use x="158.59375" xlink:href="#DejaVuSans-100"/>
      <use x="222.070312" xlink:href="#DejaVuSans-101"/>
      <use x="283.59375" xlink:href="#DejaVuSans-108"/>
     </g>
    </g>
    <g id="PathCollection_16">
     <g>
      <use style="fill:#1f77b4;stroke:#1f77b4;" x="744.823529" xlink:href="#mae44c4debd" y="271.939062"/>
     </g>
    </g>
    <g id="text_48">
     <!-- data -->
     <g transform="translate(762.823529 274.564062)scale(0.1 -0.1)">
      <use xlink:href="#DejaVuSans-100"/>
      <use x="63.476562" xlink:href="#DejaVuSans-97"/>
      <use x="124.755859" xlink:href="#DejaVuSans-116"/>
      <use x="163.964844" xlink:href="#DejaVuSans-97"/>
     </g>
    </g>
    <g id="PathCollection_17">
     <g>
      <use style="fill:#ff7f0e;stroke:#ff7f0e;" x="744.823529" xlink:href="#md4ec9410ed" y="286.617188"/>
     </g>
    </g>
    <g id="text_49">
     <!-- prediction -->
     <g transform="translate(762.823529 289.242188)scale(0.1 -0.1)">
      <use xlink:href="#DejaVuSans-112"/>
      <use x="63.476562" xlink:href="#DejaVuSans-114"/>
      <use x="102.339844" xlink:href="#DejaVuSans-101"/>
      <use x="163.863281" xlink:href="#DejaVuSans-100"/>
      <use x="227.339844" xlink:href="#DejaVuSans-105"/>
      <use x="255.123047" xlink:href="#DejaVuSans-99"/>
      <use x="310.103516" xlink:href="#DejaVuSans-116"/>
      <use x="349.3125" xlink:href="#DejaVuSans-105"/>
      <use x="377.095703" xlink:href="#DejaVuSans-111"/>
      <use x="438.277344" xlink:href="#DejaVuSans-110"/>
     </g>
    </g>
    <g id="PathCollection_18">
     <g>
      <use style="stroke:#000000;" x="744.823529" xlink:href="#m649efeecb3" y="301.295313"/>
     </g>
    </g>
    <g id="text_50">
     <!-- target -->
     <g transform="translate(762.823529 303.920313)scale(0.1 -0.1)">
      <use xlink:href="#DejaVuSans-116"/>
      <use x="39.208984" xlink:href="#DejaVuSans-97"/>
      <use x="100.488281" xlink:href="#DejaVuSans-114"/>
      <use x="139.851562" xlink:href="#DejaVuSans-103"/>
      <use x="203.328125" xlink:href="#DejaVuSans-101"/>
      <use x="264.851562" xlink:href="#DejaVuSans-116"/>
     </g>
    </g>
   </g>
  </g>
 </g>
 <defs>
  <clipPath id="p3134bea284">
   <rect height="271.8" width="246.176471" x="135" y="43.2"/>
  </clipPath>
  <clipPath id="p345d91262e">
   <rect height="271.8" width="246.176471" x="430.411765" y="43.2"/>
  </clipPath>
  <clipPath id="p855e748d4d">
   <rect height="271.8" width="246.176471" x="725.823529" y="43.2"/>
  </clipPath>
 </defs>
</svg>
