<?xml version="1.0" encoding="utf-8" standalone="no"?>
<!DOCTYPE svg PUBLIC "-//W3C//DTD SVG 1.1//EN"
  "http://www.w3.org/Graphics/SVG/1.1/DTD/svg11.dtd">
<!-- Created with matplotlib (https://matplotlib.org/) -->
<svg height="360pt" version="1.1" viewBox="0 0 1080 360" width="1080pt" xmlns="http://www.w3.org/2000/svg" xmlns:xlink="http://www.w3.org/1999/xlink">
 <metadata>
  <rdf:RDF xmlns:cc="http://creativecommons.org/ns#" xmlns:dc="http://purl.org/dc/elements/1.1/" xmlns:rdf="http://www.w3.org/1999/02/22-rdf-syntax-ns#">
   <cc:Work>
    <dc:type rdf:resource="http://purl.org/dc/dcmitype/StillImage"/>
    <dc:date>2022-07-13T20:40:19.967036</dc:date>
    <dc:format>image/svg+xml</dc:format>
    <dc:creator>
     <cc:Agent>
      <dc:title>Matplotlib v3.3.4, https://matplotlib.org/</dc:title>
     </cc:Agent>
    </dc:creator>
   </cc:Work>
  </rdf:RDF>
 </metadata>
 <defs>
  <style type="text/css">*{stroke-linecap:butt;stroke-linejoin:round;}</style>
 </defs>
 <g id="figure_1">
  <g id="patch_1">
   <path d="M 0 360 
L 1080 360 
L 1080 0 
L 0 0 
z
" style="fill:none;"/>
  </g>
  <g id="axes_1">
   <g id="patch_2">
    <path d="M 135 315 
L 381.176471 315 
L 381.176471 43.2 
L 135 43.2 
z
" style="fill:none;"/>
   </g>
   <g id="PathCollection_1">
    <defs>
     <path d="M 0 3 
C 0.795609 3 1.55874 2.683901 2.12132 2.12132 
C 2.683901 1.55874 3 0.795609 3 0 
C 3 -0.795609 2.683901 -1.55874 2.12132 -2.12132 
C 1.55874 -2.683901 0.795609 -3 0 -3 
C -0.795609 -3 -1.55874 -2.683901 -2.12132 -2.12132 
C -2.683901 -1.55874 -3 -0.795609 -3 0 
C -3 0.795609 -2.683901 1.55874 -2.12132 2.12132 
C -1.55874 2.683901 -0.795609 3 0 3 
z
" id="m17751204fc" style="stroke:#1f77b4;"/>
    </defs>
    <g clip-path="url(#p9ab6dc29b4)">
     <use style="fill:#1f77b4;stroke:#1f77b4;" x="146.18984" xlink:href="#m17751204fc" y="93.226936"/>
     <use style="fill:#1f77b4;stroke:#1f77b4;" x="151.928219" xlink:href="#m17751204fc" y="55.554545"/>
     <use style="fill:#1f77b4;stroke:#1f77b4;" x="157.666598" xlink:href="#m17751204fc" y="80.832378"/>
     <use style="fill:#1f77b4;stroke:#1f77b4;" x="163.404977" xlink:href="#m17751204fc" y="139.225416"/>
     <use style="fill:#1f77b4;stroke:#1f77b4;" x="169.143357" xlink:href="#m17751204fc" y="136.486912"/>
     <use style="fill:#1f77b4;stroke:#1f77b4;" x="174.881736" xlink:href="#m17751204fc" y="155.72721"/>
     <use style="fill:#1f77b4;stroke:#1f77b4;" x="180.620115" xlink:href="#m17751204fc" y="154.053422"/>
     <use style="fill:#1f77b4;stroke:#1f77b4;" x="186.358494" xlink:href="#m17751204fc" y="156.591537"/>
     <use style="fill:#1f77b4;stroke:#1f77b4;" x="192.096874" xlink:href="#m17751204fc" y="224.910647"/>
     <use style="fill:#1f77b4;stroke:#1f77b4;" x="197.835253" xlink:href="#m17751204fc" y="241.708168"/>
     <use style="fill:#1f77b4;stroke:#1f77b4;" x="203.573632" xlink:href="#m17751204fc" y="187.432027"/>
     <use style="fill:#1f77b4;stroke:#1f77b4;" x="209.312012" xlink:href="#m17751204fc" y="229.31287"/>
     <use style="fill:#1f77b4;stroke:#1f77b4;" x="215.050391" xlink:href="#m17751204fc" y="211.391493"/>
     <use style="fill:#1f77b4;stroke:#1f77b4;" x="220.78877" xlink:href="#m17751204fc" y="279.936184"/>
     <use style="fill:#1f77b4;stroke:#1f77b4;" x="226.527149" xlink:href="#m17751204fc" y="250.875856"/>
     <use style="fill:#1f77b4;stroke:#1f77b4;" x="232.265529" xlink:href="#m17751204fc" y="234.227579"/>
     <use style="fill:#1f77b4;stroke:#1f77b4;" x="238.003908" xlink:href="#m17751204fc" y="278.298176"/>
     <use style="fill:#1f77b4;stroke:#1f77b4;" x="243.742287" xlink:href="#m17751204fc" y="224.295688"/>
     <use style="fill:#1f77b4;stroke:#1f77b4;" x="249.480666" xlink:href="#m17751204fc" y="230.323441"/>
     <use style="fill:#1f77b4;stroke:#1f77b4;" x="255.219046" xlink:href="#m17751204fc" y="301.730846"/>
     <use style="fill:#1f77b4;stroke:#1f77b4;" x="260.957425" xlink:href="#m17751204fc" y="302.645455"/>
     <use style="fill:#1f77b4;stroke:#1f77b4;" x="266.695804" xlink:href="#m17751204fc" y="260.726999"/>
     <use style="fill:#1f77b4;stroke:#1f77b4;" x="272.434183" xlink:href="#m17751204fc" y="227.29551"/>
     <use style="fill:#1f77b4;stroke:#1f77b4;" x="278.172563" xlink:href="#m17751204fc" y="269.573441"/>
     <use style="fill:#1f77b4;stroke:#1f77b4;" x="283.910942" xlink:href="#m17751204fc" y="279.274489"/>
     <use style="fill:#1f77b4;stroke:#1f77b4;" x="289.649321" xlink:href="#m17751204fc" y="258.262373"/>
     <use style="fill:#1f77b4;stroke:#1f77b4;" x="295.387701" xlink:href="#m17751204fc" y="284.296084"/>
     <use style="fill:#1f77b4;stroke:#1f77b4;" x="301.12608" xlink:href="#m17751204fc" y="262.309993"/>
     <use style="fill:#1f77b4;stroke:#1f77b4;" x="306.864459" xlink:href="#m17751204fc" y="237.430557"/>
     <use style="fill:#1f77b4;stroke:#1f77b4;" x="312.602838" xlink:href="#m17751204fc" y="224.252218"/>
     <use style="fill:#1f77b4;stroke:#1f77b4;" x="318.341218" xlink:href="#m17751204fc" y="235.809351"/>
     <use style="fill:#1f77b4;stroke:#1f77b4;" x="324.079597" xlink:href="#m17751204fc" y="225.451913"/>
     <use style="fill:#1f77b4;stroke:#1f77b4;" x="329.817976" xlink:href="#m17751204fc" y="214.883172"/>
     <use style="fill:#1f77b4;stroke:#1f77b4;" x="335.556355" xlink:href="#m17751204fc" y="183.010071"/>
     <use style="fill:#1f77b4;stroke:#1f77b4;" x="341.294735" xlink:href="#m17751204fc" y="183.096108"/>
     <use style="fill:#1f77b4;stroke:#1f77b4;" x="347.033114" xlink:href="#m17751204fc" y="190.082984"/>
     <use style="fill:#1f77b4;stroke:#1f77b4;" x="352.771493" xlink:href="#m17751204fc" y="109.023018"/>
     <use style="fill:#1f77b4;stroke:#1f77b4;" x="358.509872" xlink:href="#m17751204fc" y="115.033145"/>
     <use style="fill:#1f77b4;stroke:#1f77b4;" x="364.248252" xlink:href="#m17751204fc" y="90.583628"/>
     <use style="fill:#1f77b4;stroke:#1f77b4;" x="369.986631" xlink:href="#m17751204fc" y="108.655518"/>
    </g>
   </g>
   <g id="matplotlib.axis_1">
    <g id="xtick_1">
     <g id="line2d_1">
      <defs>
       <path d="M 0 0 
L 0 3.5 
" id="mf173ada601" style="stroke:#000000;stroke-width:0.8;"/>
      </defs>
      <g>
       <use style="stroke:#000000;stroke-width:0.8;" x="169.143357" xlink:href="#mf173ada601" y="315"/>
      </g>
     </g>
     <g id="text_1">
      <!-- −4 -->
      <g transform="translate(161.772263 329.598437)scale(0.1 -0.1)">
       <defs>
        <path d="M 10.59375 35.5 
L 73.1875 35.5 
L 73.1875 27.203125 
L 10.59375 27.203125 
z
" id="DejaVuSans-8722"/>
        <path d="M 37.796875 64.3125 
L 12.890625 25.390625 
L 37.796875 25.390625 
z
M 35.203125 72.90625 
L 47.609375 72.90625 
L 47.609375 25.390625 
L 58.015625 25.390625 
L 58.015625 17.1875 
L 47.609375 17.1875 
L 47.609375 0 
L 37.796875 0 
L 37.796875 17.1875 
L 4.890625 17.1875 
L 4.890625 26.703125 
z
" id="DejaVuSans-52"/>
       </defs>
       <use xlink:href="#DejaVuSans-8722"/>
       <use x="83.789062" xlink:href="#DejaVuSans-52"/>
      </g>
     </g>
    </g>
    <g id="xtick_2">
     <g id="line2d_2">
      <g>
       <use style="stroke:#000000;stroke-width:0.8;" x="215.050391" xlink:href="#mf173ada601" y="315"/>
      </g>
     </g>
     <g id="text_2">
      <!-- −2 -->
      <g transform="translate(207.679297 329.598437)scale(0.1 -0.1)">
       <defs>
        <path d="M 19.1875 8.296875 
L 53.609375 8.296875 
L 53.609375 0 
L 7.328125 0 
L 7.328125 8.296875 
Q 12.9375 14.109375 22.625 23.890625 
Q 32.328125 33.6875 34.8125 36.53125 
Q 39.546875 41.84375 41.421875 45.53125 
Q 43.3125 49.21875 43.3125 52.78125 
Q 43.3125 58.59375 39.234375 62.25 
Q 35.15625 65.921875 28.609375 65.921875 
Q 23.96875 65.921875 18.8125 64.3125 
Q 13.671875 62.703125 7.8125 59.421875 
L 7.8125 69.390625 
Q 13.765625 71.78125 18.9375 73 
Q 24.125 74.21875 28.421875 74.21875 
Q 39.75 74.21875 46.484375 68.546875 
Q 53.21875 62.890625 53.21875 53.421875 
Q 53.21875 48.921875 51.53125 44.890625 
Q 49.859375 40.875 45.40625 35.40625 
Q 44.1875 33.984375 37.640625 27.21875 
Q 31.109375 20.453125 19.1875 8.296875 
z
" id="DejaVuSans-50"/>
       </defs>
       <use xlink:href="#DejaVuSans-8722"/>
       <use x="83.789062" xlink:href="#DejaVuSans-50"/>
      </g>
     </g>
    </g>
    <g id="xtick_3">
     <g id="line2d_3">
      <g>
       <use style="stroke:#000000;stroke-width:0.8;" x="260.957425" xlink:href="#mf173ada601" y="315"/>
      </g>
     </g>
     <g id="text_3">
      <!-- 0 -->
      <g transform="translate(257.776175 329.598437)scale(0.1 -0.1)">
       <defs>
        <path d="M 31.78125 66.40625 
Q 24.171875 66.40625 20.328125 58.90625 
Q 16.5 51.421875 16.5 36.375 
Q 16.5 21.390625 20.328125 13.890625 
Q 24.171875 6.390625 31.78125 6.390625 
Q 39.453125 6.390625 43.28125 13.890625 
Q 47.125 21.390625 47.125 36.375 
Q 47.125 51.421875 43.28125 58.90625 
Q 39.453125 66.40625 31.78125 66.40625 
z
M 31.78125 74.21875 
Q 44.046875 74.21875 50.515625 64.515625 
Q 56.984375 54.828125 56.984375 36.375 
Q 56.984375 17.96875 50.515625 8.265625 
Q 44.046875 -1.421875 31.78125 -1.421875 
Q 19.53125 -1.421875 13.0625 8.265625 
Q 6.59375 17.96875 6.59375 36.375 
Q 6.59375 54.828125 13.0625 64.515625 
Q 19.53125 74.21875 31.78125 74.21875 
z
" id="DejaVuSans-48"/>
       </defs>
       <use xlink:href="#DejaVuSans-48"/>
      </g>
     </g>
    </g>
    <g id="xtick_4">
     <g id="line2d_4">
      <g>
       <use style="stroke:#000000;stroke-width:0.8;" x="306.864459" xlink:href="#mf173ada601" y="315"/>
      </g>
     </g>
     <g id="text_4">
      <!-- 2 -->
      <g transform="translate(303.683209 329.598437)scale(0.1 -0.1)">
       <use xlink:href="#DejaVuSans-50"/>
      </g>
     </g>
    </g>
    <g id="xtick_5">
     <g id="line2d_5">
      <g>
       <use style="stroke:#000000;stroke-width:0.8;" x="352.771493" xlink:href="#mf173ada601" y="315"/>
      </g>
     </g>
     <g id="text_5">
      <!-- 4 -->
      <g transform="translate(349.590243 329.598437)scale(0.1 -0.1)">
       <use xlink:href="#DejaVuSans-52"/>
      </g>
     </g>
    </g>
   </g>
   <g id="matplotlib.axis_2">
    <g id="ytick_1">
     <g id="line2d_6">
      <defs>
       <path d="M 0 0 
L -3.5 0 
" id="m3a1e56d014" style="stroke:#000000;stroke-width:0.8;"/>
      </defs>
      <g>
       <use style="stroke:#000000;stroke-width:0.8;" x="135" xlink:href="#m3a1e56d014" y="304.688"/>
      </g>
     </g>
     <g id="text_6">
      <!-- 0 -->
      <g transform="translate(121.6375 308.487219)scale(0.1 -0.1)">
       <use xlink:href="#DejaVuSans-48"/>
      </g>
     </g>
    </g>
    <g id="ytick_2">
     <g id="line2d_7">
      <g>
       <use style="stroke:#000000;stroke-width:0.8;" x="135" xlink:href="#m3a1e56d014" y="264.552877"/>
      </g>
     </g>
     <g id="text_7">
      <!-- 5 -->
      <g transform="translate(121.6375 268.352096)scale(0.1 -0.1)">
       <defs>
        <path d="M 10.796875 72.90625 
L 49.515625 72.90625 
L 49.515625 64.59375 
L 19.828125 64.59375 
L 19.828125 46.734375 
Q 21.96875 47.46875 24.109375 47.828125 
Q 26.265625 48.1875 28.421875 48.1875 
Q 40.625 48.1875 47.75 41.5 
Q 54.890625 34.8125 54.890625 23.390625 
Q 54.890625 11.625 47.5625 5.09375 
Q 40.234375 -1.421875 26.90625 -1.421875 
Q 22.3125 -1.421875 17.546875 -0.640625 
Q 12.796875 0.140625 7.71875 1.703125 
L 7.71875 11.625 
Q 12.109375 9.234375 16.796875 8.0625 
Q 21.484375 6.890625 26.703125 6.890625 
Q 35.15625 6.890625 40.078125 11.328125 
Q 45.015625 15.765625 45.015625 23.390625 
Q 45.015625 31 40.078125 35.4375 
Q 35.15625 39.890625 26.703125 39.890625 
Q 22.75 39.890625 18.8125 39.015625 
Q 14.890625 38.140625 10.796875 36.28125 
z
" id="DejaVuSans-53"/>
       </defs>
       <use xlink:href="#DejaVuSans-53"/>
      </g>
     </g>
    </g>
    <g id="ytick_3">
     <g id="line2d_8">
      <g>
       <use style="stroke:#000000;stroke-width:0.8;" x="135" xlink:href="#m3a1e56d014" y="224.417755"/>
      </g>
     </g>
     <g id="text_8">
      <!-- 10 -->
      <g transform="translate(115.275 228.216974)scale(0.1 -0.1)">
       <defs>
        <path d="M 12.40625 8.296875 
L 28.515625 8.296875 
L 28.515625 63.921875 
L 10.984375 60.40625 
L 10.984375 69.390625 
L 28.421875 72.90625 
L 38.28125 72.90625 
L 38.28125 8.296875 
L 54.390625 8.296875 
L 54.390625 0 
L 12.40625 0 
z
" id="DejaVuSans-49"/>
       </defs>
       <use xlink:href="#DejaVuSans-49"/>
       <use x="63.623047" xlink:href="#DejaVuSans-48"/>
      </g>
     </g>
    </g>
    <g id="ytick_4">
     <g id="line2d_9">
      <g>
       <use style="stroke:#000000;stroke-width:0.8;" x="135" xlink:href="#m3a1e56d014" y="184.282632"/>
      </g>
     </g>
     <g id="text_9">
      <!-- 15 -->
      <g transform="translate(115.275 188.081851)scale(0.1 -0.1)">
       <use xlink:href="#DejaVuSans-49"/>
       <use x="63.623047" xlink:href="#DejaVuSans-53"/>
      </g>
     </g>
    </g>
    <g id="ytick_5">
     <g id="line2d_10">
      <g>
       <use style="stroke:#000000;stroke-width:0.8;" x="135" xlink:href="#m3a1e56d014" y="144.14751"/>
      </g>
     </g>
     <g id="text_10">
      <!-- 20 -->
      <g transform="translate(115.275 147.946728)scale(0.1 -0.1)">
       <use xlink:href="#DejaVuSans-50"/>
       <use x="63.623047" xlink:href="#DejaVuSans-48"/>
      </g>
     </g>
    </g>
    <g id="ytick_6">
     <g id="line2d_11">
      <g>
       <use style="stroke:#000000;stroke-width:0.8;" x="135" xlink:href="#m3a1e56d014" y="104.012387"/>
      </g>
     </g>
     <g id="text_11">
      <!-- 25 -->
      <g transform="translate(115.275 107.811606)scale(0.1 -0.1)">
       <use xlink:href="#DejaVuSans-50"/>
       <use x="63.623047" xlink:href="#DejaVuSans-53"/>
      </g>
     </g>
    </g>
    <g id="ytick_7">
     <g id="line2d_12">
      <g>
       <use style="stroke:#000000;stroke-width:0.8;" x="135" xlink:href="#m3a1e56d014" y="63.877264"/>
      </g>
     </g>
     <g id="text_12">
      <!-- 30 -->
      <g transform="translate(115.275 67.676483)scale(0.1 -0.1)">
       <defs>
        <path d="M 40.578125 39.3125 
Q 47.65625 37.796875 51.625 33 
Q 55.609375 28.21875 55.609375 21.1875 
Q 55.609375 10.40625 48.1875 4.484375 
Q 40.765625 -1.421875 27.09375 -1.421875 
Q 22.515625 -1.421875 17.65625 -0.515625 
Q 12.796875 0.390625 7.625 2.203125 
L 7.625 11.71875 
Q 11.71875 9.328125 16.59375 8.109375 
Q 21.484375 6.890625 26.8125 6.890625 
Q 36.078125 6.890625 40.9375 10.546875 
Q 45.796875 14.203125 45.796875 21.1875 
Q 45.796875 27.640625 41.28125 31.265625 
Q 36.765625 34.90625 28.71875 34.90625 
L 20.21875 34.90625 
L 20.21875 43.015625 
L 29.109375 43.015625 
Q 36.375 43.015625 40.234375 45.921875 
Q 44.09375 48.828125 44.09375 54.296875 
Q 44.09375 59.90625 40.109375 62.90625 
Q 36.140625 65.921875 28.71875 65.921875 
Q 24.65625 65.921875 20.015625 65.03125 
Q 15.375 64.15625 9.8125 62.3125 
L 9.8125 71.09375 
Q 15.4375 72.65625 20.34375 73.4375 
Q 25.25 74.21875 29.59375 74.21875 
Q 40.828125 74.21875 47.359375 69.109375 
Q 53.90625 64.015625 53.90625 55.328125 
Q 53.90625 49.265625 50.4375 45.09375 
Q 46.96875 40.921875 40.578125 39.3125 
z
" id="DejaVuSans-51"/>
       </defs>
       <use xlink:href="#DejaVuSans-51"/>
       <use x="63.623047" xlink:href="#DejaVuSans-48"/>
      </g>
     </g>
    </g>
   </g>
   <g id="line2d_13">
    <path clip-path="url(#p9ab6dc29b4)" d="M 146.18984 186.967078 
L 151.928219 187.799327 
L 157.666598 188.631576 
L 163.404977 189.463825 
L 169.143357 190.296074 
L 174.881736 191.128323 
L 180.620115 191.960572 
L 186.358494 192.792821 
L 192.096874 193.62507 
L 197.835253 194.457319 
L 203.573632 195.289568 
L 209.312012 196.121817 
L 215.050391 196.954066 
L 220.78877 197.786315 
L 226.527149 198.618564 
L 232.265529 199.450813 
L 238.003908 200.283062 
L 243.742287 201.115311 
L 249.480666 201.94756 
L 255.219046 202.779809 
L 260.957425 203.612058 
L 266.695804 204.444307 
L 272.434183 205.276557 
L 278.172563 206.108806 
L 283.910942 206.941055 
L 289.649321 207.773304 
L 295.387701 208.605553 
L 301.12608 209.437802 
L 306.864459 210.270051 
L 312.602838 211.1023 
L 318.341218 211.934549 
L 324.079597 212.766798 
L 329.817976 213.599047 
L 335.556355 214.431296 
L 341.294735 215.263545 
L 347.033114 216.095794 
L 352.771493 216.928043 
L 358.509872 217.760292 
L 364.248252 218.592541 
L 369.986631 219.42479 
" style="fill:none;stroke:#0000ff;stroke-linecap:square;stroke-width:1.5;"/>
   </g>
   <g id="patch_3">
    <path d="M 135 315 
L 135 43.2 
" style="fill:none;stroke:#000000;stroke-linecap:square;stroke-linejoin:miter;stroke-width:0.8;"/>
   </g>
   <g id="patch_4">
    <path d="M 381.176471 315 
L 381.176471 43.2 
" style="fill:none;stroke:#000000;stroke-linecap:square;stroke-linejoin:miter;stroke-width:0.8;"/>
   </g>
   <g id="patch_5">
    <path d="M 135 315 
L 381.176471 315 
" style="fill:none;stroke:#000000;stroke-linecap:square;stroke-linejoin:miter;stroke-width:0.8;"/>
   </g>
   <g id="patch_6">
    <path d="M 135 43.2 
L 381.176471 43.2 
" style="fill:none;stroke:#000000;stroke-linecap:square;stroke-linejoin:miter;stroke-width:0.8;"/>
   </g>
   <g id="text_13">
    <!-- Underfitting -->
    <g transform="translate(198.21636 37.2)scale(0.2 -0.2)">
     <defs>
      <path d="M 8.6875 72.90625 
L 18.609375 72.90625 
L 18.609375 28.609375 
Q 18.609375 16.890625 22.84375 11.734375 
Q 27.09375 6.59375 36.625 6.59375 
Q 46.09375 6.59375 50.34375 11.734375 
Q 54.59375 16.890625 54.59375 28.609375 
L 54.59375 72.90625 
L 64.5 72.90625 
L 64.5 27.390625 
Q 64.5 13.140625 57.4375 5.859375 
Q 50.390625 -1.421875 36.625 -1.421875 
Q 22.796875 -1.421875 15.734375 5.859375 
Q 8.6875 13.140625 8.6875 27.390625 
z
" id="DejaVuSans-85"/>
      <path d="M 54.890625 33.015625 
L 54.890625 0 
L 45.90625 0 
L 45.90625 32.71875 
Q 45.90625 40.484375 42.875 44.328125 
Q 39.84375 48.1875 33.796875 48.1875 
Q 26.515625 48.1875 22.3125 43.546875 
Q 18.109375 38.921875 18.109375 30.90625 
L 18.109375 0 
L 9.078125 0 
L 9.078125 54.6875 
L 18.109375 54.6875 
L 18.109375 46.1875 
Q 21.34375 51.125 25.703125 53.5625 
Q 30.078125 56 35.796875 56 
Q 45.21875 56 50.046875 50.171875 
Q 54.890625 44.34375 54.890625 33.015625 
z
" id="DejaVuSans-110"/>
      <path d="M 45.40625 46.390625 
L 45.40625 75.984375 
L 54.390625 75.984375 
L 54.390625 0 
L 45.40625 0 
L 45.40625 8.203125 
Q 42.578125 3.328125 38.25 0.953125 
Q 33.9375 -1.421875 27.875 -1.421875 
Q 17.96875 -1.421875 11.734375 6.484375 
Q 5.515625 14.40625 5.515625 27.296875 
Q 5.515625 40.1875 11.734375 48.09375 
Q 17.96875 56 27.875 56 
Q 33.9375 56 38.25 53.625 
Q 42.578125 51.265625 45.40625 46.390625 
z
M 14.796875 27.296875 
Q 14.796875 17.390625 18.875 11.75 
Q 22.953125 6.109375 30.078125 6.109375 
Q 37.203125 6.109375 41.296875 11.75 
Q 45.40625 17.390625 45.40625 27.296875 
Q 45.40625 37.203125 41.296875 42.84375 
Q 37.203125 48.484375 30.078125 48.484375 
Q 22.953125 48.484375 18.875 42.84375 
Q 14.796875 37.203125 14.796875 27.296875 
z
" id="DejaVuSans-100"/>
      <path d="M 56.203125 29.59375 
L 56.203125 25.203125 
L 14.890625 25.203125 
Q 15.484375 15.921875 20.484375 11.0625 
Q 25.484375 6.203125 34.421875 6.203125 
Q 39.59375 6.203125 44.453125 7.46875 
Q 49.3125 8.734375 54.109375 11.28125 
L 54.109375 2.78125 
Q 49.265625 0.734375 44.1875 -0.34375 
Q 39.109375 -1.421875 33.890625 -1.421875 
Q 20.796875 -1.421875 13.15625 6.1875 
Q 5.515625 13.8125 5.515625 26.8125 
Q 5.515625 40.234375 12.765625 48.109375 
Q 20.015625 56 32.328125 56 
Q 43.359375 56 49.78125 48.890625 
Q 56.203125 41.796875 56.203125 29.59375 
z
M 47.21875 32.234375 
Q 47.125 39.59375 43.09375 43.984375 
Q 39.0625 48.390625 32.421875 48.390625 
Q 24.90625 48.390625 20.390625 44.140625 
Q 15.875 39.890625 15.1875 32.171875 
z
" id="DejaVuSans-101"/>
      <path d="M 41.109375 46.296875 
Q 39.59375 47.171875 37.8125 47.578125 
Q 36.03125 48 33.890625 48 
Q 26.265625 48 22.1875 43.046875 
Q 18.109375 38.09375 18.109375 28.8125 
L 18.109375 0 
L 9.078125 0 
L 9.078125 54.6875 
L 18.109375 54.6875 
L 18.109375 46.1875 
Q 20.953125 51.171875 25.484375 53.578125 
Q 30.03125 56 36.53125 56 
Q 37.453125 56 38.578125 55.875 
Q 39.703125 55.765625 41.0625 55.515625 
z
" id="DejaVuSans-114"/>
      <path d="M 37.109375 75.984375 
L 37.109375 68.5 
L 28.515625 68.5 
Q 23.6875 68.5 21.796875 66.546875 
Q 19.921875 64.59375 19.921875 59.515625 
L 19.921875 54.6875 
L 34.71875 54.6875 
L 34.71875 47.703125 
L 19.921875 47.703125 
L 19.921875 0 
L 10.890625 0 
L 10.890625 47.703125 
L 2.296875 47.703125 
L 2.296875 54.6875 
L 10.890625 54.6875 
L 10.890625 58.5 
Q 10.890625 67.625 15.140625 71.796875 
Q 19.390625 75.984375 28.609375 75.984375 
z
" id="DejaVuSans-102"/>
      <path d="M 9.421875 54.6875 
L 18.40625 54.6875 
L 18.40625 0 
L 9.421875 0 
z
M 9.421875 75.984375 
L 18.40625 75.984375 
L 18.40625 64.59375 
L 9.421875 64.59375 
z
" id="DejaVuSans-105"/>
      <path d="M 18.3125 70.21875 
L 18.3125 54.6875 
L 36.8125 54.6875 
L 36.8125 47.703125 
L 18.3125 47.703125 
L 18.3125 18.015625 
Q 18.3125 11.328125 20.140625 9.421875 
Q 21.96875 7.515625 27.59375 7.515625 
L 36.8125 7.515625 
L 36.8125 0 
L 27.59375 0 
Q 17.1875 0 13.234375 3.875 
Q 9.28125 7.765625 9.28125 18.015625 
L 9.28125 47.703125 
L 2.6875 47.703125 
L 2.6875 54.6875 
L 9.28125 54.6875 
L 9.28125 70.21875 
z
" id="DejaVuSans-116"/>
      <path d="M 45.40625 27.984375 
Q 45.40625 37.75 41.375 43.109375 
Q 37.359375 48.484375 30.078125 48.484375 
Q 22.859375 48.484375 18.828125 43.109375 
Q 14.796875 37.75 14.796875 27.984375 
Q 14.796875 18.265625 18.828125 12.890625 
Q 22.859375 7.515625 30.078125 7.515625 
Q 37.359375 7.515625 41.375 12.890625 
Q 45.40625 18.265625 45.40625 27.984375 
z
M 54.390625 6.78125 
Q 54.390625 -7.171875 48.1875 -13.984375 
Q 42 -20.796875 29.203125 -20.796875 
Q 24.46875 -20.796875 20.265625 -20.09375 
Q 16.0625 -19.390625 12.109375 -17.921875 
L 12.109375 -9.1875 
Q 16.0625 -11.328125 19.921875 -12.34375 
Q 23.78125 -13.375 27.78125 -13.375 
Q 36.625 -13.375 41.015625 -8.765625 
Q 45.40625 -4.15625 45.40625 5.171875 
L 45.40625 9.625 
Q 42.625 4.78125 38.28125 2.390625 
Q 33.9375 0 27.875 0 
Q 17.828125 0 11.671875 7.65625 
Q 5.515625 15.328125 5.515625 27.984375 
Q 5.515625 40.671875 11.671875 48.328125 
Q 17.828125 56 27.875 56 
Q 33.9375 56 38.28125 53.609375 
Q 42.625 51.21875 45.40625 46.390625 
L 45.40625 54.6875 
L 54.390625 54.6875 
z
" id="DejaVuSans-103"/>
     </defs>
     <use xlink:href="#DejaVuSans-85"/>
     <use x="73.193359" xlink:href="#DejaVuSans-110"/>
     <use x="136.572266" xlink:href="#DejaVuSans-100"/>
     <use x="200.048828" xlink:href="#DejaVuSans-101"/>
     <use x="261.572266" xlink:href="#DejaVuSans-114"/>
     <use x="302.685547" xlink:href="#DejaVuSans-102"/>
     <use x="337.890625" xlink:href="#DejaVuSans-105"/>
     <use x="365.673828" xlink:href="#DejaVuSans-116"/>
     <use x="404.882812" xlink:href="#DejaVuSans-116"/>
     <use x="444.091797" xlink:href="#DejaVuSans-105"/>
     <use x="471.875" xlink:href="#DejaVuSans-110"/>
     <use x="535.253906" xlink:href="#DejaVuSans-103"/>
    </g>
   </g>
   <g id="legend_1">
    <g id="patch_7">
     <path d="M 142 310 
L 205.139062 310 
Q 207.139062 310 207.139062 308 
L 207.139062 279.64375 
Q 207.139062 277.64375 205.139062 277.64375 
L 142 277.64375 
Q 140 277.64375 140 279.64375 
L 140 308 
Q 140 310 142 310 
z
" style="fill:#ffffff;opacity:0.8;stroke:#cccccc;stroke-linejoin:miter;"/>
    </g>
    <g id="line2d_14">
     <path d="M 144 285.742188 
L 164 285.742188 
" style="fill:none;stroke:#0000ff;stroke-linecap:square;stroke-width:1.5;"/>
    </g>
    <g id="line2d_15"/>
    <g id="text_14">
     <!-- model -->
     <g transform="translate(172 289.242188)scale(0.1 -0.1)">
      <defs>
       <path d="M 52 44.1875 
Q 55.375 50.25 60.0625 53.125 
Q 64.75 56 71.09375 56 
Q 79.640625 56 84.28125 50.015625 
Q 88.921875 44.046875 88.921875 33.015625 
L 88.921875 0 
L 79.890625 0 
L 79.890625 32.71875 
Q 79.890625 40.578125 77.09375 44.375 
Q 74.3125 48.1875 68.609375 48.1875 
Q 61.625 48.1875 57.5625 43.546875 
Q 53.515625 38.921875 53.515625 30.90625 
L 53.515625 0 
L 44.484375 0 
L 44.484375 32.71875 
Q 44.484375 40.625 41.703125 44.40625 
Q 38.921875 48.1875 33.109375 48.1875 
Q 26.21875 48.1875 22.15625 43.53125 
Q 18.109375 38.875 18.109375 30.90625 
L 18.109375 0 
L 9.078125 0 
L 9.078125 54.6875 
L 18.109375 54.6875 
L 18.109375 46.1875 
Q 21.1875 51.21875 25.484375 53.609375 
Q 29.78125 56 35.6875 56 
Q 41.65625 56 45.828125 52.96875 
Q 50 49.953125 52 44.1875 
z
" id="DejaVuSans-109"/>
       <path d="M 30.609375 48.390625 
Q 23.390625 48.390625 19.1875 42.75 
Q 14.984375 37.109375 14.984375 27.296875 
Q 14.984375 17.484375 19.15625 11.84375 
Q 23.34375 6.203125 30.609375 6.203125 
Q 37.796875 6.203125 41.984375 11.859375 
Q 46.1875 17.53125 46.1875 27.296875 
Q 46.1875 37.015625 41.984375 42.703125 
Q 37.796875 48.390625 30.609375 48.390625 
z
M 30.609375 56 
Q 42.328125 56 49.015625 48.375 
Q 55.71875 40.765625 55.71875 27.296875 
Q 55.71875 13.875 49.015625 6.21875 
Q 42.328125 -1.421875 30.609375 -1.421875 
Q 18.84375 -1.421875 12.171875 6.21875 
Q 5.515625 13.875 5.515625 27.296875 
Q 5.515625 40.765625 12.171875 48.375 
Q 18.84375 56 30.609375 56 
z
" id="DejaVuSans-111"/>
       <path d="M 9.421875 75.984375 
L 18.40625 75.984375 
L 18.40625 0 
L 9.421875 0 
z
" id="DejaVuSans-108"/>
      </defs>
      <use xlink:href="#DejaVuSans-109"/>
      <use x="97.412109" xlink:href="#DejaVuSans-111"/>
      <use x="158.59375" xlink:href="#DejaVuSans-100"/>
      <use x="222.070312" xlink:href="#DejaVuSans-101"/>
      <use x="283.59375" xlink:href="#DejaVuSans-108"/>
     </g>
    </g>
    <g id="PathCollection_2">
     <g>
      <use style="fill:#1f77b4;stroke:#1f77b4;" x="154" xlink:href="#m17751204fc" y="301.295313"/>
     </g>
    </g>
    <g id="text_15">
     <!-- data -->
     <g transform="translate(172 303.920313)scale(0.1 -0.1)">
      <defs>
       <path d="M 34.28125 27.484375 
Q 23.390625 27.484375 19.1875 25 
Q 14.984375 22.515625 14.984375 16.5 
Q 14.984375 11.71875 18.140625 8.90625 
Q 21.296875 6.109375 26.703125 6.109375 
Q 34.1875 6.109375 38.703125 11.40625 
Q 43.21875 16.703125 43.21875 25.484375 
L 43.21875 27.484375 
z
M 52.203125 31.203125 
L 52.203125 0 
L 43.21875 0 
L 43.21875 8.296875 
Q 40.140625 3.328125 35.546875 0.953125 
Q 30.953125 -1.421875 24.3125 -1.421875 
Q 15.921875 -1.421875 10.953125 3.296875 
Q 6 8.015625 6 15.921875 
Q 6 25.140625 12.171875 29.828125 
Q 18.359375 34.515625 30.609375 34.515625 
L 43.21875 34.515625 
L 43.21875 35.40625 
Q 43.21875 41.609375 39.140625 45 
Q 35.0625 48.390625 27.6875 48.390625 
Q 23 48.390625 18.546875 47.265625 
Q 14.109375 46.140625 10.015625 43.890625 
L 10.015625 52.203125 
Q 14.9375 54.109375 19.578125 55.046875 
Q 24.21875 56 28.609375 56 
Q 40.484375 56 46.34375 49.84375 
Q 52.203125 43.703125 52.203125 31.203125 
z
" id="DejaVuSans-97"/>
      </defs>
      <use xlink:href="#DejaVuSans-100"/>
      <use x="63.476562" xlink:href="#DejaVuSans-97"/>
      <use x="124.755859" xlink:href="#DejaVuSans-116"/>
      <use x="163.964844" xlink:href="#DejaVuSans-97"/>
     </g>
    </g>
   </g>
  </g>
  <g id="axes_2">
   <g id="patch_8">
    <path d="M 430.411765 315 
L 676.588235 315 
L 676.588235 43.2 
L 430.411765 43.2 
z
" style="fill:none;"/>
   </g>
   <g id="PathCollection_3">
    <g clip-path="url(#pdfd46760fb)">
     <use style="fill:#1f77b4;stroke:#1f77b4;" x="441.601604" xlink:href="#m17751204fc" y="93.226936"/>
     <use style="fill:#1f77b4;stroke:#1f77b4;" x="447.339984" xlink:href="#m17751204fc" y="55.554545"/>
     <use style="fill:#1f77b4;stroke:#1f77b4;" x="453.078363" xlink:href="#m17751204fc" y="80.832378"/>
     <use style="fill:#1f77b4;stroke:#1f77b4;" x="458.816742" xlink:href="#m17751204fc" y="139.225416"/>
     <use style="fill:#1f77b4;stroke:#1f77b4;" x="464.555121" xlink:href="#m17751204fc" y="136.486912"/>
     <use style="fill:#1f77b4;stroke:#1f77b4;" x="470.293501" xlink:href="#m17751204fc" y="155.72721"/>
     <use style="fill:#1f77b4;stroke:#1f77b4;" x="476.03188" xlink:href="#m17751204fc" y="154.053422"/>
     <use style="fill:#1f77b4;stroke:#1f77b4;" x="481.770259" xlink:href="#m17751204fc" y="156.591537"/>
     <use style="fill:#1f77b4;stroke:#1f77b4;" x="487.508638" xlink:href="#m17751204fc" y="224.910647"/>
     <use style="fill:#1f77b4;stroke:#1f77b4;" x="493.247018" xlink:href="#m17751204fc" y="241.708168"/>
     <use style="fill:#1f77b4;stroke:#1f77b4;" x="498.985397" xlink:href="#m17751204fc" y="187.432027"/>
     <use style="fill:#1f77b4;stroke:#1f77b4;" x="504.723776" xlink:href="#m17751204fc" y="229.31287"/>
     <use style="fill:#1f77b4;stroke:#1f77b4;" x="510.462155" xlink:href="#m17751204fc" y="211.391493"/>
     <use style="fill:#1f77b4;stroke:#1f77b4;" x="516.200535" xlink:href="#m17751204fc" y="279.936184"/>
     <use style="fill:#1f77b4;stroke:#1f77b4;" x="521.938914" xlink:href="#m17751204fc" y="250.875856"/>
     <use style="fill:#1f77b4;stroke:#1f77b4;" x="527.677293" xlink:href="#m17751204fc" y="234.227579"/>
     <use style="fill:#1f77b4;stroke:#1f77b4;" x="533.415673" xlink:href="#m17751204fc" y="278.298176"/>
     <use style="fill:#1f77b4;stroke:#1f77b4;" x="539.154052" xlink:href="#m17751204fc" y="224.295688"/>
     <use style="fill:#1f77b4;stroke:#1f77b4;" x="544.892431" xlink:href="#m17751204fc" y="230.323441"/>
     <use style="fill:#1f77b4;stroke:#1f77b4;" x="550.63081" xlink:href="#m17751204fc" y="301.730846"/>
     <use style="fill:#1f77b4;stroke:#1f77b4;" x="556.36919" xlink:href="#m17751204fc" y="302.645455"/>
     <use style="fill:#1f77b4;stroke:#1f77b4;" x="562.107569" xlink:href="#m17751204fc" y="260.726999"/>
     <use style="fill:#1f77b4;stroke:#1f77b4;" x="567.845948" xlink:href="#m17751204fc" y="227.29551"/>
     <use style="fill:#1f77b4;stroke:#1f77b4;" x="573.584327" xlink:href="#m17751204fc" y="269.573441"/>
     <use style="fill:#1f77b4;stroke:#1f77b4;" x="579.322707" xlink:href="#m17751204fc" y="279.274489"/>
     <use style="fill:#1f77b4;stroke:#1f77b4;" x="585.061086" xlink:href="#m17751204fc" y="258.262373"/>
     <use style="fill:#1f77b4;stroke:#1f77b4;" x="590.799465" xlink:href="#m17751204fc" y="284.296084"/>
     <use style="fill:#1f77b4;stroke:#1f77b4;" x="596.537845" xlink:href="#m17751204fc" y="262.309993"/>
     <use style="fill:#1f77b4;stroke:#1f77b4;" x="602.276224" xlink:href="#m17751204fc" y="237.430557"/>
     <use style="fill:#1f77b4;stroke:#1f77b4;" x="608.014603" xlink:href="#m17751204fc" y="224.252218"/>
     <use style="fill:#1f77b4;stroke:#1f77b4;" x="613.752982" xlink:href="#m17751204fc" y="235.809351"/>
     <use style="fill:#1f77b4;stroke:#1f77b4;" x="619.491362" xlink:href="#m17751204fc" y="225.451913"/>
     <use style="fill:#1f77b4;stroke:#1f77b4;" x="625.229741" xlink:href="#m17751204fc" y="214.883172"/>
     <use style="fill:#1f77b4;stroke:#1f77b4;" x="630.96812" xlink:href="#m17751204fc" y="183.010071"/>
     <use style="fill:#1f77b4;stroke:#1f77b4;" x="636.706499" xlink:href="#m17751204fc" y="183.096108"/>
     <use style="fill:#1f77b4;stroke:#1f77b4;" x="642.444879" xlink:href="#m17751204fc" y="190.082984"/>
     <use style="fill:#1f77b4;stroke:#1f77b4;" x="648.183258" xlink:href="#m17751204fc" y="109.023018"/>
     <use style="fill:#1f77b4;stroke:#1f77b4;" x="653.921637" xlink:href="#m17751204fc" y="115.033145"/>
     <use style="fill:#1f77b4;stroke:#1f77b4;" x="659.660016" xlink:href="#m17751204fc" y="90.583628"/>
     <use style="fill:#1f77b4;stroke:#1f77b4;" x="665.398396" xlink:href="#m17751204fc" y="108.655518"/>
    </g>
   </g>
   <g id="matplotlib.axis_3">
    <g id="xtick_6">
     <g id="line2d_16">
      <g>
       <use style="stroke:#000000;stroke-width:0.8;" x="464.555121" xlink:href="#mf173ada601" y="315"/>
      </g>
     </g>
     <g id="text_16">
      <!-- −4 -->
      <g transform="translate(457.184028 329.598437)scale(0.1 -0.1)">
       <use xlink:href="#DejaVuSans-8722"/>
       <use x="83.789062" xlink:href="#DejaVuSans-52"/>
      </g>
     </g>
    </g>
    <g id="xtick_7">
     <g id="line2d_17">
      <g>
       <use style="stroke:#000000;stroke-width:0.8;" x="510.462155" xlink:href="#mf173ada601" y="315"/>
      </g>
     </g>
     <g id="text_17">
      <!-- −2 -->
      <g transform="translate(503.091062 329.598437)scale(0.1 -0.1)">
       <use xlink:href="#DejaVuSans-8722"/>
       <use x="83.789062" xlink:href="#DejaVuSans-50"/>
      </g>
     </g>
    </g>
    <g id="xtick_8">
     <g id="line2d_18">
      <g>
       <use style="stroke:#000000;stroke-width:0.8;" x="556.36919" xlink:href="#mf173ada601" y="315"/>
      </g>
     </g>
     <g id="text_18">
      <!-- 0 -->
      <g transform="translate(553.18794 329.598437)scale(0.1 -0.1)">
       <use xlink:href="#DejaVuSans-48"/>
      </g>
     </g>
    </g>
    <g id="xtick_9">
     <g id="line2d_19">
      <g>
       <use style="stroke:#000000;stroke-width:0.8;" x="602.276224" xlink:href="#mf173ada601" y="315"/>
      </g>
     </g>
     <g id="text_19">
      <!-- 2 -->
      <g transform="translate(599.094974 329.598437)scale(0.1 -0.1)">
       <use xlink:href="#DejaVuSans-50"/>
      </g>
     </g>
    </g>
    <g id="xtick_10">
     <g id="line2d_20">
      <g>
       <use style="stroke:#000000;stroke-width:0.8;" x="648.183258" xlink:href="#mf173ada601" y="315"/>
      </g>
     </g>
     <g id="text_20">
      <!-- 4 -->
      <g transform="translate(645.002008 329.598437)scale(0.1 -0.1)">
       <use xlink:href="#DejaVuSans-52"/>
      </g>
     </g>
    </g>
   </g>
   <g id="matplotlib.axis_4">
    <g id="ytick_8">
     <g id="line2d_21">
      <g>
       <use style="stroke:#000000;stroke-width:0.8;" x="430.411765" xlink:href="#m3a1e56d014" y="304.688"/>
      </g>
     </g>
     <g id="text_21">
      <!-- 0 -->
      <g transform="translate(417.049265 308.487219)scale(0.1 -0.1)">
       <use xlink:href="#DejaVuSans-48"/>
      </g>
     </g>
    </g>
    <g id="ytick_9">
     <g id="line2d_22">
      <g>
       <use style="stroke:#000000;stroke-width:0.8;" x="430.411765" xlink:href="#m3a1e56d014" y="264.552877"/>
      </g>
     </g>
     <g id="text_22">
      <!-- 5 -->
      <g transform="translate(417.049265 268.352096)scale(0.1 -0.1)">
       <use xlink:href="#DejaVuSans-53"/>
      </g>
     </g>
    </g>
    <g id="ytick_10">
     <g id="line2d_23">
      <g>
       <use style="stroke:#000000;stroke-width:0.8;" x="430.411765" xlink:href="#m3a1e56d014" y="224.417755"/>
      </g>
     </g>
     <g id="text_23">
      <!-- 10 -->
      <g transform="translate(410.686765 228.216974)scale(0.1 -0.1)">
       <use xlink:href="#DejaVuSans-49"/>
       <use x="63.623047" xlink:href="#DejaVuSans-48"/>
      </g>
     </g>
    </g>
    <g id="ytick_11">
     <g id="line2d_24">
      <g>
       <use style="stroke:#000000;stroke-width:0.8;" x="430.411765" xlink:href="#m3a1e56d014" y="184.282632"/>
      </g>
     </g>
     <g id="text_24">
      <!-- 15 -->
      <g transform="translate(410.686765 188.081851)scale(0.1 -0.1)">
       <use xlink:href="#DejaVuSans-49"/>
       <use x="63.623047" xlink:href="#DejaVuSans-53"/>
      </g>
     </g>
    </g>
    <g id="ytick_12">
     <g id="line2d_25">
      <g>
       <use style="stroke:#000000;stroke-width:0.8;" x="430.411765" xlink:href="#m3a1e56d014" y="144.14751"/>
      </g>
     </g>
     <g id="text_25">
      <!-- 20 -->
      <g transform="translate(410.686765 147.946728)scale(0.1 -0.1)">
       <use xlink:href="#DejaVuSans-50"/>
       <use x="63.623047" xlink:href="#DejaVuSans-48"/>
      </g>
     </g>
    </g>
    <g id="ytick_13">
     <g id="line2d_26">
      <g>
       <use style="stroke:#000000;stroke-width:0.8;" x="430.411765" xlink:href="#m3a1e56d014" y="104.012387"/>
      </g>
     </g>
     <g id="text_26">
      <!-- 25 -->
      <g transform="translate(410.686765 107.811606)scale(0.1 -0.1)">
       <use xlink:href="#DejaVuSans-50"/>
       <use x="63.623047" xlink:href="#DejaVuSans-53"/>
      </g>
     </g>
    </g>
    <g id="ytick_14">
     <g id="line2d_27">
      <g>
       <use style="stroke:#000000;stroke-width:0.8;" x="430.411765" xlink:href="#m3a1e56d014" y="63.877264"/>
      </g>
     </g>
     <g id="text_27">
      <!-- 30 -->
      <g transform="translate(410.686765 67.676483)scale(0.1 -0.1)">
       <use xlink:href="#DejaVuSans-51"/>
       <use x="63.623047" xlink:href="#DejaVuSans-48"/>
      </g>
     </g>
    </g>
   </g>
   <g id="line2d_28">
    <path clip-path="url(#pdfd46760fb)" d="M 441.601604 60.940577 
L 447.339984 81.161518 
L 453.078363 100.362002 
L 458.816742 118.542029 
L 464.555121 135.701598 
L 470.293501 151.840709 
L 476.03188 166.959363 
L 481.770259 181.05756 
L 487.508638 194.135299 
L 493.247018 206.19258 
L 498.985397 217.229404 
L 504.723776 227.245771 
L 510.462155 236.24168 
L 516.200535 244.217131 
L 521.938914 251.172125 
L 527.677293 257.106662 
L 533.415673 262.020741 
L 539.154052 265.914363 
L 544.892431 268.787527 
L 550.63081 270.640233 
L 556.36919 271.472482 
L 562.107569 271.284274 
L 567.845948 270.075608 
L 573.584327 267.846484 
L 579.322707 264.596903 
L 585.061086 260.326865 
L 590.799465 255.036369 
L 596.537845 248.725415 
L 602.276224 241.394004 
L 608.014603 233.042136 
L 613.752982 223.66981 
L 619.491362 213.277027 
L 625.229741 201.863786 
L 630.96812 189.430087 
L 636.706499 175.975931 
L 642.444879 161.501318 
L 648.183258 146.006247 
L 653.921637 129.490718 
L 659.660016 111.954732 
L 665.398396 93.398289 
" style="fill:none;stroke:#0000ff;stroke-linecap:square;stroke-width:1.5;"/>
   </g>
   <g id="patch_9">
    <path d="M 430.411765 315 
L 430.411765 43.2 
" style="fill:none;stroke:#000000;stroke-linecap:square;stroke-linejoin:miter;stroke-width:0.8;"/>
   </g>
   <g id="patch_10">
    <path d="M 676.588235 315 
L 676.588235 43.2 
" style="fill:none;stroke:#000000;stroke-linecap:square;stroke-linejoin:miter;stroke-width:0.8;"/>
   </g>
   <g id="patch_11">
    <path d="M 430.411765 315 
L 676.588235 315 
" style="fill:none;stroke:#000000;stroke-linecap:square;stroke-linejoin:miter;stroke-width:0.8;"/>
   </g>
   <g id="patch_12">
    <path d="M 430.411765 43.2 
L 676.588235 43.2 
" style="fill:none;stroke:#000000;stroke-linecap:square;stroke-linejoin:miter;stroke-width:0.8;"/>
   </g>
   <g id="text_28">
    <!-- Reasonable -->
    <g transform="translate(495.646875 37.2)scale(0.2 -0.2)">
     <defs>
      <path d="M 44.390625 34.1875 
Q 47.5625 33.109375 50.5625 29.59375 
Q 53.5625 26.078125 56.59375 19.921875 
L 66.609375 0 
L 56 0 
L 46.6875 18.703125 
Q 43.0625 26.03125 39.671875 28.421875 
Q 36.28125 30.8125 30.421875 30.8125 
L 19.671875 30.8125 
L 19.671875 0 
L 9.8125 0 
L 9.8125 72.90625 
L 32.078125 72.90625 
Q 44.578125 72.90625 50.734375 67.671875 
Q 56.890625 62.453125 56.890625 51.90625 
Q 56.890625 45.015625 53.6875 40.46875 
Q 50.484375 35.9375 44.390625 34.1875 
z
M 19.671875 64.796875 
L 19.671875 38.921875 
L 32.078125 38.921875 
Q 39.203125 38.921875 42.84375 42.21875 
Q 46.484375 45.515625 46.484375 51.90625 
Q 46.484375 58.296875 42.84375 61.546875 
Q 39.203125 64.796875 32.078125 64.796875 
z
" id="DejaVuSans-82"/>
      <path d="M 44.28125 53.078125 
L 44.28125 44.578125 
Q 40.484375 46.53125 36.375 47.5 
Q 32.28125 48.484375 27.875 48.484375 
Q 21.1875 48.484375 17.84375 46.4375 
Q 14.5 44.390625 14.5 40.28125 
Q 14.5 37.15625 16.890625 35.375 
Q 19.28125 33.59375 26.515625 31.984375 
L 29.59375 31.296875 
Q 39.15625 29.25 43.1875 25.515625 
Q 47.21875 21.78125 47.21875 15.09375 
Q 47.21875 7.46875 41.1875 3.015625 
Q 35.15625 -1.421875 24.609375 -1.421875 
Q 20.21875 -1.421875 15.453125 -0.5625 
Q 10.6875 0.296875 5.421875 2 
L 5.421875 11.28125 
Q 10.40625 8.6875 15.234375 7.390625 
Q 20.0625 6.109375 24.8125 6.109375 
Q 31.15625 6.109375 34.5625 8.28125 
Q 37.984375 10.453125 37.984375 14.40625 
Q 37.984375 18.0625 35.515625 20.015625 
Q 33.0625 21.96875 24.703125 23.78125 
L 21.578125 24.515625 
Q 13.234375 26.265625 9.515625 29.90625 
Q 5.8125 33.546875 5.8125 39.890625 
Q 5.8125 47.609375 11.28125 51.796875 
Q 16.75 56 26.8125 56 
Q 31.78125 56 36.171875 55.265625 
Q 40.578125 54.546875 44.28125 53.078125 
z
" id="DejaVuSans-115"/>
      <path d="M 48.6875 27.296875 
Q 48.6875 37.203125 44.609375 42.84375 
Q 40.53125 48.484375 33.40625 48.484375 
Q 26.265625 48.484375 22.1875 42.84375 
Q 18.109375 37.203125 18.109375 27.296875 
Q 18.109375 17.390625 22.1875 11.75 
Q 26.265625 6.109375 33.40625 6.109375 
Q 40.53125 6.109375 44.609375 11.75 
Q 48.6875 17.390625 48.6875 27.296875 
z
M 18.109375 46.390625 
Q 20.953125 51.265625 25.265625 53.625 
Q 29.59375 56 35.59375 56 
Q 45.5625 56 51.78125 48.09375 
Q 58.015625 40.1875 58.015625 27.296875 
Q 58.015625 14.40625 51.78125 6.484375 
Q 45.5625 -1.421875 35.59375 -1.421875 
Q 29.59375 -1.421875 25.265625 0.953125 
Q 20.953125 3.328125 18.109375 8.203125 
L 18.109375 0 
L 9.078125 0 
L 9.078125 75.984375 
L 18.109375 75.984375 
z
" id="DejaVuSans-98"/>
     </defs>
     <use xlink:href="#DejaVuSans-82"/>
     <use x="64.982422" xlink:href="#DejaVuSans-101"/>
     <use x="126.505859" xlink:href="#DejaVuSans-97"/>
     <use x="187.785156" xlink:href="#DejaVuSans-115"/>
     <use x="239.884766" xlink:href="#DejaVuSans-111"/>
     <use x="301.066406" xlink:href="#DejaVuSans-110"/>
     <use x="364.445312" xlink:href="#DejaVuSans-97"/>
     <use x="425.724609" xlink:href="#DejaVuSans-98"/>
     <use x="489.201172" xlink:href="#DejaVuSans-108"/>
     <use x="516.984375" xlink:href="#DejaVuSans-101"/>
    </g>
   </g>
   <g id="legend_2">
    <g id="patch_13">
     <path d="M 437.411765 310 
L 500.550827 310 
Q 502.550827 310 502.550827 308 
L 502.550827 279.64375 
Q 502.550827 277.64375 500.550827 277.64375 
L 437.411765 277.64375 
Q 435.411765 277.64375 435.411765 279.64375 
L 435.411765 308 
Q 435.411765 310 437.411765 310 
z
" style="fill:#ffffff;opacity:0.8;stroke:#cccccc;stroke-linejoin:miter;"/>
    </g>
    <g id="line2d_29">
     <path d="M 439.411765 285.742188 
L 459.411765 285.742188 
" style="fill:none;stroke:#0000ff;stroke-linecap:square;stroke-width:1.5;"/>
    </g>
    <g id="line2d_30"/>
    <g id="text_29">
     <!-- model -->
     <g transform="translate(467.411765 289.242188)scale(0.1 -0.1)">
      <use xlink:href="#DejaVuSans-109"/>
      <use x="97.412109" xlink:href="#DejaVuSans-111"/>
      <use x="158.59375" xlink:href="#DejaVuSans-100"/>
      <use x="222.070312" xlink:href="#DejaVuSans-101"/>
      <use x="283.59375" xlink:href="#DejaVuSans-108"/>
     </g>
    </g>
    <g id="PathCollection_4">
     <g>
      <use style="fill:#1f77b4;stroke:#1f77b4;" x="449.411765" xlink:href="#m17751204fc" y="301.295313"/>
     </g>
    </g>
    <g id="text_30">
     <!-- data -->
     <g transform="translate(467.411765 303.920313)scale(0.1 -0.1)">
      <use xlink:href="#DejaVuSans-100"/>
      <use x="63.476562" xlink:href="#DejaVuSans-97"/>
      <use x="124.755859" xlink:href="#DejaVuSans-116"/>
      <use x="163.964844" xlink:href="#DejaVuSans-97"/>
     </g>
    </g>
   </g>
  </g>
  <g id="axes_3">
   <g id="patch_14">
    <path d="M 725.823529 315 
L 972 315 
L 972 43.2 
L 725.823529 43.2 
z
" style="fill:none;"/>
   </g>
   <g id="PathCollection_5">
    <g clip-path="url(#p3281528758)">
     <use style="fill:#1f77b4;stroke:#1f77b4;" x="737.013369" xlink:href="#m17751204fc" y="97.160292"/>
     <use style="fill:#1f77b4;stroke:#1f77b4;" x="742.751748" xlink:href="#m17751204fc" y="60.195475"/>
     <use style="fill:#1f77b4;stroke:#1f77b4;" x="748.490128" xlink:href="#m17751204fc" y="84.998532"/>
     <use style="fill:#1f77b4;stroke:#1f77b4;" x="754.228507" xlink:href="#m17751204fc" y="142.294816"/>
     <use style="fill:#1f77b4;stroke:#1f77b4;" x="759.966886" xlink:href="#m17751204fc" y="139.607747"/>
     <use style="fill:#1f77b4;stroke:#1f77b4;" x="765.705265" xlink:href="#m17751204fc" y="158.486669"/>
     <use style="fill:#1f77b4;stroke:#1f77b4;" x="771.443645" xlink:href="#m17751204fc" y="156.844318"/>
     <use style="fill:#1f77b4;stroke:#1f77b4;" x="777.182024" xlink:href="#m17751204fc" y="159.334762"/>
     <use style="fill:#1f77b4;stroke:#1f77b4;" x="782.920403" xlink:href="#m17751204fc" y="226.370684"/>
     <use style="fill:#1f77b4;stroke:#1f77b4;" x="788.658782" xlink:href="#m17751204fc" y="242.852709"/>
     <use style="fill:#1f77b4;stroke:#1f77b4;" x="794.397162" xlink:href="#m17751204fc" y="189.595997"/>
     <use style="fill:#1f77b4;stroke:#1f77b4;" x="800.135541" xlink:href="#m17751204fc" y="230.690222"/>
     <use style="fill:#1f77b4;stroke:#1f77b4;" x="805.87392" xlink:href="#m17751204fc" y="213.10545"/>
     <use style="fill:#1f77b4;stroke:#1f77b4;" x="811.612299" xlink:href="#m17751204fc" y="280.362716"/>
     <use style="fill:#1f77b4;stroke:#1f77b4;" x="817.350679" xlink:href="#m17751204fc" y="251.848206"/>
     <use style="fill:#1f77b4;stroke:#1f77b4;" x="823.089058" xlink:href="#m17751204fc" y="235.512622"/>
     <use style="fill:#1f77b4;stroke:#1f77b4;" x="828.827437" xlink:href="#m17751204fc" y="278.755473"/>
     <use style="fill:#1f77b4;stroke:#1f77b4;" x="834.565817" xlink:href="#m17751204fc" y="225.767275"/>
     <use style="fill:#1f77b4;stroke:#1f77b4;" x="840.304196" xlink:href="#m17751204fc" y="231.681813"/>
     <use style="fill:#1f77b4;stroke:#1f77b4;" x="846.042575" xlink:href="#m17751204fc" y="301.748024"/>
     <use style="fill:#1f77b4;stroke:#1f77b4;" x="851.780954" xlink:href="#m17751204fc" y="302.645455"/>
     <use style="fill:#1f77b4;stroke:#1f77b4;" x="857.519334" xlink:href="#m17751204fc" y="261.514323"/>
     <use style="fill:#1f77b4;stroke:#1f77b4;" x="863.257713" xlink:href="#m17751204fc" y="228.710754"/>
     <use style="fill:#1f77b4;stroke:#1f77b4;" x="868.996092" xlink:href="#m17751204fc" y="270.194609"/>
     <use style="fill:#1f77b4;stroke:#1f77b4;" x="874.734471" xlink:href="#m17751204fc" y="279.713449"/>
     <use style="fill:#1f77b4;stroke:#1f77b4;" x="880.472851" xlink:href="#m17751204fc" y="259.095988"/>
     <use style="fill:#1f77b4;stroke:#1f77b4;" x="886.21123" xlink:href="#m17751204fc" y="284.640727"/>
     <use style="fill:#1f77b4;stroke:#1f77b4;" x="891.949609" xlink:href="#m17751204fc" y="263.067585"/>
     <use style="fill:#1f77b4;stroke:#1f77b4;" x="897.687988" xlink:href="#m17751204fc" y="238.655442"/>
     <use style="fill:#1f77b4;stroke:#1f77b4;" x="903.426368" xlink:href="#m17751204fc" y="225.724621"/>
     <use style="fill:#1f77b4;stroke:#1f77b4;" x="909.164747" xlink:href="#m17751204fc" y="237.064685"/>
     <use style="fill:#1f77b4;stroke:#1f77b4;" x="914.903126" xlink:href="#m17751204fc" y="226.901783"/>
     <use style="fill:#1f77b4;stroke:#1f77b4;" x="920.641506" xlink:href="#m17751204fc" y="216.531547"/>
     <use style="fill:#1f77b4;stroke:#1f77b4;" x="926.379885" xlink:href="#m17751204fc" y="185.257095"/>
     <use style="fill:#1f77b4;stroke:#1f77b4;" x="932.118264" xlink:href="#m17751204fc" y="185.341517"/>
     <use style="fill:#1f77b4;stroke:#1f77b4;" x="937.856643" xlink:href="#m17751204fc" y="192.197163"/>
     <use style="fill:#1f77b4;stroke:#1f77b4;" x="943.595023" xlink:href="#m17751204fc" y="112.659688"/>
     <use style="fill:#1f77b4;stroke:#1f77b4;" x="949.333402" xlink:href="#m17751204fc" y="118.556931"/>
     <use style="fill:#1f77b4;stroke:#1f77b4;" x="955.071781" xlink:href="#m17751204fc" y="94.566631"/>
     <use style="fill:#1f77b4;stroke:#1f77b4;" x="960.81016" xlink:href="#m17751204fc" y="112.29909"/>
    </g>
   </g>
   <g id="matplotlib.axis_5">
    <g id="xtick_11">
     <g id="line2d_31">
      <g>
       <use style="stroke:#000000;stroke-width:0.8;" x="759.966886" xlink:href="#mf173ada601" y="315"/>
      </g>
     </g>
     <g id="text_31">
      <!-- −4 -->
      <g transform="translate(752.595792 329.598437)scale(0.1 -0.1)">
       <use xlink:href="#DejaVuSans-8722"/>
       <use x="83.789062" xlink:href="#DejaVuSans-52"/>
      </g>
     </g>
    </g>
    <g id="xtick_12">
     <g id="line2d_32">
      <g>
       <use style="stroke:#000000;stroke-width:0.8;" x="805.87392" xlink:href="#mf173ada601" y="315"/>
      </g>
     </g>
     <g id="text_32">
      <!-- −2 -->
      <g transform="translate(798.502826 329.598437)scale(0.1 -0.1)">
       <use xlink:href="#DejaVuSans-8722"/>
       <use x="83.789062" xlink:href="#DejaVuSans-50"/>
      </g>
     </g>
    </g>
    <g id="xtick_13">
     <g id="line2d_33">
      <g>
       <use style="stroke:#000000;stroke-width:0.8;" x="851.780954" xlink:href="#mf173ada601" y="315"/>
      </g>
     </g>
     <g id="text_33">
      <!-- 0 -->
      <g transform="translate(848.599704 329.598437)scale(0.1 -0.1)">
       <use xlink:href="#DejaVuSans-48"/>
      </g>
     </g>
    </g>
    <g id="xtick_14">
     <g id="line2d_34">
      <g>
       <use style="stroke:#000000;stroke-width:0.8;" x="897.687988" xlink:href="#mf173ada601" y="315"/>
      </g>
     </g>
     <g id="text_34">
      <!-- 2 -->
      <g transform="translate(894.506738 329.598437)scale(0.1 -0.1)">
       <use xlink:href="#DejaVuSans-50"/>
      </g>
     </g>
    </g>
    <g id="xtick_15">
     <g id="line2d_35">
      <g>
       <use style="stroke:#000000;stroke-width:0.8;" x="943.595023" xlink:href="#mf173ada601" y="315"/>
      </g>
     </g>
     <g id="text_35">
      <!-- 4 -->
      <g transform="translate(940.413773 329.598437)scale(0.1 -0.1)">
       <use xlink:href="#DejaVuSans-52"/>
      </g>
     </g>
    </g>
   </g>
   <g id="matplotlib.axis_6">
    <g id="ytick_15">
     <g id="line2d_36">
      <g>
       <use style="stroke:#000000;stroke-width:0.8;" x="725.823529" xlink:href="#m3a1e56d014" y="304.649636"/>
      </g>
     </g>
     <g id="text_36">
      <!-- 0 -->
      <g transform="translate(712.461029 308.448855)scale(0.1 -0.1)">
       <use xlink:href="#DejaVuSans-48"/>
      </g>
     </g>
    </g>
    <g id="ytick_16">
     <g id="line2d_37">
      <g>
       <use style="stroke:#000000;stroke-width:0.8;" x="725.823529" xlink:href="#m3a1e56d014" y="265.268343"/>
      </g>
     </g>
     <g id="text_37">
      <!-- 5 -->
      <g transform="translate(712.461029 269.067561)scale(0.1 -0.1)">
       <use xlink:href="#DejaVuSans-53"/>
      </g>
     </g>
    </g>
    <g id="ytick_17">
     <g id="line2d_38">
      <g>
       <use style="stroke:#000000;stroke-width:0.8;" x="725.823529" xlink:href="#m3a1e56d014" y="225.887049"/>
      </g>
     </g>
     <g id="text_38">
      <!-- 10 -->
      <g transform="translate(706.098529 229.686268)scale(0.1 -0.1)">
       <use xlink:href="#DejaVuSans-49"/>
       <use x="63.623047" xlink:href="#DejaVuSans-48"/>
      </g>
     </g>
    </g>
    <g id="ytick_18">
     <g id="line2d_39">
      <g>
       <use style="stroke:#000000;stroke-width:0.8;" x="725.823529" xlink:href="#m3a1e56d014" y="186.505755"/>
      </g>
     </g>
     <g id="text_39">
      <!-- 15 -->
      <g transform="translate(706.098529 190.304974)scale(0.1 -0.1)">
       <use xlink:href="#DejaVuSans-49"/>
       <use x="63.623047" xlink:href="#DejaVuSans-53"/>
      </g>
     </g>
    </g>
    <g id="ytick_19">
     <g id="line2d_40">
      <g>
       <use style="stroke:#000000;stroke-width:0.8;" x="725.823529" xlink:href="#m3a1e56d014" y="147.124462"/>
      </g>
     </g>
     <g id="text_40">
      <!-- 20 -->
      <g transform="translate(706.098529 150.92368)scale(0.1 -0.1)">
       <use xlink:href="#DejaVuSans-50"/>
       <use x="63.623047" xlink:href="#DejaVuSans-48"/>
      </g>
     </g>
    </g>
    <g id="ytick_20">
     <g id="line2d_41">
      <g>
       <use style="stroke:#000000;stroke-width:0.8;" x="725.823529" xlink:href="#m3a1e56d014" y="107.743168"/>
      </g>
     </g>
     <g id="text_41">
      <!-- 25 -->
      <g transform="translate(706.098529 111.542387)scale(0.1 -0.1)">
       <use xlink:href="#DejaVuSans-50"/>
       <use x="63.623047" xlink:href="#DejaVuSans-53"/>
      </g>
     </g>
    </g>
    <g id="ytick_21">
     <g id="line2d_42">
      <g>
       <use style="stroke:#000000;stroke-width:0.8;" x="725.823529" xlink:href="#m3a1e56d014" y="68.361874"/>
      </g>
     </g>
     <g id="text_42">
      <!-- 30 -->
      <g transform="translate(706.098529 72.161093)scale(0.1 -0.1)">
       <use xlink:href="#DejaVuSans-51"/>
       <use x="63.623047" xlink:href="#DejaVuSans-48"/>
      </g>
     </g>
    </g>
   </g>
   <g id="line2d_43">
    <path clip-path="url(#p3281528758)" d="M 737.013369 97.813152 
L 742.751748 55.554545 
L 748.490128 97.16022 
L 754.228507 129.326373 
L 759.966886 143.822813 
L 765.705265 152.659865 
L 771.443645 164.610832 
L 777.182024 181.093931 
L 782.920403 199.05997 
L 788.658782 214.770937 
L 794.397162 226.116846 
L 800.135541 233.151304 
L 805.87392 237.418854 
L 811.612299 240.848272 
L 817.350679 244.824623 
L 823.089058 249.756489 
L 828.827437 255.16748 
L 834.565817 260.140596 
L 840.304196 263.857565 
L 846.042575 265.994543 
L 851.780954 266.829818 
L 857.519334 267.047068 
L 863.257713 267.337176 
L 868.996092 267.977967 
L 874.734471 268.582923 
L 880.472851 268.152569 
L 886.21123 265.449214 
L 891.949609 259.577585 
L 897.687988 250.533349 
L 903.426368 239.427097 
L 909.164747 228.146527 
L 914.903126 218.409707 
L 920.641506 210.477438 
L 926.379885 202.167076 
L 932.118264 189.097624 
L 937.856643 167.041948 
L 943.595023 136.470717 
L 949.333402 107.270686 
L 955.071781 97.414468 
L 960.81016 111.992183 
" style="fill:none;stroke:#0000ff;stroke-linecap:square;stroke-width:1.5;"/>
   </g>
   <g id="patch_15">
    <path d="M 725.823529 315 
L 725.823529 43.2 
" style="fill:none;stroke:#000000;stroke-linecap:square;stroke-linejoin:miter;stroke-width:0.8;"/>
   </g>
   <g id="patch_16">
    <path d="M 972 315 
L 972 43.2 
" style="fill:none;stroke:#000000;stroke-linecap:square;stroke-linejoin:miter;stroke-width:0.8;"/>
   </g>
   <g id="patch_17">
    <path d="M 725.823529 315 
L 972 315 
" style="fill:none;stroke:#000000;stroke-linecap:square;stroke-linejoin:miter;stroke-width:0.8;"/>
   </g>
   <g id="patch_18">
    <path d="M 725.823529 43.2 
L 972 43.2 
" style="fill:none;stroke:#000000;stroke-linecap:square;stroke-linejoin:miter;stroke-width:0.8;"/>
   </g>
   <g id="text_43">
    <!-- Overfitting -->
    <g transform="translate(795.253952 37.2)scale(0.2 -0.2)">
     <defs>
      <path d="M 39.40625 66.21875 
Q 28.65625 66.21875 22.328125 58.203125 
Q 16.015625 50.203125 16.015625 36.375 
Q 16.015625 22.609375 22.328125 14.59375 
Q 28.65625 6.59375 39.40625 6.59375 
Q 50.140625 6.59375 56.421875 14.59375 
Q 62.703125 22.609375 62.703125 36.375 
Q 62.703125 50.203125 56.421875 58.203125 
Q 50.140625 66.21875 39.40625 66.21875 
z
M 39.40625 74.21875 
Q 54.734375 74.21875 63.90625 63.9375 
Q 73.09375 53.65625 73.09375 36.375 
Q 73.09375 19.140625 63.90625 8.859375 
Q 54.734375 -1.421875 39.40625 -1.421875 
Q 24.03125 -1.421875 14.8125 8.828125 
Q 5.609375 19.09375 5.609375 36.375 
Q 5.609375 53.65625 14.8125 63.9375 
Q 24.03125 74.21875 39.40625 74.21875 
z
" id="DejaVuSans-79"/>
      <path d="M 2.984375 54.6875 
L 12.5 54.6875 
L 29.59375 8.796875 
L 46.6875 54.6875 
L 56.203125 54.6875 
L 35.6875 0 
L 23.484375 0 
z
" id="DejaVuSans-118"/>
     </defs>
     <use xlink:href="#DejaVuSans-79"/>
     <use x="78.710938" xlink:href="#DejaVuSans-118"/>
     <use x="137.890625" xlink:href="#DejaVuSans-101"/>
     <use x="199.414062" xlink:href="#DejaVuSans-114"/>
     <use x="240.527344" xlink:href="#DejaVuSans-102"/>
     <use x="275.732422" xlink:href="#DejaVuSans-105"/>
     <use x="303.515625" xlink:href="#DejaVuSans-116"/>
     <use x="342.724609" xlink:href="#DejaVuSans-116"/>
     <use x="381.933594" xlink:href="#DejaVuSans-105"/>
     <use x="409.716797" xlink:href="#DejaVuSans-110"/>
     <use x="473.095703" xlink:href="#DejaVuSans-103"/>
    </g>
   </g>
   <g id="legend_3">
    <g id="patch_19">
     <path d="M 732.823529 310 
L 795.962592 310 
Q 797.962592 310 797.962592 308 
L 797.962592 279.64375 
Q 797.962592 277.64375 795.962592 277.64375 
L 732.823529 277.64375 
Q 730.823529 277.64375 730.823529 279.64375 
L 730.823529 308 
Q 730.823529 310 732.823529 310 
z
" style="fill:#ffffff;opacity:0.8;stroke:#cccccc;stroke-linejoin:miter;"/>
    </g>
    <g id="line2d_44">
     <path d="M 734.823529 285.742188 
L 754.823529 285.742188 
" style="fill:none;stroke:#0000ff;stroke-linecap:square;stroke-width:1.5;"/>
    </g>
    <g id="line2d_45"/>
    <g id="text_44">
     <!-- model -->
     <g transform="translate(762.823529 289.242188)scale(0.1 -0.1)">
      <use xlink:href="#DejaVuSans-109"/>
      <use x="97.412109" xlink:href="#DejaVuSans-111"/>
      <use x="158.59375" xlink:href="#DejaVuSans-100"/>
      <use x="222.070312" xlink:href="#DejaVuSans-101"/>
      <use x="283.59375" xlink:href="#DejaVuSans-108"/>
     </g>
    </g>
    <g id="PathCollection_6">
     <g>
      <use style="fill:#1f77b4;stroke:#1f77b4;" x="744.823529" xlink:href="#m17751204fc" y="301.295313"/>
     </g>
    </g>
    <g id="text_45">
     <!-- data -->
     <g transform="translate(762.823529 303.920313)scale(0.1 -0.1)">
      <use xlink:href="#DejaVuSans-100"/>
      <use x="63.476562" xlink:href="#DejaVuSans-97"/>
      <use x="124.755859" xlink:href="#DejaVuSans-116"/>
      <use x="163.964844" xlink:href="#DejaVuSans-97"/>
     </g>
    </g>
   </g>
  </g>
 </g>
 <defs>
  <clipPath id="p9ab6dc29b4">
   <rect height="271.8" width="246.176471" x="135" y="43.2"/>
  </clipPath>
  <clipPath id="pdfd46760fb">
   <rect height="271.8" width="246.176471" x="430.411765" y="43.2"/>
  </clipPath>
  <clipPath id="p3281528758">
   <rect height="271.8" width="246.176471" x="725.823529" y="43.2"/>
  </clipPath>
 </defs>
</svg>
