<?xml version="1.0" encoding="UTF-8" standalone="no"?>
<!-- Created with Inkscape (http://www.inkscape.org/) -->

<svg
   xml:space="preserve"
   sodipodi:docname="drawing.svg"
   inkscape:version="1.2 (dc2aedaf03, 2022-05-15)"
   id="svg5"
   version="1.1"
   viewBox="0 0 157.94302 21"
   height="21mm"
   width="157.94302mm"
   inkscape:export-filename="..\Users\Sourish\Desktop\drawing.png"
   inkscape:export-xdpi="96"
   inkscape:export-ydpi="96"
   xmlns:inkscape="http://www.inkscape.org/namespaces/inkscape"
   xmlns:sodipodi="http://sodipodi.sourceforge.net/DTD/sodipodi-0.dtd"
   xmlns="http://www.w3.org/2000/svg"
   xmlns:svg="http://www.w3.org/2000/svg"><sodipodi:namedview
     id="namedview7"
     pagecolor="#505050"
     bordercolor="#eeeeee"
     borderopacity="1"
     inkscape:pageshadow="0"
     inkscape:pageopacity="0"
     inkscape:pagecheckerboard="0"
     inkscape:document-units="mm"
     showgrid="false"
     inkscape:zoom="2.4585419"
     inkscape:cx="315.22749"
     inkscape:cy="553.37678"
     inkscape:window-width="3840"
     inkscape:window-height="2054"
     inkscape:window-x="-11"
     inkscape:window-y="-11"
     inkscape:window-maximized="1"
     inkscape:current-layer="layer1"
     inkscape:showpageshadow="0"
     inkscape:deskcolor="#505050"
     showguides="true" /><defs
     id="defs2"><marker
       style="overflow:visible"
       id="TriangleStart-7-8-0-0"
       refX="2"
       refY="0"
       orient="auto-start-reverse"
       inkscape:stockid="TriangleStart"
       markerWidth="2"
       markerHeight="2"
       viewBox="0 0 5.3244081 6.1553851"
       inkscape:isstock="true"
       inkscape:collect="always"
       preserveAspectRatio="none"
       markerUnits="userSpaceOnUse"><path
         transform="scale(0.5)"
         style="fill:context-stroke;fill-rule:evenodd;stroke:context-stroke;stroke-width:1pt"
         d="M 5.77,0 -2.88,5 V -5 Z"
         id="path135-3-6-0-6" /></marker></defs><g
     inkscape:label="Layer 1"
     inkscape:groupmode="layer"
     id="layer1"
     style="display:inline"
     transform="translate(-34.329285,-129.93095)"><path
       id="circle9559-6-7-9"
       style="display:inline;fill:#f9f9f9;stroke:#000000;stroke-width:1;stroke-linecap:square;stroke-dasharray:none;stroke-opacity:1"
       d="m 54.829283,140.43094 c 0,5.52285 -4.47715,10 -10,10 -5.52285,0 -10,-4.47715 -10,-10 0,-5.52285 4.47715,-10 10,-10 5.52285,0 10,4.47715 10,10 z"
       sodipodi:nodetypes="sssss"
       inkscape:export-filename="..\Users\Sourish\Documents\sourish07.github.io\jekyll\assets\images\nn\WeightedSum.svg"
       inkscape:export-xdpi="96"
       inkscape:export-ydpi="96" /><g
       fill="#000000"
       fill-opacity="1"
       id="id-47cc66c1-63e4-494d-9128-e6712567c53b"
       transform="matrix(1.05833,0,0,1.05833,-100.6524,0.44265183)">
    <g
   transform="translate(148.712,134.765)"
   id="g1525"><path
   d="m 6.84375,-3.265625 c 0.15625,0 0.34375,0 0.34375,-0.1875 C 7.1875,-3.65625 7,-3.65625 6.859375,-3.65625 h -5.96875 c -0.140625,0 -0.328125,0 -0.328125,0.203125 0,0.1875 0.1875,0.1875 0.328125,0.1875 z m 0.015625,1.9375 c 0.140625,0 0.328125,0 0.328125,-0.203125 0,-0.1875 -0.1875,-0.1875 -0.34375,-0.1875 H 0.890625 c -0.140625,0 -0.328125,0 -0.328125,0.1875 0,0.203125 0.1875,0.203125 0.328125,0.203125 z m 0,0"
   id="id-6f661035-b756-4be3-a437-eda406bf528d" />
      </g></g><g
       fill="#000000"
       fill-opacity="1"
       id="id-173655dd-e522-41c7-a2ff-58d3327fb6bd"
       transform="matrix(1.05833,0,0,1.05833,-53.802011,0.44265183)">
    <g
   transform="translate(181.081,134.765)"
   id="g1542"><path
   d="m 4.078125,-2.296875 h 2.78125 C 7,-2.296875 7.1875,-2.296875 7.1875,-2.5 7.1875,-2.6875 7,-2.6875 6.859375,-2.6875 h -2.78125 v -2.796875 c 0,-0.140625 0,-0.328125 -0.203125,-0.328125 -0.203125,0 -0.203125,0.1875 -0.203125,0.328125 V -2.6875 h -2.78125 c -0.140625,0 -0.328125,0 -0.328125,0.1875 0,0.203125 0.1875,0.203125 0.328125,0.203125 h 2.78125 V 0.5 c 0,0.140625 0,0.328125 0.203125,0.328125 0.203125,0 0.203125,-0.1875 0.203125,-0.328125 z m 0,0"
   id="id-a5bad15b-8629-4621-b6dc-3ea3fcb06d8a" />
      </g></g><path
       style="display:inline;fill:#800080;fill-rule:evenodd;stroke:#333333;stroke-width:0.25;stroke-linecap:square;stroke-linejoin:miter;stroke-miterlimit:4;stroke-dasharray:none;stroke-dashoffset:0;stroke-opacity:1;marker-end:url(#TriangleStart-7-8-0-0)"
       d="M 66.517496,147.50201 80.659632,133.35987"
       id="path5280-1-3-0"
       sodipodi:nodetypes="cc" /><g
       id="g2125"
       transform="translate(15.625208,19.909328)"
       inkscape:export-filename="..\Users\Sourish\Desktop\g2125.svg"
       inkscape:export-xdpi="96"
       inkscape:export-ydpi="96"><path
         id="circle9559-6-1-7"
         style="display:inline;fill:#ff0000;stroke:#000000;stroke-width:1;stroke-linecap:square;stroke-dasharray:none;stroke-opacity:1"
         d="m 96.722637,120.52161 c 0,5.52285 -4.477153,10 -10,10 -5.522847,0 -10,-4.47715 -10,-10 0,-5.52285 4.477153,-10 10,-10 5.522847,0 10,4.47715 10,10 z"
         sodipodi:nodetypes="sssss" /><g
         fill="#000000"
         fill-opacity="1"
         id="id-b6197d9f-2d71-460b-9922-fe4e4dca8ccb"
         transform="matrix(1.05833,0,0,1.05833,-71.433869,-19.466676)">
    <g
   transform="translate(159.782,134.765)"
   id="g1529"><path
   d="M 3.875,-2.765625 1.890625,-4.75 C 1.765625,-4.875 1.75,-4.890625 1.671875,-4.890625 1.5625,-4.890625 1.46875,-4.8125 1.46875,-4.6875 c 0,0.0625 0.015625,0.078125 0.125,0.1875 l 2,2 -2,2.015625 c -0.109375,0.109375 -0.125,0.125 -0.125,0.1875 0,0.125 0.09375,0.203125 0.203125,0.203125 0.078125,0 0.09375,-0.015625 0.21875,-0.140625 L 3.875,-2.21875 l 2.0625,2.0625 c 0.015625,0.015625 0.078125,0.0625 0.140625,0.0625 0.125,0 0.203125,-0.078125 0.203125,-0.203125 0,-0.015625 0,-0.046875 -0.03125,-0.109375 C 6.234375,-0.421875 4.65625,-1.984375 4.15625,-2.5 l 1.828125,-1.8125 c 0.046875,-0.0625 0.203125,-0.1875 0.25,-0.25 0,-0.015625 0.046875,-0.0625 0.046875,-0.125 0,-0.125 -0.078125,-0.203125 -0.203125,-0.203125 C 6,-4.890625 5.96875,-4.859375 5.859375,-4.75 Z m 0,0"
   id="id-eda9a749-6a34-43a6-8a91-d2f9ed375010" />
      </g></g><path
         style="display:inline;fill:#800080;fill-rule:evenodd;stroke:#ff0000;stroke-width:0.25;stroke-linecap:square;stroke-linejoin:miter;stroke-miterlimit:4;stroke-dasharray:none;stroke-dashoffset:0;stroke-opacity:1;marker-end:url(#TriangleStart-7-8-0-0)"
         d="m 106.49263,127.59268 14.14214,-14.14214"
         id="path1935"
         sodipodi:nodetypes="cc" /></g><path
       id="circle9559-6-2-5"
       style="display:inline;fill:#0000ff;stroke:#000000;stroke-width:1;stroke-linecap:square;stroke-dasharray:none;stroke-opacity:1"
       d="m 167.94819,140.43094 c 0,5.52285 -4.47715,10 -10,10 -5.52285,0 -10,-4.47715 -10,-10 0,-5.52285 4.47715,-10 10,-10 5.52285,0 10,4.47715 10,10 z"
       sodipodi:nodetypes="sssss" /><path
       style="display:inline;fill:#800080;fill-rule:evenodd;stroke:#0000ff;stroke-width:0.25;stroke-linecap:square;stroke-linejoin:miter;stroke-miterlimit:4;stroke-dasharray:none;stroke-dashoffset:0;stroke-opacity:1;marker-end:url(#TriangleStart-7-8-0-0)"
       d="m 177.71818,147.50201 14.14214,-14.14214"
       id="path2112"
       sodipodi:nodetypes="cc" /><g
       fill="#000000"
       fill-opacity="1"
       id="g2118"
       transform="matrix(1.05833,0,0,1.05833,-0.20831305,0.44264883)">
    <g
   transform="translate(159.782,134.765)"
   id="g2116"><path
   d="M 3.875,-2.765625 1.890625,-4.75 C 1.765625,-4.875 1.75,-4.890625 1.671875,-4.890625 1.5625,-4.890625 1.46875,-4.8125 1.46875,-4.6875 c 0,0.0625 0.015625,0.078125 0.125,0.1875 l 2,2 -2,2.015625 c -0.109375,0.109375 -0.125,0.125 -0.125,0.1875 0,0.125 0.09375,0.203125 0.203125,0.203125 0.078125,0 0.09375,-0.015625 0.21875,-0.140625 L 3.875,-2.21875 l 2.0625,2.0625 c 0.015625,0.015625 0.078125,0.0625 0.140625,0.0625 0.125,0 0.203125,-0.078125 0.203125,-0.203125 0,-0.015625 0,-0.046875 -0.03125,-0.109375 C 6.234375,-0.421875 4.65625,-1.984375 4.15625,-2.5 l 1.828125,-1.8125 c 0.046875,-0.0625 0.203125,-0.1875 0.25,-0.25 0,-0.015625 0.046875,-0.0625 0.046875,-0.125 0,-0.125 -0.078125,-0.203125 -0.203125,-0.203125 C 6,-4.890625 5.96875,-4.859375 5.859375,-4.75 Z m 0,0"
   id="path2114" />
      </g></g><g
       fill="#000000"
       fill-opacity="1"
       id="g2138"
       transform="matrix(1.05833,0,0,1.05833,-109.40236,0.44265183)">
    <g
   transform="translate(181.081,134.765)"
   id="g2136"><path
   d="m 4.078125,-2.296875 h 2.78125 C 7,-2.296875 7.1875,-2.296875 7.1875,-2.5 7.1875,-2.6875 7,-2.6875 6.859375,-2.6875 h -2.78125 v -2.796875 c 0,-0.140625 0,-0.328125 -0.203125,-0.328125 -0.203125,0 -0.203125,0.1875 -0.203125,0.328125 V -2.6875 h -2.78125 c -0.140625,0 -0.328125,0 -0.328125,0.1875 0,0.203125 0.1875,0.203125 0.328125,0.203125 h 2.78125 V 0.5 c 0,0.140625 0,0.328125 0.203125,0.328125 0.203125,0 0.203125,-0.1875 0.203125,-0.328125 z m 0,0"
   id="path2134" />
      </g></g></g></svg>
